<svg width="162" height="80" viewBox="0 0 162 80" fill="none" xmlns="http://www.w3.org/2000/svg">
<g clip-path="url(#clip0_8521_142051)">
<path d="M82.7141 52.6303C96.4616 62.8601 118.093 51.0151 116.659 30.8572C119.656 47.8924 102.26 61.2664 88.1871 55.9685C86.1673 55.2147 84.2995 54.0733 82.7141 52.6303Z" fill="#6438BC"/>
<path d="M119.567 2.28564C121.728 6.54502 119.546 12.2464 116.084 15.7737C112.601 19.3453 107.86 20.9426 103.286 20.4989C107.587 20.1218 111.825 18.7242 115.371 14.9972C118.539 11.6696 120.742 6.81124 119.567 2.28564Z" fill="#6438BC"/>
<path d="M87.9414 12.6614C87.9414 12.6614 108.975 16.8512 110.313 0.244696C124.279 -2.76674 120.373 23.0923 92.0166 18.9025C91.5496 21.9576 91.3798 22.8087 91.3798 22.8087C91.3798 22.8087 113.517 17.1131 114.197 35.9455C114.6 46.7474 104.433 55.9781 93.8844 56C83.3356 56.0218 80.5763 48.515 84.2695 42.2303C89.5545 46.2237 106.45 44.4343 106.068 34.0688C105.685 23.7034 87.5806 29.0934 84.8001 30.2718C86.1585 22.9178 87.9414 12.6614 87.9414 12.6614Z" fill="#6438BC"/>
<path d="M140.644 56.252L161.571 41.6212H135.386L127.68 18.2856L133.154 44.7036H153.523L137.038 54.9712L143.628 73.3575L127.616 62.5254L111.926 77.8075L128.152 66.3242L148.307 79.9999L140.644 56.252ZM115.961 62.5471H13L112.699 65.4776L110.574 78.2633L115.961 62.5471ZM125.384 28.0757L128.603 33.6979L125.384 19.9788L120.919 38.6038L125.384 28.0757Z" fill="#00B4D8"/>
<path d="M20.2619 33.9629H0.487383V29.8603C0.487383 29.1515 1.06584 28.5715 1.77284 28.5715H21.5474V32.6741C21.5474 33.4045 20.9689 33.9629 20.2619 33.9629ZM0.444535 44.3161C0.423111 44.6168 0.423111 46.2278 0.444535 50.0512C1.15153 54.2397 4.55798 54.7982 5.13644 54.8411C5.67204 54.8626 20.0048 54.8626 21.4617 54.8411C21.5045 50.9963 17.841 49.6431 16.9197 49.5786C16.0199 49.5357 7.90016 49.5786 6.95749 49.5786C6.01483 49.5786 5.73631 48.5691 5.73631 48.2684C5.73631 47.9677 5.73631 44.3591 5.73631 44.3591H16.1699C19.1479 44.3591 21.5474 41.9534 21.5474 38.9677H5.86486C5.86486 38.9892 0.744474 44.0584 0.444535 44.3161ZM41.4933 54.4975H36.8443L35.6659 48.9557H29.7743L28.6816 54.4975H23.497L29.2815 29.3233H35.4303L41.4933 54.4975ZM34.509 43.5643L32.6237 34.2851L30.7384 43.5643H34.509ZM61.0965 54.3471C61.0965 54.3471 59.7896 54.7337 57.9042 54.8411C53.2338 54.7123 52.3982 49.7505 52.034 48.4832C51.6484 47.2159 50.9628 45.3686 50.9628 45.3686H49.0346V54.476H44.3213V29.3018C44.3213 29.3018 49.4417 29.3018 50.9842 29.3018C52.5054 29.3018 55.2048 28.8937 57.4329 30.698C59.661 32.5023 60.0252 35.1013 59.7682 38.9247C59.5111 42.7481 56.8973 43.951 55.3976 44.7457C55.3762 45.3686 56.2117 47.7099 56.9187 48.5691C57.6472 49.4712 60.2181 48.9772 60.2181 48.9772L61.0965 54.3471ZM55.2477 37.3782C55.2477 36.3257 54.4335 35.488 53.4052 35.488H49.1418V39.2684H53.4052C54.4335 39.2684 55.2477 38.4307 55.2477 37.3782ZM63.8173 54.476H68.5735L68.3593 38.2589L74.1652 54.476H79.2856V29.2804H74.5723L74.9151 44.2946L69.559 29.2804H63.8173V54.476Z" fill="#03060B"/>
</g>
<defs>
<clipPath id="clip0_8521_142051">
<rect width="161.143" height="80" fill="white" transform="translate(0.428467)"/>
</clipPath>
</defs>
</svg>
