<svg width="68" height="24" viewBox="0 0 68 24" fill="none" xmlns="http://www.w3.org/2000/svg">
<circle cx="7.5" cy="12" r="6.75" fill="#E80B26"/>
<circle cx="16.5" cy="12" r="6.75" fill="#F59D31"/>
<path d="M12 17.0311C13.381 15.7952 14.25 13.9991 14.25 11.9999C14.25 10.0008 13.381 8.20471 12 6.96875C10.619 8.20471 9.75 10.0008 9.75 11.9999C9.75 13.9991 10.619 15.7952 12 17.0311Z" fill="#FC6020"/>
<path fill-rule="evenodd" clip-rule="evenodd" d="M56.19 14.44C56.1961 12.9153 54.9386 12.2567 53.9627 11.7456C53.3449 11.4221 52.84 11.1577 52.84 10.77C52.84 10.44 53.16 10.09 53.84 10C54.6493 9.91993 55.4651 10.0617 56.2 10.41L56.62 8.41C55.9036 8.14136 55.1451 8.00252 54.38 8C52.02 8 50.38 9.26 50.38 11.06C50.38 12.39 51.57 13.13 52.47 13.57C53.37 14.01 53.72 14.32 53.71 14.72C53.71 15.34 52.97 15.62 52.28 15.63C51.4289 15.641 50.589 15.4344 49.84 15.03L49.41 17.03C50.2575 17.3608 51.1603 17.5271 52.07 17.52C54.58 17.52 56.23 16.28 56.24 14.36L56.19 14.44ZM49.7 8.16L47.7 17.41H45.3L47.3 8.16H49.7ZM59.76 14.16L61.02 10.69L61.75 14.16H59.76ZM64.65 17.44H62.43L62.14 16.06H59.13L58.64 17.44H56.12L59.71 8.87C59.8755 8.46225 60.27 8.19402 60.71 8.19H62.71L64.65 17.44ZM42.45 17.38L46.33 8.13H43.73L41.24 14.42L40.24 9.07C40.1515 8.52635 39.6808 8.12776 39.13 8.13H35.06L35 8.4C35.8163 8.55972 36.6093 8.82179 37.36 9.18C37.6798 9.33034 37.8964 9.63826 37.93 9.99L39.84 17.38H42.45Z" fill="#2A2A6C"/>
</svg>
