<svg width="138" height="36" viewBox="0 0 138 36" fill="none" xmlns="http://www.w3.org/2000/svg">
<g clip-path="url(#clip0_10056_152285)">
<path d="M10.15 12.6902C10.15 12.6902 17.15 2.69024 28.46 2.91024C24.97 2.07024 14.46 2.34023 7.01001 12.6902C7.81001 12.6902 10.15 12.6902 10.15 12.6902Z" fill="#6438BC"/>
<path d="M13.92 12.7098C13.92 12.7098 19.32 4.89982 26.6 3.81982C25.01 3.87982 17.83 4.35982 11.46 12.7098C12.44 12.7498 13.92 12.7098 13.92 12.7098Z" fill="#6438BC"/>
<path d="M7.01 20.3198C6.66583 21.6489 6.64526 23.0412 6.95 24.3798C7.88 28.3798 11.44 33.4798 21.87 31.0798C19.11 32.1998 11.67 34.7898 6.22001 30.0098C0.970005 25.4098 4.09 18.0898 4.09 18.0898L7.01 20.3198Z" fill="#6438BC"/>
<path d="M37.8 13.7699H23.38C23.38 13.7699 21.93 9.12992 21.29 7.16992C18.17 8.77992 14.58 13.6899 14.58 13.6899L0 13.7499L11.69 22.2699C11.69 22.2699 10.37 26.4099 9.90999 27.8299C11.2324 29.2259 12.9671 30.1616 14.86 30.4999L18.98 27.4999L30.57 35.9699L26.14 22.2699L37.8 13.7699ZM22.24 21.6499C22.33 24.1999 19.86 26.3799 17.3 26.3899C14.74 26.3999 14.06 24.6199 14.96 23.1399C16.25 24.0799 20.36 23.6599 20.27 21.2099C20.18 18.7599 15.77 20.0299 15.09 20.3099C15.42 18.5699 15.85 16.1399 15.85 16.1399C15.85 16.1399 20.97 17.1399 21.29 13.1999C24.69 12.4899 23.74 18.6099 16.84 17.6099C16.72 18.3399 16.69 18.5399 16.69 18.5399C16.69 18.5399 22.07 17.1899 22.24 21.6499Z" fill="#00B4D8"/>
<path d="M8.28003 32.5498C9.08837 32.9306 9.93706 33.2191 10.81 33.4098L7.22003 35.9898L8.28003 32.5498Z" fill="#00B4D8"/>
<path d="M18.05 3.06C18.5067 2.63482 19.106 2.39583 19.73 2.39C19.39 1.33 18.9 0 18.9 0L18.05 3.06Z" fill="#00B4D8"/>
<path d="M41.8 4.0498H50.01C50.09 4.45154 50.1302 4.86018 50.13 5.26981C50.1317 5.69274 50.0915 6.1148 50.01 6.52981H44.74V9.65981H48.93C49.0081 10.0719 49.0483 10.4903 49.05 10.9098C49.0502 11.3327 49.01 11.7546 48.93 12.1698H44.74V15.9798H50.16C50.2405 16.3848 50.2807 16.7969 50.28 17.2098C50.2817 17.6327 50.2415 18.0548 50.16 18.4698H41.8V4.0498Z" fill="#03060B"/>
<path d="M57.52 11.6499C57.5328 11.3806 57.4778 11.1124 57.36 10.8699C57.2602 10.6752 57.1077 10.5123 56.92 10.3999C56.7085 10.276 56.4735 10.1977 56.23 10.1699C55.9251 10.1283 55.6177 10.1083 55.31 10.1099C54.522 10.1211 53.7414 10.263 53 10.5299C52.8258 10.2107 52.6818 9.87591 52.57 9.52989C52.4714 9.17171 52.4243 8.80134 52.43 8.42989C53.006 8.23172 53.5982 8.08449 54.2 7.98989C54.7451 7.89737 55.297 7.85054 55.85 7.84989C57.0251 7.7761 58.1871 8.13144 59.12 8.84989C59.5417 9.26445 59.8663 9.76736 60.0703 10.3224C60.2744 10.8775 60.3528 11.4709 60.3 12.0599V18.0599C59.8333 18.1999 59.2633 18.3399 58.59 18.4799C57.8381 18.619 57.0746 18.686 56.31 18.6799C55.6788 18.6848 55.0488 18.6245 54.43 18.4999C53.9053 18.3986 53.4057 18.1947 52.96 17.8999C52.5558 17.6261 52.2314 17.25 52.02 16.8099C51.7776 16.3052 51.661 15.7494 51.68 15.1899C51.6635 14.621 51.8091 14.0591 52.1 13.5699C52.3714 13.1592 52.7342 12.817 53.16 12.5699C53.6117 12.3025 54.1053 12.1132 54.62 12.0099C55.1496 11.8995 55.689 11.8425 56.23 11.8399C56.6166 11.8399 57.0466 11.8599 57.52 11.8999V11.6599V11.6499ZM57.52 13.7099C57.36 13.7099 57.19 13.7099 57 13.6499C56.81 13.5899 56.64 13.6499 56.5 13.6499C55.9579 13.6233 55.4188 13.7443 54.94 13.9999C54.7488 14.1193 54.5938 14.2885 54.4917 14.4893C54.3895 14.6902 54.3439 14.9151 54.36 15.1399C54.3446 15.4248 54.4256 15.7066 54.59 15.9399C54.726 16.1222 54.9093 16.264 55.12 16.3499C55.3296 16.4394 55.5526 16.4934 55.78 16.5099H56.4C56.5997 16.5249 56.8003 16.5249 57 16.5099L57.52 16.4199V13.7099Z" fill="#03060B"/>
<path d="M62.67 8.09991L63.25 8.0099C63.4465 7.99917 63.6435 7.99917 63.84 8.0099C64.0397 7.99488 64.2403 7.99488 64.44 8.0099L65.01 8.1099C65.0615 8.20026 65.0986 8.2981 65.12 8.3999L65.21 8.7999C65.21 8.9399 65.21 9.0799 65.28 9.2199C65.35 9.3599 65.28 9.47991 65.33 9.56991C65.6384 9.14969 66.0054 8.77588 66.42 8.45991C66.8857 8.11909 67.4533 7.94633 68.03 7.9699H68.49C68.622 7.97287 68.7531 7.99305 68.88 8.02991C68.88 8.15991 68.88 8.31991 68.94 8.48991C69 8.65991 68.94 8.83991 68.94 9.02991C68.94 9.21991 68.94 9.5099 68.94 9.7699C68.9202 10.0254 68.8834 10.2793 68.83 10.5299C68.6635 10.5188 68.4965 10.5188 68.33 10.5299H68C67.742 10.5356 67.4847 10.559 67.23 10.5999C66.9343 10.6532 66.6581 10.7844 66.43 10.9799C66.1427 11.2177 65.9251 11.5286 65.8 11.8799C65.6093 12.4186 65.5244 12.989 65.55 13.5599V18.4999C65.3082 18.5376 65.0645 18.561 64.82 18.5699C64.58 18.5699 64.34 18.5699 64.11 18.5699C63.88 18.5699 63.65 18.5699 63.42 18.5699C63.19 18.5699 62.94 18.5699 62.69 18.4999V8.09991H62.67Z" fill="#03060B"/>
<path d="M70.61 8.0999C70.7948 8.05933 70.9818 8.02928 71.17 8.0099C71.3765 7.99921 71.5835 7.99921 71.79 8.0099C71.9932 7.99867 72.1968 7.99867 72.4 8.0099L72.94 8.0999C72.9915 8.19026 73.0286 8.2881 73.05 8.3899C73.05 8.5199 73.12 8.6499 73.15 8.7899C73.18 8.9299 73.2 9.0699 73.21 9.1999C73.22 9.3299 73.21 9.4499 73.27 9.5399C73.4113 9.32565 73.572 9.12481 73.75 8.9399C73.9438 8.73402 74.1621 8.55266 74.4 8.3999C74.6616 8.23099 74.944 8.09655 75.24 7.9999C75.5638 7.89929 75.901 7.8487 76.24 7.8499C76.7292 7.81617 77.2198 7.888 77.6788 8.06054C78.1377 8.23308 78.5542 8.50228 78.9 8.8499C79.5656 9.70166 79.8868 10.7724 79.8 11.8499V18.4699C79.3274 18.5491 78.8492 18.5893 78.37 18.5899C77.8909 18.5893 77.4126 18.5491 76.94 18.4699V12.5999C76.9713 12.0276 76.8578 11.4567 76.61 10.9399C76.4907 10.7439 76.3186 10.5856 76.1135 10.483C75.9083 10.3804 75.6783 10.3377 75.45 10.3599C75.2131 10.3595 74.9773 10.3932 74.75 10.4599C74.5008 10.5326 74.2739 10.6667 74.09 10.8499C73.8763 11.0825 73.7159 11.3589 73.62 11.6599C73.4871 12.104 73.4263 12.5665 73.44 13.0299V18.4599C72.9674 18.5387 72.4891 18.5788 72.01 18.5799C71.5309 18.5793 71.0526 18.5391 70.58 18.4599V8.0999H70.61Z" fill="#03060B"/>
<path d="M87.64 5.39014H94.87C94.945 5.78923 94.9852 6.19409 94.99 6.60014C94.9857 7.01615 94.9456 7.43102 94.87 7.84013H90.23L90.11 10.7101C90.3228 10.6533 90.5404 10.6164 90.76 10.6001C90.9532 10.5895 91.1468 10.5895 91.34 10.6001C91.9479 10.5957 92.5525 10.6903 93.13 10.8801C93.6435 11.0415 94.1148 11.3147 94.51 11.6801C94.9007 12.0471 95.2076 12.4939 95.41 12.9901C95.6315 13.564 95.7402 14.1751 95.73 14.7901C95.7472 15.5427 95.6005 16.29 95.3 16.9801C95.0214 17.597 94.5997 18.1387 94.07 18.5601C93.4976 19.0211 92.8376 19.3613 92.13 19.5601C91.3018 19.7818 90.4473 19.8894 89.59 19.8801H88.93C88.67 19.8801 88.39 19.8301 88.09 19.7801C87.79 19.7301 87.47 19.6701 87.09 19.5901C86.71 19.5101 86.44 19.4101 86.09 19.3101C86.1265 18.8911 86.2138 18.4781 86.35 18.0801C86.48 17.6801 86.63 17.2901 86.79 16.9001C87.226 17.0512 87.67 17.178 88.12 17.2801C88.5563 17.3787 89.0027 17.4257 89.45 17.4201C89.9607 17.4321 90.4701 17.3646 90.96 17.2201C91.3248 17.1106 91.6646 16.9305 91.96 16.6901C92.1974 16.4829 92.3824 16.2225 92.5 15.9301C92.608 15.6425 92.6622 15.3374 92.66 15.0301C92.6738 14.7343 92.6218 14.4392 92.5077 14.1659C92.3935 13.8927 92.2201 13.6482 92 13.4501C91.3683 13.0236 90.6096 12.826 89.85 12.8901C89.4672 12.8861 89.085 12.923 88.71 13.0001C88.3204 13.0775 87.9435 13.2088 87.59 13.3901L87.29 13.1501L87.59 5.49014L87.64 5.39014Z" fill="#03060B"/>
<path d="M105.35 11.7901C104.929 11.6238 104.519 11.4335 104.12 11.2201C103.774 11.0229 103.463 10.7694 103.2 10.4701C102.935 10.1805 102.731 9.8404 102.6 9.47012C102.45 9.00518 102.379 8.51847 102.39 8.03012C102.379 7.409 102.499 6.79249 102.74 6.22012C102.968 5.71219 103.31 5.26384 103.74 4.91012C104.197 4.54036 104.724 4.26809 105.29 4.11012C105.94 3.92507 106.614 3.83415 107.29 3.84012C107.934 3.83579 108.578 3.8961 109.21 4.02012C109.851 4.14974 110.483 4.32348 111.1 4.54012C111.015 5.33155 110.795 6.10261 110.45 6.82012L109.84 6.58012C109.624 6.50156 109.403 6.4348 109.18 6.38012C108.94 6.38012 108.67 6.29012 108.38 6.25012C108.047 6.23345 107.713 6.23345 107.38 6.25012C107.149 6.25067 106.918 6.27074 106.69 6.31012C106.469 6.34766 106.256 6.42202 106.06 6.53012C105.868 6.6471 105.707 6.80824 105.59 7.00012C105.459 7.25305 105.397 7.53576 105.41 7.82012C105.404 8.05133 105.452 8.2808 105.55 8.49012C105.649 8.66722 105.782 8.82343 105.94 8.95012C106.105 9.07987 106.287 9.18745 106.48 9.27012L107.09 9.52012L108.29 9.98012C108.764 10.1619 109.228 10.3689 109.68 10.6001C110.076 10.8014 110.434 11.0685 110.74 11.3901C111.038 11.7268 111.268 12.1171 111.42 12.5401C111.592 13.0728 111.673 13.6306 111.66 14.1901C111.665 14.8331 111.535 15.4699 111.28 16.0601C111.041 16.6171 110.674 17.1103 110.21 17.5001C109.698 17.9262 109.107 18.2458 108.47 18.4401C107.697 18.6833 106.89 18.8014 106.08 18.7901C105.64 18.7901 105.24 18.7901 104.89 18.7901C104.554 18.7684 104.22 18.725 103.89 18.6601C103.576 18.6024 103.265 18.5256 102.96 18.4301C102.621 18.3355 102.287 18.222 101.96 18.0901C102.007 17.6824 102.08 17.2782 102.18 16.8801C102.29 16.4601 102.42 16.0301 102.57 15.6101C103.088 15.8166 103.619 15.987 104.16 16.1201C104.682 16.2352 105.215 16.2923 105.75 16.2901C106.448 16.3276 107.142 16.1645 107.75 15.8201C107.985 15.6637 108.175 15.4485 108.302 15.1959C108.428 14.9433 108.486 14.6621 108.47 14.3801C108.483 14.1033 108.425 13.8277 108.3 13.5801C108.191 13.3727 108.041 13.1892 107.86 13.0401C107.674 12.8901 107.469 12.7657 107.25 12.6701L106.54 12.3801L105.31 11.9101L105.35 11.7901Z" fill="#03060B"/>
<path d="M113.87 10.2701H112.56L112.46 9.87008L116.22 5.08008H116.68V8.08008H119.12C119.158 8.25813 119.185 8.43852 119.2 8.62008C119.2 8.78008 119.2 8.95008 119.2 9.12008C119.2 9.29008 119.2 9.49008 119.2 9.66008C119.186 9.85496 119.159 10.0487 119.12 10.2401H116.68V14.3201C116.673 14.6568 116.71 14.9929 116.79 15.3201C116.837 15.5405 116.936 15.7463 117.08 15.9201C117.2 16.0689 117.365 16.1743 117.55 16.2201C117.766 16.275 117.987 16.3019 118.21 16.3001C118.41 16.3153 118.61 16.3153 118.81 16.3001L119.32 16.2101C119.412 16.4662 119.479 16.7308 119.52 17.0001C119.557 17.2417 119.578 17.4856 119.58 17.7301C119.58 17.8801 119.58 18.0001 119.58 18.1001C119.59 18.1965 119.59 18.2937 119.58 18.3901C118.955 18.5399 118.313 18.6138 117.67 18.6101C116.664 18.6798 115.667 18.3773 114.87 17.7601C114.513 17.3961 114.239 16.9592 114.066 16.4794C113.894 15.9996 113.827 15.4881 113.87 14.9801V10.2701Z" fill="#03060B"/>
<path d="M126.37 11.65C126.378 11.3812 126.323 11.1142 126.21 10.87C126.106 10.6749 125.95 10.5123 125.76 10.4C125.549 10.2762 125.313 10.1978 125.07 10.17C124.765 10.1281 124.458 10.1081 124.15 10.11C123.362 10.1221 122.582 10.2641 121.84 10.53C121.664 10.2129 121.523 9.8776 121.42 9.53003C121.317 9.17282 121.269 8.80173 121.28 8.43003C121.856 8.23186 122.448 8.08463 123.05 7.99003C123.595 7.89708 124.147 7.85025 124.7 7.85003C125.875 7.77988 127.035 8.13484 127.97 8.85003C128.392 9.26458 128.716 9.76749 128.92 10.3226C129.124 10.8776 129.203 11.471 129.15 12.06V18.06C128.68 18.2 128.15 18.34 127.43 18.48C126.681 18.6192 125.921 18.6861 125.16 18.68C124.525 18.6849 123.892 18.6246 123.27 18.5C122.748 18.4006 122.251 18.1965 121.81 17.9C121.384 17.6337 121.039 17.257 120.81 16.81C120.605 16.3234 120.509 15.7977 120.53 15.27C120.51 14.7021 120.653 14.1403 120.94 13.65C121.213 13.2368 121.579 12.894 122.01 12.65C122.458 12.3826 122.948 12.1933 123.46 12.09C123.993 11.9791 124.536 11.9221 125.08 11.92C125.47 11.92 125.89 11.92 126.36 11.98V11.74L126.37 11.65ZM126.37 13.71C126.21 13.71 126.03 13.71 125.84 13.65C125.673 13.6413 125.507 13.6413 125.34 13.65C124.798 13.6234 124.259 13.7444 123.78 14C123.591 14.1214 123.439 14.2913 123.339 14.4919C123.238 14.6925 123.194 14.9164 123.21 15.14C123.192 15.4238 123.269 15.7055 123.43 15.94C123.568 16.1203 123.751 16.2616 123.96 16.35C124.173 16.4395 124.399 16.4936 124.63 16.51H125.24C125.44 16.525 125.64 16.525 125.84 16.51L126.37 16.42V13.71Z" fill="#03060B"/>
<path d="M131.52 8.10023L132.09 8.01023C132.29 7.99925 132.49 7.99925 132.69 8.01023C132.886 7.99498 133.084 7.99498 133.28 8.01023L133.86 8.11023C133.907 8.20278 133.944 8.29998 133.97 8.40023L134.06 8.80023C134.06 8.94023 134.06 9.08023 134.13 9.22023C134.2 9.36023 134.13 9.48024 134.13 9.57024C134.435 9.15018 134.798 8.77632 135.21 8.46023C135.692 8.11418 136.278 7.94466 136.87 7.98023H137.33C137.459 7.98302 137.587 8.0032 137.71 8.04023C137.742 8.19168 137.763 8.34553 137.77 8.50024C137.77 8.67024 137.77 8.85023 137.77 9.04023C137.77 9.23023 137.77 9.52023 137.77 9.78023C137.75 10.0357 137.713 10.2896 137.66 10.5402C137.497 10.5291 137.333 10.5291 137.17 10.5402H136.87C136.615 10.5464 136.361 10.5698 136.11 10.6102C135.812 10.6654 135.533 10.7963 135.3 10.9902C135.019 11.2336 134.802 11.5428 134.67 11.8902C134.479 12.4289 134.394 12.9994 134.42 13.5702V18.5102C134.182 18.5484 133.941 18.5718 133.7 18.5802C133.46 18.5802 133.22 18.5802 132.99 18.5802C132.76 18.5802 132.53 18.5802 132.3 18.5802C132.07 18.5802 131.82 18.5802 131.56 18.5102V8.10023H131.52Z" fill="#03060B"/>
<path d="M45.13 30.05C45.2931 30.0606 45.4568 30.0606 45.62 30.05L46.04 29.98C46.1656 29.9475 46.2892 29.9074 46.41 29.86L46.76 29.7V28.27H45.76C45.7146 28.2853 45.6654 28.2853 45.62 28.27C45.6054 28.2314 45.6054 28.1887 45.62 28.15V27.67H47.62V30.09C47.4571 30.2017 47.2867 30.3019 47.11 30.39C46.923 30.4764 46.7289 30.5466 46.53 30.6C46.314 30.6615 46.0932 30.705 45.87 30.73C45.64 30.73 45.39 30.73 45.12 30.73C44.6687 30.7354 44.2205 30.6539 43.8 30.49C43.4257 30.3395 43.0855 30.115 42.8 29.83C42.5056 29.5482 42.2739 29.2074 42.12 28.83C41.9552 28.4132 41.8736 27.9682 41.88 27.52C41.8746 27.072 41.9562 26.6271 42.12 26.21C42.2704 25.8332 42.4987 25.4924 42.79 25.21C43.0982 24.9197 43.4622 24.6951 43.86 24.55C44.2768 24.3805 44.7203 24.2857 45.17 24.27C45.4131 24.2537 45.6569 24.2537 45.9 24.27C46.1111 24.3043 46.3186 24.3579 46.52 24.43C46.7071 24.497 46.8878 24.5807 47.06 24.68C47.2203 24.779 47.371 24.8928 47.51 25.02L47.26 25.4C47.238 25.4362 47.2072 25.4661 47.1705 25.4871C47.1337 25.5081 47.0923 25.5194 47.05 25.52C46.9979 25.5362 46.9421 25.5362 46.89 25.52L46.63 25.37C46.5204 25.309 46.4068 25.2555 46.29 25.21C46.1316 25.1476 45.9675 25.1007 45.8 25.07C45.5828 25.0265 45.3615 25.0064 45.14 25.01C44.7992 25.0069 44.4606 25.0644 44.14 25.18C43.849 25.2867 43.5858 25.4576 43.37 25.68C43.1489 25.9028 42.9813 26.1729 42.88 26.47C42.767 26.7913 42.7095 27.1295 42.71 27.47C42.7071 27.8336 42.7646 28.1952 42.88 28.54C42.99 28.8352 43.1603 29.1042 43.38 29.33C43.5964 29.5517 43.8594 29.7225 44.15 29.83C44.4698 29.9484 44.809 30.0061 45.15 30L45.13 30.05Z" fill="#949DB2"/>
<path d="M49.87 30.6698V26.2098H50.34C50.3981 26.1884 50.4619 26.1884 50.52 26.2098C50.5641 26.2555 50.5891 26.3163 50.59 26.3798L50.65 27.0698C50.7879 26.7843 50.9898 26.5345 51.24 26.3398C51.4811 26.1653 51.7724 26.074 52.07 26.0798C52.1861 26.0639 52.3039 26.0639 52.42 26.0798C52.5206 26.1094 52.6179 26.1496 52.71 26.1998L52.6 26.7898C52.593 26.8215 52.5753 26.8499 52.5497 26.8699C52.5242 26.89 52.4925 26.9005 52.46 26.8998C52.3936 26.9082 52.3264 26.9082 52.26 26.8998C52.137 26.886 52.0129 26.886 51.89 26.8998C51.6291 26.8918 51.3739 26.9769 51.17 27.1398C50.9589 27.3297 50.7946 27.5658 50.69 27.8298V30.6698H49.87Z" fill="#949DB2"/>
<path d="M56.44 26.1402C56.7541 26.1335 57.0666 26.1879 57.36 26.3002C57.6273 26.3992 57.8672 26.5603 58.06 26.7702C58.2562 26.9762 58.4062 27.2216 58.5 27.4902C58.6186 27.8097 58.673 28.1496 58.66 28.4902C58.673 28.8308 58.6186 29.1706 58.5 29.4902C58.4095 29.7603 58.2591 30.0064 58.06 30.2102C57.8666 30.417 57.6266 30.5747 57.36 30.6702C57.0666 30.7825 56.7541 30.8368 56.44 30.8302C56.1259 30.8368 55.8134 30.7825 55.52 30.6702C55.2518 30.5722 55.0091 30.4149 54.81 30.2102C54.6138 30.0042 54.4638 29.7588 54.37 29.4902C54.2514 29.1706 54.197 28.8308 54.21 28.4902C54.197 28.1496 54.2514 27.8097 54.37 27.4902C54.4638 27.2216 54.6138 26.9762 54.81 26.7702C55.0102 26.5644 55.2523 26.4041 55.52 26.3002C55.8134 26.1879 56.1259 26.1335 56.44 26.1402ZM56.44 30.1402C56.6293 30.1488 56.8181 30.1136 56.9916 30.0373C57.165 29.961 57.3185 29.8456 57.44 29.7002C57.6868 29.3355 57.8063 28.8997 57.78 28.4602C57.8063 28.0207 57.6868 27.5848 57.44 27.2202C57.3205 27.0717 57.1677 26.9536 56.9939 26.8754C56.8201 26.7972 56.6304 26.7612 56.44 26.7702C56.2304 26.7653 56.0222 26.8063 55.83 26.8902C55.6646 26.968 55.5179 27.0805 55.4 27.2202C55.28 27.3784 55.1917 27.5584 55.14 27.7502C55.0859 27.983 55.0591 28.2212 55.06 28.4602C55.0583 28.6992 55.0852 28.9376 55.14 29.1702C55.1917 29.362 55.28 29.5419 55.4 29.7002C55.5179 29.8399 55.6646 29.9524 55.83 30.0302C56.0244 30.1058 56.2315 30.1431 56.44 30.1402Z" fill="#949DB2"/>
<path d="M60.08 26.2102H60.72C60.7749 26.1904 60.8351 26.1904 60.89 26.2102C60.9281 26.237 60.9563 26.2757 60.97 26.3202L61.87 29.1902C61.8875 29.2948 61.9109 29.3983 61.94 29.5002C61.94 29.6002 61.94 29.7002 61.99 29.8002C61.99 29.7002 61.99 29.6002 62.08 29.5002L62.17 29.1902L63.17 26.3002C63.1837 26.2557 63.2119 26.217 63.25 26.1902C63.296 26.1788 63.344 26.1788 63.39 26.1902H63.75C63.7987 26.1742 63.8513 26.1742 63.9 26.1902C63.9381 26.217 63.9663 26.2557 63.98 26.3002L64.98 29.1902C64.98 29.3002 65.05 29.4002 65.08 29.5002C65.11 29.6002 65.13 29.7002 65.15 29.7902C65.15 29.7002 65.15 29.5902 65.21 29.4902C65.2307 29.3888 65.2575 29.2886 65.29 29.1902L66.2 26.3202C66.2147 26.2733 66.2469 26.2339 66.29 26.2102C66.3381 26.1908 66.3919 26.1908 66.44 26.2102H67.06L65.54 30.6702H64.87C64.8288 30.6685 64.7894 30.6527 64.7584 30.6254C64.7275 30.5981 64.7069 30.5609 64.7 30.5202L63.7 27.5202L63.64 27.3202C63.6281 27.2492 63.6114 27.179 63.59 27.1102C63.59 27.1802 63.59 27.2502 63.59 27.3202L63.53 27.5302L62.53 30.5302C62.5227 30.5744 62.4991 30.6142 62.464 30.642C62.4289 30.6697 62.3847 30.6833 62.34 30.6802H61.73L60.22 26.2202L60.08 26.2102Z" fill="#949DB2"/>
<path d="M72.87 31.9902C72.8415 32.0427 72.8043 32.0901 72.76 32.1302C72.6982 32.1501 72.6318 32.1501 72.57 32.1302H71.97L72.82 30.3602L70.89 26.1602H71.6C71.6554 26.1432 71.7146 26.1432 71.77 26.1602C71.8081 26.1894 71.8389 26.2271 71.86 26.2702L73.11 29.0802C73.11 29.1502 73.16 29.2102 73.18 29.2802C73.2 29.3502 73.18 29.4102 73.23 29.4802L73.29 29.2802L73.37 29.0802L74.58 26.2702C74.6011 26.2271 74.6319 26.1894 74.67 26.1602C74.7192 26.1475 74.7708 26.1475 74.82 26.1602H75.47L72.87 31.9402V31.9902Z" fill="#949DB2"/>
<path d="M79.03 26.1402C79.3473 26.1345 79.6628 26.1888 79.96 26.3002C80.2221 26.4045 80.4603 26.561 80.66 26.7602C80.8574 26.9691 81.0075 27.2181 81.1 27.4902C81.2096 27.8118 81.2604 28.1506 81.25 28.4902C81.2604 28.8298 81.2096 29.1686 81.1 29.4902C81.0062 29.7588 80.8562 30.0042 80.66 30.2102C80.4603 30.4094 80.2221 30.5659 79.96 30.6702C79.6628 30.7816 79.3473 30.8359 79.03 30.8302C78.7159 30.8368 78.4034 30.7825 78.11 30.6702C77.8468 30.568 77.6082 30.4112 77.41 30.2102C77.2079 30.007 77.0541 29.7609 76.96 29.4902C76.8504 29.1686 76.7996 28.8298 76.81 28.4902C76.7996 28.1506 76.8504 27.8118 76.96 27.4902C77.0554 27.2172 77.209 26.9681 77.41 26.7602C77.6106 26.562 77.8485 26.4057 78.11 26.3002C78.4034 26.1879 78.7159 26.1335 79.03 26.1402ZM79.03 30.1402C79.2194 30.1496 79.4084 30.1148 79.582 30.0384C79.7556 29.962 79.909 29.8462 80.03 29.7002C80.2767 29.3355 80.3962 28.8997 80.37 28.4602C80.3962 28.0207 80.2767 27.5848 80.03 27.2202C79.9111 27.0711 79.7583 26.9525 79.5844 26.8743C79.4105 26.796 79.2204 26.7603 79.03 26.7702C78.8236 26.7655 78.6187 26.8064 78.43 26.8902C78.2554 26.9569 78.1029 27.0712 77.99 27.2202C77.8694 27.3768 77.7841 27.5576 77.74 27.7502C77.6774 27.9816 77.6471 28.2205 77.65 28.4602C77.6465 28.6999 77.6768 28.9389 77.74 29.1702C77.7841 29.3628 77.8694 29.5436 77.99 29.7002C78.1096 29.8422 78.2601 29.9551 78.43 30.0302C78.6209 30.1057 78.8247 30.1431 79.03 30.1402Z" fill="#949DB2"/>
<path d="M83.99 26.2102V29.0502C83.9722 29.3338 84.0575 29.6144 84.23 29.8402C84.3278 29.9347 84.4439 30.0084 84.5711 30.0565C84.6983 30.1046 84.8341 30.1263 84.97 30.1202C85.2039 30.1196 85.4341 30.0612 85.64 29.9502C85.8601 29.8337 86.0594 29.6817 86.23 29.5002V26.2102H87.05V30.6702H86.56C86.5089 30.6736 86.4583 30.6581 86.4178 30.6268C86.3773 30.5955 86.3496 30.5505 86.34 30.5002L86.28 30.0202C86.084 30.2303 85.8541 30.4061 85.6 30.5402C85.3305 30.6765 85.0319 30.7451 84.73 30.7402C84.5009 30.7447 84.2732 30.7039 84.06 30.6202C83.8708 30.5448 83.7026 30.4247 83.57 30.2702C83.4333 30.1169 83.331 29.9362 83.27 29.7402C83.2046 29.516 83.1709 29.2837 83.17 29.0502V26.2002H83.99V26.2102Z" fill="#949DB2"/>
<path d="M89.41 30.6698V26.2098H89.88C89.97 26.2098 90.03 26.2098 90.06 26.2098C90.1026 26.2525 90.1276 26.3096 90.13 26.3698L90.19 27.0698C90.3285 26.7847 90.5303 26.535 90.78 26.3398C91.0217 26.1666 91.3126 26.0754 91.61 26.0798C91.7261 26.0639 91.8439 26.0639 91.96 26.0798C92.0606 26.1094 92.1578 26.1496 92.25 26.1998L92.14 26.7798C92.135 26.8125 92.1178 26.8421 92.0918 26.8625C92.0658 26.883 92.0329 26.8927 92 26.8898C91.9337 26.8997 91.8663 26.8997 91.8 26.8898C91.6774 26.871 91.5526 26.871 91.43 26.8898C91.1691 26.8819 90.9139 26.9669 90.71 27.1298C90.499 27.3177 90.3376 27.5547 90.24 27.8198V30.6598H89.41V30.6698Z" fill="#949DB2"/>
<path d="M96.95 30.6702V24.1802H97.78V26.8502C97.9677 26.642 98.1912 26.4693 98.44 26.3402C98.7063 26.2051 99.0014 26.1365 99.3 26.1402C99.5502 26.1383 99.7983 26.1859 100.03 26.2802C100.249 26.3798 100.441 26.5307 100.59 26.7202C100.755 26.9312 100.877 27.1724 100.95 27.4302C101.036 27.7564 101.076 28.0929 101.07 28.4302C101.071 28.7423 101.024 29.0527 100.93 29.3502C100.847 29.6211 100.711 29.8727 100.53 30.0902C100.357 30.296 100.142 30.463 99.9 30.5802C99.6318 30.6959 99.3421 30.7538 99.05 30.7502C98.7873 30.7609 98.5261 30.7059 98.29 30.5902C98.0763 30.473 97.889 30.313 97.74 30.1202V30.5302C97.7303 30.5797 97.7022 30.6237 97.6614 30.6533C97.6206 30.683 97.5701 30.6962 97.52 30.6902L96.95 30.6702ZM99.03 26.7602C98.7845 26.7544 98.5423 26.8167 98.33 26.9402C98.1135 27.07 97.9234 27.2396 97.77 27.4402V29.6002C97.8976 29.7746 98.0658 29.9153 98.26 30.0102C98.4493 30.0921 98.6538 30.133 98.86 30.1302C99.0504 30.1392 99.2401 30.1032 99.4139 30.025C99.5877 29.9468 99.7405 29.8286 99.86 29.6802C100.117 29.3085 100.24 28.8609 100.21 28.4102C100.213 28.1579 100.186 27.9062 100.13 27.6602C100.083 27.4766 100.001 27.3036 99.89 27.1502C99.7956 27.0214 99.6676 26.9211 99.52 26.8602C99.3615 26.7944 99.1916 26.7604 99.02 26.7602H99.03Z" fill="#949DB2"/>
<path d="M103.79 26.2102V29.0502C103.772 29.3338 103.857 29.6144 104.03 29.8402C104.128 29.9347 104.244 30.0084 104.371 30.0565C104.498 30.1046 104.634 30.1263 104.77 30.1202C105.007 30.1196 105.24 30.0612 105.45 29.9502C105.667 29.8334 105.863 29.6813 106.03 29.5002V26.2102H106.85V30.6702H106.37C106.318 30.6739 106.266 30.6588 106.224 30.6277C106.181 30.5965 106.152 30.5513 106.14 30.5002L106.08 30.0202C105.886 30.2326 105.656 30.4086 105.4 30.5402C105.131 30.6765 104.832 30.7451 104.53 30.7402C104.301 30.7447 104.073 30.7039 103.86 30.6202C103.673 30.5413 103.505 30.4218 103.37 30.2702C103.233 30.1169 103.131 29.9362 103.07 29.7402C103.008 29.5155 102.978 29.2833 102.98 29.0502V26.2002H103.79V26.2102Z" fill="#949DB2"/>
<path d="M111.87 26.9398C111.856 26.9721 111.831 26.999 111.801 27.017C111.771 27.0349 111.735 27.0429 111.7 27.0398C111.651 27.05 111.599 27.05 111.55 27.0398L111.33 26.9298C111.233 26.8866 111.132 26.8499 111.03 26.8198C110.894 26.8026 110.756 26.8026 110.62 26.8198C110.494 26.8032 110.366 26.8032 110.24 26.8198C110.14 26.8515 110.045 26.8987 109.96 26.9598C109.887 27.0136 109.826 27.0816 109.78 27.1598C109.74 27.2406 109.72 27.3296 109.72 27.4198C109.715 27.5227 109.751 27.6233 109.82 27.6998C109.897 27.7873 109.992 27.8557 110.1 27.8998C110.221 27.9634 110.348 28.0137 110.48 28.0498L110.93 28.1898L111.37 28.3498C111.51 28.4028 111.642 28.477 111.76 28.5698C111.873 28.6543 111.966 28.7638 112.03 28.8898C112.103 29.0321 112.141 29.1899 112.14 29.3498C112.143 29.5464 112.102 29.7411 112.02 29.9198C111.946 30.0987 111.829 30.2567 111.68 30.3798C111.519 30.5167 111.332 30.6188 111.13 30.6798C110.884 30.7555 110.628 30.7926 110.37 30.7898C110.07 30.7939 109.772 30.743 109.49 30.6398C109.245 30.5507 109.018 30.4186 108.82 30.2498L109.01 29.9498C109.032 29.9128 109.063 29.8819 109.1 29.8598C109.143 29.8483 109.187 29.8483 109.23 29.8598C109.291 29.8631 109.35 29.8839 109.4 29.9198C109.474 29.9674 109.551 30.0108 109.63 30.0498C109.731 30.1079 109.839 30.1549 109.95 30.1898C110.099 30.234 110.254 30.2543 110.41 30.2498C110.552 30.2524 110.694 30.2321 110.83 30.1898C110.94 30.1569 111.042 30.1026 111.13 30.0298C111.206 29.9675 111.268 29.8889 111.31 29.7998C111.349 29.7115 111.369 29.6162 111.37 29.5198C111.374 29.4063 111.334 29.2955 111.26 29.2098C111.183 29.1248 111.091 29.0538 110.99 28.9998C110.865 28.9388 110.734 28.8886 110.6 28.8498L110.15 28.7198L109.71 28.5598C109.569 28.5034 109.438 28.4259 109.32 28.3298C109.201 28.2405 109.105 28.1239 109.04 27.9898C108.967 27.8406 108.933 27.6756 108.94 27.5098C108.942 27.3373 108.979 27.1671 109.05 27.0098C109.126 26.852 109.236 26.7123 109.37 26.5998C109.516 26.4615 109.685 26.3499 109.87 26.2698C110.099 26.1945 110.339 26.1573 110.58 26.1598C110.863 26.1574 111.144 26.2048 111.41 26.2998C111.642 26.3864 111.855 26.5153 112.04 26.6798L111.86 26.9698L111.87 26.9398Z" fill="#949DB2"/>
<path d="M115.32 24.8001C115.335 24.8726 115.335 24.9475 115.32 25.0201C115.286 25.0831 115.242 25.1404 115.19 25.1901C115.132 25.2413 115.069 25.285 115 25.3201C114.927 25.3305 114.853 25.3305 114.78 25.3201C114.708 25.3361 114.632 25.3361 114.56 25.3201L114.37 25.1901C114.321 25.1401 114.281 25.0827 114.25 25.0201C114.235 24.9475 114.235 24.8726 114.25 24.8001C114.23 24.7315 114.23 24.6587 114.25 24.5901C114.274 24.521 114.316 24.4591 114.37 24.4101C114.424 24.3547 114.489 24.3105 114.56 24.2801C114.632 24.2641 114.708 24.2641 114.78 24.2801C114.853 24.265 114.927 24.265 115 24.2801C115.073 24.308 115.138 24.3525 115.19 24.4101C115.244 24.4613 115.288 24.5224 115.32 24.5901C115.335 24.6593 115.335 24.7309 115.32 24.8001ZM115.13 26.2101V30.6701H114.31V26.2101H115.13Z" fill="#949DB2"/>
<path d="M117.59 30.67V26.21H118.08C118.13 26.204 118.181 26.2171 118.221 26.2468C118.262 26.2765 118.29 26.3205 118.3 26.37L118.36 26.86C118.556 26.6498 118.786 26.4741 119.04 26.34C119.309 26.2037 119.608 26.135 119.91 26.14C120.139 26.1355 120.367 26.1763 120.58 26.26C120.769 26.3314 120.937 26.4482 121.07 26.6C121.205 26.7583 121.307 26.9419 121.37 27.14C121.435 27.3642 121.469 27.5964 121.47 27.83V30.67H120.65V27.83C120.671 27.5474 120.582 27.2676 120.4 27.05C120.308 26.9508 120.194 26.8741 120.067 26.8255C119.941 26.777 119.805 26.758 119.67 26.77C119.434 26.7659 119.2 26.8209 118.99 26.93C118.77 27.0501 118.57 27.2055 118.4 27.39V30.67H117.59Z" fill="#949DB2"/>
<path d="M125.57 26.1398C125.833 26.1348 126.094 26.1789 126.34 26.2698C126.572 26.3538 126.784 26.4868 126.96 26.6598C127.133 26.8382 127.269 27.0488 127.36 27.2798C127.46 27.5518 127.507 27.8402 127.5 28.1298C127.523 28.2116 127.523 28.298 127.5 28.3798C127.483 28.4022 127.459 28.4196 127.433 28.4301C127.407 28.4406 127.378 28.444 127.35 28.4398H124.24C124.244 28.6877 124.284 28.9336 124.36 29.1698C124.428 29.3647 124.534 29.5446 124.67 29.6998C124.797 29.8373 124.955 29.9435 125.13 30.0098C125.322 30.0809 125.525 30.1149 125.73 30.1098C125.909 30.1125 126.087 30.0923 126.26 30.0498L126.64 29.8998C126.733 29.8544 126.823 29.8044 126.91 29.7498C126.967 29.7123 127.032 29.6884 127.1 29.6798C127.13 29.6777 127.16 29.6841 127.187 29.6982C127.213 29.7124 127.235 29.7337 127.25 29.7598L127.48 30.0398C127.377 30.161 127.255 30.2656 127.12 30.3498C126.98 30.4397 126.829 30.5103 126.67 30.5598C126.507 30.6171 126.34 30.6606 126.17 30.6898C126 30.7043 125.83 30.7043 125.66 30.6898C125.354 30.6928 125.049 30.642 124.76 30.5398C124.498 30.4355 124.26 30.279 124.06 30.0798C123.853 29.867 123.696 29.6108 123.6 29.3298C123.487 29.0085 123.429 28.6703 123.43 28.3298C123.428 28.0332 123.479 27.7385 123.58 27.4598C123.672 27.1956 123.819 26.9538 124.01 26.7498C124.204 26.5485 124.44 26.3916 124.7 26.2898C124.989 26.1741 125.298 26.1163 125.61 26.1198L125.57 26.1398ZM125.57 26.7098C125.401 26.6994 125.231 26.7232 125.071 26.7799C124.912 26.8366 124.765 26.925 124.64 27.0398C124.398 27.2859 124.247 27.6066 124.21 27.9498H126.75C126.75 27.7799 126.723 27.6111 126.67 27.4498C126.621 27.3051 126.543 27.1722 126.44 27.0598C126.334 26.951 126.208 26.8628 126.07 26.7998C125.917 26.7392 125.754 26.7087 125.59 26.7098H125.57Z" fill="#949DB2"/>
<path d="M132.23 26.9401C132.214 26.9715 132.19 26.9977 132.16 27.0154C132.13 27.0332 132.095 27.0418 132.06 27.0401C132.007 27.0517 131.953 27.0517 131.9 27.0401L131.69 26.9301L131.39 26.8201C131.254 26.8035 131.116 26.8035 130.98 26.8201C130.854 26.8035 130.726 26.8035 130.6 26.8201C130.5 26.8518 130.405 26.899 130.32 26.9601C130.247 27.0139 130.186 27.0819 130.14 27.1601C130.1 27.2409 130.08 27.3299 130.08 27.4201C130.075 27.523 130.111 27.6236 130.18 27.7001C130.257 27.7875 130.352 27.856 130.46 27.9001C130.581 27.9637 130.708 28.014 130.84 28.0501L131.29 28.1901L131.73 28.3501C131.87 28.4031 132.002 28.4773 132.12 28.5701C132.232 28.6565 132.324 28.7656 132.39 28.8901C132.463 29.0324 132.501 29.1902 132.5 29.3501C132.503 29.5466 132.462 29.7414 132.38 29.9201C132.303 30.0971 132.187 30.2544 132.04 30.3801C131.878 30.5149 131.691 30.6168 131.49 30.6801C131.244 30.7558 130.987 30.7929 130.73 30.7901C130.43 30.7942 130.132 30.7433 129.85 30.6401C129.605 30.551 129.378 30.4189 129.18 30.2501L129.37 29.9501C129.389 29.9111 129.421 29.8795 129.46 29.8601C129.503 29.8486 129.547 29.8486 129.59 29.8601C129.655 29.8614 129.717 29.8823 129.77 29.9201C129.839 29.9699 129.913 30.0134 129.99 30.0501C130.091 30.1082 130.199 30.1551 130.31 30.1901C130.459 30.2336 130.614 30.2539 130.77 30.2501C130.912 30.2527 131.054 30.2324 131.19 30.1901C131.3 30.1572 131.402 30.1028 131.49 30.0301C131.566 29.9678 131.628 29.8892 131.67 29.8001C131.709 29.7118 131.729 29.6165 131.73 29.5201C131.734 29.4066 131.694 29.2958 131.62 29.2101C131.545 29.1223 131.453 29.0508 131.35 29.0001C131.225 28.9391 131.094 28.8889 130.96 28.8501L130.52 28.7201C130.367 28.6744 130.217 28.621 130.07 28.5601C129.93 28.5015 129.799 28.4241 129.68 28.3301C129.566 28.2379 129.474 28.1218 129.41 27.9901C129.334 27.8417 129.296 27.6767 129.3 27.5101C129.302 27.3376 129.339 27.1674 129.41 27.0101C129.493 26.854 129.605 26.715 129.74 26.6001C129.893 26.4736 130.07 26.3785 130.26 26.3201C130.486 26.2448 130.722 26.2076 130.96 26.2101C131.243 26.2077 131.524 26.2551 131.79 26.3501C132.022 26.4367 132.235 26.5655 132.42 26.7301L132.24 27.0201L132.23 26.9401Z" fill="#949DB2"/>
<path d="M137.24 26.9401C137.224 26.9715 137.2 26.9977 137.17 27.0154C137.14 27.0332 137.105 27.0418 137.07 27.0401C137.017 27.0517 136.963 27.0517 136.91 27.0401L136.7 26.9301L136.4 26.8201C136.261 26.803 136.119 26.803 135.98 26.8201C135.857 26.8042 135.733 26.8042 135.61 26.8201C135.51 26.8518 135.415 26.899 135.33 26.9601C135.257 27.0139 135.196 27.0819 135.15 27.1601C135.11 27.2409 135.09 27.3299 135.09 27.4201C135.085 27.523 135.121 27.6236 135.19 27.7001C135.265 27.7853 135.357 27.8535 135.46 27.9001C135.585 27.962 135.716 28.0122 135.85 28.0501L136.3 28.1901L136.74 28.3501C136.878 28.4075 137.009 28.4814 137.13 28.5701C137.242 28.6565 137.334 28.7656 137.4 28.8901C137.469 29.0333 137.504 29.191 137.5 29.3501C137.501 29.5455 137.464 29.7392 137.39 29.9201C137.313 30.0971 137.197 30.2544 137.05 30.3801C136.886 30.517 136.695 30.619 136.49 30.6801C136.247 30.7559 135.994 30.793 135.74 30.7901C135.44 30.7942 135.142 30.7433 134.86 30.6401C134.612 30.5511 134.382 30.419 134.18 30.2501L134.38 29.9501C134.399 29.9111 134.431 29.8795 134.47 29.8601C134.512 29.8476 134.558 29.8476 134.6 29.8601C134.662 29.8615 134.721 29.8825 134.77 29.9201C134.844 29.9677 134.921 30.0111 135 30.0501C135.098 30.1083 135.202 30.1552 135.31 30.1901C135.463 30.2336 135.621 30.2538 135.78 30.2501C135.922 30.2527 136.064 30.2324 136.2 30.1901C136.31 30.1572 136.412 30.1028 136.5 30.0301C136.576 29.9678 136.638 29.8892 136.68 29.8001C136.694 29.7073 136.694 29.6129 136.68 29.5201C136.687 29.4079 136.651 29.2973 136.58 29.2101C136.503 29.1251 136.411 29.0541 136.31 29.0001C136.184 28.9407 136.053 28.8906 135.92 28.8501L135.47 28.7201L135.03 28.5601C134.889 28.5037 134.758 28.4262 134.64 28.3301C134.523 28.239 134.427 28.1228 134.36 27.9901C134.292 27.8392 134.258 27.6754 134.26 27.5101C134.262 27.3376 134.299 27.1674 134.37 27.0101C134.446 26.8523 134.556 26.7126 134.69 26.6001C134.846 26.4776 135.022 26.3829 135.21 26.3201C135.439 26.2448 135.679 26.2076 135.92 26.2101C136.203 26.2085 136.483 26.2559 136.75 26.3501C136.982 26.4367 137.195 26.5655 137.38 26.7301L137.2 27.0201L137.24 26.9401Z" fill="#949DB2"/>
</g>
<defs>
<clipPath id="clip0_10056_152285">
<rect width="137.8" height="36" fill="white"/>
</clipPath>
</defs>
</svg>
