<svg width="64" height="61" viewBox="0 0 64 61" fill="none" xmlns="http://www.w3.org/2000/svg">
<path d="M0 48.3039C0.135701 48.0898 0.329522 47.9181 0.559136 47.8088C0.788749 47.6994 1.04483 47.6567 1.2978 47.6856C3.30668 47.6856 5.32445 47.6856 7.34222 47.6856C7.81333 47.6856 7.96446 47.6061 7.97335 47.0938C8.02668 36.0298 8.09779 24.9599 8.18668 13.8841C8.18668 12.6387 8.4711 12.3649 9.72443 12.3649H33.0044C33.1813 12.3897 33.3611 12.3483 33.5089 12.2487C33.6567 12.1492 33.7621 11.9985 33.8044 11.8261C34.8901 9.21695 36.7444 6.99492 39.1239 5.45176C41.5034 3.9086 44.297 3.11644 47.1377 3.17925C49.0604 3.24157 50.9494 3.69691 52.6871 4.51688C54.4247 5.33685 55.9736 6.50385 57.2372 7.94505C58.5008 9.38625 59.452 11.0707 60.0313 12.8934C60.6106 14.7161 60.8057 16.6378 60.6044 18.5388C60.2804 21.5948 58.9446 24.4575 56.8066 26.6779C54.6686 28.8982 51.8494 30.3505 48.7911 30.8069C48.0538 30.9509 47.3007 30.9984 46.551 30.9482C46.0799 30.9041 45.9733 31.0543 45.9733 31.5135C45.9733 37.5196 45.9733 43.5256 45.9733 49.5316C46.0359 51.0039 46.0091 52.4787 45.8933 53.9478C45.6475 55.7818 44.7449 57.4664 43.3506 58.6927C41.9564 59.9191 40.1641 60.6051 38.3022 60.6251H12.8177C10.8889 60.6251 8.95112 60.7311 7.02223 60.5544C5.40864 60.416 3.88035 59.7743 2.65587 58.721C1.43138 57.6677 0.573335 56.2567 0.204427 54.6897C0.159982 54.5131 0.204444 54.2834 0 54.1774V48.3039Z" fill="#949DB2"/>
<path d="M33.8932 22.6366H25.0754C24.8366 22.6133 24.5955 22.6342 24.3643 22.6984C24.1643 22.757 23.9895 22.8797 23.8673 23.0476C23.745 23.2154 23.6823 23.4188 23.6888 23.6258C23.6838 23.83 23.7501 24.0296 23.8765 24.1906C24.0029 24.3517 24.1816 24.4642 24.3821 24.5091C24.6124 24.5605 24.8485 24.5812 25.0843 24.5709C28.2221 24.5709 31.3688 24.5709 34.5065 24.5709C34.6674 24.5621 34.8276 24.5969 34.9701 24.6716C35.1125 24.7463 35.2319 24.858 35.3154 24.9948C37.2469 27.8141 40.1761 29.8071 43.5199 30.5769C43.8665 30.6652 43.9998 30.7624 43.9998 31.1422C43.9998 38.4289 43.9998 45.7068 43.9998 52.9847C44.0012 54.3832 43.4816 55.7327 42.5412 56.7731C41.6008 57.8136 40.306 58.4714 38.9065 58.6197C37.5329 58.7624 36.1529 58.4153 35.0131 57.6403C33.8733 56.8653 33.0479 55.7129 32.6843 54.389C32.5291 53.7385 32.4662 53.0696 32.4976 52.4017V48.9306C32.4976 47.9414 32.2221 47.6676 31.2354 47.6676C24.3643 47.6676 17.4843 47.6676 10.6132 47.6676C10.0977 47.6676 9.96436 47.5704 9.96436 47.0405C10.0532 36.318 10.1273 25.6013 10.1866 14.8906C10.1866 14.4578 10.2665 14.2988 10.7554 14.2988C18.0087 14.2988 25.2591 14.2988 32.5065 14.2988C33.0043 14.2988 33.0665 14.4401 32.9954 14.8818C32.5659 17.4115 32.8743 20.0106 33.8843 22.3716C33.8937 22.4596 33.8967 22.5482 33.8932 22.6366Z" fill="white"/>
<path d="M46.7111 29.367C45.0831 29.3659 43.4714 29.0444 41.969 28.4211C40.4667 27.7977 39.1034 26.8849 37.9579 25.7353C36.8125 24.5856 35.9077 23.2219 35.2955 21.7229C34.6833 20.2239 34.3759 18.6193 34.3912 17.0016C34.4263 13.7447 35.7617 10.635 38.1036 8.35598C40.4455 6.077 43.6023 4.81532 46.88 4.84829C50.1375 4.88557 53.2477 6.20239 55.5312 8.51105C57.8146 10.8197 59.0857 13.9325 59.0667 17.1695C59.062 18.7766 58.7387 20.3672 58.1151 21.8501C57.4916 23.3331 56.58 24.6794 55.4326 25.8122C54.2852 26.9449 52.9243 27.8419 51.4279 28.4519C49.9314 29.0618 48.3286 29.3728 46.7111 29.367Z" fill="white"/>
<path d="M33.0844 58.674H7.8044C6.44857 58.6978 5.12834 58.2418 4.07969 57.3875C3.03104 56.5332 2.32228 55.3363 2.07996 54.0105C1.93308 52.6436 1.89742 51.2672 1.9733 49.8946C1.9733 49.6915 2.07103 49.6208 2.2577 49.6296H2.6755C11.7244 49.6296 20.7674 49.6296 29.8044 49.6296C30.3288 49.6296 30.4977 49.7356 30.4888 50.2832C30.3922 51.6353 30.434 52.9936 30.6132 54.3373C30.9247 56.0172 31.7949 57.5444 33.0844 58.674Z" fill="white"/>
<path d="M31.2265 41.707H24.8354C24.6095 41.7334 24.3812 41.6855 24.1853 41.5707C23.9895 41.4558 23.8369 41.2803 23.751 41.0711C23.69 40.919 23.669 40.7539 23.6901 40.5914C23.7112 40.429 23.7736 40.2747 23.8715 40.1429C23.9694 40.0111 24.0995 39.9064 24.2495 39.8385C24.3995 39.7706 24.5644 39.7419 24.7287 39.7551C25.5109 39.7551 26.302 39.7551 27.0931 39.7551H37.6887C37.8273 39.7465 37.9661 39.7666 38.0964 39.814C38.2268 39.8614 38.3459 39.9352 38.4461 40.0306C38.5463 40.1261 38.6256 40.2411 38.6788 40.3685C38.732 40.4959 38.7581 40.6329 38.7553 40.7708C38.7499 40.9036 38.7174 41.0338 38.6596 41.1537C38.6019 41.2736 38.5203 41.3806 38.4197 41.4681C38.3191 41.5557 38.2017 41.622 38.0745 41.6631C37.9473 41.7042 37.813 41.7191 37.6798 41.707C36.3821 41.707 35.0754 41.707 33.7776 41.707H31.2265Z" fill="#949DB2"/>
<path d="M31.2263 33.148H25.1374C24.9391 33.1614 24.7401 33.1614 24.5418 33.148C24.416 33.1425 24.2926 33.1117 24.1791 33.0576C24.0655 33.0035 23.9642 32.9271 23.8811 32.833C23.7981 32.7389 23.7351 32.6291 23.6958 32.5102C23.6566 32.3913 23.642 32.2657 23.6529 32.1411C23.6637 31.9103 23.7609 31.6918 23.9253 31.5284C24.0897 31.3651 24.3095 31.2686 24.5418 31.2578C25.1729 31.2578 25.804 31.2578 26.4351 31.2578H37.2707C37.4485 31.2578 37.6263 31.2578 37.8041 31.2578C38.0424 31.2774 38.265 31.3838 38.4291 31.5566C38.5932 31.7295 38.6872 31.9565 38.6929 32.194C38.7035 32.431 38.623 32.6632 38.4679 32.8435C38.3128 33.0239 38.0946 33.139 37.8574 33.1656C37.4041 33.2098 36.9685 33.1656 36.4974 33.1656L31.2263 33.148Z" fill="#949DB2"/>
<path d="M21.4932 23.689C21.4792 24.5003 21.1437 25.2735 20.5596 25.8407C19.9755 26.4078 19.1899 26.7233 18.3732 26.7185C17.5479 26.7232 16.7542 26.4038 16.1649 25.8298C15.5755 25.2557 15.2383 24.4736 15.2266 23.6536C15.2544 22.8414 15.6011 22.0724 16.1926 21.5111C16.7841 20.9498 17.5732 20.6409 18.391 20.6506C19.2061 20.6505 19.9885 20.9692 20.5691 21.5378C21.1496 22.1064 21.4815 22.8791 21.4932 23.689Z" fill="#949DB2"/>
<path d="M21.4929 32.1762C21.4812 32.9891 21.1468 33.7645 20.5624 34.3336C19.9781 34.9027 19.1911 35.2193 18.3729 35.2145C17.5446 35.224 16.7464 34.9066 16.1532 34.3321C15.56 33.7575 15.2202 32.9727 15.2085 32.1497C15.2363 31.339 15.5818 30.5713 16.1714 30.0102C16.7609 29.4492 17.5478 29.1393 18.3641 29.1467C19.183 29.1373 19.9722 29.4509 20.5588 30.0188C21.1453 30.5867 21.4812 31.3625 21.4929 32.1762Z" fill="#949DB2"/>
<path d="M21.4932 40.6995C21.4769 41.5117 21.1376 42.2843 20.5497 42.8487C19.9617 43.4131 19.1729 43.7232 18.3555 43.7114C17.5416 43.714 16.759 43.4006 16.1744 42.8379C15.5899 42.2752 15.2497 41.5079 15.2266 40.6995C15.2323 40.2917 15.3195 39.889 15.483 39.5149C15.6465 39.1408 15.883 38.8026 16.179 38.52C16.475 38.2374 16.8246 38.0159 17.2073 37.8685C17.59 37.7211 17.9984 37.6506 18.4088 37.6612C18.8123 37.6589 19.2122 37.7357 19.5858 37.8872C19.9593 38.0388 20.2991 38.262 20.5856 38.5443C20.8721 38.8265 21.0998 39.1622 21.2555 39.5321C21.4113 39.9019 21.492 40.2986 21.4932 40.6995Z" fill="#949DB2"/>
<path d="M18.3825 24.7477C18.2353 24.7573 18.0878 24.7379 17.9482 24.6906C17.8086 24.6434 17.6797 24.5692 17.5691 24.4724C17.4584 24.3756 17.3681 24.258 17.3033 24.1263C17.2385 23.9947 17.2005 23.8517 17.1914 23.7055C17.1925 23.5586 17.2233 23.4134 17.282 23.2786C17.3406 23.1438 17.426 23.0221 17.533 22.9207C17.64 22.8194 17.7664 22.7404 17.9047 22.6886C18.043 22.6368 18.1904 22.6131 18.3381 22.6191C18.6356 22.602 18.928 22.7016 19.1524 22.8965C19.3768 23.0914 19.5152 23.366 19.538 23.6613C19.5287 23.9573 19.4021 24.2376 19.1856 24.4411C18.9691 24.6446 18.6804 24.7548 18.3825 24.7477Z" fill="white"/>
<path d="M18.3736 33.2369C18.2259 33.2477 18.0776 33.2288 17.9374 33.1814C17.7973 33.1339 17.6682 33.0589 17.5579 32.9608C17.4475 32.8627 17.3582 32.7436 17.2952 32.6104C17.2323 32.4773 17.197 32.3329 17.1914 32.1858C17.1948 32.0393 17.2275 31.8949 17.2877 31.7611C17.3479 31.6273 17.4343 31.5067 17.5418 31.4064C17.6494 31.3061 17.776 31.2281 17.9142 31.1769C18.0524 31.1257 18.1996 31.1024 18.3469 31.1083C18.6456 31.0982 18.9368 31.2026 19.1602 31.3999C19.3835 31.5972 19.522 31.8723 19.5469 32.1682C19.5331 32.4642 19.4019 32.7427 19.1821 32.943C18.9622 33.1432 18.6716 33.2489 18.3736 33.2369Z" fill="white"/>
<path d="M18.3381 41.7326C18.1904 41.7385 18.043 41.7148 17.9047 41.663C17.7664 41.6112 17.64 41.5322 17.533 41.4309C17.426 41.3295 17.3406 41.2078 17.282 41.073C17.2233 40.9382 17.1925 40.7931 17.1914 40.6462C17.212 40.3509 17.3483 40.0755 17.571 39.879C17.7937 39.6825 18.085 39.5805 18.3825 39.5951C18.6802 39.5968 18.9661 39.7109 19.1823 39.9143C19.3986 40.1176 19.5289 40.395 19.5469 40.6903C19.5219 40.9864 19.3816 41.261 19.1558 41.4557C18.9299 41.6504 18.6365 41.7497 18.3381 41.7326Z" fill="white"/>
<path d="M46.222 2.94336C38.0443 2.94336 31.4072 9.53821 31.4072 17.664C31.4072 25.7898 38.0443 32.3846 46.222 32.3846C54.3998 32.3846 61.0368 25.7898 61.0368 17.664C61.0368 9.53821 54.3998 2.94336 46.222 2.94336ZM43.2591 25.0243L35.8517 17.664L37.9405 15.5884L43.2591 20.8584L54.5035 9.68541L56.5924 11.7757L43.2591 25.0243Z" fill="#45B854"/>
</svg>
