<svg width="159" height="166" viewBox="0 0 159 166" fill="none" xmlns="http://www.w3.org/2000/svg">
<path d="M85.252 113.912C101.533 113.912 114.731 100.714 114.731 84.4334C114.731 68.1528 101.533 54.9548 85.252 54.9548C68.9714 54.9548 55.7734 68.1528 55.7734 84.4334C55.7734 100.714 68.9714 113.912 85.252 113.912Z" fill="#20A4F3"/>
<path d="M77.7197 97.7312L92.8775 112.889C105.431 109.541 114.731 98.1031 114.731 84.4333C114.731 84.1543 114.731 83.8753 114.731 83.5963L102.828 72.6233L77.7197 97.7312Z" fill="#20A4F3"/>
<path d="M77.7197 97.7312L92.8775 112.889C105.431 109.541 114.731 98.1031 114.731 84.4333C114.731 84.1543 114.731 83.8753 114.731 83.5963L102.828 72.6233L77.7197 97.7312Z" fill="black" fill-opacity="0.3"/>
<path d="M85.9956 91.0359C87.2975 92.3378 87.2975 94.5696 85.9956 95.8715L83.2988 98.5682C81.9969 99.8701 79.7651 99.8701 78.4632 98.5682L66.6532 86.6652C65.3513 85.3633 65.3513 83.1315 66.6532 81.8296L69.35 79.1329C70.6518 77.831 72.8837 77.831 74.1855 79.1329L85.9956 91.0359Z" fill="white"/>
<path d="M96.3175 70.4845C97.6194 69.1826 99.8512 69.1826 101.153 70.4845L103.85 73.1813C105.152 74.4832 105.152 76.715 103.85 78.0169L83.3916 98.3822C82.0897 99.6841 79.8579 99.6841 78.556 98.3822L75.8592 95.6854C74.5573 94.3835 74.5573 92.1517 75.8592 90.8498L96.3175 70.4845Z" fill="white"/>
<path d="M102.797 48.0115C102.797 47.4226 103.026 46.8349 103.482 46.3927L128.425 22.1813C129.319 21.3135 130.747 21.3337 131.614 22.2278C132.482 23.1218 132.46 24.5499 131.567 25.4177L106.624 49.6303C105.731 50.4981 104.302 50.4766 103.435 49.5826C103.01 49.1439 102.797 48.5777 102.797 48.0115Z" fill="#FF686B"/>
<path d="M106.521 119.577C106.643 119.025 106.971 118.517 107.481 118.181C108.52 117.495 109.92 117.781 110.606 118.821L129.758 147.829C130.445 148.869 130.159 150.268 129.119 150.955C128.079 151.641 126.68 151.355 125.993 150.315L106.841 121.306C106.492 120.776 106.395 120.153 106.521 119.577Z" fill="#FF7F11"/>
<path d="M91.9145 133.028C91.9145 132.443 92.1398 131.861 92.5892 131.42L92.6142 131.394C93.5035 130.521 94.9315 130.534 95.8041 131.422C96.6779 132.311 96.6648 133.739 95.7767 134.612L95.7517 134.637C94.8624 135.509 93.4343 135.497 92.5618 134.608C92.1303 134.17 91.9145 133.599 91.9145 133.028Z" fill="#FF686B"/>
<path d="M118.658 102.542C118.658 102.163 118.754 101.779 118.955 101.428C119.573 100.345 120.951 99.9687 122.032 100.586L152.442 117.939C153.523 118.556 153.9 119.933 153.282 121.015C152.665 122.098 151.287 122.474 150.205 121.857L119.796 104.504C119.067 104.088 118.658 103.327 118.658 102.542Z" fill="#45B854" fill-opacity="0.7"/>
<path d="M123.859 70.1275C123.859 69.3432 124.268 68.5815 124.998 68.1655L155.406 50.813C156.489 50.1955 157.866 50.5722 158.483 51.6534C159.101 52.7358 158.725 54.1138 157.643 54.7312L127.234 72.0837C126.152 72.7011 124.774 72.3245 124.156 71.2433C123.955 70.8904 123.859 70.5066 123.859 70.1275Z" fill="#6438BC"/>
<path d="M127.573 93.6328C127.573 92.8675 127.963 92.1201 128.666 91.6969C129.734 91.0556 131.121 91.4013 131.762 92.4682L131.78 92.4991C132.421 93.5672 132.077 94.9524 131.009 95.5937C129.941 96.2362 128.556 95.8905 127.913 94.8224L127.895 94.7926C127.677 94.4291 127.573 94.0285 127.573 93.6328Z" fill="#FF686B"/>
<path d="M59.8578 48.0115C59.8578 47.4226 59.6289 46.8349 59.1735 46.3927L34.2302 22.1813C33.3362 21.3135 31.9081 21.3337 31.0415 22.2277C30.1737 23.1218 30.1952 24.5498 31.088 25.4176L56.0313 49.6302C56.9242 50.498 58.3534 50.4766 59.22 49.5826C59.6456 49.1439 59.8578 48.5777 59.8578 48.0115Z" fill="#FF686B"/>
<path d="M83.7753 39.5966C84.2091 39.1984 84.4874 38.6325 84.5054 37.998L85.4811 3.25016C85.516 2.00471 84.5356 0.966186 83.291 0.932088C82.0455 0.897112 81.0078 1.87841 80.972 3.12298L79.9955 37.8716C79.9597 39.1162 80.9418 40.1548 82.1865 40.1889C82.7974 40.2058 83.3581 39.9794 83.7753 39.5966Z" fill="#45B854"/>
<path d="M68.2828 56.165C68.2828 55.5964 68.0695 55.0278 67.6403 54.5892C66.7701 53.6975 65.3421 53.6808 64.4504 54.551L64.4254 54.5761C63.535 55.4462 63.5171 56.8743 64.3885 57.7659C65.2586 58.6576 66.6867 58.6743 67.5783 57.8029L67.6034 57.7791C68.0552 57.3368 68.2828 56.7515 68.2828 56.165Z" fill="#FF7F11"/>
<path d="M67.308 122.509C67.1471 121.966 66.7839 121.483 66.2516 121.185C65.1656 120.574 63.7903 120.959 63.1796 122.045L46.1439 152.345C45.5333 153.431 45.9184 154.806 47.0045 155.417C48.0905 156.028 49.4658 155.643 50.0765 154.556L67.1118 124.255C67.4228 123.702 67.4753 123.074 67.308 122.509Z" fill="#FF7F11"/>
<path d="M33.3062 83.9973C33.3062 83.4132 33.0809 82.8303 32.6315 82.3892L32.6065 82.3642C31.7172 81.4904 30.2892 81.5035 29.4166 82.3916C28.5428 83.2809 28.5559 84.7089 29.444 85.5815L29.469 85.6065C30.3583 86.4791 31.7864 86.4672 32.6589 85.5779C33.0904 85.1393 33.3062 84.5683 33.3062 83.9973Z" fill="#FF686B"/>
<path d="M48.0897 102.542C48.0897 102.163 47.9944 101.779 47.7929 101.428C47.1754 100.345 45.7975 99.9687 44.7163 100.586L14.3063 117.939C13.2251 118.556 12.8484 119.933 13.4659 121.015C14.0834 122.098 15.4614 122.474 16.5425 121.857L46.9525 104.504C47.6809 104.088 48.0897 103.327 48.0897 102.542Z" fill="#45B854" fill-opacity="0.7"/>
<path d="M37.7571 124.116C37.7571 123.719 37.6522 123.318 37.4329 122.954L37.415 122.924C36.7713 121.857 35.385 121.514 34.3181 122.157C33.2513 122.8 32.9091 124.187 33.5517 125.254L33.5695 125.283C34.2132 126.35 35.5996 126.693 36.6664 126.05C37.3685 125.627 37.7571 124.88 37.7571 124.116Z" fill="#45B854" fill-opacity="0.7"/>
<path d="M46.6046 74.5848C46.6046 73.8005 46.1958 73.0388 45.4662 72.6227L15.0575 55.2703C13.9751 54.6528 12.5983 55.0295 11.9808 56.1107C11.3633 57.1931 11.7388 58.571 12.8212 59.1885L43.23 76.541C44.3124 77.1584 45.6903 76.7818 46.3078 75.7006C46.5093 75.3477 46.6046 74.9639 46.6046 74.5848Z" fill="#6438BC"/>
<path d="M85.8269 164.07C86.5278 163.718 87.0251 163.01 87.0695 162.172L88.9312 127.21C88.9973 125.965 88.0429 124.904 86.7996 124.837C85.5552 124.771 84.4923 125.725 84.4261 126.97L82.5644 161.932C82.4983 163.176 83.4533 164.238 84.6966 164.305C85.1023 164.327 85.4881 164.24 85.8269 164.07Z" fill="#6438BC"/>
<path d="M35.5283 55.7457C35.5283 54.9805 35.1385 54.233 34.4352 53.8099C33.3671 53.1686 31.9808 53.5143 31.3395 54.5811L31.3216 54.6121C30.6803 55.6802 31.0248 57.0653 32.0928 57.7066C33.1609 58.3491 34.546 58.0035 35.1886 56.9354L35.2064 56.9056C35.4246 56.542 35.5283 56.1415 35.5283 55.7457Z" fill="#FF686B"/>
<path d="M6.45526 103.457C3.01147 103.457 0.219726 100.746 0.219726 97.4035C0.219726 94.0598 3.01147 91.3503 6.45526 91.3503C9.89904 91.3503 12.692 94.0598 12.692 97.4035C12.692 100.746 9.89904 103.457 6.45526 103.457Z" fill="#FF7F11" fill-opacity="0.7"/>
<path d="M109.294 27.7069C105.85 27.7069 103.059 24.9962 103.059 21.6537C103.059 18.3101 105.85 15.6006 109.294 15.6006C112.738 15.6006 115.531 18.3101 115.531 21.6537C115.531 24.9962 112.738 27.7069 109.294 27.7069Z" fill="#20A4F3"/>
<path d="M142.431 134.462C140.38 134.462 138.717 136.125 138.717 138.176C138.717 140.228 140.38 141.891 142.431 141.891C144.482 141.891 146.146 140.228 146.146 138.176C146.146 136.125 144.482 134.462 142.431 134.462Z" fill="#FF686B"/>
</svg>
