<svg width="96" height="93" viewBox="0 0 96 93" fill="none" xmlns="http://www.w3.org/2000/svg">
<path d="M0 46.3285C0 20.742 20.742 0 46.3285 0H49.6715C75.258 0 96 20.742 96 46.3285V46.3285C96 71.915 75.258 92.657 49.6715 92.657H46.3285C20.742 92.657 0 71.915 0 46.3285V46.3285Z" fill="#F9FAFB"/>
<path d="M16 64.3039C16.1357 64.0898 16.3295 63.9181 16.5591 63.8088C16.7887 63.6994 17.0448 63.6567 17.2978 63.6856C19.3067 63.6856 21.3244 63.6856 23.3422 63.6856C23.8133 63.6856 23.9645 63.6061 23.9734 63.0938C24.0267 52.0298 24.0978 40.9599 24.1867 29.8841C24.1867 28.6387 24.4711 28.3649 25.7244 28.3649H49.0044C49.1813 28.3897 49.3611 28.3483 49.5089 28.2487C49.6567 28.1492 49.7621 27.9985 49.8044 27.8261C50.8901 25.2169 52.7444 22.9949 55.1239 21.4518C57.5034 19.9086 60.297 19.1164 63.1377 19.1792C65.0604 19.2416 66.9494 19.6969 68.6871 20.5169C70.4247 21.3368 71.9736 22.5038 73.2372 23.945C74.5008 25.3863 75.452 27.0707 76.0313 28.8934C76.6106 30.7161 76.8057 32.6378 76.6044 34.5388C76.2804 37.5948 74.9446 40.4575 72.8066 42.6779C70.6686 44.8982 67.8494 46.3505 64.7911 46.8069C64.0538 46.9509 63.3007 46.9984 62.551 46.9482C62.0799 46.9041 61.9733 47.0543 61.9733 47.5135C61.9733 53.5196 61.9733 59.5256 61.9733 65.5316C62.0359 67.0039 62.0091 68.4787 61.8933 69.9478C61.6475 71.7818 60.7449 73.4664 59.3506 74.6927C57.9564 75.9191 56.1641 76.6051 54.3022 76.6251H28.8177C26.8889 76.6251 24.9511 76.7311 23.0222 76.5544C21.4086 76.416 19.8804 75.7743 18.6559 74.721C17.4314 73.6677 16.5733 72.2567 16.2044 70.6897C16.16 70.5131 16.2044 70.2834 16 70.1774V64.3039Z" fill="#949DB2"/>
<path d="M49.8932 38.6366H41.0754C40.8366 38.6133 40.5955 38.6342 40.3643 38.6984C40.1643 38.757 39.9895 38.8797 39.8673 39.0476C39.745 39.2154 39.6823 39.4188 39.6888 39.6258C39.6838 39.83 39.7501 40.0296 39.8765 40.1906C40.0029 40.3517 40.1816 40.4642 40.3821 40.5091C40.6124 40.5605 40.8485 40.5812 41.0843 40.5709C44.2221 40.5709 47.3688 40.5709 50.5065 40.5709C50.6674 40.5621 50.8276 40.5969 50.9701 40.6716C51.1125 40.7463 51.2319 40.858 51.3154 40.9948C53.2469 43.8141 56.1761 45.8071 59.5199 46.5769C59.8665 46.6652 59.9998 46.7624 59.9998 47.1422C59.9998 54.4289 59.9998 61.7068 59.9998 68.9847C60.0012 70.3832 59.4816 71.7327 58.5412 72.7731C57.6008 73.8136 56.306 74.4714 54.9065 74.6197C53.5329 74.7624 52.1529 74.4153 51.0131 73.6403C49.8733 72.8653 49.0479 71.7129 48.6843 70.389C48.5291 69.7385 48.4662 69.0696 48.4976 68.4017V64.9306C48.4976 63.9414 48.2221 63.6676 47.2354 63.6676C40.3643 63.6676 33.4843 63.6676 26.6132 63.6676C26.0977 63.6676 25.9644 63.5704 25.9644 63.0405C26.0532 52.318 26.1273 41.6013 26.1866 30.8906C26.1866 30.4578 26.2665 30.2988 26.7554 30.2988C34.0087 30.2988 41.2591 30.2988 48.5065 30.2988C49.0043 30.2988 49.0665 30.4401 48.9954 30.8818C48.5659 33.4115 48.8743 36.0106 49.8843 38.3716C49.8937 38.4596 49.8967 38.5482 49.8932 38.6366Z" fill="white"/>
<path d="M62.7111 45.367C61.0831 45.3659 59.4714 45.0444 57.969 44.4211C56.4667 43.7977 55.1034 42.8849 53.9579 41.7353C52.8125 40.5856 51.9077 39.2219 51.2955 37.7229C50.6833 36.2239 50.3759 34.6193 50.3912 33.0016C50.4263 29.7447 51.7617 26.635 54.1036 24.356C56.4455 22.077 59.6023 20.8153 62.88 20.8483C66.1375 20.8856 69.2477 22.2024 71.5312 24.5111C73.8146 26.8197 75.0857 29.9325 75.0667 33.1695C75.062 34.7766 74.7387 36.3672 74.1151 37.8501C73.4916 39.3331 72.58 40.6794 71.4326 41.8122C70.2852 42.9449 68.9243 43.8419 67.4279 44.4519C65.9314 45.0618 64.3286 45.3728 62.7111 45.367Z" fill="white"/>
<path d="M49.0844 74.674H23.8044C22.4486 74.6978 21.1283 74.2418 20.0797 73.3875C19.031 72.5332 18.3223 71.3363 18.08 70.0105C17.9331 68.6436 17.8974 67.2672 17.9733 65.8946C17.9733 65.6915 18.071 65.6208 18.2577 65.6296H18.6755C27.7244 65.6296 36.7674 65.6296 45.8044 65.6296C46.3288 65.6296 46.4977 65.7356 46.4888 66.2832C46.3922 67.6353 46.434 68.9936 46.6132 70.3373C46.9247 72.0172 47.7949 73.5444 49.0844 74.674Z" fill="white"/>
<path d="M47.2265 57.707H40.8354C40.6095 57.7334 40.3812 57.6855 40.1853 57.5707C39.9895 57.4558 39.8369 57.2803 39.751 57.0711C39.69 56.919 39.669 56.7539 39.6901 56.5914C39.7112 56.429 39.7736 56.2747 39.8715 56.1429C39.9694 56.0111 40.0995 55.9064 40.2495 55.8385C40.3995 55.7706 40.5644 55.7419 40.7287 55.7551C41.5109 55.7551 42.302 55.7551 43.0931 55.7551H53.6887C53.8273 55.7465 53.9661 55.7666 54.0964 55.814C54.2268 55.8614 54.3459 55.9352 54.4461 56.0306C54.5463 56.1261 54.6256 56.2411 54.6788 56.3685C54.732 56.4959 54.7581 56.6329 54.7553 56.7708C54.7499 56.9036 54.7174 57.0338 54.6596 57.1537C54.6019 57.2736 54.5203 57.3806 54.4197 57.4681C54.3191 57.5557 54.2017 57.622 54.0745 57.6631C53.9473 57.7042 53.813 57.7191 53.6798 57.707C52.3821 57.707 51.0754 57.707 49.7776 57.707H47.2265Z" fill="#949DB2"/>
<path d="M47.2263 49.148H41.1374C40.9391 49.1614 40.7401 49.1614 40.5418 49.148C40.416 49.1425 40.2926 49.1117 40.1791 49.0576C40.0655 49.0035 39.9642 48.9271 39.8811 48.833C39.7981 48.7389 39.7351 48.6291 39.6958 48.5102C39.6566 48.3913 39.642 48.2657 39.6529 48.1411C39.6637 47.9103 39.7609 47.6918 39.9253 47.5284C40.0897 47.3651 40.3095 47.2686 40.5418 47.2578C41.1729 47.2578 41.804 47.2578 42.4351 47.2578H53.2707C53.4485 47.2578 53.6263 47.2578 53.8041 47.2578C54.0424 47.2774 54.265 47.3838 54.4291 47.5566C54.5932 47.7295 54.6872 47.9565 54.6929 48.194C54.7035 48.431 54.623 48.6632 54.4679 48.8435C54.3128 49.0239 54.0946 49.139 53.8574 49.1656C53.4041 49.2098 52.9685 49.1656 52.4974 49.1656L47.2263 49.148Z" fill="#949DB2"/>
<path d="M37.4932 39.689C37.4792 40.5003 37.1437 41.2735 36.5596 41.8407C35.9755 42.4078 35.1899 42.7233 34.3732 42.7185C33.5479 42.7232 32.7542 42.4038 32.1649 41.8298C31.5755 41.2557 31.2383 40.4736 31.2266 39.6536C31.2544 38.8414 31.6011 38.0724 32.1926 37.5111C32.7841 36.9498 33.5732 36.6409 34.391 36.6506C35.2061 36.6505 35.9885 36.9692 36.5691 37.5378C37.1496 38.1064 37.4815 38.8791 37.4932 39.689Z" fill="#949DB2"/>
<path d="M37.4929 48.1762C37.4812 48.9891 37.1468 49.7645 36.5624 50.3336C35.9781 50.9027 35.1911 51.2193 34.3729 51.2145C33.5446 51.224 32.7464 50.9066 32.1532 50.3321C31.56 49.7575 31.2202 48.9727 31.2085 48.1497C31.2363 47.339 31.5818 46.5713 32.1714 46.0102C32.7609 45.4492 33.5478 45.1393 34.3641 45.1467C35.183 45.1373 35.9722 45.4509 36.5588 46.0188C37.1453 46.5867 37.4812 47.3625 37.4929 48.1762Z" fill="#949DB2"/>
<path d="M37.4932 56.6995C37.4769 57.5117 37.1376 58.2843 36.5497 58.8487C35.9617 59.4131 35.1729 59.7232 34.3555 59.7114C33.5416 59.714 32.759 59.4006 32.1744 58.8379C31.5899 58.2752 31.2497 57.5079 31.2266 56.6995C31.2323 56.2917 31.3195 55.889 31.483 55.5149C31.6465 55.1408 31.883 54.8026 32.179 54.52C32.475 54.2374 32.8246 54.0159 33.2073 53.8685C33.59 53.7211 33.9984 53.6506 34.4088 53.6612C34.8123 53.6589 35.2122 53.7357 35.5858 53.8872C35.9593 54.0388 36.2991 54.262 36.5856 54.5443C36.8721 54.8265 37.0998 55.1622 37.2555 55.5321C37.4113 55.9019 37.492 56.2986 37.4932 56.6995Z" fill="#949DB2"/>
<path d="M34.3825 40.7477C34.2353 40.7573 34.0878 40.7379 33.9482 40.6906C33.8086 40.6434 33.6797 40.5692 33.5691 40.4724C33.4584 40.3756 33.3681 40.258 33.3033 40.1263C33.2385 39.9947 33.2005 39.8517 33.1914 39.7055C33.1925 39.5586 33.2233 39.4134 33.282 39.2786C33.3406 39.1438 33.426 39.0221 33.533 38.9207C33.64 38.8194 33.7664 38.7404 33.9047 38.6886C34.043 38.6368 34.1904 38.6131 34.3381 38.6191C34.6356 38.602 34.928 38.7016 35.1524 38.8965C35.3768 39.0914 35.5152 39.366 35.538 39.6613C35.5287 39.9573 35.4021 40.2376 35.1856 40.4411C34.9691 40.6446 34.6804 40.7548 34.3825 40.7477Z" fill="white"/>
<path d="M34.3736 49.2369C34.2259 49.2477 34.0776 49.2288 33.9374 49.1814C33.7973 49.1339 33.6682 49.0589 33.5579 48.9608C33.4475 48.8627 33.3582 48.7436 33.2952 48.6104C33.2323 48.4773 33.197 48.3329 33.1914 48.1858C33.1948 48.0393 33.2275 47.8949 33.2877 47.7611C33.3479 47.6273 33.4343 47.5067 33.5418 47.4064C33.6494 47.3061 33.776 47.2281 33.9142 47.1769C34.0524 47.1257 34.1996 47.1024 34.3469 47.1083C34.6456 47.0982 34.9368 47.2026 35.1602 47.3999C35.3835 47.5972 35.522 47.8723 35.5469 48.1682C35.5331 48.4642 35.4019 48.7427 35.1821 48.943C34.9622 49.1432 34.6716 49.2489 34.3736 49.2369Z" fill="white"/>
<path d="M34.3381 57.7326C34.1904 57.7385 34.043 57.7148 33.9047 57.663C33.7664 57.6112 33.64 57.5322 33.533 57.4309C33.426 57.3295 33.3406 57.2078 33.282 57.073C33.2233 56.9382 33.1925 56.7931 33.1914 56.6462C33.212 56.3509 33.3483 56.0755 33.571 55.879C33.7937 55.6825 34.085 55.5805 34.3825 55.5951C34.6802 55.5968 34.9661 55.7109 35.1823 55.9143C35.3986 56.1176 35.5289 56.395 35.5469 56.6903C35.5219 56.9864 35.3816 57.261 35.1558 57.4557C34.9299 57.6504 34.6365 57.7497 34.3381 57.7326Z" fill="white"/>
<path d="M62.222 18.9434C54.0443 18.9434 47.4072 25.5382 47.4072 33.664C47.4072 41.7898 54.0443 48.3846 62.222 48.3846C70.3998 48.3846 77.0368 41.7898 77.0368 33.664C77.0368 25.5382 70.3998 18.9434 62.222 18.9434ZM59.2591 41.0243L51.8517 33.664L53.9405 31.5884L59.2591 36.8584L70.5035 25.6854L72.5924 27.7757L59.2591 41.0243Z" fill="#45B854"/>
</svg>
