<svg width="125" height="165" viewBox="0 0 125 165" fill="none" xmlns="http://www.w3.org/2000/svg">
<g clip-path="url(#clip0_8170_112975)">
<path d="M62.7291 0C49.0417 14.6619 27.2039 26.6763 3.8333 31.7971C3.8333 33.3575 3.78658 42.0048 3.60824 81.8631C3.37258 135.031 53.9736 161.015 61.8289 165.002C69.4401 161.499 120.68 135.555 120.918 82.3875C121.096 42.5292 121.13 33.8819 121.143 32.3215C97.8169 26.9926 76.2806 14.7829 62.7291 0Z" fill="#20A4F3" fill-opacity="0.5"/>
<path d="M62.6041 5.76831C48.4943 18.719 28.9472 28.8842 7.45336 34.4296L7.24105 81.8545C7.14339 103.554 15.7652 123.186 32.8643 140.205C44.0996 151.387 55.9143 158.321 61.9077 161.435L62.7273 161.011V5.87871L62.6041 5.76831Z" fill="#20A4F3" fill-opacity="0.7"/>
<path d="M62.7295 5.87866V161.015C68.9628 157.771 80.2915 151.068 91.1424 140.462C108.392 123.598 117.188 104.045 117.286 82.3449L117.498 34.92C96.1125 29.2005 76.7098 18.893 62.7295 5.87866Z" fill="#20A4F3"/>
<path d="M105.793 53.4119C89.431 55.9362 67.1537 70.8613 53.0906 88.8075C51.1182 80.345 42.2629 72.6192 37.6347 70.9314L23.6055 85.0348C32.3652 88.9816 41.9381 100.168 43.2077 111.62L57.2199 113.792C63.1284 102.115 78.3911 74.1987 108.753 59.1845C108.173 56.9 106.04 53.7388 105.793 53.4119Z" fill="white"/>
</g>
<defs>
<clipPath id="clip0_8170_112975">
<rect width="123.643" height="165" fill="white" transform="translate(0.678711)"/>
</clipPath>
</defs>
</svg>
