<svg width="100" height="90" viewBox="0 0 100 90" fill="none" xmlns="http://www.w3.org/2000/svg">
<path fill-rule="evenodd" clip-rule="evenodd" d="M66.4898 37.2907C66.9429 37.8247 67.1754 38.512 67.1397 39.2121C67.1041 39.9122 66.803 40.5722 66.298 41.0571L46.1687 59.944C45.5244 60.5031 44.6875 60.7874 43.8369 60.736C42.9862 60.6847 42.1894 60.3017 41.6167 59.6691L33.3923 52.3022C32.8469 51.8173 32.5159 51.1351 32.4722 50.4057C32.4285 49.6762 32.6757 48.9592 33.1593 48.4124C33.643 47.8656 34.3235 47.5339 35.0511 47.4901C35.7788 47.4463 36.494 47.694 37.0394 48.1789L44.3611 54.3908L62.6784 37.0747C63.2172 36.6072 63.9163 36.3684 64.6277 36.4087C65.3392 36.449 66.007 36.7653 66.4898 37.2907Z" fill="#45B854"/>
<path fill-rule="evenodd" clip-rule="evenodd" d="M49.8452 22.7774C44.9641 22.7774 40.1926 24.2284 36.1342 26.947C32.0757 29.6655 28.9125 33.5295 27.0446 38.0503C25.1767 42.5711 24.688 47.5456 25.6402 52.3449C26.5925 57.1441 28.9429 61.5525 32.3944 65.0126C35.8458 68.4726 40.2432 70.829 45.0305 71.7836C49.8178 72.7382 54.78 72.2483 59.2895 70.3757C63.799 68.5031 67.6534 65.3321 70.3651 61.2634C73.0769 57.1948 74.5243 52.4115 74.5243 47.5182C74.5243 40.9565 71.9242 34.6636 67.296 30.0238C62.6677 25.384 56.3905 22.7774 49.8452 22.7774ZM19.6816 47.5182C19.6816 41.5375 21.4507 35.6911 24.7651 30.7184C28.0795 25.7456 32.7904 21.8698 38.3021 19.5811C43.8138 17.2924 49.8786 16.6936 55.7298 17.8603C61.5809 19.0271 66.9556 21.9071 71.174 26.1361C75.3925 30.3651 78.2653 35.7531 79.4291 41.6189C80.593 47.4846 79.9957 53.5647 77.7126 59.0901C75.4296 64.6155 71.5635 69.3382 66.6031 72.6609C61.6428 75.9836 55.811 77.7571 49.8452 77.7571C41.8453 77.7571 34.1731 74.5712 28.5163 68.9003C22.8596 63.2294 19.6816 55.538 19.6816 47.5182Z" fill="#45B854"/>
<path d="M8.4318 74.4566C7.56298 71.3728 3.5647 71.672 3.5647 71.672L3.67242 73.8168C5.98317 73.4172 7.4197 76.1322 7.4197 76.1322L8.4318 74.4566Z" fill="#45B854" fill-opacity="0.3"/>
<path d="M78.7144 23.5416C83.3521 24.9499 86.2376 19.5884 86.2376 19.5884L83.4162 17.9766C82.0367 21.2613 77.405 20.8811 77.405 20.8811L78.7144 23.5416Z" fill="#45B854" fill-opacity="0.3"/>
<path d="M99.7095 61.6963C98.8127 59.1325 95.4446 59.5974 95.4446 59.5974L95.6503 61.4063C97.5856 60.9457 98.9436 63.1677 98.9436 63.1677L99.7095 61.6963Z" fill="#45B854" fill-opacity="0.3"/>
<path d="M37.6607 2.13228C36.7633 -0.431545 33.3958 0.0328396 33.3958 0.0328396L33.6015 1.84231C35.5363 1.38171 36.8942 3.60319 36.8942 3.60319L37.6607 2.13228Z" fill="#45B854" fill-opacity="0.3"/>
<path d="M62.9766 88.5288C62.0792 85.9649 58.7117 86.4293 58.7117 86.4293L58.9174 88.2388C60.8522 87.7782 62.2101 89.9997 62.2101 89.9997L62.9766 88.5288Z" fill="#45B854" fill-opacity="0.3"/>
<path d="M4.55568 35.5269C3.65831 32.9625 0.290771 33.4275 0.290771 33.4275L0.496524 35.2364C2.4313 34.7763 3.78974 36.9978 3.78974 36.9978L4.55568 35.5269Z" fill="#45B854" fill-opacity="0.3"/>
<path d="M6.51307 9.39844C3.83821 9.83852 3.70947 13.2436 3.70947 13.2436L5.52252 13.3549C5.40671 11.365 7.82518 10.4104 7.82518 10.4104L6.51307 9.39844Z" fill="#45B854" fill-opacity="0.3"/>
<path d="M95.3367 9.56445C93.5285 10.7675 94.5519 13.2963 94.5519 13.2963L95.912 12.7795C95.1741 11.3647 96.6267 9.87008 96.6267 9.87008L95.3367 9.56445Z" fill="#45B854" fill-opacity="0.3"/>
<path d="M93.3973 73.8434C92.529 70.7595 88.5308 71.0587 88.5308 71.0587L88.6385 73.2035C90.9498 72.8044 92.3863 75.5195 92.3863 75.5195L93.3973 73.8434Z" fill="#45B854"/>
<path d="M66.6821 7.61167C67.9986 10.9747 72.4504 10.1928 72.4504 10.1928L72.0895 7.79904C69.5412 8.50588 67.628 5.61914 67.628 5.61914L66.6821 7.61167Z" fill="#45B854"/>
<path d="M8.86748 47.0273C6.70917 47.2574 6.45117 49.9735 6.45117 49.9735L7.89579 50.1452C7.89579 48.549 9.87096 47.8962 9.87096 47.8962L8.86748 47.0273Z" fill="#45B854"/>
<path d="M25.0264 81.0449C22.8681 81.275 22.6101 83.9911 22.6101 83.9911L24.0547 84.1628C24.0547 82.5666 26.0299 81.9138 26.0299 81.9138L25.0264 81.0449Z" fill="#45B854"/>
<path d="M23.7533 19.4373C24.0667 17.2838 21.5061 16.3594 21.5061 16.3594L20.9814 17.719C22.5241 18.1132 22.6647 20.1949 22.6647 20.1949L23.7533 19.4373Z" fill="#45B854"/>
<path d="M95.0269 36.1926C97.1938 36.3162 97.8871 33.6779 97.8871 33.6779L96.4899 33.2734C96.234 34.8496 94.1775 35.172 94.1775 35.172L95.0269 36.1926Z" fill="#45B854"/>
</svg>
