<svg width="32" height="32" viewBox="0 0 32 32" fill="none" xmlns="http://www.w3.org/2000/svg">
<path d="M15.7891 13.5923C14.6244 15.5503 13.5085 17.4463 12.3694 19.328C12.0769 19.8111 11.9321 20.2047 12.1658 20.8187C12.811 22.5152 11.9008 24.1661 10.1901 24.6142C8.57673 25.0369 7.00489 23.9766 6.68479 22.2493C6.40113 20.7205 7.58756 19.2218 9.27324 18.9828C9.41441 18.9626 9.55865 18.9603 9.79598 18.9425L12.3601 14.6429C10.7474 13.0393 9.78753 11.1649 9.99994 8.84207C10.1501 7.20018 10.7958 5.78124 11.9759 4.6183C14.2361 2.3912 17.6843 2.03059 20.3456 3.73999C22.9016 5.38199 24.0722 8.58037 23.0744 11.3178C22.322 11.1138 21.5643 10.9081 20.7315 10.6822C21.0448 9.1602 20.8131 7.79351 19.7866 6.62266C19.1084 5.84963 18.2381 5.44446 17.2486 5.29516C15.2648 4.99548 13.3171 6.26996 12.7391 8.21713C12.0831 10.4269 13.076 12.2321 15.7891 13.5924V13.5923Z" fill="#C73A63"/>
<path d="M19.1154 11.2767C19.9359 12.7243 20.7691 14.1938 21.5948 15.6497C25.7684 14.3584 28.9151 16.6689 30.044 19.1424C31.4076 22.1304 30.4754 25.6693 27.7975 27.5128C25.0488 29.4051 21.5726 29.0818 19.1373 26.6509C19.758 26.1314 20.3817 25.6095 21.0481 25.052C23.4535 26.6099 25.5573 26.5365 27.1191 24.6917C28.451 23.1178 28.4221 20.7712 27.0516 19.2304C25.47 17.4523 23.3515 17.3981 20.7907 19.1049C19.7284 17.2203 18.6477 15.3507 17.619 13.4525C17.2722 12.8127 16.8893 12.4414 16.1075 12.3061C14.802 12.0797 13.9591 10.9586 13.9085 9.70256C13.8588 8.46034 14.5906 7.33745 15.7345 6.9C16.8675 6.4665 18.1972 6.81635 18.9594 7.77974C19.5822 8.56682 19.7801 9.45271 19.4524 10.4234C19.3613 10.6942 19.2432 10.9561 19.1154 11.2768V11.2767Z" fill="#4B4B4B"/>
<path d="M21.0765 23.1105H16.0521C15.5705 25.0912 14.5303 26.6904 12.738 27.7073C11.3446 28.4977 9.84291 28.7656 8.24459 28.5076C5.30176 28.033 2.8955 25.3839 2.68364 22.4009C2.44389 19.0216 4.76661 16.0179 7.86258 15.3433C8.07631 16.1195 8.29235 16.9031 8.50608 17.6775C5.66555 19.1267 4.68241 20.9527 5.4774 23.2359C6.17721 25.2452 8.16512 26.3466 10.3236 25.9206C12.5279 25.4857 13.6392 23.6538 13.5036 20.7139C15.5932 20.7139 17.6847 20.6923 19.7745 20.7245C20.5906 20.7374 21.2206 20.6528 21.8353 19.9333C22.8475 18.7495 24.7104 18.8563 25.8005 19.9744C26.9145 21.117 26.8611 22.9555 25.6823 24.0499C24.5449 25.1059 22.748 25.0495 21.6838 23.9116C21.4652 23.6771 21.2928 23.3986 21.0765 23.1105Z" fill="#4A4A4A"/>
</svg>
