<svg width="404" height="377" viewBox="0 0 404 377" fill="none" xmlns="http://www.w3.org/2000/svg">
<g clip-path="url(#clip0_13474_368377)">
<path opacity="0.34" d="M6.22771 219.126C6.51137 377.832 112.306 268.672 198.674 332.959C285.042 397.246 448.4 263.048 364.842 138.366C281.284 13.6844 105.764 -50.5062 101.328 49.4511C95.3915 183.254 6.08442 139.984 6.22771 219.126Z" fill="#E9EFFF"/>
<path d="M90.6336 30.3556V30.3615H90.1357C90.2997 30.3615 90.4696 30.3615 90.6336 30.3556Z" fill="#F5F8FF"/>
<path d="M294.379 18.7784H134.173C127.551 18.7784 122.184 24.1463 122.184 30.7679V363.903C122.184 370.525 127.551 375.893 134.173 375.893H294.379C301.001 375.893 306.369 370.525 306.369 363.903V30.7679C306.369 24.1463 301.001 18.7784 294.379 18.7784Z" fill="#00B4D8"/>
<path d="M300.397 50.77V343.907C300.397 355.177 291.258 364.316 279.988 364.316H148.563C137.293 364.316 128.154 355.177 128.154 343.907V50.77C128.154 39.4969 137.293 30.3615 148.563 30.3615H279.988C291.258 30.3615 300.397 39.494 300.397 50.77Z" fill="white"/>
<path d="M217.095 25.0821C217.464 23.5197 216.496 21.9541 214.934 21.5854C213.372 21.2166 211.806 22.1843 211.437 23.7467C211.068 25.3091 212.036 26.8746 213.599 27.2434C215.161 27.6121 216.726 26.6445 217.095 25.0821Z" fill="#D5E0F7"/>
<path d="M242.386 229.487H138.498C137.615 229.487 136.898 230.203 136.898 231.086V233.335C136.898 234.218 137.615 234.935 138.498 234.935H242.386C243.269 234.935 243.985 234.218 243.985 233.335V231.086C243.985 230.203 243.269 229.487 242.386 229.487Z" fill="#6438BC"/>
<path d="M290.054 245.395H138.498C137.615 245.395 136.898 246.111 136.898 246.994V249.243C136.898 250.126 137.615 250.843 138.498 250.843H290.054C290.937 250.843 291.654 250.126 291.654 249.243V246.994C291.654 246.111 290.937 245.395 290.054 245.395Z" fill="#FF686B"/>
<path d="M271.546 261.306H138.498C137.615 261.306 136.898 262.022 136.898 262.905V265.154C136.898 266.037 137.615 266.753 138.498 266.753H271.546C272.43 266.753 273.146 266.037 273.146 265.154V262.905C273.146 262.022 272.43 261.306 271.546 261.306Z" fill="#E9EFFF"/>
<path d="M229.776 277.214H138.498C137.615 277.214 136.898 277.93 136.898 278.813V281.062C136.898 281.945 137.615 282.661 138.498 282.661H229.776C230.66 282.661 231.376 281.945 231.376 281.062V278.813C231.376 277.93 230.66 277.214 229.776 277.214Z" fill="#E9EFFF"/>
<path d="M300.397 278.971V348.732C300.397 357.338 293.42 364.316 284.814 364.316H214.263C214.093 362.219 214.008 360.096 214.008 357.953C214.008 314.156 249.512 278.655 293.306 278.655C295.698 278.655 298.061 278.76 300.397 278.971Z" fill="#F5F8FF"/>
<path d="M156.687 52.2526C156.687 45.6847 159.184 39.1197 164.184 34.1221L170.504 40.4414C163.991 46.9538 163.991 57.5543 170.504 64.0666C173.659 67.2219 177.855 68.9589 182.315 68.9589C186.774 68.9589 190.971 67.2219 194.126 64.0666L200.445 70.3859C195.603 75.2285 189.163 77.8955 182.315 77.8955C175.466 77.8955 169.027 75.2285 164.184 70.3859C159.187 65.3884 156.687 58.8205 156.687 52.2555V52.2526Z" fill="#F5F8FF"/>
<path d="M170.686 330.532C178.494 327.414 182.296 318.556 179.178 310.748C176.06 302.94 167.202 299.138 159.394 302.256C151.586 305.375 147.784 314.232 150.902 322.04C154.02 329.849 162.878 333.65 170.686 330.532Z" fill="#F5F8FF"/>
<path d="M310.723 52.1548C321.796 41.082 321.796 23.1294 310.723 12.0566C299.651 0.983816 281.698 0.983824 270.625 12.0566C259.552 23.1294 259.552 41.082 270.625 52.1548C281.698 63.2276 299.651 63.2276 310.723 52.1548Z" fill="#FF686B"/>
<path d="M294.548 32.1073L305.763 43.3218L301.888 47.1965L290.677 35.9819L279.462 47.1965L275.587 43.3218L286.802 32.1073L275.587 20.8927L279.462 17.021L290.677 28.2355L301.888 17.021L305.763 20.8927L294.548 32.1073Z" fill="white"/>
<path d="M105.187 374.948C104.643 375.162 104.032 374.893 103.819 374.349L79.5854 312.176L76.9155 305.327C76.8629 305.19 76.8103 305.041 76.7693 304.895C76.0704 302.409 77.5209 299.827 80.0065 299.131C82.4921 298.432 85.0713 299.88 85.7702 302.365L87.247 307.611L105.822 373.679C105.965 374.194 105.696 374.75 105.187 374.948Z" fill="#FDBD28"/>
<path d="M30.4788 305.327L29.2535 308.474L3.57552 374.349C3.37667 374.846 2.82983 375.13 2.30346 374.981C1.74201 374.823 1.41449 374.241 1.5724 373.679L18.0214 315.165L21.6212 302.365C21.6621 302.222 21.7118 302.073 21.7674 301.932C22.7061 299.526 25.4139 298.336 27.8206 299.274C30.2273 300.213 31.4175 302.921 30.4788 305.327Z" fill="#FDBD28"/>
<path d="M57.0747 302V374.542C57.0747 375.706 56.1302 376.653 54.9663 376.653C53.8024 376.653 52.855 375.706 52.855 374.542V302C52.855 300.836 53.7995 299.888 54.9663 299.888C56.1331 299.888 57.0747 300.836 57.0747 302Z" fill="#FDBD28"/>
<path d="M87.247 307.611L79.5854 312.176L76.9155 305.327C76.8629 305.19 76.8103 305.041 76.7693 304.895C76.0704 302.409 77.5209 299.827 80.0065 299.131C82.4921 298.432 85.0713 299.88 85.7702 302.365L87.247 307.611Z" fill="#EAA61F"/>
<path d="M57.0747 302V311.55L52.855 314.065V302C52.855 300.836 53.7995 299.888 54.9663 299.888C56.1331 299.888 57.0747 300.836 57.0747 302Z" fill="#EAA61F"/>
<path d="M30.4784 305.327L29.2531 308.474L18.021 315.165L21.6208 302.365C21.6617 302.222 21.7114 302.073 21.767 301.932C22.7057 299.526 25.4135 298.336 27.8202 299.274C30.2269 300.213 31.4171 302.921 30.4784 305.327Z" fill="#EAA61F"/>
<path d="M78.0009 277.026C67.9619 266.987 56.8819 238.455 48.6325 216.266C40.6113 194.685 4.49071 182.412 0.975739 226.027C-2.54216 269.64 3.43797 304.813 45.9948 307.626C88.5517 310.439 113.42 295.932 112.82 289.688C111.946 280.559 91.0139 290.039 78.0009 277.026Z" fill="#D5E0F7"/>
<path d="M48.0558 226.182C46.5381 221.726 44.0817 217.594 40.6106 214.412C37.3851 211.456 33.0163 208.961 27.7935 209.675C16.1871 211.257 4.05139 231.042 8.27403 260.586C12.4938 290.13 31.4869 299.362 64.1977 297.517C78.3044 296.721 88.1826 293.82 94.3177 291.706C95.6248 291.256 95.3646 289.338 93.9843 289.282C86.9865 288.99 76.7779 285.989 68.9438 272.985C58.6767 255.942 50.9654 234.741 48.0558 226.185V226.182Z" fill="#E9EFFF"/>
<path d="M333.278 287.811C337.337 290.194 349.282 285.15 358.625 279.518C366.322 274.877 372.255 269.844 370.577 268.233C366.854 264.663 355.034 253.65 370.875 246.362C386.71 239.069 386.093 236.28 377.87 233.487C369.647 230.694 383.85 215.506 387.953 212.081C393.108 207.777 384.85 206.809 379.73 206.651C376.981 206.566 378.847 200.206 381.16 194.343C382.049 192.085 379.391 190.117 377.487 191.62C371.498 196.343 363.907 201.048 361.362 197.036C356.926 190.056 356.461 188.968 354.602 202.773C353.759 209.046 351.727 212.4 349.461 213.69C346.732 215.239 343.662 213.801 341.884 210.838C338.626 205.411 333.053 217.199 333.281 235.66C333.509 254.115 316.598 245.433 315.048 247.912C313.498 250.392 320.642 280.404 333.281 287.811H333.278Z" fill="#949DB2"/>
<path d="M358.625 279.518C366.322 274.877 372.255 269.844 370.577 268.233C366.854 264.663 355.034 253.65 370.875 246.362C386.71 239.069 386.093 236.28 377.87 233.487C369.647 230.694 383.85 215.506 387.953 212.081C393.108 207.777 384.85 206.809 379.73 206.651C376.981 206.566 378.847 200.206 381.16 194.343C382.049 192.085 379.391 190.117 377.487 191.62C371.498 196.343 363.907 201.048 361.362 197.036C356.926 190.056 356.461 188.968 354.602 202.773C353.759 209.046 351.727 212.4 349.461 213.69C343.796 237.657 338.705 269.49 358.628 279.518H358.625Z" fill="#949DB2"/>
<path d="M322.578 255.065C323.11 257.097 323.987 258.992 324.905 260.852C325.832 262.709 326.841 264.522 327.903 266.3C328.961 268.081 330.058 269.838 331.193 271.57C332.327 273.304 333.479 275.014 334.69 276.716L335.038 277.149L335.532 277.094C339.702 276.626 343.84 276.055 347.969 275.362C350.031 275.003 352.089 274.62 354.133 274.149C355.154 273.897 356.175 273.652 357.18 273.336C358.189 273.035 359.184 272.657 360.137 272.16C360.251 272.102 360.295 271.961 360.236 271.847C360.178 271.739 360.046 271.692 359.935 271.742L359.915 271.751C358.991 272.163 358.014 272.473 357.008 272.71C356.008 272.962 354.987 273.146 353.97 273.333C351.926 273.678 349.864 273.941 347.802 274.175C343.673 274.623 339.518 274.947 335.383 275.166L336.225 275.544C334.95 273.959 333.699 272.321 332.479 270.675C331.254 269.028 330.07 267.356 328.917 265.657C327.762 263.961 326.663 262.232 325.642 260.457C324.633 258.682 323.66 256.866 323.031 254.936C322.99 254.811 322.858 254.743 322.738 254.784C322.621 254.822 322.554 254.945 322.586 255.065H322.578Z" fill="#C4CBDA"/>
<path d="M340.252 220.161C340.316 222.053 340.653 223.91 341.024 225.749C341.401 227.589 341.857 229.41 342.36 231.218C342.857 233.025 343.393 234.823 343.963 236.607C344.533 238.397 345.121 240.166 345.761 241.947L345.984 242.567L346.715 242.605C348.653 242.564 350.557 242.464 352.472 242.333C354.385 242.201 356.294 242.029 358.198 241.798C360.102 241.57 362.003 241.292 363.883 240.897C365.76 240.502 367.638 240.04 369.422 239.286C369.538 239.236 369.594 239.099 369.544 238.982C369.498 238.868 369.369 238.812 369.255 238.853H369.252C367.474 239.464 365.602 239.783 363.737 240.037C361.865 240.292 359.979 240.429 358.09 240.52C356.201 240.613 354.309 240.648 352.417 240.643C350.528 240.637 348.624 240.599 346.756 240.502L347.709 241.157C346.963 239.476 346.247 237.756 345.557 236.037C344.864 234.314 344.206 232.58 343.586 230.832C342.96 229.086 342.378 227.323 341.875 225.542C341.378 223.761 340.916 221.959 340.72 220.129C340.705 219.997 340.591 219.907 340.462 219.918C340.34 219.93 340.252 220.038 340.255 220.158L340.252 220.161Z" fill="#C4CBDA"/>
<path d="M358.71 202.159C358.66 204.692 358.701 207.224 358.754 209.754C358.809 212.283 358.891 214.81 358.991 217.342V218.348L360.038 218.281C361.538 218.184 363.006 218.05 364.485 217.892C365.962 217.731 367.436 217.541 368.904 217.316C370.372 217.091 371.837 216.81 373.287 216.462C374.732 216.105 376.185 215.687 377.516 214.924C377.627 214.859 377.665 214.719 377.601 214.605C377.539 214.5 377.411 214.459 377.302 214.508L377.288 214.514C375.995 215.108 374.551 215.394 373.115 215.611C371.673 215.821 370.223 215.965 368.764 216.055C367.304 216.146 365.842 216.202 364.38 216.228C362.921 216.251 361.447 216.251 360.003 216.213L361.049 217.152C360.687 214.663 360.339 212.16 360.017 209.663C359.698 207.163 359.391 204.659 359.175 202.15C359.166 202.022 359.052 201.925 358.923 201.937C358.804 201.946 358.713 202.048 358.71 202.165V202.159Z" fill="#C4CBDA"/>
<path d="M292.522 235.487C295.385 237.874 305.295 248.471 299.558 250.422C293.82 252.372 293.388 254.317 304.436 259.402C315.486 264.487 307.243 272.172 304.646 274.661C303.473 275.787 307.614 279.302 312.986 282.536C319.504 286.463 327.836 289.987 330.669 288.32C339.489 283.156 344.472 262.218 343.387 260.487C342.758 259.478 338.477 261.119 335.053 260.101C332.611 259.379 330.605 257.3 330.669 251.939C330.827 239.058 326.938 230.835 324.666 234.625C323.423 236.692 321.282 237.695 319.379 236.613C317.797 235.716 316.378 233.373 315.79 229.001C314.492 219.369 314.167 220.126 311.071 224.995C309.299 227.797 304.003 224.513 299.824 221.217C298.944 220.524 297.833 220.892 297.362 221.679C297.125 222.08 297.055 222.586 297.265 223.118C298.877 227.209 300.178 231.648 298.262 231.709C294.689 231.818 288.928 232.496 292.525 235.496L292.522 235.487Z" fill="#949DB2"/>
<path d="M297.362 221.67C300.763 232.493 311.583 259.481 335.05 260.098C332.608 259.375 330.602 257.296 330.666 251.936C330.824 239.055 326.935 230.832 324.663 234.622C323.42 236.689 321.279 237.692 319.376 236.61C317.794 235.712 316.375 233.37 315.788 228.998C314.489 219.366 314.165 220.123 311.068 224.992C309.296 227.793 304 224.509 299.821 221.214C298.941 220.521 297.83 220.889 297.359 221.676L297.362 221.67Z" fill="#949DB2"/>
<path d="M333.219 302.821C333.201 301.038 333.093 299.35 332.953 297.628C332.807 295.917 332.625 294.209 332.403 292.51C331.964 289.109 331.368 285.738 330.654 282.392C329.23 275.702 327.256 269.137 324.803 262.765C323.572 259.58 322.186 256.457 320.712 253.384C319.206 250.322 317.586 247.322 315.831 244.397C312.319 238.558 308.266 233.054 303.772 227.954C303.713 227.887 303.611 227.881 303.544 227.94C303.476 227.998 303.47 228.1 303.526 228.168C307.863 233.376 311.737 238.961 315.056 244.851C316.714 247.798 318.235 250.816 319.642 253.887C321.016 256.972 322.3 260.095 323.429 263.276C325.677 269.637 327.441 276.167 328.657 282.793C329.268 286.103 329.76 289.437 330.096 292.779C330.268 294.452 330.397 296.125 330.494 297.797C330.584 299.461 330.64 301.166 330.613 302.775V302.813C330.599 303.535 331.175 304.128 331.897 304.143C332.62 304.155 333.213 303.582 333.228 302.859C333.228 302.851 333.228 302.833 333.228 302.821H333.219Z" fill="#C4CBDA"/>
<path d="M337.819 265.388C337.38 266.736 336.702 268.002 335.997 269.239C335.287 270.476 334.518 271.684 333.713 272.865C332.912 274.049 332.085 275.216 331.228 276.365C330.377 277.512 329.502 278.655 328.613 279.761L329.201 279.497C326.315 279.345 323.417 279.117 320.537 278.807C319.098 278.643 317.659 278.459 316.235 278.219C314.82 277.959 313.375 277.696 312.088 277.117L312.074 277.111C311.992 277.073 311.895 277.111 311.86 277.193C311.825 277.272 311.86 277.363 311.933 277.404C312.597 277.752 313.293 278.015 313.998 278.222C314.7 278.442 315.41 278.614 316.124 278.79C317.551 279.117 318.987 279.386 320.426 279.638C323.306 280.12 326.192 280.521 329.102 280.845L329.447 280.883L329.69 280.582C330.532 279.395 331.336 278.202 332.128 276.991C332.921 275.784 333.684 274.558 334.424 273.315C335.164 272.076 335.869 270.809 336.515 269.514C337.155 268.216 337.766 266.894 338.138 265.478C338.161 265.391 338.109 265.303 338.021 265.28C337.936 265.259 337.851 265.306 337.825 265.385L337.819 265.388Z" fill="#C4CBDA"/>
<path d="M325.476 241.105C325.338 242.382 325.017 243.637 324.669 244.88C324.318 246.123 323.911 247.351 323.476 248.57C323.043 249.79 322.584 251 322.101 252.202C321.619 253.401 321.119 254.603 320.601 255.776L321.265 255.316C319.961 255.384 318.633 255.41 317.317 255.413C315.998 255.419 314.677 255.393 313.358 255.328C312.039 255.267 310.723 255.167 309.419 254.992C308.117 254.814 306.81 254.591 305.57 254.167C305.486 254.138 305.392 254.182 305.363 254.267C305.336 254.349 305.374 254.436 305.453 254.468C306.696 254.995 308.006 255.316 309.316 255.594C310.629 255.869 311.954 256.062 313.282 256.223C314.609 256.384 315.943 256.507 317.276 256.597C318.613 256.688 319.94 256.758 321.294 256.787L321.753 256.796L321.961 256.328C322.405 255.085 322.818 253.851 323.215 252.603C323.613 251.357 323.987 250.103 324.333 248.842C324.68 247.582 325.002 246.313 325.262 245.029C325.523 243.745 325.754 242.45 325.8 241.128C325.803 241.037 325.733 240.964 325.643 240.961C325.558 240.958 325.485 241.026 325.476 241.107V241.105Z" fill="#C4CBDA"/>
<path d="M312.597 228.557C312.445 230.305 312.231 232.054 312.009 233.797C311.784 235.54 311.541 237.286 311.29 239.023L312.018 238.367C309.994 238.414 307.939 238.382 305.906 238.256C304.889 238.192 303.874 238.093 302.871 237.946C301.871 237.794 300.862 237.595 299.961 237.183H299.952C299.871 237.142 299.774 237.177 299.736 237.259C299.701 237.335 299.73 237.426 299.803 237.467C300.73 237.999 301.745 238.291 302.754 238.54C303.766 238.783 304.786 238.979 305.813 239.137C307.865 239.452 309.915 239.669 311.997 239.812L312.726 239.862V239.16C312.796 237.394 312.851 235.63 312.889 233.864C312.927 232.101 312.957 230.335 312.922 228.565C312.922 228.475 312.845 228.405 312.755 228.407C312.67 228.407 312.603 228.475 312.597 228.557Z" fill="#C4CBDA"/>
<path d="M333.36 308.529C333.336 307.398 333.348 306.175 333.38 304.988C333.412 303.792 333.462 302.593 333.529 301.394C333.667 298.996 333.851 296.596 334.1 294.201C334.582 289.408 335.29 284.632 336.164 279.886C337.047 275.14 338.097 270.423 339.355 265.756C340.612 261.092 342.054 256.475 343.659 251.913C345.273 247.354 347.116 242.877 349.087 238.455C350.119 236.265 351.116 234.06 352.239 231.914C353.306 229.738 354.494 227.627 355.657 225.501C360.418 217.058 365.971 209.058 372.185 201.589C372.267 201.49 372.256 201.343 372.159 201.262C372.063 201.18 371.916 201.191 371.834 201.285C365.392 208.596 359.582 216.482 354.546 224.855C353.312 226.963 352.058 229.06 350.92 231.221C349.724 233.352 348.657 235.551 347.551 237.733C345.437 242.14 343.449 246.614 341.685 251.179C339.931 255.746 338.34 260.379 336.933 265.072C335.527 269.765 334.328 274.52 333.295 279.313C332.272 284.109 331.415 288.943 330.786 293.815C330.465 296.25 330.207 298.695 329.997 301.149C329.895 302.377 329.807 303.605 329.74 304.839C329.672 306.082 329.623 307.29 329.614 308.594C329.605 309.629 330.438 310.471 331.474 310.48C332.509 310.489 333.351 309.655 333.36 308.62C333.36 308.606 333.36 308.591 333.36 308.576V308.527V308.529Z" fill="#C4CBDA"/>
<path d="M333.912 369.834C329.724 369.834 326.253 366.585 325.979 362.403L321.504 294.446H346.323L341.849 362.403C341.574 366.582 338.103 369.834 333.915 369.834H333.912Z" fill="#03060B"/>
<path d="M347.136 292.121H320.692C319.855 292.121 319.177 292.8 319.177 293.636V296.423C319.177 297.26 319.855 297.938 320.692 297.938H347.136C347.972 297.938 348.65 297.26 348.65 296.423V293.636C348.65 292.8 347.972 292.121 347.136 292.121Z" fill="#03060B"/>
<path d="M324.859 331.703L323.804 331.45L313.379 374.809L314.433 375.063L324.859 331.703Z" fill="#C4CBDA"/>
<path d="M353.567 375.063L354.622 374.81L344.196 331.45L343.141 331.704L353.567 375.063Z" fill="#C4CBDA"/>
<path d="M334.532 333.886H333.167V375.226H334.532V333.886Z" fill="#C4CBDA"/>
<path d="M333.851 334.576C330.394 334.576 326.941 333.74 323.511 332.07C323.166 331.9 323.019 331.482 323.189 331.137C323.359 330.789 323.774 330.646 324.122 330.815C330.579 333.959 337.126 333.959 343.58 330.815C343.928 330.646 344.343 330.792 344.513 331.137C344.682 331.485 344.536 331.9 344.191 332.07C340.761 333.74 337.304 334.576 333.851 334.576Z" fill="#C4CBDA"/>
<path d="M333.851 357.049C328.786 357.049 323.718 355.824 318.688 353.376C318.343 353.206 318.197 352.788 318.367 352.443C318.536 352.095 318.954 351.952 319.299 352.121C328.955 356.824 338.746 356.824 348.402 352.121C348.75 351.952 349.165 352.098 349.335 352.443C349.504 352.791 349.358 353.206 349.013 353.376C343.983 355.827 338.915 357.049 333.851 357.049Z" fill="#C4CBDA"/>
<path d="M52.6504 356.487L52.9194 341.021L71.7517 340.091L68.962 356.35C68.962 356.35 57.2064 359.073 52.6533 356.485L52.6504 356.487Z" fill="#F9D5CE"/>
<path d="M91.4111 374.635L51.8574 374.188L52.1791 355.596C62.3672 356.68 69.4469 353.853 69.4469 353.853C69.4469 353.853 67.1513 360.836 80.3222 359.929C82.0212 359.812 83.4629 359.97 84.6911 360.333C89.8904 361.871 91.2122 367.094 91.4725 370.781C91.6304 372.983 91.4081 374.635 91.4081 374.635H91.4111Z" fill="#67696C"/>
<path d="M91.411 374.635L76.0908 374.369C75.0936 364.026 81.486 361.131 84.694 360.33C89.8933 361.868 91.2151 367.091 91.4753 370.778C91.6332 372.98 91.411 374.633 91.411 374.633V374.635Z" fill="#949DB2"/>
<path d="M91.4111 374.635L51.8574 374.188L51.9247 370.334L91.4754 370.781C91.6333 372.983 91.4111 374.635 91.4111 374.635Z" fill="#949DB2"/>
<path d="M76.8342 358.9L73.2344 363.715L74.1431 364.394L77.743 359.579L76.8342 358.9Z" fill="#949DB2"/>
<path d="M72.9902 357.317L68.5806 363.137L69.4849 363.822L73.8946 358.002L72.9902 357.317Z" fill="#949DB2"/>
<path d="M69.1646 356.097L65.4546 360.794L66.345 361.497L70.055 356.8L69.1646 356.097Z" fill="#949DB2"/>
<path d="M86.165 286.092C82.7992 305.447 79.0328 325.382 77.0092 339.503C76.7752 341.118 76.5647 342.656 76.3834 344.109C70.7805 345.565 65.4671 345.299 61.2123 344.524C55.4719 343.472 51.6558 341.477 51.6558 341.477C51.7259 339.667 51.7932 337.837 51.8605 335.991C53.0389 303.544 53.6911 266.838 56.1621 244.821C57.1739 235.803 58.4898 229.25 60.2765 226.463C60.2765 226.463 71.9794 225.667 86.2586 228.738C88.4196 229.197 90.645 229.753 92.8938 230.411C93.5722 241.108 90.1479 263.192 86.168 286.089L86.165 286.092Z" fill="#03060B"/>
<path d="M94.499 356.464L94.8558 341.001L113.694 340.182L110.811 356.423C110.811 356.423 99.0404 359.078 94.5019 356.464H94.499Z" fill="#F9D5CE"/>
<path d="M133.155 374.834L93.604 374.159L94.0339 355.566C104.216 356.71 111.313 353.923 111.313 353.923C111.313 353.923 108.98 360.891 122.154 360.061C123.853 359.956 125.294 360.119 126.52 360.491C131.71 362.058 133 367.29 133.242 370.98C133.386 373.182 133.155 374.834 133.155 374.834Z" fill="#67696C"/>
<path d="M133.155 374.834L117.835 374.481C116.896 364.132 123.306 361.272 126.52 360.491C131.71 362.058 133 367.29 133.243 370.98C133.386 373.182 133.155 374.834 133.155 374.834Z" fill="#949DB2"/>
<path d="M133.155 374.834L93.604 374.159L93.6917 370.305L133.24 370.98C133.383 373.182 133.152 374.834 133.152 374.834H133.155Z" fill="#949DB2"/>
<path d="M118.675 359.016L115.046 363.81L115.951 364.494L119.579 359.7L118.675 359.016Z" fill="#949DB2"/>
<path d="M114.835 357.412L110.392 363.206L111.292 363.897L115.736 358.102L114.835 357.412Z" fill="#949DB2"/>
<path d="M111.018 356.171L107.281 360.848L108.167 361.556L111.904 356.88L111.018 356.171Z" fill="#949DB2"/>
<path d="M116.972 340.726C116.955 342.393 116.934 343.975 116.905 345.445C110.934 347.694 105.094 347.838 100.57 347.346C95.4586 346.799 92.0372 345.448 92.0372 345.448L91.5723 340.778L86.1624 286.092L86.0045 284.474L80.7729 231.621C80.7729 231.621 82.7468 230.253 86.253 228.741C91.4992 226.472 100.184 223.869 110.799 225.042C115.458 244.266 117.288 309.065 116.97 340.726H116.972Z" fill="#03060B"/>
<path d="M116.972 340.726C116.954 342.393 116.934 343.975 116.905 345.445C110.933 347.694 105.094 347.838 100.57 347.346C95.4581 346.799 92.0367 345.448 92.0367 345.448L91.5718 340.778C97.0899 341.811 106.559 342.843 116.969 340.723L116.972 340.726Z" fill="#03060B"/>
<path d="M77.0092 339.503C76.7752 341.118 76.5647 342.656 76.3834 344.109C70.7805 345.565 65.4671 345.299 61.2123 344.524C55.4719 343.472 51.6558 341.477 51.6558 341.477C51.7259 339.667 51.7932 337.837 51.8605 335.991C57.054 337.994 67.4556 341.226 77.0121 339.503H77.0092Z" fill="#03060B"/>
<g opacity="0.6">
<path d="M100.573 347.346C95.4615 346.799 92.0401 345.448 92.0401 345.448L86.0073 284.472C87.0103 279.337 90.3499 262.121 91.2915 255.279C90.5984 272.979 92.1278 306.842 92.1278 306.842C92.7799 317.495 94.2772 339.65 100.573 347.346Z" fill="#03060B"/>
</g>
<g opacity="0.6">
<path d="M61.2093 344.524C55.469 343.472 51.6528 341.477 51.6528 341.477C52.9688 307.763 53.5478 268.09 56.1591 244.824C57.0452 254.556 58.6331 274.754 57.7061 286.498C56.4516 302.386 54.3607 334.576 60.2151 341.685C61.2064 342.89 61.4637 343.817 61.2093 344.527V344.524Z" fill="#03060B"/>
</g>
<path d="M152.672 171.15C152.672 171.15 143.154 197.714 136.305 205.809C133.422 209.221 128.684 209.224 124.169 208.084C121.938 207.522 119.754 206.683 117.882 205.835C114.551 204.329 112.18 202.808 112.18 202.808L114.765 199.946L124.184 189.506C124.184 189.506 125.137 190.743 126.248 191.05C126.959 191.252 127.734 191.068 128.363 189.924C129.971 187.012 142.452 167.124 142.452 167.124L152.675 171.153L152.672 171.15Z" fill="#F9D5CE"/>
<path d="M150.2 174.648C150.2 174.648 148.832 174.58 154.938 170.323C161.044 166.065 167.483 161.538 164.608 159.828C161.734 158.12 152.037 161.375 148.732 163.749C144.758 166.603 141.1 166.872 141.957 169.372C142.817 171.873 150.2 174.648 150.2 174.648Z" fill="#F9D5CE"/>
<path d="M142.377 167.167C142.377 167.167 144.112 161.752 147.156 160.307C150.2 158.863 146.22 164.138 147.141 165.594C148.062 167.051 143.035 167.831 142.377 167.167Z" fill="#F9D5CE"/>
<path d="M126.689 189.506C126.689 189.506 126.54 190.091 126.245 191.05C125.321 194.059 122.987 200.744 119.522 204.408C118.999 204.964 118.452 205.449 117.879 205.838C117.811 205.885 117.744 205.929 117.677 205.973C117.18 206.294 116.683 206.563 116.185 206.78C114.671 205.671 113.255 204.689 111.904 203.779C105.345 199.361 100.342 196.656 93.7505 189.79C91.3964 187.339 89.5191 184.555 88.3318 181.438C83.1237 167.793 102.02 166.936 102.02 166.936C102.02 166.936 113.308 172.791 126.686 189.512L126.689 189.506Z" fill="url(#paint0_linear_13474_368377)"/>
<path d="M111.357 231.615C111.357 231.615 94.5634 244.693 59.1359 229.881C59.1037 229.864 59.0744 229.852 59.0394 229.84C59.0364 229.823 59.0306 229.802 59.0364 229.785C57.9837 220.149 57.7995 211.719 58.1328 204.478C58.203 203.001 58.2907 201.572 58.4048 200.197C59.4371 187.053 62.1595 178.382 63.9784 174.034C65.6307 170.086 66.9203 168.621 67.6104 168.08C67.9671 167.796 68.1572 167.761 68.1572 167.761C68.1572 167.761 71.2043 165.805 78.0559 164.989C82.5505 164.451 88.6885 164.404 96.6776 165.72C97.7976 165.904 98.9527 166.118 100.149 166.355C116.215 169.595 111.357 231.613 111.357 231.613V231.615Z" fill="url(#paint1_linear_13474_368377)"/>
<path d="M46.4185 187.833C46.4185 187.833 42.0613 193.907 40.9823 190.76C39.9032 187.614 32.4434 165.968 32.4434 165.968L21.6763 168.162C21.6763 168.162 27.285 197.068 32.6189 206.23C37.9557 215.394 56.8669 202.048 56.8669 202.048L46.4156 187.833H46.4185Z" fill="#F9D5CE"/>
<path d="M23.5065 172.03C23.5065 172.03 24.8663 172.2 19.5939 166.945C14.3214 161.69 7.02536 161.202 9.72154 159.225C12.4206 157.248 22.3836 159.558 25.9015 161.6C30.1329 164.059 33.8233 165.951 32.5425 168.264C31.2617 170.577 23.5065 172.028 23.5065 172.028V172.03Z" fill="#F9D5CE"/>
<path d="M32.5134 166.024C32.5134 166.024 30.3114 159.17 27.1415 158.026C23.9716 156.88 28.4428 161.749 27.6649 163.29C26.8871 164.828 31.7501 166.565 32.5134 166.027V166.024Z" fill="#F9D5CE"/>
<path d="M82.7462 181.432C81.559 184.552 79.6816 187.336 77.3275 189.784C71.1866 196.179 66.423 198.966 60.4925 202.893C59.7264 203.396 58.9456 203.923 58.1356 204.478C57.0975 205.189 56.0213 205.946 54.8926 206.774C54.3984 206.557 53.9012 206.288 53.4041 205.967C52.7637 205.557 52.1262 205.022 51.4975 204.391C46.5379 199.419 42.2422 188.667 42.2422 188.667C55.2435 175.864 67.5312 168.08 67.5312 168.08H67.6161C69.0343 168.077 87.7643 168.296 82.7491 181.429L82.7462 181.432Z" fill="url(#paint2_linear_13474_368377)"/>
<path d="M50.1816 204.554C50.1816 204.554 50.1846 204.698 50.1934 204.964C50.1846 204.973 50.1816 204.973 50.1816 204.973V204.554Z" fill="#4741BB"/>
<path d="M60.2148 214.172C59.9253 220.214 60.4312 225.86 59.1357 229.884C59.1036 229.867 59.0743 229.855 59.0392 229.843C59.0363 229.826 59.0305 229.805 59.0363 229.788C57.9836 220.152 57.7993 211.722 58.1327 204.481C57.0946 205.192 56.0185 205.949 54.8897 206.777C54.3955 206.56 53.8984 206.291 53.4013 205.97C52.7608 205.56 52.1233 205.025 51.4946 204.393C53.3311 203.545 56.6296 201.893 58.4047 200.2C58.4895 200.121 58.5684 200.036 58.6474 199.957C59.861 198.694 62.1682 199.235 62.3056 202.048C62.4431 204.82 60.4253 209.815 60.2148 214.172Z" fill="#E0E0E0"/>
<path d="M119.522 204.405C118.999 204.961 118.452 205.446 117.879 205.835C117.811 205.882 117.744 205.926 117.677 205.97C117.18 206.291 116.683 206.56 116.186 206.777C114.671 205.668 113.255 204.686 111.904 203.776C111.79 203.054 111.007 197.84 111.916 197.451C112.285 197.293 113.349 198.445 114.758 199.949C116.124 201.408 117.823 203.192 119.519 204.408L119.522 204.405Z" fill="#E0E0E0"/>
<path d="M96.6808 165.726C96.2363 170.466 92.2447 174.174 87.3904 174.174C82.2846 174.174 78.138 170.077 78.0591 164.992C82.5537 164.454 88.6917 164.407 96.6808 165.723V165.726Z" fill="#ABBBFF"/>
<path d="M95.9148 149.359L94.0929 165.963C93.6894 169.644 90.3762 172.303 86.6945 171.899C83.0129 171.495 80.3547 168.182 80.7583 164.501L82.5801 147.897L95.9148 149.359Z" fill="#F9D5CE"/>
<path d="M95.9142 149.359L94.3789 163.366C87.0302 161.144 83.5533 156.333 82.0034 153.151L82.5795 147.897L95.9142 149.359Z" fill="#EABDB7"/>
<path d="M103.953 135.562C103.953 135.562 105.927 158.459 94.6128 158.658C83.3017 158.857 76.7806 149.087 76.5496 143.297C76.3186 137.51 77.9883 121.473 90.8756 122.336C103.76 123.198 103.953 135.562 103.953 135.562Z" fill="#F9D5CE"/>
<path d="M83.6969 135.711C83.6969 135.711 88.6857 137.317 102.395 131.872L100.006 135.805C100.006 135.805 111.814 130.95 104.304 120.309C101.696 116.613 82.2319 116.236 79.0532 119.903C67.204 122.201 69.6517 153.695 81.7552 153.587C83.1296 142.899 83.6998 135.711 83.6998 135.711H83.6969Z" fill="#0F094F"/>
<path d="M83.3922 142.811C83.3922 142.811 82.0939 139.91 78.1461 140.413C74.1983 140.916 74.1457 150.142 82.3073 149.128C84.173 144.648 83.3952 142.811 83.3952 142.811H83.3922Z" fill="#F9D5CE"/>
<path d="M77.5709 146.18L77.3486 145.423C79.6588 144.744 79.7144 142.49 79.7144 142.393L80.5039 142.399C80.5039 142.428 80.4542 145.332 77.5709 146.18Z" fill="#EABDB7"/>
<path d="M79.7191 144.116L79.1655 144.679L80.6042 146.094L81.1578 145.531L79.7191 144.116Z" fill="#EABDB7"/>
<path opacity="0.15" d="M121.096 34.1221C110.937 44.2459 97.7133 55.519 81.0508 66.2657C78.726 67.7658 76.334 69.2572 73.8717 70.731C56.5893 81.0917 35.9557 90.7213 11.6228 98.0378C10.0525 95.6545 9.14307 92.8005 9.14307 89.7358V49.261C9.14307 40.9006 15.9215 34.1221 24.282 34.1221H121.096Z" fill="white"/>
<path opacity="0.15" d="M291.357 143.601V114.224L276.628 98.0173L310.623 98.1343H378.12C360.759 114.651 332.821 133.98 291.357 143.601Z" fill="white"/>
<path d="M212.269 156.376C212.368 157.736 211.342 158.842 209.982 158.842C208.622 158.842 207.438 157.739 207.341 156.376C207.242 155.017 208.268 153.911 209.628 153.911C210.988 153.911 212.172 155.014 212.269 156.376Z" fill="#00B4D8"/>
<path d="M228.261 156.376C228.361 157.736 227.334 158.842 225.974 158.842C224.615 158.842 223.43 157.739 223.334 156.376C223.234 155.017 224.261 153.911 225.621 153.911C226.98 153.911 228.165 155.014 228.261 156.376Z" fill="#00B4D8"/>
<path d="M232.77 172.36C232.478 172.36 232.229 172.132 232.209 171.837C231.922 167.875 225.708 164.652 218.356 164.652C213.485 164.652 209.11 166.1 206.94 168.433C205.975 169.471 205.528 170.588 205.612 171.758C205.636 172.068 205.402 172.34 205.089 172.36C204.776 172.381 204.507 172.15 204.487 171.837C204.381 170.363 204.943 168.922 206.113 167.664C208.49 165.111 213.18 163.523 218.353 163.523C226.419 163.523 232.998 167.141 233.332 171.755C233.355 172.065 233.121 172.337 232.808 172.358C232.794 172.358 232.782 172.358 232.767 172.358L232.77 172.36Z" fill="#00B4D8"/>
<path d="M203.188 151.382C203.051 151.382 202.913 151.332 202.805 151.23C202.577 151.016 202.562 150.659 202.776 150.431L205.247 147.767C205.46 147.539 205.817 147.528 206.045 147.738C206.273 147.952 206.288 148.308 206.074 148.536L203.603 151.2C203.492 151.32 203.34 151.382 203.191 151.382H203.188Z" fill="#00B4D8"/>
<path d="M231.612 151.382C231.475 151.382 231.337 151.332 231.226 151.23L228.369 148.566C228.141 148.352 228.129 147.995 228.343 147.767C228.556 147.539 228.913 147.528 229.141 147.741L231.998 150.405C232.226 150.619 232.238 150.975 232.024 151.203C231.913 151.323 231.764 151.382 231.612 151.382Z" fill="#00B4D8"/>
<path d="M245.4 134.965L229.922 119.487C229.632 119.197 229.238 119.034 228.828 119.034H196.322C192.909 119.034 190.131 121.812 190.131 125.224V187.14C190.131 190.555 192.909 193.33 196.322 193.33H239.663C243.075 193.33 245.853 190.552 245.853 187.14V136.059C245.853 135.646 245.69 135.254 245.4 134.965ZM230.375 124.318L240.569 134.512H233.472C231.764 134.512 230.375 133.123 230.375 131.415V124.318ZM242.759 187.14C242.759 188.847 241.37 190.237 239.663 190.237H196.322C194.614 190.237 193.225 188.847 193.225 187.14V125.224C193.225 123.516 194.614 122.127 196.322 122.127H227.281V131.415C227.281 134.83 230.059 137.606 233.472 137.606H242.759V187.137V187.14Z" fill="#00B4D8"/>
</g>
<defs>
<linearGradient id="paint0_linear_13474_368377" x1="107.06" y1="169.673" x2="107.06" y2="203.064" gradientUnits="userSpaceOnUse">
<stop stop-color="#F4F4F4"/>
<stop offset="1" stop-color="white"/>
</linearGradient>
<linearGradient id="paint1_linear_13474_368377" x1="85.0188" y1="169.601" x2="85.0188" y2="230.202" gradientUnits="userSpaceOnUse">
<stop stop-color="#F4F4F4"/>
<stop offset="1" stop-color="white"/>
</linearGradient>
<linearGradient id="paint2_linear_13474_368377" x1="62.9244" y1="170.737" x2="62.9244" y2="203.165" gradientUnits="userSpaceOnUse">
<stop stop-color="#F4F4F4"/>
<stop offset="1" stop-color="white"/>
</linearGradient>
<clipPath id="clip0_13474_368377">
<rect width="403.751" height="376.306" fill="white" transform="translate(0.124512 0.346802)"/>
</clipPath>
</defs>
</svg>
