<svg width="504" height="229" viewBox="0 0 504 229" fill="none" xmlns="http://www.w3.org/2000/svg">
<g clip-path="url(#clip0_13558_368834)">
<path opacity="0.3" d="M355.861 228C357.907 226.792 359.93 225.546 361.933 224.259C387.45 207.849 409.347 183.673 416.577 154.188C423.81 124.704 413.459 89.9699 387.551 74.1908C365.024 60.4713 336.18 63.041 310.81 70.2304C285.437 77.4174 260.997 88.7789 234.768 91.5002C203.703 94.7219 170.399 85.8868 142.187 99.2959C110.875 114.178 96.7607 154.848 106.904 188.028C111.555 203.237 120.437 216.634 131.909 227.581L355.859 228.002L355.861 228Z" fill="#EBEBFF"/>
<path opacity="0.6" d="M160.974 227.872L160.88 227.812C158.88 226.54 156.9 225.226 154.994 223.907C127.179 204.642 108.361 178.629 102.005 150.664C94.5301 117.77 106.423 82.5231 130.282 66.8618C148.876 54.6558 173.961 53.241 204.843 62.656C212.873 65.1054 220.933 68.0625 228.728 70.9257C244.738 76.8038 261.292 82.884 278.324 84.78C288.867 85.9518 299.856 85.5716 310.485 85.1986C330.031 84.5153 350.241 83.8103 368.014 92.9078C397.23 107.859 412.611 149.545 402.299 185.826C397.848 201.487 388.796 213.879 372.03 227.259L371.927 227.341H371.795L160.974 227.875V227.872ZM167.894 57.2808C153.518 57.2808 141.081 60.6902 130.702 67.5019C107.099 82.9947 95.3449 117.9 102.753 150.495C109.065 178.271 127.775 204.12 155.431 223.277C157.299 224.571 159.236 225.859 161.197 227.105L371.662 226.573C388.226 213.33 397.172 201.076 401.566 185.612C411.782 149.663 396.574 108.381 367.665 93.5863C350.068 84.5803 329.959 85.2853 310.511 85.9614C299.856 86.3343 288.84 86.7193 278.24 85.5379C261.114 83.6323 244.515 77.5377 228.463 71.6427C220.68 68.7843 212.63 65.8296 204.619 63.3875C191.262 59.3139 178.999 57.2808 167.894 57.2808Z" fill="#20A4F3"/>
<path d="M450.541 211.463C443.015 211.463 436.896 205.739 436.896 198.704C436.896 191.668 443.018 185.944 450.541 185.944C458.064 185.944 464.186 191.668 464.186 198.704C464.186 205.739 458.064 211.463 450.541 211.463ZM450.541 190.698C445.638 190.698 441.647 194.288 441.647 198.701C441.647 203.114 445.638 206.704 450.541 206.704C455.444 206.704 459.434 203.114 459.434 198.701C459.434 194.288 455.444 190.698 450.541 190.698Z" fill="#20A4F3"/>
<path d="M445.731 227.259H415.866L410.763 175.391H450.836L445.731 227.259Z" fill="white"/>
<path d="M446.193 227.769H415.405L410.198 174.878H451.399L446.193 227.769ZM416.33 226.746H445.267L450.272 175.901H411.326L416.33 226.746Z" fill="#20A4F3"/>
<path d="M440.534 222.947H421.062L417.733 190.434H443.863L440.534 222.947Z" fill="#EBEBFF"/>
<path d="M76.0511 30.9615C77.7048 34.4432 79.2095 37.9801 80.6757 41.5315L82.8198 46.8754L84.8749 52.2506L81.8078 51.3483L86.954 47.3061C88.6726 45.9611 90.4249 44.6642 92.1603 43.3385L94.2563 41.7384L95.2249 44.1662C95.922 45.913 96.5686 47.6815 97.244 49.4379C97.9122 51.1968 98.5299 52.9773 99.1765 54.7457C99.7846 56.5286 100.419 58.3019 100.991 60.1017C101.585 61.8918 102.138 63.6988 102.655 65.5178L101.176 66.1217C100.27 64.4591 99.4025 62.7821 98.5708 61.0906C97.7199 59.4063 96.9315 57.6956 96.1167 55.9969C95.3403 54.2814 94.5351 52.5778 93.7803 50.8551C93.0328 49.1299 92.2564 47.4144 91.5305 45.6796L94.5976 46.5073C92.8766 47.8475 91.1748 49.2141 89.437 50.5327L84.2187 54.4835L82.0025 56.1605L81.1516 53.5788L79.3513 48.1122L77.6375 42.6142C76.5318 38.9353 75.4646 35.2444 74.5488 31.4981L76.0535 30.9615H76.0511Z" fill="#FFA121"/>
<path d="M351.816 19.6183C350.9 23.3645 349.833 27.0555 348.727 30.7344L347.013 36.2323L345.213 41.6989L344.362 44.2807L342.146 42.6036L336.928 38.6528C335.19 37.3319 333.488 35.9676 331.767 34.6274L334.834 33.7997C334.108 35.5345 333.332 37.2501 332.584 38.9776C331.829 40.7004 331.024 42.4039 330.248 44.1195C329.433 45.8182 328.645 47.5289 327.794 49.2131C326.962 50.9046 326.094 52.5817 325.188 54.2443L323.71 53.6403C324.229 51.8189 324.782 50.0144 325.373 48.2242C325.945 46.4245 326.58 44.6536 327.188 42.8683C327.835 41.0998 328.452 39.3217 329.121 37.5605C329.796 35.804 330.443 34.0355 331.14 32.2887L332.108 29.861L334.204 31.461C335.937 32.7844 337.692 34.0837 339.411 35.4287L344.557 39.4709L341.49 40.3732L343.545 34.998L345.689 29.6541C347.153 26.1027 348.657 22.5681 350.311 19.0841L351.816 19.6207V19.6183Z" fill="#FFA121"/>
<path d="M282.039 80.5165L246.561 78.3606L200.269 90.6052C184.035 94.8976 170.856 106.752 164.871 122.452L135.945 198.275L192.784 147.858L208.439 227.235L314.62 226.893L314.279 116.685L282.036 80.5165H282.039Z" fill="#20A4F3"/>
<path d="M253.733 121.663C247.303 121.663 241.299 119.156 237.328 114.726L238.088 114.043C242.337 118.783 249.056 121.213 256.05 120.527C263.547 119.798 270.097 115.602 274.024 109.012L274.902 109.536C270.806 116.406 263.972 120.785 256.151 121.545C255.341 121.622 254.533 121.663 253.735 121.663H253.733Z" fill="white"/>
<path d="M258.146 107.794C251.346 111.086 242.996 107.835 239.575 100.559L238.421 98.0953L226.721 73.2092L219.562 57.9714L254.144 41.2419L269.202 73.2717C275.389 86.445 270.457 101.837 258.146 107.794Z" fill="#FFBC96"/>
<path d="M257.442 66.7801C254.399 81.6209 246.794 91.789 238.422 98.0953L226.721 73.2092L257.442 66.7801Z" fill="#03060B"/>
<path d="M261.496 48.2099C261.496 66.1304 251.403 78.4159 238.599 84.7488C225.422 91.2645 211.664 66.2267 205.092 49.4875C198.271 32.1132 217.05 19.0818 232.77 19.0818C248.49 19.0818 261.496 30.2869 261.496 48.2099Z" fill="#FFBC96"/>
<path d="M262.21 37.9888C260.679 19.5919 256.944 2.20309 239.919 6.64713C233.453 -2.38051 206.398 -2.20968 199.762 19.2526C195.481 33.0973 181.725 39.8632 181.725 39.8632C198.23 48.5492 213.445 45.2961 234.646 29.132C241.282 38.8406 260.17 39.5215 260.17 39.5215L262.213 37.9888H262.21Z" fill="#03060B"/>
<path d="M267.496 46.6471C268.24 40.8385 265.167 35.6575 260.631 35.075C256.094 34.4925 251.814 38.7291 251.069 44.5378C250.325 50.3464 253.399 55.5274 257.935 56.1099C262.471 56.6923 266.752 52.4557 267.496 46.6471Z" fill="#FFBC96"/>
<path d="M260.932 41.201C259.833 42.1081 259.47 43.3376 259.482 44.6537C259.49 45.3033 259.593 45.965 259.783 46.593C259.982 47.221 260.249 47.8153 260.703 48.335L260.401 48.8523C259.559 48.5756 258.932 47.8682 258.547 47.1199C258.153 46.3596 257.961 45.5127 257.961 44.6585C257.968 43.8068 258.158 42.9237 258.634 42.1706C259.093 41.4151 259.86 40.828 260.684 40.6572L260.934 41.201H260.932Z" fill="#1B1B43"/>
<path d="M232.417 55.2003C233.84 55.1059 234.908 53.7353 234.802 52.1389C234.696 50.5424 233.457 49.3248 232.035 49.4191C230.612 49.5134 229.545 50.8841 229.65 52.4805C229.756 54.0769 230.995 55.2946 232.417 55.2003Z" fill="#1B1B43"/>
<path d="M219.63 59.922C220.836 59.455 221.39 57.9793 220.867 56.626C220.344 55.2726 218.942 54.5541 217.736 55.0211C216.53 55.4881 215.977 56.9638 216.5 58.3171C217.023 59.6705 218.424 60.389 219.63 59.922Z" fill="#1B1B43"/>
<path d="M239.224 44.8197C239.277 45.6306 234.979 45.3683 233.131 45.7605C231.554 46.095 229.15 47.6324 228.069 46.0974C227.093 44.7114 229.547 43.1427 232.588 42.9406C235.628 42.7385 239.171 44.0113 239.224 44.8221V44.8197Z" fill="#1B1B43"/>
<path d="M211.513 53.7247C211.996 54.3887 214.19 52.1054 215.452 51.5183C216.529 51.0178 218.82 51.0683 218.443 49.336C218.101 47.7744 215.762 47.7239 213.965 49.0352C212.167 50.3465 211.03 53.0606 211.513 53.7247Z" fill="#1B1B43"/>
<path d="M228.728 71.9652C229.711 70.779 231.117 70.0115 232.54 69.5303C233.979 69.0587 235.458 68.8517 236.953 68.96L237.063 69.5495C235.708 70.1943 234.335 70.5528 233.013 70.9811C231.679 71.395 230.427 71.8858 229.088 72.444L228.73 71.9652H228.728Z" fill="#1B1B43"/>
<path d="M224.858 59.1287C224.933 60.2428 224.769 61.4265 224.195 62.5117C223.918 63.0507 223.519 63.5391 223.115 63.9457C222.719 64.3523 222.317 64.694 222.221 64.937C222.19 65.0597 222.137 65.156 222.164 65.3413C222.156 65.4519 222.188 65.4592 222.18 65.476C222.183 65.5025 222.226 65.541 222.253 65.5891C222.442 65.8032 222.892 66.0222 223.341 66.1882C224.269 66.5202 225.32 66.7416 226.356 66.987L226.341 67.5861C225.226 67.7377 224.118 67.7305 222.969 67.4803C222.397 67.3383 221.801 67.1723 221.195 66.6454C221.055 66.489 220.904 66.3205 220.808 66.1016C220.709 65.8658 220.644 65.618 220.647 65.4543C220.594 65.1006 220.666 64.6507 220.842 64.2826C221.238 63.5535 221.736 63.2287 222.101 62.887C222.483 62.555 222.793 62.2182 223.072 61.8356C223.625 61.068 223.969 60.1008 224.257 59.0734L224.853 59.1335L224.858 59.1287Z" fill="#D28572"/>
<path opacity="0.2" d="M252.709 56.5481C252.753 52.9379 249.865 49.9755 246.258 49.9314C242.652 49.8873 239.692 52.7782 239.648 56.3884C239.604 59.9986 242.492 62.961 246.099 63.0051C249.705 63.0492 252.664 60.1583 252.709 56.5481Z" fill="#FE5B52"/>
<path d="M341.182 117.544C331.094 96.3052 310.276 82.244 286.826 80.8124L282.038 80.5165L317.355 161.019L356.012 146.655L341.182 117.544Z" fill="#20A4F3"/>
<path d="M217.799 65.0742C217.416 59.1985 218.435 45.3996 214.864 46.9323C211.292 48.4649 210.398 68.3922 210.398 68.3922C210.398 68.3922 209.888 35.1761 206.059 36.7088C202.23 38.2415 202.23 62.2591 193.808 87.8093L146.502 187.818C140.812 199.849 147.98 214.021 161.034 216.552C170.61 218.407 180.153 213.205 183.794 204.146C196.046 173.671 218.551 107.903 220.736 95.0949C222.522 84.6188 222.06 80.0882 221.37 77.3958C220.229 72.9445 218.099 69.6602 217.801 65.0742H217.799Z" fill="#FFBC96"/>
<path d="M194.101 85.6029C195.548 81.6618 196.495 77.5449 197.377 73.4305C198.244 69.3089 198.975 65.156 199.725 61.0079L201.944 48.5419C202.335 46.4655 202.739 44.389 203.225 42.3222C203.47 41.2876 203.732 40.2578 204.059 39.2304C204.225 38.7179 204.405 38.2054 204.641 37.6953C204.756 37.4403 204.893 37.1852 205.064 36.9302C205.249 36.6896 205.446 36.384 205.943 36.2276L205.905 36.2372C206.051 36.2083 206.21 36.1915 206.359 36.1891C206.501 36.2107 206.643 36.2661 206.777 36.319C206.994 36.4489 207.198 36.6126 207.311 36.7738C207.59 37.101 207.744 37.4354 207.897 37.7699C208.191 38.4364 208.402 39.1077 208.578 39.7814C208.936 41.1288 209.186 42.4834 209.405 43.838C209.83 46.5521 210.123 49.2758 210.349 52.0019C210.791 57.4565 211.027 62.9207 210.974 68.397L209.813 68.3729C209.941 65.2811 210.174 62.2109 210.522 59.1408C210.895 56.0754 211.323 53.0028 212.287 49.9952C212.551 49.2469 212.839 48.501 213.284 47.7864C213.517 47.4351 213.779 47.079 214.169 46.7903C214.536 46.4799 215.111 46.3307 215.635 46.4029C215.757 46.4318 215.873 46.4751 215.993 46.516C216.116 46.569 216.214 46.5665 216.368 46.7037C216.438 46.759 216.505 46.8216 216.567 46.8841C216.623 46.9443 216.642 46.9924 216.68 47.0454C216.74 47.1488 216.825 47.2643 216.861 47.363C217.041 47.7672 217.156 48.157 217.255 48.5444C217.454 49.3215 217.57 50.0915 217.683 50.8638C218.082 53.9508 218.187 57.0427 218.161 60.1297C218.151 61.6864 218.053 63.1974 218.187 64.694C218.31 66.1954 218.584 67.6848 218.971 69.1501C219.36 70.6154 219.856 72.0542 220.394 73.4835C220.947 74.8982 221.5 76.3972 221.81 77.9227C222.468 80.9808 222.54 84.1232 222.257 87.2006C221.971 90.2828 221.37 93.3217 220.567 96.298L220.125 96.1825C220.868 93.2134 221.406 90.1913 221.632 87.15C221.855 84.1136 221.723 81.0434 221.031 78.0983C220.697 76.6138 220.187 75.2206 219.61 73.7818C219.055 72.3406 218.541 70.8753 218.132 69.3739C217.724 67.8701 217.43 66.3302 217.293 64.7686C217.144 63.2022 217.236 61.6359 217.233 60.1224C217.24 57.0691 217.113 54.0038 216.707 50.9986C216.594 50.2527 216.476 49.502 216.286 48.7922C216.195 48.4385 216.084 48.0896 215.95 47.7937C215.918 47.7094 215.878 47.6758 215.846 47.6108C215.808 47.5314 215.784 47.5242 215.784 47.5242C215.81 47.5049 215.702 47.4857 215.649 47.464C215.587 47.4448 215.524 47.4159 215.462 47.3991C215.01 47.3269 214.517 47.7263 214.152 48.3326C213.786 48.9269 213.517 49.6199 213.277 50.32C212.378 53.1761 211.962 56.2294 211.618 59.2563C211.291 62.2927 211.08 65.3557 210.974 68.4018L209.813 68.3777C209.864 62.9472 209.686 57.5022 209.27 52.0837C209.061 49.3745 208.787 46.67 208.381 43.9944C208.174 42.6591 207.934 41.3261 207.599 40.0364C207.436 39.3892 207.236 38.7564 206.984 38.1741C206.859 37.8902 206.715 37.5991 206.549 37.409C206.47 37.2863 206.386 37.2502 206.325 37.1972C206.299 37.1996 206.28 37.1804 206.261 37.1708C206.241 37.1852 206.229 37.1876 206.208 37.1756L206.169 37.1852C206.15 37.1852 205.984 37.3079 205.869 37.4884C205.746 37.6712 205.628 37.8782 205.527 38.1043C205.318 38.5519 205.143 39.0355 204.982 39.5239C204.662 40.5056 204.398 41.5186 204.15 42.5363C203.66 44.5743 203.244 46.6387 202.843 48.7056L200.552 61.1498C199.797 65.3028 198.973 69.446 198.035 73.5677C197.081 77.6821 196.062 81.7989 194.531 85.7593L194.103 85.5957L194.101 85.6029Z" fill="#D28572"/>
<path d="M374.497 202.832C374.324 214.605 369.197 222.834 362.777 227.577L349.739 227.372L346.514 227.322H346.441L331.116 192.4L331.085 192.318L317.353 161.024L356.005 146.655L370.432 182.099C373.393 189.938 374.588 196.846 374.497 202.835V202.832Z" fill="#FFBC96"/>
<path d="M363.798 188.738L262.326 200.102L249.123 195.831C243.145 193.899 236.6 195.087 231.692 199.012C220.178 208.217 201.461 225.185 206.312 226.549C214.479 228.849 225.146 224.545 234.723 222.139C240.013 220.808 245.601 221.439 250.454 223.927L257.093 227.331L358.181 227.317L363.796 188.738H363.798Z" fill="#FFBC96"/>
<path d="M208.728 224.754C211.465 223.152 214.246 221.629 217.035 220.125C219.816 218.607 222.645 217.182 225.45 215.707C226.832 214.981 228.312 214.235 229.858 213.698C231.403 213.167 232.999 212.779 234.62 212.601C236.24 212.418 237.872 212.401 239.485 212.546C241.095 212.724 242.689 213.034 244.21 213.559L244.054 214.136C242.516 213.835 240.97 213.631 239.42 213.614C237.872 213.564 236.326 213.669 234.807 213.927C233.29 214.182 231.798 214.565 230.36 215.106C228.911 215.616 227.574 216.34 226.14 217.06C223.298 218.462 220.486 219.918 217.623 221.278C214.77 222.654 211.905 224.011 208.999 225.286L208.728 224.752V224.754Z" fill="#D28572"/>
<path d="M210.206 219.68C212.05 217.933 213.975 216.292 215.944 214.697C217.903 213.092 219.924 211.562 221.993 210.092C224.075 208.638 226.181 207.214 228.418 205.982C230.666 204.801 232.954 203.513 235.639 203.261L235.689 203.857C234.528 204.163 233.399 204.615 232.32 205.243C231.216 205.797 230.159 206.468 229.103 207.132C226.993 208.468 224.933 209.906 222.873 211.338C220.811 212.772 218.787 214.269 216.732 215.724C214.689 217.197 212.653 218.689 210.591 220.142L210.208 219.68H210.206Z" fill="#D28572"/>
<path d="M344.561 191.189L330.948 191.524L330.986 193.056L344.598 192.721L344.561 191.189Z" fill="#D28572"/>
<path d="M307.933 140.667L307.016 141.118L316.897 161.265L317.814 160.814L307.933 140.667Z" fill="white"/>
<path opacity="0.2" d="M374.497 202.832C374.324 214.605 369.197 222.834 362.777 227.577L349.739 227.372C349.73 227.353 349.73 227.341 349.73 227.322C349.249 225.616 348.994 223.816 348.994 221.956C348.994 213.503 354.241 206.288 361.664 203.386C363.909 202.508 366.351 202.026 368.903 202.026C370.843 202.026 372.723 202.303 374.499 202.835L374.497 202.832Z" fill="#FE5B52"/>
<path d="M212.861 214.995H154.666V227.259H212.861V214.995Z" fill="#03060B"/>
<path d="M174.405 227.259H82.0067L55.4609 134.766H147.859L174.405 227.259Z" fill="#EBEBFF"/>
<path d="M81.6393 227.365L54.9541 134.384H83.5382V135.149H55.9708L82.3748 227.153L81.6393 227.365Z" fill="#03060B"/>
<path d="M164.509 193.444L147.573 135.149H104.979V134.384H148.148L165.245 193.23L164.509 193.444Z" fill="#03060B"/>
<path d="M80.6493 99.6743C81.5394 95.8992 79.2038 92.1166 75.4326 91.2256C71.6613 90.3346 67.8826 92.6726 66.9925 96.4477C66.1024 100.223 68.438 104.005 72.2093 104.896C75.9805 105.787 79.7592 103.449 80.6493 99.6743Z" fill="#EBEBFF"/>
<path d="M461.398 129.242C465.628 129.242 469.056 125.81 469.056 121.577C469.056 117.343 465.628 113.911 461.398 113.911C457.169 113.911 453.74 117.343 453.74 121.577C453.74 125.81 457.169 129.242 461.398 129.242Z" fill="#EBEBFF"/>
<path d="M451.834 126.596L451.815 125.573C453.051 125.549 454.267 125.337 455.428 124.938L455.76 125.905C454.498 126.338 453.178 126.569 451.837 126.596H451.834ZM447.888 126.062C446.606 125.679 445.397 125.099 444.292 124.339L444.871 123.497C445.888 124.194 447.001 124.729 448.181 125.082L447.888 126.062ZM459.283 124.045L458.673 123.225C459.661 122.486 460.526 121.603 461.242 120.602L462.072 121.196C461.295 122.284 460.355 123.242 459.281 124.045H459.283ZM441.393 121.603C440.571 120.542 439.922 119.368 439.463 118.112L440.422 117.763C440.843 118.918 441.441 120.001 442.198 120.977L441.393 121.603ZM463.862 117.633L462.889 117.32C463.264 116.151 463.454 114.929 463.454 113.689C463.454 113.374 463.442 113.064 463.418 112.756L464.434 112.674C464.461 113.009 464.475 113.348 464.473 113.689C464.473 115.032 464.266 116.358 463.86 117.631L463.862 117.633ZM438.699 114.2C438.691 114.031 438.689 113.863 438.687 113.692C438.687 112.515 438.845 111.353 439.155 110.234L440.138 110.506C439.852 111.536 439.708 112.607 439.708 113.687C439.708 113.841 439.713 114 439.718 114.156L438.699 114.197V114.2ZM462.569 109.183C462.103 108.045 461.463 106.988 460.668 106.043L461.449 105.386C462.312 106.413 463.007 107.559 463.514 108.795L462.569 109.183ZM441.655 107.167L440.802 106.604C441.537 105.485 442.436 104.491 443.477 103.649L444.119 104.443C443.16 105.218 442.33 106.132 441.653 107.164L441.655 107.167ZM457.901 103.63C456.858 102.97 455.726 102.482 454.531 102.176L454.784 101.185C456.079 101.517 457.312 102.049 458.444 102.763L457.899 103.627L457.901 103.63ZM447.294 102.605L446.926 101.652C448.171 101.168 449.481 100.884 450.82 100.807L450.878 101.827C449.647 101.9 448.44 102.159 447.294 102.605Z" fill="#9192FF"/>
<path d="M409.703 55.0066C406.607 55.0066 404.088 52.485 404.088 49.386C404.088 46.287 406.607 43.7654 409.703 43.7654C412.799 43.7654 415.318 46.287 415.318 49.386C415.318 52.485 412.799 55.0066 409.703 55.0066ZM409.703 44.788C407.169 44.788 405.109 46.85 405.109 49.386C405.109 51.922 407.169 53.9864 409.703 53.9864C412.236 53.9864 414.296 51.922 414.296 49.386C414.296 46.85 412.236 44.788 409.703 44.788Z" fill="#9192FF"/>
<path d="M503.5 226.467H0.5V228.002H503.5V226.467Z" fill="#03060B"/>
</g>
<defs>
<clipPath id="clip0_13558_368834">
<rect width="503" height="229" fill="white" transform="translate(0.5)"/>
</clipPath>
</defs>
</svg>
