<svg width="508" height="305" viewBox="0 0 508 305" fill="none" xmlns="http://www.w3.org/2000/svg">
<g clip-path="url(#clip0_13522_368610)">
<path d="M0.451172 292.3H507.55" stroke="#ADAEFE" stroke-width="0.572246" stroke-linecap="round" stroke-linejoin="round"/>
<path d="M458.62 28.069V199.353C458.62 199.621 458.612 199.877 458.608 200.145C458.49 204.252 457.488 208.132 455.771 211.602C451.258 220.778 441.81 227.089 430.884 227.089H114.164C103.239 227.089 93.7949 220.778 89.2778 211.602C87.561 208.132 86.5586 204.252 86.4409 200.145C86.4328 199.877 86.4287 199.621 86.4287 199.353V28.069C86.4287 12.7482 98.8436 0.333344 114.164 0.333344H430.884C446.205 0.333344 458.62 12.7482 458.62 28.069Z" fill="#F9FAFB"/>
<path d="M153.928 87.3309L181.521 69.571L208.896 56.2633L236.376 78.9623L279.631 69.5751L335.792 105.411L404.787 53.5765" stroke="#ADAEFE" stroke-width="1.35553" stroke-linecap="round" stroke-linejoin="round"/>
<path d="M209.565 59.4654C211.334 59.4654 212.768 58.0318 212.768 56.2633C212.768 54.4948 211.334 53.0611 209.565 53.0611C207.797 53.0611 206.363 54.4948 206.363 56.2633C206.363 58.0318 207.797 59.4654 209.565 59.4654Z" fill="#ADAEFE"/>
<path d="M181.521 72.7772C183.29 72.7772 184.724 71.3435 184.724 69.575C184.724 67.8065 183.29 66.3729 181.521 66.3729C179.753 66.3729 178.319 67.8065 178.319 69.575C178.319 71.3435 179.753 72.7772 181.521 72.7772Z" fill="#ADAEFE"/>
<path d="M153.928 90.5331C155.696 90.5331 157.13 89.0995 157.13 87.331C157.13 85.5625 155.696 84.1288 153.928 84.1288C152.159 84.1288 150.726 85.5625 150.726 87.331C150.726 89.0995 152.159 90.5331 153.928 90.5331Z" fill="#ADAEFE"/>
<path d="M236.757 82.6961C238.525 82.6961 239.959 81.2624 239.959 79.4939C239.959 77.7254 238.525 76.2918 236.757 76.2918C234.988 76.2918 233.555 77.7254 233.555 79.4939C233.555 81.2624 234.988 82.6961 236.757 82.6961Z" fill="#ADAEFE"/>
<path d="M279.358 72.7772C281.127 72.7772 282.561 71.3435 282.561 69.575C282.561 67.8065 281.127 66.3729 279.358 66.3729C277.59 66.3729 276.156 67.8065 276.156 69.575C276.156 71.3435 277.59 72.7772 279.358 72.7772Z" fill="#ADAEFE"/>
<path d="M336.178 108.614C337.946 108.614 339.38 107.18 339.38 105.412C339.38 103.643 337.946 102.209 336.178 102.209C334.409 102.209 332.976 103.643 332.976 105.412C332.976 107.18 334.409 108.614 336.178 108.614Z" fill="#ADAEFE"/>
<path d="M404.787 56.7787C406.556 56.7787 407.989 55.345 407.989 53.5765C407.989 51.808 406.556 50.3744 404.787 50.3744C403.019 50.3744 401.585 51.808 401.585 53.5765C401.585 55.345 403.019 56.7787 404.787 56.7787Z" fill="#ADAEFE"/>
<path d="M400.852 189.097C400.844 188.448 400.831 187.795 400.823 187.137C400.409 186.999 399.995 186.865 399.581 186.731C399.22 186.613 398.944 186.321 398.839 185.952C398.656 185.307 398.392 184.698 398.068 184.13C397.877 183.801 397.857 183.403 398.023 183.058C398.214 182.665 398.404 182.271 398.595 181.881C398.133 181.431 397.662 180.976 397.187 180.514C396.81 180.7 396.432 180.895 396.059 181.086C395.714 181.26 395.308 181.244 394.975 181.053C394.387 180.721 393.753 180.457 393.088 180.274C392.723 180.177 392.43 179.909 392.305 179.552C392.167 179.158 392.029 178.764 391.895 178.371C391.245 178.379 390.592 178.391 389.934 178.399C389.809 178.777 389.687 179.154 389.565 179.531C389.443 179.909 389.147 180.177 388.774 180.278C388.08 180.469 387.418 180.745 386.809 181.098C386.481 181.289 386.079 181.309 385.738 181.143C385.397 180.976 385.032 180.802 384.679 180.627C384.228 181.09 383.774 181.561 383.311 182.036C383.481 182.372 383.652 182.709 383.822 183.046C383.997 183.391 383.981 183.801 383.786 184.138C383.429 184.763 383.153 185.441 382.966 186.155C382.869 186.528 382.601 186.833 382.235 186.958C381.87 187.084 381.521 187.206 381.164 187.328C381.172 187.977 381.184 188.631 381.192 189.288C381.546 189.406 381.903 189.523 382.256 189.637C382.609 189.751 382.897 190.055 383.003 190.424C383.201 191.135 383.494 191.804 383.863 192.421C384.062 192.754 384.09 193.164 383.92 193.513C383.749 193.862 383.587 194.203 383.421 194.544C383.883 194.994 384.354 195.449 384.829 195.911C385.178 195.737 385.527 195.558 385.876 195.384C386.225 195.209 386.615 195.222 386.947 195.408C387.564 195.749 388.226 196.013 388.924 196.192C389.297 196.285 389.602 196.557 389.727 196.922C389.853 197.287 389.991 197.681 390.121 198.058C390.77 198.05 391.424 198.038 392.081 198.03C392.211 197.636 392.341 197.243 392.467 196.849C392.585 196.488 392.873 196.216 393.234 196.11C393.896 195.916 394.521 195.64 395.105 195.299C395.438 195.104 395.84 195.079 396.189 195.246C396.574 195.433 396.956 195.615 397.337 195.806C397.788 195.343 398.242 194.873 398.705 194.398C398.51 194.008 398.315 193.622 398.116 193.237C397.942 192.9 397.958 192.498 398.141 192.165C398.457 191.593 398.705 190.976 398.875 190.331C398.973 189.962 399.241 189.665 399.602 189.54C400.016 189.394 400.434 189.252 400.848 189.109L400.852 189.097ZM391.01 194.463C387.556 194.463 384.756 191.662 384.756 188.208C384.756 184.755 387.556 181.954 391.01 181.954C394.464 181.954 397.264 184.755 397.264 188.208C397.264 191.662 394.464 194.463 391.01 194.463Z" fill="#7375D6"/>
<path d="M430.52 175.562C430.504 174.495 430.487 173.419 430.471 172.332C429.789 172.104 429.107 171.881 428.426 171.662C427.829 171.467 427.374 170.984 427.204 170.38C426.9 169.32 426.473 168.314 425.934 167.376C425.621 166.837 425.589 166.179 425.861 165.615C426.173 164.966 426.486 164.32 426.802 163.675C426.039 162.932 425.264 162.181 424.485 161.423C423.864 161.735 423.243 162.048 422.626 162.364C422.062 162.652 421.392 162.628 420.84 162.315C419.87 161.768 418.831 161.333 417.731 161.037C417.131 160.875 416.648 160.432 416.445 159.844C416.218 159.194 415.994 158.545 415.771 157.9C414.704 157.916 413.628 157.932 412.541 157.948C412.334 158.569 412.131 159.19 411.928 159.811C411.725 160.432 411.242 160.871 410.625 161.041C409.481 161.354 408.397 161.808 407.39 162.393C406.851 162.705 406.189 162.742 405.625 162.466C405.061 162.19 404.46 161.901 403.88 161.617C403.137 162.38 402.386 163.156 401.627 163.935C401.907 164.491 402.187 165.047 402.468 165.599C402.748 166.151 402.727 166.845 402.411 167.401C401.822 168.432 401.368 169.544 401.063 170.721C400.905 171.333 400.463 171.833 399.862 172.044C399.261 172.255 398.689 172.454 398.101 172.652C398.117 173.72 398.133 174.795 398.149 175.883C398.734 176.078 399.318 176.268 399.903 176.459C400.487 176.65 400.958 177.145 401.132 177.758C401.461 178.927 401.94 180.027 402.549 181.045C402.877 181.593 402.922 182.267 402.642 182.843C402.362 183.42 402.094 183.976 401.818 184.54C402.581 185.282 403.356 186.033 404.136 186.792C404.712 186.504 405.284 186.212 405.856 185.92C406.429 185.627 407.074 185.656 407.626 185.96C408.64 186.524 409.728 186.959 410.881 187.247C411.498 187.401 411.997 187.847 412.204 188.448C412.411 189.049 412.638 189.694 412.849 190.319C413.917 190.303 414.992 190.286 416.08 190.27C416.295 189.621 416.506 188.976 416.717 188.326C416.908 187.734 417.386 187.283 417.983 187.109C419.071 186.788 420.106 186.338 421.059 185.769C421.603 185.445 422.273 185.408 422.841 185.684C423.474 185.989 424.103 186.297 424.732 186.605C425.475 185.842 426.226 185.067 426.985 184.288C426.664 183.647 426.34 183.01 426.015 182.372C425.731 181.816 425.751 181.155 426.051 180.607C426.571 179.661 426.981 178.651 427.261 177.587C427.423 176.983 427.866 176.492 428.458 176.285C429.144 176.045 429.826 175.81 430.512 175.574L430.52 175.562ZM414.318 184.398C408.632 184.398 404.022 179.787 404.022 174.101C404.022 168.415 408.632 163.805 414.318 163.805C420.004 163.805 424.615 168.415 424.615 174.101C424.615 179.787 420.004 184.398 414.318 184.398Z" fill="#ADAEFE"/>
<path d="M156.449 182.235V165.217C147.049 165.217 139.432 172.835 139.432 182.235C139.432 191.634 147.049 199.252 156.449 199.252C165.848 199.252 173.466 191.634 173.466 182.235H156.449Z" fill="#ADAEFE"/>
<path d="M177.889 177.977C177.889 168.578 170.272 160.96 160.872 160.96V177.977H177.889Z" fill="#E9E9FF"/>
<path d="M184.733 182.234H188.272" stroke="#ADAEFE" stroke-width="0.811696" stroke-linecap="round" stroke-linejoin="round"/>
<path d="M194.519 182.234H241.374" stroke="#ADAEFE" stroke-width="0.811696" stroke-linecap="round" stroke-linejoin="round"/>
<path d="M244.498 182.234H248.037" stroke="#ADAEFE" stroke-width="0.811696" stroke-linecap="round" stroke-linejoin="round"/>
<path d="M308.095 182.234H311.638" stroke="#ADAEFE" stroke-width="0.811696" stroke-linecap="round" stroke-linejoin="round"/>
<path d="M317.884 182.234H364.739" stroke="#ADAEFE" stroke-width="0.811696" stroke-linecap="round" stroke-linejoin="round"/>
<path d="M367.864 182.234H371.403" stroke="#ADAEFE" stroke-width="0.811696" stroke-linecap="round" stroke-linejoin="round"/>
<path d="M483.291 89.1085H424.309C419.6 89.1085 415.782 92.9261 415.782 97.6354V125.615C415.782 130.324 419.6 134.141 424.309 134.141H483.291C488 134.141 491.818 130.324 491.818 125.615V97.6354C491.818 92.9261 488 89.1085 483.291 89.1085Z" fill="#ADAEFE"/>
<path d="M477.333 95.2978H433.526C432.342 95.2978 431.383 96.2572 431.383 97.4406V98.3132C431.383 99.4967 432.342 100.456 433.526 100.456H477.333C478.516 100.456 479.476 99.4967 479.476 98.3132V97.4406C479.476 96.2572 478.516 95.2978 477.333 95.2978Z" fill="white"/>
<path d="M485.315 106.511H448.647C447.977 106.511 447.434 107.055 447.434 107.725V107.875C447.434 108.545 447.977 109.088 448.647 109.088H485.315C485.986 109.088 486.529 108.545 486.529 107.875V107.725C486.529 107.055 485.986 106.511 485.315 106.511Z" fill="white"/>
<path d="M485.315 113.143H448.647C447.977 113.143 447.434 113.686 447.434 114.356V114.507C447.434 115.177 447.977 115.72 448.647 115.72H485.315C485.986 115.72 486.529 115.177 486.529 114.507V114.356C486.529 113.686 485.986 113.143 485.315 113.143Z" fill="white"/>
<path d="M474.703 119.77H448.647C447.977 119.77 447.434 120.314 447.434 120.984V121.134C447.434 121.804 447.977 122.348 448.647 122.348H474.703C475.373 122.348 475.916 121.804 475.916 121.134V120.984C475.916 120.314 475.373 119.77 474.703 119.77Z" fill="white"/>
<path d="M424.365 115.724C427.143 115.724 429.394 113.473 429.394 110.696C429.394 107.918 427.143 105.667 424.365 105.667C421.588 105.667 419.337 107.918 419.337 110.696C419.337 113.473 421.588 115.724 424.365 115.724Z" fill="#E9E9FF"/>
<path d="M433.169 115.724C435.946 115.724 438.198 113.473 438.198 110.696C438.198 107.918 435.946 105.667 433.169 105.667C430.392 105.667 428.141 107.918 428.141 110.696C428.141 113.473 430.392 115.724 433.169 115.724Z" fill="white"/>
<path d="M298.184 291.915C298.184 291.915 49.1802 292.642 46.1363 289.111C43.0925 285.58 35.3651 239.561 62.3622 242.483C89.3592 245.405 308.538 263.7 308.538 263.7L298.188 291.915H298.184Z" fill="#E9E9FF"/>
<path d="M109.81 269.516L292.677 277.065" stroke="#ADAEFE" stroke-width="0.629065" stroke-linecap="round" stroke-linejoin="round"/>
<path d="M53.7171 127.181L31.2859 138.541C26.9798 140.724 26.0099 146.447 29.3581 149.929L38.1691 159.085L53.7171 136.199L55.7951 128.107L53.7171 127.177V127.181Z" fill="#27364F"/>
<path d="M69.3225 130.363L62.9669 145.168C62.9669 145.168 56.0715 139.288 49.582 140.708L55.6129 128.322L62.3581 122.457L69.3225 130.367V130.363Z" fill="#ADAEFE"/>
<path d="M61.7451 126.475C61.7451 126.475 62.1185 134.077 65.8523 138.439L67.703 134.133L61.7451 126.475Z" fill="#7375D6"/>
<path d="M78.7942 112.839C78.9038 111.69 78.222 110.614 77.1668 110.148C73.1773 108.374 62.2315 104.044 58.5018 107.993C55.4011 111.276 53.591 119.884 52.7428 125.136C52.4141 127.165 54.3459 128.821 56.3062 128.192C63.6236 125.842 78.1002 120.278 78.7983 112.839H78.7942Z" fill="#27364F"/>
<path d="M58.5027 119.965C60.3655 117.116 63.5027 120.923 63.5027 120.923C63.5027 120.923 76.8024 119.271 78.4907 111.735C78.5232 111.584 78.7423 111.593 78.7585 111.747C78.9736 113.731 79.4079 118.346 79.412 123.159C80.2155 125.168 81.2383 128.005 80.7107 128.257C80.3414 128.431 79.7488 128.447 79.209 128.415C78.7504 133.74 77.403 138.155 74.1765 137.961C66.2016 137.482 61.3598 126.621 61.3598 126.621C61.3598 126.621 56.0635 123.679 58.4986 119.961L58.5027 119.965Z" fill="#ADAEFE"/>
<path d="M52.6871 127.341L55.3021 128.851C55.57 129.006 55.9125 128.914 56.0671 128.646L56.1402 128.519C56.2949 128.251 56.2031 127.909 55.9352 127.754L53.3202 126.245C53.0523 126.09 52.7098 126.182 52.5552 126.45L52.4821 126.576C52.3274 126.844 52.4192 127.186 52.6871 127.341Z" fill="#EDE264"/>
<path d="M52.857 126.475C52.857 126.475 52.7231 122.863 50.7953 122.457C48.8676 122.051 50.8603 125.822 52.857 126.475Z" stroke="#EDE264" stroke-width="0.405848" stroke-miterlimit="10"/>
<path d="M71.8581 120.558C71.5862 120.72 71.5212 121.085 71.7161 121.333C72.2193 121.966 73.1852 123.046 74.0334 123.2C74.1268 123.216 74.2242 123.224 74.3297 123.216C75.5635 123.176 77.3492 121.747 77.3492 121.747C77.3492 121.747 76.3874 120.509 75.3768 119.921C75.1374 119.779 74.8979 119.677 74.6666 119.637C73.8183 119.478 72.544 120.144 71.854 120.558H71.8581Z" fill="white"/>
<path d="M73.8349 121.507C73.7172 122.149 73.9201 122.774 74.3341 123.216C75.5678 123.175 77.3536 121.747 77.3536 121.747C77.3536 121.747 76.3917 120.509 75.3812 119.921C74.6141 120.083 73.985 120.692 73.8349 121.507Z" fill="#27364F"/>
<path d="M61.6402 120.448C61.6402 120.448 59.3796 118.691 58.9697 121.597" stroke="#7375D6" stroke-width="0.405848" stroke-linecap="round" stroke-linejoin="round"/>
<path d="M61.1893 122.981C61.1893 122.981 60.1017 120.882 60.3371 120.213" stroke="#7375D6" stroke-width="0.405848" stroke-linecap="round" stroke-linejoin="round"/>
<path d="M85.8281 218.039C85.8281 218.039 80.5683 157.218 65.5763 145.189C29.8129 116.487 10.9856 208.976 24.7317 245.742L85.824 218.039H85.8281Z" fill="#80D3FF"/>
<path d="M24.7355 245.742C24.7355 245.742 28.4855 354.172 139.883 237.255L208.67 287.938L237.282 275.705C237.282 275.705 162.31 175.737 131.007 191.565C99.7038 207.393 24.7314 245.742 24.7314 245.742H24.7355Z" fill="#E9E9FF"/>
<path d="M61.8457 251.091C61.8457 251.091 106.452 225.75 128.79 214.386C151.132 203.022 216.385 273.234 216.385 273.234" stroke="#ADAEFE" stroke-width="0.629065" stroke-linecap="round" stroke-linejoin="round"/>
<path d="M82.5331 239.459C82.5331 239.459 74.6677 231.537 54.3145 238.335" stroke="#ADAEFE" stroke-width="0.629065" stroke-linecap="round" stroke-linejoin="round"/>
<path d="M106.421 203.091L139.433 187.876L150.727 145.168" stroke="#EDE264" stroke-width="1.62339" stroke-linecap="round" stroke-linejoin="round"/>
<path d="M100.852 175.713C100.852 175.713 113.121 196.257 106.425 203.091C106.425 203.091 100.085 203.193 100.852 175.713Z" fill="#5DACD7"/>
<path d="M97.5605 190.867L115.97 181.869C117.191 181.273 118.64 181.39 119.752 182.174L129.7 189.215C130.276 189.621 130.101 190.51 129.42 190.68C128.973 190.794 128.368 190.867 127.541 190.867C127.541 190.867 127.841 192.328 125.349 193.266C125.349 193.266 124.972 193.716 122.48 194.532L115.532 193.266L101.94 204.593L97.5605 190.867Z" fill="#ADAEFE"/>
<path d="M101.969 188.712L107.277 200.149L104.871 202.344C104.871 202.344 100.017 191.045 101.969 188.712Z" fill="#7375D6"/>
<path d="M100.853 175.713C100.853 175.713 100.902 193.675 106.425 203.091C106.425 203.091 64.574 244.374 49.1762 242.272C34.5088 240.271 16.8503 222.219 28.5388 172.79C30.0201 166.524 34.4763 161.305 40.5194 159.085C47.3904 156.565 55.9011 157.153 59.5537 172.446V203.314L100.853 175.717V175.713Z" fill="#80D3FF"/>
<path d="M59.5488 172.441V203.31L82.532 187.953" stroke="white" stroke-width="0.405848" stroke-linecap="round" stroke-linejoin="round"/>
<path d="M39.2248 238.335C28.064 230.604 19.4682 211.143 28.5348 172.79" stroke="white" stroke-width="0.405848" stroke-linecap="round" stroke-linejoin="round"/>
<path d="M139.883 237.255L131.007 229.914" stroke="#ADAEFE" stroke-width="0.629065" stroke-linecap="round" stroke-linejoin="round"/>
<path d="M279.488 300.726L217.584 299.578C216.087 299.549 215.437 298.121 214.682 296.826C213.7 295.142 208.672 287.942 208.672 287.942L237.284 275.71C237.284 275.71 242.118 283.21 245.953 285.239C247.958 286.298 251.229 287.946 258.518 290.633C264.427 292.812 265.125 293.364 271.733 295.47C271.883 295.515 272.11 295.58 272.394 295.649C274.103 296.075 277.82 296.952 278.352 297.435C279.44 298.429 279.898 299.545 279.488 300.73V300.726Z" fill="#ADAEFE"/>
<path d="M216.911 304.383C221.34 304.383 224.931 300.792 224.931 296.363C224.931 291.934 221.34 288.344 216.911 288.344C212.482 288.344 208.892 291.934 208.892 296.363C208.892 300.792 212.482 304.383 216.911 304.383Z" stroke="white" stroke-width="0.568188" stroke-linecap="round" stroke-linejoin="round"/>
<path d="M239.48 282.049C236.781 282.593 234.906 284.598 235.295 286.521C235.685 288.445 238.189 289.561 240.888 289.017C243.055 288.579 244.439 285.961 244.902 284.947C245.011 284.703 244.955 284.423 244.76 284.24C243.94 283.486 241.651 281.611 239.484 282.049H239.48Z" stroke="white" stroke-width="0.568188" stroke-linecap="round" stroke-linejoin="round"/>
<path d="M248.61 286.525C247.96 287.999 247.863 289.703 248.334 291.237" stroke="white" stroke-width="0.568188" stroke-linecap="round" stroke-linejoin="round"/>
<path d="M251.44 287.698C251.001 289.054 250.945 290.527 251.277 291.911" stroke="white" stroke-width="0.568188" stroke-linecap="round" stroke-linejoin="round"/>
<path d="M354.158 251.383L311.593 294.013C310.562 295.044 309.142 294.537 307.75 294.147C306.419 293.774 297.604 292.224 297.604 292.224L308.533 263.696C308.533 263.696 316.934 265.486 320.911 264.2C322.989 263.526 326.329 262.369 333.087 259.114C338.57 256.476 339.418 256.367 345.319 253.189C345.453 253.116 345.652 252.998 345.887 252.848C347.332 251.943 350.441 249.942 351.131 249.902C352.547 249.825 353.623 250.275 354.154 251.379L354.158 251.383Z" fill="#ADAEFE"/>
<path d="M308.94 300.166C313.198 300.166 316.651 296.63 316.651 292.268C316.651 287.906 313.198 284.37 308.94 284.37C304.681 284.37 301.229 287.906 301.229 292.268C301.229 296.63 304.681 300.166 308.94 300.166Z" stroke="white" stroke-width="0.551954" stroke-linecap="round" stroke-linejoin="round"/>
<path d="M314.361 266.541C312.912 268.81 313.022 271.509 314.601 272.564C316.179 273.619 318.635 272.637 320.084 270.369C321.244 268.546 320.388 265.766 320.002 264.743C319.909 264.5 319.678 264.342 319.422 264.358C318.351 264.411 315.522 264.723 314.357 266.545L314.361 266.541Z" stroke="white" stroke-width="0.551954" stroke-linecap="round" stroke-linejoin="round"/>
<path d="M323.591 263.23C324.163 264.703 325.263 265.949 326.635 266.684" stroke="white" stroke-width="0.551954" stroke-linecap="round" stroke-linejoin="round"/>
<path d="M326.306 262.057C326.939 263.299 327.909 264.362 329.082 265.085" stroke="white" stroke-width="0.551954" stroke-linecap="round" stroke-linejoin="round"/>
<path d="M128.795 248.506C128.795 248.506 87.3906 287.402 67.3701 290.312" stroke="#ADAEFE" stroke-width="0.629065" stroke-linecap="round" stroke-linejoin="round"/>
<path d="M158.661 251.091L208.67 287.938" stroke="#ADAEFE" stroke-width="0.629065" stroke-linecap="round" stroke-linejoin="round"/>
<path d="M221.894 256.501L237.283 275.705" stroke="#ADAEFE" stroke-width="0.629065" stroke-linecap="round" stroke-linejoin="round"/>
<path d="M113.133 262.613C113.133 262.613 88.222 288.81 84.9752 291.229L67.2559 290.823C67.2559 290.823 94.9996 279.159 113.133 262.613Z" fill="#ADAEFE"/>
<path d="M127.541 190.867L119.749 185.299" stroke="#7375D6" stroke-width="0.292211" stroke-linecap="round" stroke-linejoin="round"/>
<path d="M125.353 193.266L118.259 189.402" stroke="#7375D6" stroke-width="0.292211" stroke-linecap="round" stroke-linejoin="round"/>
<path d="M98.743 197.356C97.1845 198.42 95.5084 199.317 93.747 200.003C93.4426 200.12 93.2275 200.412 93.3208 200.753C93.402 201.046 93.7632 201.297 94.0717 201.179C95.9345 200.457 97.7081 199.54 99.3558 198.412C99.6277 198.225 99.7495 197.876 99.575 197.58C99.4167 197.312 99.0149 197.174 98.743 197.36V197.356Z" fill="white"/>
<path d="M80.1104 206.318C81.4254 208.034 82.9514 209.544 84.6843 210.839C84.9481 211.038 85.3662 210.883 85.5163 210.62C85.699 210.307 85.561 209.982 85.2972 209.788C83.7509 208.631 82.3345 207.235 81.1575 205.705C80.9586 205.445 80.634 205.307 80.3255 205.486C80.0698 205.636 79.9075 206.058 80.1064 206.318H80.1104Z" fill="white"/>
<path d="M86.3311 187.397H89.8498C90.1663 187.397 90.4748 187.117 90.4585 186.788C90.4423 186.46 90.1907 186.179 89.8498 186.179H86.3311C86.0145 186.179 85.7061 186.46 85.7223 186.788C85.7385 187.117 85.9902 187.397 86.3311 187.397Z" fill="white"/>
<path d="M54.5782 205.457C54.6229 206.326 54.9841 207.158 55.6132 207.762C55.8445 207.981 56.2503 208.006 56.4736 207.762C56.6968 207.519 56.7171 207.137 56.4736 206.902C56.3721 206.805 56.2787 206.699 56.1935 206.589L56.2869 206.711C56.1408 206.516 56.019 206.309 55.9257 206.086L55.9865 206.232C55.8932 206.009 55.8283 205.778 55.7958 205.534L55.8161 205.697C55.8039 205.615 55.7998 205.538 55.7917 205.457C55.7755 205.141 55.5239 204.832 55.183 204.848C54.8664 204.861 54.5539 205.116 54.5742 205.457H54.5782Z" fill="white"/>
<path d="M65.0214 218.745L68.7796 216.525C69.0556 216.362 69.1773 215.969 68.9987 215.693C68.8202 215.417 68.459 215.299 68.1667 215.473L64.4086 217.693C64.1326 217.856 64.0109 218.25 64.1894 218.525C64.368 218.801 64.7292 218.919 65.0214 218.745Z" fill="white"/>
<path d="M51.9033 232.243V235.762C51.9033 236.078 52.1834 236.387 52.5121 236.371C52.8408 236.354 53.1209 236.103 53.1209 235.762V232.243C53.1209 231.927 52.8408 231.618 52.5121 231.634C52.1834 231.651 51.9033 231.902 51.9033 232.243Z" fill="white"/>
<path d="M39.4918 221.261L38.5908 225.571C38.5218 225.892 38.6842 226.229 39.017 226.322C39.3173 226.403 39.6988 226.22 39.7678 225.896L40.6688 221.586C40.7378 221.265 40.5754 220.928 40.2426 220.835C39.9423 220.754 39.5608 220.936 39.4918 221.261Z" fill="white"/>
<path d="M41.4194 207.937C41.4965 207.803 41.5737 207.669 41.6629 207.543C41.7035 207.486 41.7441 207.43 41.7847 207.373C41.809 207.34 41.8415 207.304 41.8618 207.271C41.8334 207.328 41.805 207.344 41.8577 207.279C42.0444 207.044 42.2514 206.825 42.4746 206.618C42.5842 206.516 42.6979 206.423 42.8115 206.334C42.8683 206.285 42.7141 206.407 42.8034 206.338C42.8358 206.314 42.8724 206.289 42.9048 206.265C42.9617 206.224 43.0185 206.184 43.0793 206.147C43.335 205.977 43.607 205.827 43.887 205.701C44.167 205.575 44.2725 205.124 44.1061 204.869C43.9113 204.568 43.5826 204.507 43.2742 204.65C42.0607 205.202 41.0298 206.167 40.3723 207.328C40.2141 207.604 40.2952 208.006 40.5915 208.16C40.8878 208.314 41.2571 208.237 41.4235 207.941L41.4194 207.937Z" fill="white"/>
<path d="M33.843 181.983C35.3243 181.922 36.8138 182.007 38.2789 182.255C38.6036 182.308 38.9364 182.17 39.0297 181.829C39.1109 181.536 38.9323 181.135 38.6036 181.078C37.033 180.81 35.438 180.7 33.8471 180.761C33.5183 180.773 33.2383 181.033 33.2383 181.37C33.2383 181.691 33.5183 181.991 33.8471 181.979L33.843 181.983Z" fill="white"/>
<path d="M70.098 185.778C71.352 185.786 72.5534 185.323 73.499 184.507C73.7425 184.3 73.7303 183.858 73.499 183.647C73.2392 183.412 72.8983 183.424 72.6386 183.647C72.5899 183.692 72.5371 183.732 72.4884 183.773C72.6061 183.679 72.4357 183.809 72.4154 183.825C72.3098 183.903 72.2003 183.972 72.0866 184.037C71.973 184.101 71.8594 184.162 71.7376 184.219C71.7133 184.231 71.5225 184.329 71.6564 184.256C71.6077 184.284 71.5469 184.296 71.4941 184.317C71.2546 184.402 71.0111 184.467 70.7595 184.515C70.7311 184.519 70.516 184.564 70.6783 184.532C70.6134 184.544 70.5485 184.548 70.4835 184.552C70.3537 184.564 70.2238 184.564 70.0899 184.564C69.7733 184.564 69.4648 184.844 69.4811 185.173C69.4973 185.502 69.7489 185.778 70.0899 185.782L70.098 185.778Z" fill="white"/>
<path d="M68.5426 168.046L70.4826 170.169C70.6977 170.404 71.1279 170.404 71.343 170.169C71.5743 169.917 71.5743 169.56 71.343 169.308L69.403 167.186C69.1879 166.95 68.7577 166.95 68.5426 167.186C68.3113 167.437 68.3113 167.794 68.5426 168.046Z" fill="white"/>
<path d="M54.5002 165.781L57.4913 166.532C57.7997 166.609 58.165 166.431 58.2421 166.106C58.3192 165.781 58.1487 165.441 57.8159 165.355L54.8248 164.605C54.5164 164.527 54.1511 164.706 54.074 165.031C53.9969 165.355 54.1674 165.696 54.5002 165.781Z" fill="white"/>
<path d="M23.5303 229.053C24.1674 230.482 25.0522 231.793 26.1196 232.933C26.3387 233.164 26.7649 233.168 26.98 232.933C27.2113 232.681 27.2113 232.32 26.98 232.073C26.4564 231.513 26.0668 231.022 25.6528 230.397C25.2389 229.772 24.8858 229.122 24.5814 228.44C24.4515 228.148 24.0051 228.059 23.7494 228.221C23.4491 228.416 23.3923 228.741 23.5303 229.053Z" fill="white"/>
<path d="M36.9838 170.891L38.875 170.615C39.0171 170.595 39.1713 170.453 39.2403 170.335C39.3174 170.205 39.3499 170.01 39.3012 169.864C39.2525 169.718 39.1632 169.576 39.0212 169.499C38.8669 169.418 38.7249 169.414 38.5504 169.438L36.6591 169.714C36.5171 169.734 36.3628 169.877 36.2939 169.994C36.2167 170.124 36.1843 170.319 36.233 170.465C36.2817 170.611 36.371 170.753 36.513 170.83C36.6672 170.911 36.8093 170.916 36.9838 170.891Z" fill="white"/>
<path d="M42.0817 154.3L45.8439 154.982C46.1564 155.039 46.5135 154.897 46.5947 154.556C46.6637 154.26 46.5054 153.866 46.1686 153.805L42.4064 153.123C42.0938 153.066 41.7367 153.208 41.6555 153.549C41.5865 153.846 41.7448 154.239 42.0817 154.3Z" fill="white"/>
<path d="M57.8035 158.797L61.3182 155.546C61.5536 155.331 61.5536 154.901 61.3182 154.686C61.0666 154.454 60.7054 154.454 60.4578 154.686L56.9431 157.936C56.7078 158.152 56.7078 158.582 56.9431 158.797C57.1948 159.028 57.556 159.028 57.8035 158.797Z" fill="white"/>
<path d="M54.9509 144.332C56.2496 144.458 57.5768 144.754 58.8389 145.181C59.1393 145.282 59.5167 145.063 59.5898 144.754C59.6669 144.418 59.4883 144.113 59.1636 144.004C57.8 143.541 56.3876 143.253 54.9509 143.111C54.6344 143.078 54.33 143.411 54.3422 143.72C54.3584 144.077 54.61 144.296 54.9509 144.328V144.332Z" fill="white"/>
<path d="M478.576 214.495C472.257 228.314 464.521 233.631 459.103 231.155C453.689 228.68 452.646 219.345 458.965 205.53C465.284 191.715 473.247 185.899 478.661 188.375C484.075 190.851 484.891 200.676 478.572 214.495H478.576Z" fill="#80D3FF"/>
<path d="M426.054 202.941C432.373 216.76 440.109 222.077 445.527 219.601C450.941 217.125 451.984 207.791 445.665 193.976C439.346 180.157 431.383 174.345 425.969 176.821C420.555 179.296 419.739 189.122 426.058 202.941H426.054Z" fill="#80D3FF"/>
<path d="M424.354 235.985C430.905 244.906 437.622 247.251 441.619 244.317C445.617 241.379 445.385 234.272 438.835 225.352C432.285 216.431 425.933 216.817 421.936 219.751C417.938 222.69 417.804 227.065 424.354 235.985Z" fill="#80D3FF"/>
<path d="M453.599 262.828C453.599 262.828 456.894 220.076 476.598 192.567" stroke="#52A7D4" stroke-width="0.37338" stroke-linecap="round" stroke-linejoin="round"/>
<path d="M425.669 178.874C425.669 178.874 456.871 223.793 450.008 260.969" stroke="#52A7D4" stroke-width="0.37338" stroke-linecap="round" stroke-linejoin="round"/>
<path d="M425.669 220.19C425.669 220.19 447.232 243.124 446.116 260.965" stroke="#52A7D4" stroke-width="0.37338" stroke-linecap="round" stroke-linejoin="round"/>
<path d="M471.497 230.758C471.497 230.758 463.226 240.21 463.112 245.648C462.999 251.083 474.305 256.347 484.521 232.584C484.521 232.584 484.095 225.287 471.497 230.762V230.758Z" fill="#80D3FF"/>
<path d="M471.497 230.758C471.497 230.758 477.471 227.093 482.524 230.758C487.577 234.423 488.522 240.113 495.182 239.496C501.846 238.875 496.079 226.979 487.808 225.559C479.537 224.142 471.497 230.758 471.497 230.758Z" fill="#80D3FF"/>
<path d="M484.525 232.58C484.525 232.58 478.421 226.691 471.501 230.758" stroke="#52A7D4" stroke-width="0.37338" stroke-linecap="round" stroke-linejoin="round"/>
<path d="M482.147 226.143C482.147 226.143 493.077 228.627 496.795 237.795" stroke="#52A7D4" stroke-width="0.37338" stroke-linecap="round" stroke-linejoin="round"/>
<path d="M479.821 230.579C479.821 230.579 470.812 245.092 465.588 249.248C465.588 249.248 461.473 253.899 461.229 259.106" stroke="#52A7D4" stroke-width="0.37338" stroke-linecap="round" stroke-linejoin="round"/>
<path d="M465.726 256.505H436.258V281.412H465.726V256.505Z" fill="#ADAEFE"/>
<path d="M439.643 272.706H462.346" stroke="white" stroke-width="0.369322" stroke-linecap="round" stroke-linejoin="round"/>
<path d="M439.643 270.263H462.346" stroke="white" stroke-width="0.369322" stroke-linecap="round" stroke-linejoin="round"/>
<path d="M438.331 281.416V290.706" stroke="#7375D6" stroke-width="0.438316" stroke-linecap="round" stroke-linejoin="round"/>
<path d="M463.112 281.416V290.706" stroke="#7375D6" stroke-width="0.438316" stroke-linecap="round" stroke-linejoin="round"/>
<g clip-path="url(#clip1_13522_368610)">
<path d="M284.375 177.431C283.946 177.259 283.503 177.096 283.054 176.936C281.573 176.399 280.249 175.885 279.073 175.37C274.027 173.148 271.804 170.938 271.982 167.314C272.114 164.583 274.384 161.475 279.787 160.716C280.828 160.571 281.976 160.51 283.251 160.557C283.921 160.581 284.567 160.628 285.189 160.694C289.435 161.131 292.53 162.423 294.147 163.221L296.453 158.27C294.182 157.097 290.499 155.935 285.439 155.559L285.777 148.641L280.385 148.445L280.039 155.549C270.82 156.286 264.7 161.163 264.379 167.746C264.054 174.41 269.592 178.642 278.761 181.737C278.851 181.764 278.939 181.799 279.026 181.825C281.009 182.532 282.672 183.242 284.053 183.961C288.043 186.072 289.642 188.393 289.479 191.71C289.319 194.983 287.126 197.494 283.336 198.677C281.781 199.165 279.962 199.432 277.897 199.432C277.591 199.434 277.279 199.427 276.962 199.415C271.804 199.229 266.972 197.633 263.7 195.814L261.554 200.916C264.568 202.726 270.608 204.292 276.199 204.496C276.691 204.513 277.176 204.526 277.65 204.525L277.335 210.97L282.728 211.167L283.071 204.129C292.205 202.692 296.869 197.499 297.161 191.494C297.486 184.806 293.139 180.795 284.372 177.432L284.375 177.431Z" stroke="#ADAEFE" stroke-width="3.12097" stroke-miterlimit="10"/>
</g>
</g>
<defs>
<clipPath id="clip0_13522_368610">
<rect width="507.667" height="304.333" fill="white" transform="translate(0.166016 0.333282)"/>
</clipPath>
<clipPath id="clip1_13522_368610">
<rect width="46.7288" height="63.0538" fill="white" transform="translate(276.487 140.527) rotate(30)"/>
</clipPath>
</defs>
</svg>
