<svg width="563" height="273" viewBox="0 0 563 273" fill="none" xmlns="http://www.w3.org/2000/svg">
<g clip-path="url(#clip0_13540_368985)">
<path d="M499.324 158.866C499.438 174.885 498.366 189.569 496.362 202.556C496.222 203.532 496.063 204.507 495.897 205.456C494.851 211.783 493.577 217.679 492.136 223.127C491.881 224.059 491.626 224.981 491.371 225.887C485.826 245.271 477.944 258.373 469.535 263.215H116.453C116.453 263.215 86.3564 237.126 80.3107 199.85C80.1525 198.901 80.0119 197.952 79.8977 196.994C77.5515 178.444 81.33 157.319 97.5865 135.342C105.003 125.342 114.748 118.374 125.943 113.576C126.822 113.207 127.683 112.856 128.579 112.513C145.178 106.019 164.677 103.981 184.255 103.673C185.248 103.655 186.233 103.647 187.226 103.647C198.886 103.559 210.512 104.042 221.54 104.481C222.586 104.534 223.623 104.578 224.651 104.622C242.454 105.369 258.499 105.923 270.142 103.787H270.16C271.232 103.585 272.251 103.365 273.244 103.111H273.262C286.153 99.956 292.506 92.6362 287.937 76.907C279.079 46.3887 288.148 24.0163 307.884 11.6614C308.886 11.0287 309.931 10.4136 310.994 9.83363C322.163 3.78798 336.276 0.61577 352.233 0.659706C353.349 0.659706 354.483 0.686068 355.625 0.71243C369.193 1.12543 384.008 3.79677 399.395 8.90218C407.672 11.6438 415.387 15.0445 422.531 18.9636C423.41 19.4469 424.289 19.939 425.133 20.4487C439.139 28.5418 450.932 38.7614 460.695 50.3079C461.362 51.0724 461.995 51.8544 462.637 52.6453C488.006 83.9192 499.069 124.288 499.324 158.866Z" fill="#F4F9FD"/>
<path d="M492.135 223.136C491.88 224.068 491.625 224.99 491.37 225.895C486.15 224.024 480.658 221.634 475.043 218.593C449.147 204.525 416.177 173.198 406.186 103.752C401.88 73.8138 407.372 45.2991 422.531 18.9636C423.409 19.4469 424.288 19.939 425.132 20.4487C411.828 43.5416 404.358 71.1513 408.989 103.339C418.814 171.555 450.984 202.275 476.256 216.027C481.687 218.989 487.038 221.317 492.135 223.127V223.136Z" fill="white"/>
<path d="M496.361 202.565C496.221 203.541 496.063 204.516 495.896 205.465C479.543 197.785 458.919 181.071 449.297 144.789C440 109.657 443.708 78.4711 460.685 50.3079C461.353 51.0724 461.986 51.8544 462.627 52.6453C446.485 79.9298 443.04 110.105 452.047 144.068C461.247 178.778 480.729 194.991 496.361 202.565Z" fill="white"/>
<path d="M341.979 59.9651C343.35 106.063 338.104 135.852 324.958 156.564C311.188 178.268 288.227 191.388 250.486 199.094C243.456 200.535 236.505 201.256 229.686 201.256C208.447 201.256 188.439 194.34 170.908 180.808C150.521 165.061 134.906 141.344 125.952 113.585C126.831 113.216 127.692 112.865 128.588 112.522C137.358 139.815 152.657 163.137 172.648 178.576C195.117 195.94 221.848 202.064 249.923 196.335C320.107 181.977 341.785 148.848 339.149 60.0442C338.402 34.8335 342.796 14.9302 352.234 0.659698C353.35 0.659698 354.483 0.68606 355.625 0.712422C345.801 14.5788 341.223 34.4468 341.97 59.9563L341.979 59.9651Z" fill="white"/>
<path d="M254.404 155.36C251.486 155.843 248.472 156.098 245.406 156.098C222.778 156.098 196.873 142.39 184.264 103.691C185.257 103.673 186.241 103.664 187.234 103.664C201.126 145.211 230.915 156.362 253.938 152.583C285.036 147.486 314.948 115.466 309.166 66.1602C306.679 45.0092 306.565 26.9513 307.892 11.679C308.894 11.0463 309.939 10.4312 311.003 9.85123C309.456 25.4047 309.403 43.9371 311.978 65.8262C317.962 116.88 286.776 150.061 254.404 155.369V155.36Z" fill="white"/>
<path d="M273.253 103.119C272.164 108.084 270.257 113.154 266.988 117.408C262.647 123.093 256.549 126.467 248.86 127.407C247.937 127.522 247.032 127.574 246.144 127.574C241.373 127.574 237.006 125.949 233.13 122.689C228.007 118.383 224.273 111.705 221.558 104.481C222.603 104.534 223.64 104.578 224.668 104.622C227.19 111.019 230.529 116.801 234.958 120.527C238.921 123.849 243.491 125.228 248.517 124.604C255.424 123.752 260.872 120.755 264.747 115.703C267.436 112.197 269.132 107.988 270.169 103.787H270.186C271.258 103.585 272.278 103.365 273.271 103.111L273.253 103.119Z" fill="white"/>
<path d="M163.377 263.224H160.292C147.603 234.164 129.308 214.788 105.846 205.606C97.3314 202.266 88.6847 200.527 80.3193 199.859C80.1611 198.91 80.0205 197.961 79.9062 197.003C88.7199 197.636 97.8587 199.454 106.874 202.978C131.365 212.574 150.354 232.802 163.377 263.233V263.224Z" fill="white"/>
<path d="M102.13 175.632L93.3867 184.648L89.74 179.288L88.5273 177.486C84.6345 178.462 78.8877 170.852 76.5854 166.792C74.2919 162.715 83.4922 156.432 83.4922 156.432C81.9896 151.933 75.9615 149.103 75.7945 147.856C75.6276 146.625 77.1214 145.298 82.6047 147.856C88.0967 150.43 92.8594 159.525 92.8594 159.525C93.8348 156.88 89.5027 149.718 90.3023 148.91C91.0932 148.119 95.3375 149.095 98.6063 155.984C101.893 162.891 99.9332 171.028 99.9332 171.028L99.9771 171.098L102.139 175.623L102.13 175.632Z" fill="#98B2D8"/>
<path d="M83.1582 155.641C83.1582 155.641 89.652 163.075 88.9578 165.993C88.2636 168.91 84.986 165.527 84.986 165.527C84.986 165.527 87.9912 168.998 87.0158 170.149C86.0405 171.3 82.4201 168.383 82.4201 168.383C82.4201 168.383 86.7522 173.778 82.4201 172.978C78.088 172.179 72.6399 164.007 76.8226 163.189C76.8226 163.189 76.3129 157.24 80.1178 159.27C80.1178 159.27 78.4131 154.314 83.1582 155.641Z" fill="#B1C3E8"/>
<path d="M162.103 263.277C162.103 263.277 169.414 241.906 165.574 220.843C165.574 220.843 165.556 220.799 165.547 220.702C165.547 220.658 165.53 220.606 165.521 220.535C165.407 219.982 165.292 219.428 165.178 218.883C165.178 218.883 160.934 222.591 155.073 226.273C148.043 230.702 138.658 235.105 131.453 233.04C118.236 229.261 98.9044 203.567 89.9326 183.277C89.9326 183.277 94.4141 176.555 103.377 174.49C103.377 174.49 121.303 198.374 137.112 204.033C137.112 204.033 145.6 193.883 152.199 179.033C156.417 169.551 162.744 163.55 170.723 160.325C175.248 158.471 180.319 157.522 185.819 157.355L199.668 150.887C199.668 150.887 201.918 150.905 205.415 151.353C211.909 152.205 222.708 154.578 231.434 161.23C244.879 171.476 264.22 263.294 264.22 263.294H162.103V263.277Z" fill="#B7CAE5"/>
<path d="M165.548 220.702C165.433 220.096 165.31 219.49 165.179 218.875C165.179 218.875 160.934 222.583 155.073 226.265L159.159 191.282C163.316 207.302 165.31 219.27 165.539 220.702H165.548Z" fill="#97B3D1"/>
<path d="M205.415 151.335C203.28 164.921 189.677 177.469 179.861 177.302C171.962 177.161 170.802 165.843 170.723 160.307C175.248 158.453 180.318 157.504 185.819 157.337L199.668 150.87C199.668 150.87 201.918 150.887 205.415 151.335Z" fill="#CED9EA"/>
<path d="M181.909 249.393C181.909 249.393 213.104 216.924 214.466 182.794L223.666 211.563L220.125 241.519L181.909 249.393Z" fill="#97B3D1"/>
<path d="M181.005 263.268H146.075C146.075 263.268 146.163 258.496 151.558 256.897C156.954 255.307 160.398 248.584 176.585 249.472L181.005 263.268Z" fill="#98B2D8"/>
<path d="M216.743 231.168C216.743 231.168 200.285 240.632 174.371 247.354C174.371 247.354 170.777 256.018 177.086 263.277H227.226L216.752 231.177L216.743 231.168Z" fill="#B6C5DD"/>
<path d="M155.469 131.951C155.469 131.951 148.018 121.67 148.94 114.745C149.863 107.821 156.269 109.446 156.269 109.446C156.269 109.446 155.97 92.6188 171.541 96.9246C171.541 96.9246 171.199 91.784 174.599 91.9246C178 92.0564 183.334 99.8771 183.334 99.8771C183.334 99.8771 184.661 94.0863 186.963 95.4483C189.265 96.8191 189.977 102.794 194.784 105.677C199.59 108.559 202.569 112.285 198.791 123.954C195.012 135.624 197.85 136.45 196.497 142.443C195.214 148.137 194.195 151.599 190.662 151.915C187.13 152.232 173.606 137.97 173.606 137.97L155.478 131.951H155.469Z" fill="#5D7CA0"/>
<path d="M199.679 150.87C199.679 150.87 191.006 171.906 181.893 170.325C177.368 169.534 176.357 166.775 176.322 163.576C176.278 159.402 177.904 154.508 175.443 152.451L186.366 136.933L188.774 133.506C188.774 133.506 191.717 142.021 199.687 150.87H199.679Z" fill="#98B2D8"/>
<path d="M176.313 163.576C176.269 159.402 177.895 154.508 175.435 152.451L186.357 136.933C187.289 138.023 187.956 139.965 188.229 143.005C189.67 159.033 181.199 162.759 176.313 163.576Z" fill="#799CBF"/>
<path d="M154.406 123.77C154.406 123.77 157.359 150.87 168.422 156.977C178.035 162.276 189.705 146.239 189.476 138.313C189.476 138.313 193.668 135.114 192.965 129.938C192.262 124.763 186.787 126.476 186.137 134.824C186.137 134.824 181.682 134.508 180.865 124.077C178.07 126.388 175.056 125.677 171.884 122.865C171.884 122.865 170.311 128.673 162.218 121.889C162.218 121.889 159.169 126.037 154.415 123.787L154.406 123.77Z" fill="#98B2D8"/>
<path d="M415.274 228.778C415.274 228.778 429.554 252.6 434.492 264.155H384.15C384.15 264.155 381.285 250.236 376.241 236.853L415.274 228.778Z" fill="#5D7CA0"/>
<path d="M395.645 234.085C392.885 243.215 388.685 251.01 382.455 256.923L384.16 264.147L323.246 263.391L330.03 221.695L395.653 234.076L395.645 234.085Z" fill="#799CBF"/>
<path d="M491.205 104.095C491.205 104.095 493.217 91.4676 497.233 86.9861C501.24 82.5045 512.206 75.8789 513.507 78.2339C514.807 80.5889 503.841 87.9878 503.841 87.9878C503.841 87.9878 508.797 86.8103 513.041 94.1213C517.285 101.432 503.604 107.091 503.604 107.091L500.888 113.225L490.036 106.388L491.205 104.104V104.095Z" fill="#799CBF"/>
<path d="M505.228 88.2251C505.228 88.2251 499.112 94.4377 500.009 96.2128C500.905 97.9878 504.27 95.2022 504.27 95.2022C504.27 95.2022 501.52 99.385 503.655 100.466C505.791 101.547 509.086 97.9263 509.086 97.9263C509.086 97.9263 506.335 101.731 507.917 102.434C509.499 103.128 517.952 97.1706 516.441 95.7734C514.929 94.3762 514.103 95.5186 514.103 95.5186C514.103 95.5186 515.87 92.5397 514.103 91.5819C512.179 90.545 511.212 92.4079 511.212 92.4079C511.212 92.4079 512.654 90.1232 511.485 89.2357C510.316 88.3481 507.838 89.4905 507.838 89.4905C507.838 89.4905 508.647 85.6856 505.22 88.2251H505.228Z" fill="#98B2D8"/>
<path d="M499.553 88.0757C497.699 87.5485 493.92 91.4061 493.92 91.4061C492.435 93.3129 492.136 97.1178 492.075 98.8753C491.881 103.779 490.027 106.38 490.027 106.38L495.537 109.851C499.799 104.359 498.402 97.3287 497.716 94.8331C499.79 91.7312 500.66 88.3833 499.553 88.0669V88.0757Z" fill="#98B2D8"/>
<path d="M503.121 114.517C503.121 114.517 484.729 163.506 455.494 167.847C442.418 169.789 432.541 169.982 425.634 169.613C417.401 169.191 413.35 167.943 413.051 167.855C413.033 167.855 413.033 167.838 413.033 167.838C413.033 167.838 405.011 182.776 410.204 204.244C415.38 225.693 417.278 230.184 417.278 230.184C417.278 230.184 377.867 259.164 345.819 232.776L316.901 187.811L307.841 173.717C307.841 173.717 316.162 146.397 339.624 128.638L339.642 128.62C348.482 121.916 359.492 116.564 373.007 114.587C379.94 113.541 387.524 113.383 395.819 114.376C395.819 114.376 402.19 116.177 412.541 119.965C418.112 122.003 424.852 124.622 432.365 127.847C453.833 137.047 459.729 139.789 459.729 139.789C459.729 139.789 482.594 117.232 488.499 103.55C488.499 103.55 500.282 104.736 503.112 114.517H503.121Z" fill="#B7CAE5"/>
<path d="M355.538 136.889C355.433 147.864 353.087 158.506 352.05 166.766L370.231 163.084L398.517 191.045C398.517 191.045 402.102 199.235 394.809 200.65C389.088 201.757 362.375 205.474 362.375 205.474C356.215 213.857 353.438 226.669 350.363 239.112L323.245 191.985L355.538 136.88V136.889Z" fill="#97B3D1"/>
<path d="M395.821 139.525C383.158 136.309 376.489 124.921 373.009 114.596C379.942 113.55 387.525 113.392 395.821 114.385C395.821 114.385 402.191 116.186 412.543 119.974C413.755 129.016 413.325 143.954 395.821 139.525Z" fill="#CED9EA"/>
<path d="M429.071 149.543C429.071 149.543 426.356 160.184 425.635 169.622C417.401 169.2 413.351 167.952 413.052 167.864C413.034 167.864 413.034 167.847 413.034 167.847C413.034 167.847 420.222 155.553 429.062 149.534L429.071 149.543Z" fill="#97B3D1"/>
<path d="M390 144.238L358.415 148.823C357.479 148.959 356.83 149.829 356.966 150.765L363.945 198.837C364.081 199.774 364.95 200.423 365.887 200.287L397.471 195.702C398.407 195.566 399.056 194.696 398.92 193.76L391.942 145.688C391.806 144.751 390.936 144.102 390 144.238Z" fill="#F2F4F9"/>
<path d="M374.475 165.105L379.308 163.216C379.308 163.216 383.903 150.483 389.624 158.497C389.624 158.497 393.578 156.142 393.455 154.842C393.332 153.541 393.279 151.661 393.279 151.661C393.279 151.661 401.285 153.392 399.492 164.551C397.699 175.711 390.863 174.297 384.141 174.42L375.766 177.724L374.466 165.105H374.475Z" fill="#98B2D8"/>
<path d="M377.594 180.667C377.594 180.667 339.923 205.597 323.658 193.576C321.18 191.739 318.93 189.797 316.909 187.82L307.85 173.725C307.85 173.725 316.171 146.406 339.633 128.647L339.651 128.629C347.428 125.132 355.556 126.406 355.969 133.611C356.962 150.773 342.287 161.327 340.468 169.112L374.229 162.276C374.229 162.276 379.721 168.102 377.594 180.667Z" fill="#C1CFE5"/>
<path d="M421.874 88.269C421.874 88.269 427.261 76.7665 425.055 70.1409C422.849 63.5153 416.865 66.3184 416.865 66.3184C416.865 66.3184 413.992 49.7368 399.51 56.8896C399.51 56.8896 398.878 51.7842 395.565 52.5487C392.252 53.322 388.482 62.0038 388.482 62.0038C388.482 62.0038 386.092 56.5645 384.089 58.3395C382.085 60.1146 382.507 66.1251 378.324 69.8597C374.141 73.5943 371.918 77.8122 377.823 88.5678C383.728 99.3234 381.101 100.668 383.553 106.301C385.881 111.652 387.533 114.859 391.066 114.508C394.598 114.156 405.196 97.6011 405.196 97.6011L421.874 88.2778V88.269Z" fill="#5D7CA0"/>
<path d="M382.015 115.167C382.015 115.167 390.345 135.685 403.429 132.328C407.884 131.186 407.911 126.406 407.348 123.251C406.601 119.148 404.088 114.64 406.118 112.162L392.472 98.9719L389.466 96.0633C389.466 96.0633 388.175 104.982 382.015 115.167Z" fill="#98B2D8"/>
<path d="M407.348 123.251C406.601 119.148 404.088 114.64 406.118 112.162L392.471 98.9719C391.76 100.22 391.47 102.25 391.777 105.281C393.376 121.3 402.401 123.357 407.348 123.251Z" fill="#799CBF"/>
<path d="M421.373 80.0353C421.373 80.0353 423.57 107.214 413.851 115.281C405.406 122.293 390.925 108.743 389.668 100.905C389.668 100.905 384.949 98.5501 384.668 93.3305C384.387 88.1108 390.081 88.7699 392.296 96.8454C392.296 96.8454 396.61 95.6943 395.459 85.2989C398.64 87.0476 401.47 85.7822 404.053 82.4167C404.053 82.4167 406.689 87.8209 413.359 79.6399C413.359 79.6399 417.137 83.1372 421.382 80.0353H421.373Z" fill="#98B2D8"/>
<path d="M352.277 248.25V248.268C351.864 249.937 351.284 251.466 350.537 252.837C343.7 265.333 314.105 263.277 314.105 263.277H246.539C218.578 263.277 207.374 262.582 204.694 253.857C204.536 253.391 204.422 252.899 204.325 252.372C202.427 242.222 211.865 209.217 229.316 186.572C238.244 174.999 247.471 168.901 255.696 165.711C263.552 162.671 270.485 162.275 275.353 162.275C283.929 162.275 290.845 162.908 296.715 164.288C312.479 167.978 320.73 176.898 333.094 192.697C348.217 212.012 355.66 234.692 352.286 248.25H352.277Z" fill="#DE535F"/>
<g style="mix-blend-mode:multiply" opacity="0.22">
<path d="M233.446 240.236C240.775 228.707 243.086 212.706 245.125 196.476L251.495 229.489H306.68L316.82 196.476C316.583 211.906 318.701 227.038 326.02 241.519C326.02 241.519 289.94 282.354 233.455 240.236H233.446Z" fill="#1F395E"/>
</g>
<path d="M250.204 263.276H246.539C218.578 263.276 207.374 262.582 204.694 253.857C203.236 246.994 205.09 239.779 213.455 237.626C226.557 234.261 249.369 247.53 249.369 247.53L250.204 263.276Z" fill="#DE535F"/>
<path d="M352.276 248.25C352.276 248.25 352.294 248.25 352.276 248.268C351.863 249.937 351.283 251.466 350.536 252.837C343.7 265.333 314.104 263.277 314.104 263.277H294.052L296.6 246.299C296.6 246.299 332.145 229.841 344.877 234.981C351.108 237.486 353.014 242.697 352.276 248.25Z" fill="#DE535F"/>
<path d="M296.714 164.288C296.117 172.223 292.839 186.687 276.846 186.687C259.992 186.687 256.425 172.434 255.695 165.72C263.551 162.68 270.484 162.284 275.352 162.284C283.929 162.284 290.844 162.917 296.714 164.297V164.288Z" fill="#CC4053"/>
<path d="M311.274 263.268H246.538C244.974 263.268 243.709 262.002 243.709 260.438C243.709 258.874 244.974 257.609 246.538 257.609H311.274C312.839 257.609 314.104 258.874 314.104 260.438C314.104 262.002 312.839 263.268 311.274 263.268Z" fill="white"/>
<path d="M319.114 214.604L318.877 216.071V216.089L312.172 257.618H246.188L239.554 214.577C239.229 212.469 240.872 210.562 242.99 210.562H315.678C317.831 210.562 319.457 212.486 319.114 214.613V214.604Z" fill="url(#paint0_linear_13540_368985)"/>
<path d="M318.877 216.089L312.172 257.618H246.549L268.789 255.298C291.628 252.934 311.083 237.679 318.877 216.089Z" fill="#3150BC"/>
<path d="M276.574 180.667H276.135C273.587 180.667 271.478 180.14 269.764 179.376C265.608 177.504 263.086 173.163 263.183 168.611C263.2 168.145 263.2 167.688 263.2 167.24C263.218 163.462 262.972 160.325 262.972 160.325V158.629L286.741 157.566C286.829 160.993 287.225 164.033 287.69 166.467C287.708 166.511 287.708 166.537 287.717 166.581C289.079 173.725 283.841 180.492 276.566 180.676L276.574 180.667Z" fill="#FEB19E"/>
<path d="M287.699 166.467C277.796 178.101 267.62 171.309 263.209 167.249C263.227 163.471 262.98 160.334 262.98 160.334V158.638L286.75 157.574C286.838 161.001 287.233 164.042 287.699 166.476V166.467Z" fill="#FF856A"/>
<path d="M255.705 147.073C255.705 147.073 263.077 167.847 275.371 167.847C287.664 167.847 292.778 145.474 292.778 145.474V126.019H254.773L255.714 147.073H255.705Z" fill="#FEB19E"/>
<path d="M251.75 135.351C251.75 135.351 248.13 136.01 248.745 140.167C249.36 144.323 253.139 149.367 256.206 146.713L251.75 135.351Z" fill="#FEB19E"/>
<path d="M295.643 133.611C295.643 133.611 299.316 133.778 299.272 137.979C299.228 142.179 296.17 147.689 292.77 145.474L295.643 133.611Z" fill="#FEB19E"/>
<path d="M295.643 133.611C295.643 133.611 294.369 140.878 292.77 145.474C292.77 145.474 289.861 144.885 288.912 137.223C288.912 137.223 282.62 138.453 278.666 132.504C278.666 132.504 277.726 138.4 271.654 134.218C267.603 137.522 262.814 137.873 257.383 135.632C257.383 135.632 258.297 143.365 255.705 147.073C255.705 147.073 254.765 144.016 251.751 135.351C251.751 135.351 250.459 135.395 249.633 136.573C249.633 136.573 243.122 123.831 246.188 117.706C249.255 111.582 253.385 113.937 253.385 113.937C253.385 113.937 251.856 105.562 260.933 102.496C270.011 99.4288 270.011 95.2988 271.425 96.1248C272.84 96.9508 273.429 100.018 273.429 100.018C273.429 100.018 289.114 98.3656 293.358 115.228C293.358 115.228 304.685 115.589 297.963 134.578C297.963 134.578 297.524 133.787 295.652 133.611H295.643Z" fill="url(#paint1_linear_13540_368985)"/>
<g style="mix-blend-mode:multiply" opacity="0.6">
<path d="M235.046 151.265H175.784C173.86 151.265 172.296 152.829 172.296 154.754V190.122C172.296 192.047 173.86 193.611 175.784 193.611H216.663L227.322 203.057C228.13 203.769 229.361 202.952 229.009 201.933L226.127 193.611H235.046C236.97 193.611 238.534 192.047 238.534 190.122V154.754C238.534 152.829 236.97 151.265 235.046 151.265Z" fill="#DFE8F3"/>
</g>
<g style="mix-blend-mode:multiply">
<g style="mix-blend-mode:multiply">
<path d="M194.168 160.729H180.513C180.003 160.729 179.581 160.316 179.581 159.798C179.581 159.288 179.994 158.866 180.513 158.866H194.168C194.678 158.866 195.099 159.279 195.099 159.798C195.099 160.316 194.686 160.729 194.168 160.729Z" fill="#9ABCED"/>
</g>
<g style="mix-blend-mode:multiply">
<path d="M227.839 168.796H188.279C187.769 168.796 187.348 168.383 187.348 167.864C187.348 167.355 187.761 166.933 188.279 166.933H227.839C228.349 166.933 228.771 167.346 228.771 167.864C228.771 168.383 228.358 168.796 227.839 168.796Z" fill="#9ABCED"/>
</g>
<g style="mix-blend-mode:multiply">
<path d="M227.841 174.543H180.521C180.012 174.543 179.59 174.13 179.59 173.611C179.59 173.093 180.003 172.68 180.521 172.68H227.841C228.351 172.68 228.772 173.093 228.772 173.611C228.772 174.121 228.359 174.543 227.841 174.543Z" fill="#9ABCED"/>
</g>
<g style="mix-blend-mode:multiply">
<path d="M227.841 180.281H180.521C180.012 180.281 179.59 179.868 179.59 179.349C179.59 178.84 180.003 178.418 180.521 178.418H227.841C228.351 178.418 228.772 178.831 228.772 179.349C228.772 179.868 228.359 180.281 227.841 180.281Z" fill="#9ABCED"/>
</g>
<g style="mix-blend-mode:multiply">
<path d="M227.841 186.019H180.521C180.012 186.019 179.59 185.606 179.59 185.087C179.59 184.569 180.003 184.156 180.521 184.156H227.841C228.351 184.156 228.772 184.569 228.772 185.087C228.772 185.597 228.359 186.019 227.841 186.019Z" fill="#9ABCED"/>
</g>
</g>
<path d="M497.778 263.268H67.6315C66.7822 263.268 66.0938 263.956 66.0938 264.806V270.93C66.0938 271.78 66.7822 272.468 67.6315 272.468H497.778C498.627 272.468 499.316 271.78 499.316 270.93V264.806C499.316 263.956 498.627 263.268 497.778 263.268Z" fill="#E9EAEC"/>
<path d="M391.365 240.588H409.757V256.51C409.757 260.219 406.743 263.233 403.035 263.233H398.079C394.37 263.233 391.356 260.219 391.356 256.51V240.588H391.365Z" fill="url(#paint2_linear_13540_368985)"/>
<path d="M397.2 240.588V235.676C397.2 234.867 397.85 234.217 398.659 234.217H400.513C401.321 234.217 401.972 233.567 401.972 232.758V230.904C401.972 230.096 401.321 229.446 400.513 229.446H394.546C390.443 229.446 387.121 226.124 387.121 222.02C387.121 217.917 390.443 214.595 394.546 214.595H402.464C403.272 214.595 403.922 213.945 403.922 213.136V212.477C403.922 208.224 407.367 204.78 411.62 204.78C415.873 204.78 419.318 208.224 419.318 212.477C419.318 217.064 415.592 220.79 411.005 220.79H397.077C396.269 220.79 395.618 221.44 395.618 222.249C395.618 223.057 396.269 223.707 397.077 223.707H404.687C407.499 223.707 409.775 225.983 409.775 228.795V231.976C409.775 234.788 407.499 237.064 404.687 237.064C403.878 237.064 403.228 237.714 403.228 238.523V240.605H397.218L397.2 240.588Z" fill="url(#paint3_linear_13540_368985)"/>
<g style="mix-blend-mode:multiply" opacity="0.6">
<path d="M383.964 146.801H335.669C333.815 146.801 332.312 148.304 332.312 150.158V211.186C332.312 213.039 333.815 214.542 335.669 214.542H383.964C385.818 214.542 387.321 213.039 387.321 211.186V150.158C387.321 148.304 385.818 146.801 383.964 146.801Z" fill="#DFE8F3"/>
</g>
<path d="M387.021 212.302H338.735C336.494 212.302 334.666 210.474 334.666 208.233V147.214C334.666 144.973 336.494 143.146 338.735 143.146H387.021C389.261 143.146 391.089 144.973 391.089 147.214V208.233C391.089 210.474 389.261 212.302 387.021 212.302ZM338.735 144.56C337.267 144.56 336.081 145.747 336.081 147.214V208.233C336.081 209.701 337.267 210.887 338.735 210.887H387.021C388.488 210.887 389.674 209.701 389.674 208.233V147.214C389.674 145.747 388.488 144.56 387.021 144.56H338.735Z" fill="#4F7EB7"/>
<g style="mix-blend-mode:multiply">
<g style="mix-blend-mode:multiply" opacity="0.71">
<path d="M351.292 168.471H340.562V155.615H351.292V168.471ZM341.977 167.056H349.877V157.03H341.977V167.056Z" fill="#7CA6D8"/>
</g>
<g style="mix-blend-mode:multiply">
<path d="M348.594 164.49L345.404 160.931L346.459 159.982L348.392 162.144C349.376 160.852 351.775 158.26 356.336 156.379L356.872 157.689C351.186 160.026 349.104 163.594 349.086 163.629L348.603 164.481L348.594 164.49Z" fill="#EA9BA1"/>
</g>
<g style="mix-blend-mode:multiply">
<path d="M378.663 160.439H362.02C361.44 160.439 360.966 159.965 360.966 159.385C360.966 158.805 361.44 158.33 362.02 158.33H378.663C379.243 158.33 379.718 158.805 379.718 159.385C379.718 159.965 379.243 160.439 378.663 160.439Z" fill="#9ABCED"/>
</g>
<g style="mix-blend-mode:multiply">
<path d="M378.663 165.536H362.02C361.44 165.536 360.966 165.061 360.966 164.481C360.966 163.901 361.44 163.427 362.02 163.427H378.663C379.243 163.427 379.718 163.901 379.718 164.481C379.718 165.061 379.243 165.536 378.663 165.536Z" fill="#9ABCED"/>
</g>
</g>
<g style="mix-blend-mode:multiply">
<g style="mix-blend-mode:multiply" opacity="0.71">
<path d="M351.292 188.163H340.562V175.307H351.292V188.163ZM341.977 186.748H349.877V176.722H341.977V186.748Z" fill="#7CA6D8"/>
</g>
<g style="mix-blend-mode:multiply">
<path d="M348.594 184.182L345.404 180.623L346.459 179.674L348.392 181.836C349.376 180.544 351.775 177.952 356.336 176.072L356.872 177.381C351.186 179.718 349.104 183.286 349.086 183.321L348.603 184.173L348.594 184.182Z" fill="#EA9BA1"/>
</g>
<g style="mix-blend-mode:multiply">
<path d="M378.663 180.131H362.02C361.44 180.131 360.966 179.657 360.966 179.077C360.966 178.497 361.44 178.022 362.02 178.022H378.663C379.243 178.022 379.718 178.497 379.718 179.077C379.718 179.657 379.243 180.131 378.663 180.131Z" fill="#9ABCED"/>
</g>
<g style="mix-blend-mode:multiply">
<path d="M378.663 185.228H362.02C361.44 185.228 360.966 184.753 360.966 184.173C360.966 183.593 361.44 183.119 362.02 183.119H378.663C379.243 183.119 379.718 183.593 379.718 184.173C379.718 184.753 379.243 185.228 378.663 185.228Z" fill="#9ABCED"/>
</g>
</g>
<g style="mix-blend-mode:multiply">
<g style="mix-blend-mode:multiply" opacity="0.71">
<path d="M351.292 207.855H340.562V194.999H351.292V207.855ZM341.977 206.44H349.877V196.414H341.977V206.44Z" fill="#7CA6D8"/>
</g>
<g style="mix-blend-mode:multiply">
<path d="M348.594 203.875L345.404 200.316L346.459 199.367L348.392 201.528C349.376 200.237 351.775 197.644 356.336 195.764L356.872 197.073C351.186 199.411 349.104 202.978 349.086 203.013L348.603 203.866L348.594 203.875Z" fill="#EA9BA1"/>
</g>
<g style="mix-blend-mode:multiply">
<path d="M378.663 199.815H362.02C361.44 199.815 360.966 199.34 360.966 198.76C360.966 198.18 361.44 197.706 362.02 197.706H378.663C379.243 197.706 379.718 198.18 379.718 198.76C379.718 199.34 379.243 199.815 378.663 199.815Z" fill="#9ABCED"/>
</g>
<g style="mix-blend-mode:multiply">
<path d="M378.663 204.92H362.02C361.44 204.92 360.966 204.446 360.966 203.866C360.966 203.286 361.44 202.811 362.02 202.811H378.663C379.243 202.811 379.718 203.286 379.718 203.866C379.718 204.446 379.243 204.92 378.663 204.92Z" fill="#9ABCED"/>
</g>
</g>
<g style="mix-blend-mode:multiply" opacity="0.6">
<path d="M553.595 53.4801H505.3C503.446 53.4801 501.943 54.983 501.943 56.8368V117.865C501.943 119.718 503.446 121.221 505.3 121.221H553.595C555.449 121.221 556.952 119.718 556.952 117.865V56.8368C556.952 54.983 555.449 53.4801 553.595 53.4801Z" fill="#DFE8F3"/>
</g>
<path d="M557.83 118.075H509.544C507.303 118.075 505.476 116.248 505.476 114.007V52.988C505.476 50.7473 507.303 48.9195 509.544 48.9195H557.83C560.071 48.9195 561.899 50.7473 561.899 52.988V114.007C561.899 116.248 560.071 118.075 557.83 118.075ZM509.544 50.3343C508.077 50.3343 506.89 51.5205 506.89 52.988V114.007C506.89 115.466 508.077 116.661 509.544 116.661H557.83C559.298 116.661 560.484 115.474 560.484 114.007V52.988C560.484 51.5293 559.298 50.3343 557.83 50.3343H509.544Z" fill="#4F7EB7"/>
<g style="mix-blend-mode:multiply" opacity="0.5">
<g style="mix-blend-mode:multiply">
<path d="M525.271 73.5432C526.353 68.9817 523.532 64.4069 518.971 63.3252C514.409 62.2436 509.834 65.0646 508.752 69.6261C507.671 74.1877 510.492 78.7625 515.053 79.8442C519.615 80.9259 524.19 78.1048 525.271 73.5432Z" fill="#7CA6D8"/>
</g>
<g style="mix-blend-mode:multiply">
<path d="M519.245 70.4659L524.904 60.3869C530.089 61.6874 532.567 66.5731 530.089 71.5907L519.236 70.4747L519.245 70.4659Z" fill="#E83F54"/>
</g>
<g style="mix-blend-mode:multiply">
<g style="mix-blend-mode:multiply">
<path d="M513.936 89.2707C513.936 90.6415 512.829 91.7487 511.458 91.7487C510.088 91.7487 508.98 90.6415 508.98 89.2707C508.98 87.8998 510.088 86.7926 511.458 86.7926C512.829 86.7926 513.936 87.8998 513.936 89.2707Z" fill="#9ABCED"/>
</g>
<g style="mix-blend-mode:multiply">
<path d="M513.936 100.237C513.936 101.608 512.829 102.715 511.458 102.715C510.088 102.715 508.98 101.608 508.98 100.237C508.98 98.8663 510.088 97.7591 511.458 97.7591C512.829 97.7591 513.936 98.8663 513.936 100.237Z" fill="#9ABCED"/>
</g>
<g style="mix-blend-mode:multiply">
<path d="M546.246 91.7486H526.44C525.069 91.7486 523.962 90.6414 523.962 89.2706C523.962 87.8998 525.069 86.7926 526.44 86.7926H546.246C547.617 86.7926 548.724 87.8998 548.724 89.2706C548.724 90.6414 547.617 91.7486 546.246 91.7486Z" fill="#9ABCED"/>
</g>
<g style="mix-blend-mode:multiply">
<path d="M546.246 102.715H526.44C525.069 102.715 523.962 101.608 523.962 100.237C523.962 98.8663 525.069 97.7591 526.44 97.7591H546.246C547.617 97.7591 548.724 98.8663 548.724 100.237C548.724 101.608 547.617 102.715 546.246 102.715Z" fill="#9ABCED"/>
</g>
<g style="mix-blend-mode:multiply">
<path d="M513.936 111.379C513.936 112.75 512.829 113.857 511.458 113.857C510.088 113.857 508.98 112.75 508.98 111.379C508.98 110.009 510.088 108.901 511.458 108.901C512.829 108.901 513.936 110.009 513.936 111.379Z" fill="#9ABCED"/>
</g>
<g style="mix-blend-mode:multiply">
<path d="M546.246 113.857H526.44C525.069 113.857 523.962 112.75 523.962 111.379C523.962 110.009 525.069 108.901 526.44 108.901H546.246C547.617 108.901 548.724 110.009 548.724 111.379C548.724 112.75 547.617 113.857 546.246 113.857Z" fill="#9ABCED"/>
</g>
</g>
</g>
<g style="mix-blend-mode:multiply" opacity="0.6">
<path d="M140.602 22.2853H92.3069C90.4531 22.2853 88.9502 23.7882 88.9502 25.6421V97.9878C88.9502 99.8416 90.4531 101.345 92.3069 101.345H140.602C142.456 101.345 143.959 99.8416 143.959 97.9878V25.6421C143.959 23.7882 142.456 22.2853 140.602 22.2853Z" fill="#DFE8F3"/>
</g>
<path d="M137.534 98.9895H89.2482C87.0074 98.9895 85.1797 97.1618 85.1797 94.921V22.5841C85.1797 20.3434 87.0074 18.5156 89.2482 18.5156H137.534C139.775 18.5156 141.603 20.3434 141.603 22.5841V94.921C141.603 97.1618 139.775 98.9895 137.534 98.9895ZM89.2482 19.9303C87.7895 19.9303 86.5944 21.1166 86.5944 22.5841V94.921C86.5944 96.3797 87.7807 97.5748 89.2482 97.5748H137.534C138.993 97.5748 140.188 96.3885 140.188 94.921V22.5841C140.188 21.1254 139.002 19.9303 137.534 19.9303H89.2482Z" fill="#4F7EB7"/>
<path d="M104.598 47.3832L106.877 45.3584L113.961 53.3345C114.352 53.7747 114.313 54.4446 113.873 54.8355L113.183 55.4483C112.743 55.8392 112.073 55.7995 111.682 55.3593L104.598 47.3832Z" fill="#7CA6D8"/>
<path d="M102.122 32.7247C97.6409 32.7247 93.9854 36.3626 93.9854 40.8617C93.9854 45.3608 97.6321 48.9987 102.122 48.9987C106.613 48.9987 110.259 45.3608 110.259 40.8617C110.259 36.3626 106.621 32.7247 102.122 32.7247ZM102.122 46.4065C99.0644 46.4065 96.5776 43.9285 96.5776 40.8617C96.5776 37.7949 99.0644 35.3169 102.122 35.3169C105.18 35.3169 107.667 37.7949 107.667 40.8617C107.667 43.9285 105.189 46.4065 102.122 46.4065Z" fill="#7CA6D8"/>
<path d="M135.084 37.2062H122.228C121.411 37.2062 120.752 36.5471 120.752 35.7299C120.752 34.9127 121.411 34.2536 122.228 34.2536H135.084C135.901 34.2536 136.56 34.9127 136.56 35.7299C136.56 36.5471 135.901 37.2062 135.084 37.2062Z" fill="#9ABCED"/>
<path d="M135.084 44.8687H122.228C121.411 44.8687 120.752 44.2096 120.752 43.3924C120.752 42.5752 121.411 41.9162 122.228 41.9162H135.084C135.901 41.9162 136.56 42.5752 136.56 43.3924C136.56 44.2096 135.901 44.8687 135.084 44.8687Z" fill="#9ABCED"/>
<path d="M135.084 51.9425H122.228C121.411 51.9425 120.752 51.2834 120.752 50.4662C120.752 49.649 121.411 48.9899 122.228 48.9899H135.084C135.901 48.9899 136.56 49.649 136.56 50.4662C136.56 51.2834 135.901 51.9425 135.084 51.9425Z" fill="#9ABCED"/>
<path d="M119.083 71.6348H99.276C98.3446 71.6348 97.5977 70.8791 97.5977 69.9565C97.5977 69.025 98.3534 68.2781 99.276 68.2781H119.083C120.014 68.2781 120.761 69.0338 120.761 69.9565C120.761 70.8879 120.005 71.6348 119.083 71.6348Z" fill="#9ABCED"/>
<path d="M119.083 82.1532H99.276C98.3446 82.1532 97.5977 81.3975 97.5977 80.4748C97.5977 79.5433 98.3534 78.7964 99.276 78.7964H119.083C120.014 78.7964 120.761 79.5521 120.761 80.4748C120.761 81.4062 120.005 82.1532 119.083 82.1532Z" fill="#9ABCED"/>
<path d="M119.083 92.6803H99.276C98.3446 92.6803 97.5977 91.9246 97.5977 91.002C97.5977 90.0705 98.3534 89.3236 99.276 89.3236H119.083C120.014 89.3236 120.761 90.0793 120.761 91.002C120.761 91.9334 120.005 92.6803 119.083 92.6803Z" fill="#9ABCED"/>
<path d="M134.599 69.9564C134.599 71.4502 133.396 72.6541 131.902 72.6541C130.408 72.6541 129.204 71.4502 129.204 69.9564C129.204 68.4625 130.408 67.2587 131.902 67.2587C133.396 67.2587 134.599 68.4625 134.599 69.9564Z" fill="#9ABCED"/>
<path d="M134.599 80.4748C134.599 81.9686 133.396 83.1725 131.902 83.1725C130.408 83.1725 129.204 81.9686 129.204 80.4748C129.204 78.981 130.408 77.7771 131.902 77.7771C133.396 77.7771 134.599 78.981 134.599 80.4748Z" fill="#9ABCED"/>
<path d="M134.599 91.0019C134.599 92.4958 133.396 93.6996 131.902 93.6996C130.408 93.6996 129.204 92.4958 129.204 91.0019C129.204 89.5081 130.408 88.3042 131.902 88.3042C133.396 88.3042 134.599 89.5081 134.599 91.0019Z" fill="#9ABCED"/>
<g style="mix-blend-mode:multiply" opacity="0.6">
<path d="M376.54 32.0567H288.096C284.874 32.0567 282.262 34.6691 282.262 37.8915V96.6169C282.262 99.8394 284.874 102.452 288.096 102.452H376.54C379.763 102.452 382.375 99.8394 382.375 96.6169V37.8915C382.375 34.6691 379.763 32.0567 376.54 32.0567Z" fill="#DFE8F3"/>
</g>
<path d="M379.598 99.921H291.163C287.551 99.921 284.616 96.986 284.616 93.3744V34.649C284.616 31.0374 287.551 28.1025 291.163 28.1025H379.598C383.21 28.1025 386.145 31.0374 386.145 34.649V93.3744C386.145 96.986 383.21 99.921 379.598 99.921ZM291.163 29.526C288.333 29.526 286.031 31.8283 286.031 34.6578V93.3744C286.031 96.2039 288.333 98.5062 291.163 98.5062H379.598C382.427 98.5062 384.73 96.2039 384.73 93.3744V34.649C384.73 31.8195 382.427 29.5172 379.598 29.5172H291.163V29.526Z" fill="#4F7EB7"/>
<g style="mix-blend-mode:multiply" opacity="0.5">
<path d="M343.808 46.3888H294.81C293.395 46.3888 292.244 45.2377 292.244 43.8229C292.244 42.4082 293.395 41.257 294.81 41.257H343.808C345.223 41.257 346.374 42.4082 346.374 43.8229C346.374 45.2377 345.223 46.3888 343.808 46.3888Z" fill="#9ABCED"/>
</g>
<g style="mix-blend-mode:multiply" opacity="0.71">
<path d="M344.564 55.4045H294.063C293.063 55.4045 292.253 56.215 292.253 57.2147V82.2497C292.253 83.2494 293.063 84.0599 294.063 84.0599H344.564C345.563 84.0599 346.374 83.2494 346.374 82.2497V57.2147C346.374 56.215 345.563 55.4045 344.564 55.4045Z" fill="#7CA6D8"/>
</g>
<g style="mix-blend-mode:multiply" opacity="0.5">
<path d="M369.809 46.3888H355.301C353.886 46.3888 352.735 45.2377 352.735 43.8229C352.735 42.4082 353.886 41.257 355.301 41.257H369.809C371.224 41.257 372.375 42.4082 372.375 43.8229C372.375 45.2377 371.224 46.3888 369.809 46.3888Z" fill="#9ABCED"/>
</g>
<g style="mix-blend-mode:multiply" opacity="0.5">
<path d="M370.785 60.0003H355.548C354.669 60.0003 353.957 59.2885 353.957 58.4098C353.957 57.5311 354.669 56.8193 355.548 56.8193H370.785C371.663 56.8193 372.375 57.5311 372.375 58.4098C372.375 59.2885 371.663 60.0003 370.785 60.0003Z" fill="#9ABCED"/>
</g>
<g style="mix-blend-mode:multiply" opacity="0.5">
<path d="M370.785 67.1971H355.548C354.669 67.1971 353.957 66.4853 353.957 65.6066C353.957 64.7279 354.669 64.0161 355.548 64.0161H370.785C371.663 64.0161 372.375 64.7279 372.375 65.6066C372.375 66.4853 371.663 67.1971 370.785 67.1971Z" fill="#9ABCED"/>
</g>
<g style="mix-blend-mode:multiply" opacity="0.5">
<path d="M370.785 74.3851H355.548C354.669 74.3851 353.957 73.6733 353.957 72.7946C353.957 71.9159 354.669 71.2041 355.548 71.2041H370.785C371.663 71.2041 372.375 71.9159 372.375 72.7946C372.375 73.6733 371.663 74.3851 370.785 74.3851Z" fill="#9ABCED"/>
</g>
<g style="mix-blend-mode:multiply" opacity="0.5">
<path d="M370.785 81.5819H355.548C354.669 81.5819 353.957 80.8701 353.957 79.9914C353.957 79.1127 354.669 78.4009 355.548 78.4009H370.785C371.663 78.4009 372.375 79.1127 372.375 79.9914C372.375 80.8701 371.663 81.5819 370.785 81.5819Z" fill="#9ABCED"/>
</g>
<g style="mix-blend-mode:multiply" opacity="0.5">
<path d="M360.433 95.2637H304.01C302.842 95.2637 301.884 94.3146 301.884 93.1371C301.884 91.9684 302.833 91.0106 304.01 91.0106H360.433C361.602 91.0106 362.56 91.9596 362.56 93.1371C362.56 94.3058 361.611 95.2637 360.433 95.2637Z" fill="#9ABCED"/>
</g>
<g style="mix-blend-mode:multiply" opacity="0.6">
<path d="M8.98635 114.359H92.7028C95.3038 114.359 97.4216 116.476 97.4216 119.077V169.78C97.4216 172.381 95.3038 174.499 92.7028 174.499H8.98635C6.38531 174.499 4.26758 172.381 4.26758 169.78V119.077C4.26758 116.476 6.38531 114.359 8.98635 114.359Z" fill="#DFE8F3"/>
</g>
<path d="M89.2759 171.722H5.55066C2.56298 171.722 0.128906 169.288 0.128906 166.3V115.598C0.128906 112.61 2.56298 110.176 5.55066 110.176H89.2759C92.2636 110.176 94.6977 112.61 94.6977 115.598V166.3C94.6977 169.288 92.2636 171.722 89.2759 171.722ZM5.55066 111.59C3.33627 111.59 1.54366 113.392 1.54366 115.598V166.3C1.54366 168.515 3.34505 170.307 5.55066 170.307H89.2759C91.4903 170.307 93.2829 168.506 93.2829 166.3V115.598C93.2829 113.383 91.4815 111.59 89.2759 111.59H5.55066Z" fill="#4F7EB7"/>
<g style="mix-blend-mode:multiply" opacity="0.5">
<g style="mix-blend-mode:multiply">
<path d="M37.7918 142.118C35.6301 144.297 32.6248 145.641 29.3032 145.641C22.6776 145.641 17.2998 140.263 17.2998 133.638C17.2998 127.012 22.6776 121.626 29.3032 121.626C30.6477 121.626 31.9482 121.854 33.1521 122.258L29.3032 133.638L37.7918 142.118Z" fill="#7CA6D8"/>
</g>
<g style="mix-blend-mode:multiply">
<path d="M42.8964 132.715C42.8964 135.527 41.754 138.075 39.9087 139.912L32.7031 132.715L35.972 123.058C39.9966 124.42 42.9052 128.225 42.9052 132.715H42.8964Z" fill="#E83F54"/>
</g>
<g style="mix-blend-mode:multiply">
<path d="M83.4495 146.353H55.8574V123.058C55.8574 122.671 56.1738 122.346 56.5692 122.346C56.9646 122.346 57.281 122.663 57.281 123.058V144.938H83.4583C83.8537 144.938 84.1701 145.255 84.1701 145.65C84.1701 146.045 83.8537 146.362 83.4583 146.362L83.4495 146.353Z" fill="#9ABCED"/>
</g>
<g style="mix-blend-mode:multiply">
<path d="M65.1712 134.35H61.6299V144.938H65.1712V134.35Z" fill="#9ABCED"/>
</g>
<g style="mix-blend-mode:multiply">
<path d="M72.4837 128.981H68.9424V144.938H72.4837V128.981Z" fill="#E83F54"/>
</g>
<g style="mix-blend-mode:multiply">
<path d="M79.6799 136.959H76.1387V144.938H79.6799V136.959Z" fill="#9ABCED"/>
</g>
<g style="mix-blend-mode:multiply">
<path d="M34.5745 154.683H17.949C17.2647 154.683 16.71 155.238 16.71 155.922C16.71 156.607 17.2647 157.161 17.949 157.161H34.5745C35.2588 157.161 35.8135 156.607 35.8135 155.922C35.8135 155.238 35.2588 154.683 34.5745 154.683Z" fill="#9ABCED"/>
</g>
<g style="mix-blend-mode:multiply">
<path d="M59.9251 154.683H43.2996C42.6153 154.683 42.0605 155.238 42.0605 155.922C42.0605 156.607 42.6153 157.161 43.2996 157.161H59.9251C60.6094 157.161 61.1641 156.607 61.1641 155.922C61.1641 155.238 60.6094 154.683 59.9251 154.683Z" fill="#9ABCED"/>
</g>
<g style="mix-blend-mode:multiply">
<path d="M83.7483 154.683H67.1228C66.4385 154.683 65.8838 155.238 65.8838 155.922C65.8838 156.607 66.4385 157.161 67.1228 157.161H83.7483C84.4326 157.161 84.9873 156.607 84.9873 155.922C84.9873 155.238 84.4326 154.683 83.7483 154.683Z" fill="#9ABCED"/>
</g>
<g style="mix-blend-mode:multiply">
<path d="M45.4798 166.001H28.8542C28.1688 166.001 27.6152 165.448 27.6152 164.762C27.6152 164.077 28.1688 163.523 28.8542 163.523H45.4798C46.1652 163.523 46.7188 164.077 46.7188 164.762C46.7188 165.448 46.1652 166.001 45.4798 166.001Z" fill="#9ABCED"/>
</g>
<g style="mix-blend-mode:multiply">
<path d="M69.3011 166.001H52.6755C51.9901 166.001 51.4365 165.448 51.4365 164.762C51.4365 164.077 51.9901 163.523 52.6755 163.523H69.3011C69.9865 163.523 70.5401 164.077 70.5401 164.762C70.5401 165.448 69.9865 166.001 69.3011 166.001Z" fill="#9ABCED"/>
</g>
</g>
</g>
<defs>
<linearGradient id="paint0_linear_13540_368985" x1="295.52" y1="255.72" x2="265.801" y2="208.549" gradientUnits="userSpaceOnUse">
<stop stop-color="#3855E1"/>
<stop offset="1" stop-color="#5C7EF7"/>
</linearGradient>
<linearGradient id="paint1_linear_13540_368985" x1="273.174" y1="140.351" x2="272.225" y2="103.313" gradientUnits="userSpaceOnUse">
<stop stop-color="#3F2323"/>
<stop offset="1" stop-color="#5E3434"/>
</linearGradient>
<linearGradient id="paint2_linear_13540_368985" x1="391.365" y1="251.906" x2="409.757" y2="251.906" gradientUnits="userSpaceOnUse">
<stop stop-color="#1F3A65"/>
<stop offset="1" stop-color="#294A7A"/>
</linearGradient>
<linearGradient id="paint3_linear_13540_368985" x1="417.631" y1="188.725" x2="394.283" y2="235.061" gradientUnits="userSpaceOnUse">
<stop stop-color="#E2E8F7"/>
<stop offset="1" stop-color="white"/>
</linearGradient>
<clipPath id="clip0_13540_368985">
<rect width="561.626" height="271.827" fill="white" transform="translate(0.6875 0.586609)"/>
</clipPath>
</defs>
</svg>
