<svg width="496" height="423" viewBox="0 0 496 423" fill="none" xmlns="http://www.w3.org/2000/svg">
<g clip-path="url(#clip0_13495_368245)">
<path d="M482.54 151.467L475.973 150.04L474.486 143.494C474.432 143.26 474.227 143.097 473.989 143.097C473.751 143.097 473.546 143.26 473.492 143.494L471.996 150.069L465.429 151.626C465.2 151.68 465.037 151.889 465.037 152.126C465.037 152.364 465.204 152.569 465.438 152.619L472.005 154.046L473.492 160.592C473.546 160.826 473.751 160.989 473.989 160.989C474.227 160.989 474.432 160.826 474.486 160.592L475.982 154.017L482.549 152.46C482.779 152.406 482.941 152.197 482.941 151.96C482.941 151.722 482.774 151.517 482.54 151.467Z" fill="#00B4D8"/>
<path d="M68.16 201.428L61.593 200.001L60.1058 193.454C60.0515 193.221 59.8468 193.058 59.6087 193.058C59.3705 193.058 59.1658 193.221 59.1115 193.454L57.616 200.03L51.0489 201.586C50.8192 201.641 50.6562 201.849 50.6562 202.087C50.6562 202.325 50.8234 202.529 51.0573 202.579L57.6243 204.006L59.1115 210.553C59.1658 210.787 59.3705 210.949 59.6087 210.949C59.8468 210.949 60.0515 210.787 60.1058 210.553L61.6013 203.977L68.1684 202.421C68.3981 202.367 68.5611 202.158 68.5611 201.92C68.5611 201.682 68.394 201.478 68.16 201.428Z" fill="#00B4D8"/>
<path d="M449.387 125.223L445.991 124.484L445.222 121.1C445.193 120.979 445.088 120.896 444.963 120.896C444.838 120.896 444.733 120.979 444.704 121.1L443.931 124.501L440.535 125.306C440.414 125.335 440.33 125.444 440.33 125.565C440.33 125.686 440.418 125.794 440.539 125.819L443.935 126.558L444.704 129.942C444.733 130.063 444.838 130.146 444.963 130.146C445.088 130.146 445.193 130.063 445.222 129.942L445.995 126.541L449.391 125.736C449.512 125.707 449.596 125.598 449.596 125.477C449.596 125.356 449.508 125.248 449.387 125.223Z" fill="#00B4D8"/>
<path d="M0 423.683H85.6891C86.7711 412.343 77.8521 408.429 77.8521 408.429C80.016 404.853 79.0009 402.558 79.0009 402.558C77.6474 400.668 76.2312 402.558 76.2312 402.558C76.298 397.969 74.0004 397.159 74.0004 397.159C72.3795 396.754 71.8365 399.926 71.8365 399.926C66.9697 394.864 62.2407 397.631 62.2407 397.631C62.9175 395.469 62.5791 394.122 62.5791 394.122C61.7018 392.974 60.7535 394.46 60.7535 394.46C61.0251 388.318 58.7943 388.047 58.7943 388.047C56.5635 387.98 56.9687 392.703 56.9687 392.703C53.727 388.247 50.009 388.047 50.009 388.047C44.1981 387.98 41.2905 394.055 41.2905 394.055C41.6957 386.832 39.0597 386.832 39.0597 386.832C36.0853 387.442 37.9777 395.269 37.9777 395.269C33.7877 391.96 30.1407 392.77 30.1407 392.77C23.1142 393.984 21.1549 403.839 21.1549 403.839C19.1957 401.073 17.8421 401.749 17.8421 401.749C15.9497 402.763 16.898 405.663 16.898 405.663C10.6819 407.215 15.5445 408.429 15.5445 408.429C14.3289 409.443 13.5184 411.262 13.5184 411.262C2.16395 411.128 0.00417751 423.683 0.00417751 423.683H0Z" fill="#00B4D8"/>
<path d="M374.309 423.683H495.87C497.404 407.599 484.75 402.045 484.75 402.045C487.816 396.972 486.379 393.713 486.379 393.713C484.462 391.03 482.448 393.713 482.448 393.713C482.544 387.2 479.286 386.052 479.286 386.052C476.984 385.477 476.219 389.979 476.219 389.979C469.318 382.798 462.605 386.724 462.605 386.724C463.562 383.662 463.085 381.746 463.085 381.746C461.84 380.119 460.495 382.226 460.495 382.226C460.88 373.514 457.713 373.13 457.713 373.13C454.551 373.034 455.123 379.735 455.123 379.735C450.519 373.414 445.247 373.13 445.247 373.13C437.001 373.034 432.882 381.65 432.882 381.65C433.458 371.403 429.72 371.403 429.72 371.403C425.5 372.267 428.186 383.374 428.186 383.374C422.242 378.68 417.066 379.831 417.066 379.831C407.094 381.554 404.316 395.536 404.316 395.536C401.534 391.61 399.616 392.57 399.616 392.57C396.93 394.005 398.275 398.123 398.275 398.123C389.457 400.326 396.358 402.049 396.358 402.049C394.633 403.485 393.484 406.072 393.484 406.072C377.38 405.88 374.309 423.692 374.309 423.692V423.683Z" fill="#00B4D8"/>
<path d="M204.824 421.147H21.6023C19.2922 396.902 38.3625 388.532 38.3625 388.532C33.738 380.884 35.9061 375.977 35.9061 375.977C38.797 371.938 41.8298 375.977 41.8298 375.977C41.6836 366.163 46.5964 364.432 46.5964 364.432C50.0637 363.564 51.2209 370.348 51.2209 370.348C61.6229 359.525 71.7408 365.441 71.7408 365.441C70.2954 360.823 71.0181 357.935 71.0181 357.935C72.898 355.482 74.9199 358.657 74.9199 358.657C74.3434 345.522 79.1099 344.947 79.1099 344.947C83.8765 344.801 83.0117 354.906 83.0117 354.906C89.9464 345.38 97.8962 344.947 97.8962 344.947C110.324 344.801 116.536 357.789 116.536 357.789C115.667 342.347 121.303 342.347 121.303 342.347C127.661 343.645 123.613 360.389 123.613 360.389C132.574 353.316 140.373 355.048 140.373 355.048C155.4 357.647 159.59 378.718 159.59 378.718C163.78 372.802 166.671 374.245 166.671 374.245C170.714 376.411 168.692 382.615 168.692 382.615C181.985 385.936 171.583 388.532 171.583 388.532C174.186 390.697 175.92 394.594 175.92 394.594C200.195 394.306 204.82 421.147 204.82 421.147H204.824Z" fill="#F5F8FF"/>
<path d="M207.021 422.996H19.9187L19.7599 421.323C17.7798 400.573 30.939 390.718 35.835 387.797C32.0335 380.358 34.1139 375.447 34.2141 375.23L34.2893 375.055L34.3979 374.9C35.9018 372.798 37.552 372.343 38.6757 372.33C39.2021 372.309 39.6908 372.409 40.142 372.556C41.0945 364.507 45.7566 362.763 45.9822 362.688L46.1493 362.638C47.3148 362.346 48.4636 362.538 49.4704 363.197C50.7612 364.04 51.6176 365.537 52.1732 366.931C58.8823 361.328 65.3575 361.607 69.1757 362.55C68.7412 359.579 69.1548 357.748 69.2217 357.489L69.3136 357.118L69.5475 356.813C70.642 355.382 71.8786 355.115 72.7224 355.161C72.831 355.165 72.9355 355.173 73.0399 355.19C73.3866 344.371 77.9067 343.232 78.8884 343.115L79.0555 343.102C80.4341 343.069 81.6623 343.57 82.6106 344.571C83.8805 345.91 84.4737 348.03 84.7369 350.02C91.1703 343.545 97.4825 343.119 97.7916 343.102H97.871C97.9462 343.102 98.0256 343.098 98.1049 343.098C105.967 343.098 111.46 347.755 114.694 351.677C115.016 347.287 116.077 344.12 117.86 342.235C119.423 340.586 120.998 340.503 121.298 340.503H121.486L121.67 340.541C123.112 340.837 124.315 341.688 125.159 343.011C127.235 346.273 126.863 352.219 126.257 356.367C133.864 352.011 140.03 353.095 140.724 353.237C153.01 355.382 158.495 368.404 160.479 374.821C164.289 371.179 167.134 372.409 167.502 372.593C170.99 374.458 171.378 378.364 170.911 381.297C175.431 382.607 177.315 384.034 177.315 386.062C177.315 387.56 176.149 388.598 174.846 389.291C175.84 390.56 176.605 391.865 177.077 392.754C201.619 393.309 206.603 420.559 206.649 420.839L207.021 423.004V422.996ZM23.3192 419.295H202.501C200.876 413.182 194.739 396.438 176.308 396.438C176.187 396.438 176.066 396.438 175.945 396.438L174.725 396.451L174.228 395.337C174.211 395.304 172.628 391.799 170.401 389.946L167.598 387.614L171.136 386.729C171.792 386.562 172.523 386.291 173.049 386.032C172.343 385.657 170.948 385.081 168.245 384.405L166.32 383.925L166.934 382.039C166.946 381.998 168.375 377.421 165.918 375.939C165.346 375.843 163.533 376.352 161.106 379.782L158.616 383.3L157.777 379.077C157.739 378.881 153.641 359.22 140.06 356.871L139.972 356.855C139.696 356.796 132.845 355.457 124.762 361.841L120.559 365.158L121.812 359.955C122.848 355.661 123.822 347.801 122.034 344.993C121.758 344.559 121.478 344.354 121.227 344.25C120.087 344.709 117.827 347.73 118.383 357.685L118.909 367.048L114.861 358.586C114.807 358.469 109.017 346.682 97.9671 346.795C97.4115 346.841 90.6439 347.567 84.5113 355.991L80.6012 361.365L81.1693 354.748C81.374 352.336 81.1192 348.368 79.9202 347.108C79.7448 346.924 79.5777 346.833 79.3605 346.803C78.4164 347.254 76.3986 350.041 76.7704 358.574L77.0754 365.483L73.3574 359.646C73.1986 359.408 72.9396 359.133 72.7349 358.974C72.6472 359.942 72.618 362.037 73.5078 364.887L74.9365 369.451L70.8049 367.035C70.4498 366.831 61.7648 362.049 52.5576 371.625L50.0135 374.275L49.3952 370.657C49.1529 369.251 48.3592 366.889 47.4443 366.289C47.3357 366.218 47.2563 366.188 47.1519 366.205C46.6547 366.46 43.5717 368.337 43.6845 375.948L43.7681 381.639L40.3509 377.087C40.1002 376.761 39.3316 376.031 38.73 376.031H38.7175C38.2914 376.039 37.8444 376.503 37.552 376.874C37.2929 377.675 36.3363 381.597 39.954 387.576L41.0443 389.379L39.1143 390.226C38.4083 390.539 22.1495 398.024 23.3234 419.299L23.3192 419.295ZM165.822 375.881C165.822 375.881 165.847 375.893 165.86 375.902C165.847 375.893 165.835 375.889 165.822 375.881Z" fill="#03060B"/>
<path d="M479.729 421.147H296.508C294.197 396.902 313.268 388.532 313.268 388.532C308.643 380.884 310.811 375.977 310.811 375.977C313.702 371.938 316.735 375.977 316.735 375.977C316.589 366.163 321.502 364.432 321.502 364.432C324.969 363.564 326.126 370.348 326.126 370.348C336.528 359.525 346.646 365.441 346.646 365.441C345.201 360.823 345.923 357.935 345.923 357.935C347.803 355.482 349.825 358.657 349.825 358.657C349.249 345.522 354.015 344.947 354.015 344.947C358.782 344.801 357.917 354.906 357.917 354.906C364.852 345.38 372.801 344.947 372.801 344.947C385.23 344.801 391.442 357.789 391.442 357.789C390.573 342.347 396.208 342.347 396.208 342.347C402.566 343.645 398.518 360.389 398.518 360.389C407.479 353.316 415.278 355.048 415.278 355.048C430.305 357.647 434.495 378.718 434.495 378.718C438.685 372.802 441.576 374.245 441.576 374.245C445.62 376.411 443.598 382.615 443.598 382.615C456.891 385.936 446.489 388.532 446.489 388.532C449.091 390.697 450.825 394.594 450.825 394.594C475.1 394.306 479.725 421.147 479.725 421.147H479.729Z" fill="#F5F8FF"/>
<path d="M481.926 422.996H294.82L294.661 421.323C292.681 400.573 305.84 390.718 310.736 387.797C306.934 380.358 309.015 375.447 309.115 375.23L309.19 375.055L309.299 374.9C310.803 372.798 312.453 372.343 313.577 372.33C314.095 372.305 314.592 372.409 315.043 372.556C315.995 364.507 320.657 362.763 320.883 362.688L321.05 362.638C322.216 362.346 323.364 362.538 324.371 363.197C325.662 364.04 326.519 365.537 327.074 366.931C333.783 361.328 340.258 361.607 344.077 362.55C343.642 359.579 344.056 357.748 344.123 357.489L344.214 357.118L344.448 356.813C345.543 355.382 346.788 355.115 347.623 355.161C347.732 355.165 347.841 355.173 347.945 355.19C348.292 344.371 352.812 343.232 353.793 343.115L353.961 343.102C355.331 343.069 356.567 343.57 357.516 344.571C358.786 345.91 359.379 348.03 359.642 350.02C366.075 343.545 372.388 343.119 372.697 343.102H372.776C372.851 343.102 372.931 343.098 373.01 343.098C380.872 343.098 386.366 347.755 389.603 351.677C389.925 347.287 390.986 344.12 392.77 342.235C394.332 340.586 395.907 340.503 396.208 340.503H396.396L396.58 340.541C398.021 340.837 399.224 341.688 400.068 343.011C402.144 346.273 401.772 352.219 401.166 356.367C408.774 352.011 414.94 353.095 415.633 353.237C427.919 355.382 433.404 368.404 435.389 374.821C439.198 371.179 442.043 372.409 442.411 372.593C445.899 374.458 446.288 378.364 445.82 381.297C450.34 382.607 452.224 384.034 452.224 386.062C452.224 387.56 451.058 388.598 449.755 389.291C450.749 390.56 451.514 391.865 451.986 392.754C476.529 393.309 481.512 420.559 481.558 420.839L481.93 423.004L481.926 422.996ZM298.224 419.295H477.406C475.781 413.182 469.644 396.438 451.213 396.438C451.092 396.438 450.971 396.438 450.85 396.438L449.63 396.451L449.133 395.337C449.116 395.304 447.533 391.799 445.306 389.946L442.503 387.614L446.041 386.729C446.697 386.562 447.428 386.291 447.955 386.032C447.249 385.657 445.853 385.081 443.15 384.405L441.225 383.925L441.839 382.039C441.851 381.998 443.28 377.421 440.824 375.939C440.243 375.843 438.438 376.352 436.011 379.782L433.521 383.3L432.682 379.077C432.64 378.881 428.55 359.22 414.965 356.871L414.881 356.855C414.601 356.796 407.754 355.461 399.671 361.841L395.468 365.158L396.722 359.955C397.758 355.661 398.731 347.801 396.943 344.993C396.667 344.559 396.387 344.354 396.137 344.25C394.996 344.709 392.736 347.73 393.292 357.685L393.818 367.048L389.77 358.586C389.716 358.469 383.951 346.795 373.002 346.795C372.96 346.795 372.918 346.795 372.872 346.795C372.317 346.841 365.549 347.567 359.412 355.991L355.502 361.365L356.07 354.748C356.275 352.336 356.02 348.368 354.821 347.108C354.646 346.924 354.479 346.833 354.261 346.803C353.317 347.254 351.3 350.041 351.675 358.574L351.98 365.483L348.262 359.65C348.104 359.412 347.845 359.137 347.64 358.974C347.552 359.942 347.523 362.037 348.413 364.887L349.842 369.451L345.71 367.035C345.355 366.831 336.67 362.049 327.463 371.625L324.919 374.275L324.3 370.657C324.058 369.251 323.264 366.889 322.345 366.289C322.237 366.218 322.157 366.193 322.053 366.205C321.551 366.46 318.473 368.337 318.585 375.948L318.669 381.639L315.252 377.087C315.001 376.761 314.232 376.031 313.631 376.031H313.618C313.192 376.039 312.745 376.503 312.453 376.874C312.194 377.675 311.237 381.597 314.851 387.576L315.941 389.379L314.011 390.226C313.305 390.539 297.046 398.024 298.224 419.299V419.295ZM440.727 375.881C440.727 375.881 440.753 375.893 440.765 375.902C440.753 375.893 440.74 375.889 440.727 375.881Z" fill="#03060B"/>
<path d="M116.724 413.423C112.605 416.114 110.666 420.411 109.826 422.994H80.3082C77.9646 415.659 78.75 411.758 78.75 411.758C80.7468 415.192 82.9568 416.13 82.9568 416.13C85.3755 411.758 84.4314 400.001 84.4314 400.001C88.8512 404.059 88.4293 413.113 88.4293 413.113C91.5624 402.067 98.731 398.704 98.8396 398.65C94.211 406.142 94.0021 417.171 94.0021 417.171C99.6835 408.225 110.516 409.262 110.516 409.262C102.629 411.861 102.311 419.771 102.311 419.771C107.675 413.841 116.724 413.423 116.724 413.423Z" fill="#00B4D8"/>
<path d="M179.445 189.278L196.498 183.057L198.186 134.619C177.336 118.81 189.012 107.486 189.012 107.486L189.902 85.3218H273.126C288.616 175.642 249.201 167.005 249.201 167.005L250.2 185.823L270.431 193.054L270.306 231.461H176.559L179.449 189.278H179.445Z" fill="white"/>
<path d="M272.144 233.309H174.566L177.678 187.951L194.689 181.746L196.297 135.504C188.465 129.378 184.304 123.111 183.924 116.87C183.606 111.671 186.058 108.095 187.182 106.747L188.114 83.4693H274.68L274.943 85.0089C281.803 124.997 279.029 151.234 266.701 162.987C260.877 168.541 254.511 169.192 251.156 169.066L251.975 184.492L272.278 191.752L272.14 233.309H272.144ZM178.535 229.608H268.451L268.568 194.351L248.412 187.146L247.221 164.673L249.598 165.194C249.907 165.261 257.456 166.751 264.219 160.246C271.919 152.836 279.388 134.139 271.559 87.1702H191.681L190.833 108.295L190.303 108.808C190.19 108.921 187.303 111.854 187.633 116.715C187.984 121.935 192.024 127.618 199.309 133.142L200.074 133.722L198.311 184.367L181.217 190.605L178.543 229.613L178.535 229.608Z" fill="#03060B"/>
<path d="M225.745 90.1786C225.745 90.1786 243.554 101.694 273.92 90.1786L275.395 100.781C275.395 100.781 288.792 91.2592 285.191 73.6266C285.191 73.6266 283.39 62.4737 264.654 60.3124C264.654 60.3124 256.729 44.1192 239.435 50.9578C239.435 50.9578 226.463 43.0427 213.856 54.9174C213.856 54.9174 202.689 54.5586 200.884 63.5543C200.884 63.5543 189.02 62.1608 181.743 70.3888C178.752 73.7684 177.24 78.1954 177.256 82.7099C177.282 89.6946 177.908 101.753 189.1 108.512C189.1 108.512 202.213 99.6458 206.29 117.174L212.774 118.972L214.215 108.896C214.215 108.896 223.944 106.017 225.745 90.1827V90.1786Z" fill="#03060B"/>
<path d="M268.798 128.114C261.659 128.114 255.852 122.315 255.852 115.184C255.852 108.053 261.659 102.254 268.798 102.254C275.938 102.254 281.744 108.053 281.744 115.184C281.744 122.315 275.938 128.114 268.798 128.114ZM268.798 104.724C263.025 104.724 258.325 109.418 258.325 115.184C258.325 120.95 263.025 125.644 268.798 125.644C274.571 125.644 279.271 120.95 279.271 115.184C279.271 109.418 274.571 104.724 268.798 104.724Z" fill="#4F3CC9"/>
<path d="M240.696 128.114C233.561 128.114 227.75 122.315 227.75 115.184C227.75 108.053 233.557 102.254 240.696 102.254C247.835 102.254 253.638 108.053 253.638 115.184C253.638 122.315 247.831 128.114 240.696 128.114ZM240.696 104.724C234.923 104.724 230.223 109.418 230.223 115.184C230.223 120.95 234.923 125.644 240.696 125.644C246.469 125.644 251.169 120.95 251.169 115.184C251.169 109.418 246.469 104.724 240.696 104.724Z" fill="#4F3CC9"/>
<path d="M268.618 120.041C270.409 120.041 271.86 118.591 271.86 116.803C271.86 115.015 270.409 113.565 268.618 113.565C266.828 113.565 265.376 115.015 265.376 116.803C265.376 118.591 266.828 120.041 268.618 120.041Z" fill="#4F3CC9"/>
<path d="M240.696 120.224C242.486 120.224 243.938 118.774 243.938 116.986C243.938 115.198 242.486 113.749 240.696 113.749C238.905 113.749 237.454 115.198 237.454 116.986C237.454 118.774 238.905 120.224 240.696 120.224Z" fill="#4F3CC9"/>
<path d="M212.395 110.879L212.154 113.334L228.851 114.966L229.092 112.512L212.395 110.879Z" fill="#03060B"/>
<path d="M262.816 135.812L255.518 135.245L255.71 132.783L259.29 133.063L252.865 113.882L255.209 113.098L262.816 135.812Z" fill="#4F3CC9"/>
<path d="M258.049 103.376L256.486 101.465C256.745 101.252 262.982 96.2912 275.281 97.8308L274.972 100.28C263.713 98.8739 258.103 103.33 258.049 103.376Z" fill="#4F3CC9"/>
<path d="M249.707 103.092C249.351 102.721 240.892 94.0714 229.32 101.336L228.004 99.2452C241.318 90.8879 251.398 101.29 251.499 101.394L249.707 103.088V103.092Z" fill="#03060B"/>
<path d="M260.067 149.097C261.307 147.808 261.145 145.751 259.657 144.75C258.743 144.132 257.544 143.619 256.061 143.577C252.706 143.481 248.265 145.634 246.202 146.752C245.613 147.074 245.512 147.879 246.018 148.321C248.328 150.357 255.409 153.937 260.067 149.101V149.097Z" fill="#03060B"/>
<path d="M313.025 150.533L322.262 167.226L335.897 235.32L301.587 214.671V287.597L394.834 304.29L345.13 153.17L323.695 92.1813C322.508 88.81 319.83 86.173 316.434 85.0423L314.32 84.3371C309.855 82.8518 304.967 83.3483 300.898 85.7015L282.233 96.4956V129.883C282.233 129.883 291.469 136.472 295.868 142.622C295.868 142.622 303.346 150.967 313.021 150.528L313.025 150.533Z" fill="white"/>
<path d="M397.566 306.656L299.737 289.14V211.392L333.257 231.565L320.503 167.865L311.939 152.389C302.093 152.21 294.807 144.203 294.49 143.853L294.364 143.694C290.195 137.861 281.251 131.448 281.159 131.385L280.382 130.83V95.4233L299.975 84.0952C304.503 81.4749 309.947 80.9241 314.914 82.5764L317.027 83.2815C320.938 84.5833 324.087 87.6793 325.449 91.5596L346.884 152.548L397.566 306.652V306.656ZM303.442 286.045L392.11 301.916L343.375 153.741L321.953 92.7863C320.967 89.9741 318.686 87.7335 315.854 86.7905L313.74 86.0854C309.779 84.7669 305.439 85.2092 301.83 87.2954L284.088 97.5554V128.936C286.44 130.684 293.475 136.134 297.31 141.441C297.999 142.171 304.721 149.047 312.942 148.672L314.091 148.622L324.025 166.571L324.079 166.851L338.537 239.055L303.442 217.934V286.036V286.045Z" fill="#03060B"/>
<path d="M257.369 191.844C253.404 202.629 237.442 230.806 187.044 187.947C185.795 186.883 184.062 186.578 182.524 187.162L126.078 208.554C118.295 211.504 111.87 217.212 108.027 224.589L74.4062 289.136L129.608 302.534L128.288 420.709L338.095 421.148L318.523 259.7V209.472L262.319 189.528C260.31 188.815 258.1 189.845 257.365 191.844H257.369Z" fill="url(#paint0_linear_13495_368245)"/>
<path d="M340.188 423L126.416 422.554L127.741 303.982L71.6743 290.371L106.385 223.729C110.442 215.939 117.205 209.935 125.422 206.819L181.865 185.427C184.033 184.605 186.472 185.03 188.239 186.532C209.135 204.303 226.125 211.634 238.737 208.325C248.934 205.65 253.693 196.446 255.623 191.197C256.7 188.264 259.98 186.728 262.937 187.776L320.374 208.158V259.583L340.184 422.996L340.188 423ZM130.164 418.861L336.006 419.291L316.673 259.812V210.778L261.701 191.272C260.652 190.901 259.487 191.443 259.107 192.482C256.93 198.407 251.508 208.813 239.681 211.913C225.829 215.547 207.715 207.958 185.841 189.357C185.102 188.727 184.083 188.552 183.18 188.894L126.738 210.286C119.369 213.077 113.307 218.46 109.673 225.444L77.1427 287.897L131.48 301.086L130.164 418.865V418.861Z" fill="#03060B"/>
<path d="M320.573 195.315L263.542 228.507L265.008 395.253L322.04 363.818L320.573 195.315Z" fill="#00B4D8"/>
<path d="M380.103 229.825L322.04 197.756V363.818L380.103 392.813V229.825Z" fill="white"/>
<path d="M381.954 395.804L320.19 364.962V194.618L381.954 228.736V395.804ZM323.895 362.671L378.249 389.817V230.919L323.895 200.894V362.671Z" fill="#00B4D8"/>
<path d="M440.36 197.756L380.104 229.825L381.57 395.253L440.36 350.2V197.756Z" fill="#00B4D8"/>
<path d="M263.543 228.507V392.813L205.045 361.62V197.756L263.543 228.507Z" fill="white"/>
<path d="M265.397 395.896L203.194 362.729V194.693L265.397 227.393V395.896ZM206.899 360.51L261.692 389.725V229.625L206.899 200.823V360.51Z" fill="#00B4D8"/>
<path d="M293.454 100.668L278.975 103.726C274.083 104.761 270.582 109.071 270.582 114.066C270.582 119.06 274.083 123.37 278.975 124.405L293.454 127.463V100.664V100.668Z" fill="#4F3CC9"/>
<path d="M317.862 134.54H309.177C296.971 134.54 287.074 125.273 287.074 113.081C287.074 100.889 296.971 91.6222 309.177 91.6222H317.862V134.54Z" fill="#00B4D8"/>
<path d="M319.717 136.388H309.177C295.746 136.388 285.223 126.149 285.223 113.081C285.223 100.013 295.746 89.7738 309.177 89.7738H319.717V136.392V136.388ZM309.177 93.4706C297.823 93.4706 288.929 102.082 288.929 113.077C288.929 124.071 297.823 132.683 309.177 132.683H316.011V93.4664H309.177V93.4706Z" fill="#03060B"/>
<path d="M318.084 135.153C330.352 135.153 340.296 125.221 340.296 112.968C340.296 100.716 330.352 90.7836 318.084 90.7836C305.817 90.7836 295.873 100.716 295.873 112.968C295.873 125.221 305.817 135.153 318.084 135.153Z" fill="white"/>
<path d="M318.085 136.388C305.155 136.388 294.636 125.882 294.636 112.968C294.636 100.055 305.155 89.5485 318.085 89.5485C331.014 89.5485 341.533 100.055 341.533 112.968C341.533 125.882 331.014 136.388 318.085 136.388ZM318.085 92.0186C306.517 92.0186 297.109 101.419 297.109 112.968C297.109 124.518 306.521 133.918 318.085 133.918C329.648 133.918 339.06 124.518 339.06 112.968C339.06 101.419 329.648 92.0186 318.085 92.0186Z" fill="#03060B"/>
<path d="M318.085 131.556C307.825 131.556 299.474 123.22 299.474 112.968C299.474 102.717 307.821 94.3802 318.085 94.3802C328.349 94.3802 336.696 102.717 336.696 112.968C336.696 123.22 328.349 131.556 318.085 131.556ZM318.085 96.8502C309.187 96.8502 301.947 104.081 301.947 112.968C301.947 121.856 309.187 129.086 318.085 129.086C326.983 129.086 334.223 121.856 334.223 112.968C334.223 104.081 326.983 96.8502 318.085 96.8502Z" fill="#03060B"/>
<path d="M245.948 100.668L231.468 103.726C226.576 104.761 223.076 109.071 223.076 114.066C223.076 119.06 226.576 123.37 231.468 124.405L245.948 127.463V100.664V100.668Z" fill="#00B4D8"/>
<path d="M247.802 129.75L231.084 126.216C225.369 125.01 221.225 119.899 221.225 114.066C221.225 108.233 225.373 103.121 231.084 101.916L247.802 98.3815V129.746V129.75ZM244.096 102.95L231.852 105.537C227.842 106.384 224.93 109.972 224.93 114.066C224.93 118.159 227.842 121.747 231.852 122.594L244.096 125.181V102.95Z" fill="#03060B"/>
<path d="M270.361 134.54H261.675C249.469 134.54 239.572 125.273 239.572 113.081C239.572 100.889 249.469 91.6222 261.675 91.6222H270.361V134.54Z" fill="#00B4D8"/>
<path d="M272.216 136.388H261.676C248.245 136.388 237.722 126.149 237.722 113.081C237.722 100.013 248.245 89.7738 261.676 89.7738H272.216V136.392V136.388ZM261.676 93.4706C250.322 93.4706 241.428 102.082 241.428 113.077C241.428 124.071 250.322 132.683 261.676 132.683H268.51V93.4664H261.676V93.4706Z" fill="#03060B"/>
<path d="M270.581 135.153C282.849 135.153 292.793 125.221 292.793 112.968C292.793 100.716 282.849 90.7836 270.581 90.7836C258.314 90.7836 248.37 100.716 248.37 112.968C248.37 125.221 258.314 135.153 270.581 135.153Z" fill="white"/>
<path d="M270.583 136.388C257.653 136.388 247.134 125.882 247.134 112.968C247.134 100.055 257.653 89.5485 270.583 89.5485C283.512 89.5485 294.031 100.055 294.031 112.968C294.031 125.882 283.512 136.388 270.583 136.388ZM270.583 92.0186C259.015 92.0186 249.607 101.419 249.607 112.968C249.607 124.518 259.019 133.918 270.583 133.918C282.146 133.918 291.558 124.518 291.558 112.968C291.558 101.419 282.146 92.0186 270.583 92.0186Z" fill="#03060B"/>
<path d="M270.582 131.556C260.322 131.556 251.971 123.22 251.971 112.968C251.971 102.717 260.317 94.3802 270.582 94.3802C280.846 94.3802 289.192 102.717 289.192 112.968C289.192 123.22 280.846 131.556 270.582 131.556ZM270.582 96.8502C261.683 96.8502 254.444 104.081 254.444 112.968C254.444 121.856 261.683 129.086 270.582 129.086C279.48 129.086 286.719 121.856 286.719 112.968C286.719 104.081 279.48 96.8502 270.582 96.8502Z" fill="#03060B"/>
<path d="M79.2476 290.012L129.39 302.313L116.194 322.52L171.174 315.489L186.179 291.281C187.642 288.923 189.822 287.096 192.408 286.082C201.473 282.51 223.865 279.961 241.243 287.367C242.872 288.06 244.669 293.146 240.232 295.483C240.232 295.483 250.609 299.325 240.671 305.83C240.671 305.83 245.947 312.418 238.473 315.493C238.473 315.493 240.232 320.763 227.917 322.524L206.365 325.599C206.365 325.599 194.488 346.248 162.38 353.275L72.7641 370.035C58.2724 372.747 46.826 357.877 53.1758 344.584L79.2476 290.008V290.012Z" fill="white"/>
<path d="M69.4012 372.201C63.2979 372.201 57.4995 369.401 53.6854 364.44C49.1027 358.482 48.2672 350.571 51.5048 343.791L78.2283 287.86L132.373 301.14L119.941 320.179L170.067 313.77L184.609 290.309C186.271 287.626 188.799 285.515 191.731 284.359C201.619 280.466 224.429 278.188 241.974 285.661C243.557 286.337 244.777 288.51 244.873 290.83C244.94 292.445 244.464 293.922 243.524 295.128C244.99 296.129 246.561 297.677 246.803 299.826C247.054 302.042 245.834 304.22 243.177 306.31C243.938 307.745 244.723 309.932 244.134 312.206C243.658 314.054 242.4 315.539 240.395 316.628C240.332 317.325 240.119 318.172 239.564 319.065C237.914 321.731 234.083 323.509 228.184 324.352L207.489 327.306C204.907 331.278 192.141 348.652 162.781 355.081L73.1108 371.855C71.8743 372.084 70.6336 372.197 69.4096 372.201H69.4012ZM80.2711 292.17L54.8468 345.385C52.1732 350.984 52.8332 357.264 56.6222 362.187C60.407 367.106 66.3182 369.364 72.4216 368.22L162.038 351.456C192.83 344.713 204.644 324.873 204.757 324.673L205.208 323.897L206.102 323.767L227.654 320.692C233.728 319.824 235.7 318.156 236.33 317.238C236.74 316.645 236.719 316.19 236.698 316.048L235.946 314.35L237.763 313.787C239.342 313.136 240.278 312.297 240.537 311.288C240.959 309.648 239.697 307.583 239.221 306.99L237.947 305.4L239.651 304.286C241.97 302.768 243.232 301.299 243.11 300.252C242.96 298.908 240.625 297.61 239.58 297.222L235.687 295.783L239.359 293.851C240.466 293.267 241.068 292.437 241.151 291.377C241.239 290.225 240.696 289.266 240.449 289.049C223.271 281.755 201.126 284.638 193.076 287.809C190.85 288.686 189.008 290.225 187.746 292.261L172.277 317.221L112.442 324.869L126.399 303.489L80.2586 292.17H80.2711Z" fill="#03060B"/>
<path d="M223.246 293.893C223.246 293.893 233.498 293.951 240.938 295.699L223.246 293.893Z" fill="white"/>
<path d="M240.516 297.502C233.365 295.825 223.339 295.745 223.238 295.745L223.259 292.044C223.685 292.044 233.807 292.124 241.365 293.901L240.516 297.502Z" fill="#03060B"/>
<path d="M223.735 303.46C223.735 303.46 232.031 303.231 240.449 306.047L223.735 303.46Z" fill="white"/>
<path d="M239.86 307.8C231.848 305.117 223.864 305.304 223.785 305.309L223.681 301.608C224.032 301.599 232.403 301.399 241.034 304.291L239.856 307.8H239.86Z" fill="#03060B"/>
<path d="M223.1 313.078C223.1 313.078 232.533 312.197 238.691 315.715L223.1 313.078Z" fill="white"/>
<path d="M237.772 317.317C232.207 314.142 223.359 314.909 223.272 314.918L222.929 311.233C223.339 311.196 233.018 310.345 239.61 314.104L237.772 317.317Z" fill="#03060B"/>
<path d="M148.523 272.659L129.612 302.972L148.523 272.659Z" fill="white"/>
<path d="M146.952 271.704L128.034 302.013L131.179 303.971L150.097 273.662L146.952 271.704Z" fill="#03060B"/>
<path d="M332.483 38.0733C334.008 35.8661 336.23 33.4586 339.159 30.8467C341.398 28.8564 343.065 27.1332 344.155 25.6729C345.241 24.2125 345.789 22.5477 345.789 20.6827C345.789 18.0707 344.727 15.9595 342.614 14.3448C340.496 12.73 337.667 11.9206 334.121 11.9206C328.945 11.9206 324.746 13.3392 321.53 16.1765C319.75 17.7453 317.148 17.9581 315.155 16.6646C312.118 14.6952 311.938 10.3351 314.779 8.09864C316.421 6.80937 318.23 5.70368 320.21 4.78574C324.441 2.82888 329.421 1.84836 335.144 1.84836C342.112 1.84836 347.668 3.3546 351.808 6.37126C355.948 9.38792 358.016 13.5353 358.016 18.8176C358.016 21.3669 357.594 23.6034 356.755 25.531C355.915 27.4587 354.904 29.0901 353.722 30.4253C352.539 31.7604 350.981 33.3001 349.055 35.04C346.691 37.1554 344.932 39.0205 343.783 40.6352C342.63 42.2541 342.058 44.1776 342.058 46.414H330.202C330.202 43.0594 330.963 40.2764 332.492 38.0691L332.483 38.0733ZM330.804 66.6043C329.404 65.2066 328.703 63.4792 328.703 61.4305C328.703 59.3819 329.404 57.6712 330.804 56.3026C332.203 54.9382 333.991 54.254 336.172 54.254C338.353 54.254 340.044 54.9382 341.448 56.3026C342.848 57.6712 343.549 59.3777 343.549 61.4305C343.549 63.4834 342.848 65.2066 341.448 66.6043C340.049 68.0021 338.29 68.7031 336.172 68.7031C334.054 68.7031 332.203 68.0021 330.804 66.6043Z" fill="#F582AE"/>
<path d="M336.172 70.5515C333.494 70.5515 331.247 69.6627 329.496 67.9103C327.742 66.1579 326.852 63.9757 326.852 61.4264C326.852 58.877 327.746 56.699 329.509 54.9758C331.263 53.2651 333.502 52.3973 336.172 52.3973C338.841 52.3973 340.988 53.2651 342.743 54.9758C344.506 56.699 345.4 58.8729 345.4 61.4264C345.4 63.9799 344.51 66.1579 342.756 67.9103C341.001 69.6627 338.787 70.5515 336.172 70.5515ZM336.172 56.0982C334.484 56.0982 333.151 56.5947 332.099 57.6211C331.063 58.635 330.557 59.8826 330.557 61.4264C330.557 62.9702 331.067 64.2428 332.115 65.2942C333.164 66.3415 334.492 66.8505 336.172 66.8505C337.851 66.8505 339.088 66.3415 340.136 65.2942C341.185 64.2469 341.694 62.9827 341.694 61.4264C341.694 59.8701 341.189 58.635 340.149 57.6211C339.1 56.5989 337.797 56.0982 336.172 56.0982ZM343.904 48.2666H328.343V46.4182C328.343 42.6964 329.225 39.5337 330.958 37.0219C332.562 34.702 334.906 32.161 337.922 29.4656C340.061 27.5672 341.657 25.9191 342.664 24.5672C343.516 23.424 343.929 22.1555 343.929 20.6827C343.929 18.6382 343.152 17.0902 341.481 15.8135C339.706 14.4574 337.229 13.769 334.112 13.769C329.358 13.769 325.64 15.0082 322.745 17.5617C320.343 19.6771 316.805 19.9442 314.135 18.2168C312.189 16.9525 311.006 14.8997 310.902 12.5798C310.798 10.2516 311.788 8.08614 313.626 6.64249C315.372 5.26976 317.323 4.07645 319.424 3.10427C323.882 1.0431 329.166 -0.00418091 335.14 -0.00418091C342.476 -0.00418091 348.45 1.63558 352.894 4.87338C357.519 8.2447 359.862 12.9345 359.862 18.8176C359.862 21.609 359.386 24.1166 358.446 26.2696C357.536 28.3641 356.408 30.1708 355.1 31.652C353.88 33.0331 352.259 34.6353 350.288 36.4169C348.028 38.4363 346.348 40.2138 345.283 41.7117C344.351 43.0177 343.9 44.5573 343.9 46.4182V48.2666H343.904ZM332.141 44.5656H340.32C340.575 42.7006 341.227 41.0232 342.267 39.5629C343.508 37.8188 345.325 35.887 347.815 33.6631C349.678 31.9816 351.198 30.4795 352.33 29.2028C353.379 28.0136 354.298 26.5324 355.054 24.7925C355.789 23.111 356.161 21.0999 356.161 18.8176C356.161 14.1195 354.382 10.5354 350.714 7.86501C346.916 5.09869 341.678 3.69676 335.144 3.69676C329.718 3.69676 324.951 4.62721 320.987 6.46307C319.144 7.31425 317.44 8.35318 315.923 9.55066C315.038 10.2475 314.557 11.2906 314.612 12.4129C314.662 13.5228 315.226 14.5075 316.162 15.1125C317.44 15.9428 319.14 15.8093 320.301 14.7871C323.856 11.6536 328.506 10.068 334.121 10.068C338.068 10.068 341.302 11.011 343.741 12.8719C346.332 14.8496 347.643 17.4783 347.643 20.6827C347.643 22.9441 346.971 24.997 345.642 26.7744C344.468 28.3516 342.751 30.1332 340.391 32.2278C337.596 34.7229 335.445 37.0428 334.008 39.1206C332.989 40.5935 332.366 42.421 332.141 44.5615V44.5656Z" fill="#4F3CC9"/>
<path d="M122.777 71.2733C124.301 69.0661 126.524 66.6586 129.452 64.0467C131.691 62.0564 133.358 60.3332 134.449 58.8729C135.535 57.4125 136.082 55.7477 136.082 53.8827C136.082 51.2707 135.021 49.1595 132.907 47.5447C130.789 45.93 127.961 45.1206 124.414 45.1206C119.238 45.1206 115.04 46.5392 111.823 49.3764C110.044 50.9453 107.441 51.1581 105.448 49.8646C102.411 47.8952 102.232 43.535 105.072 41.2986C106.714 40.0094 108.523 38.9037 110.503 37.9857C114.735 36.0289 119.715 35.0483 125.438 35.0483C132.406 35.0483 137.962 36.5546 142.102 39.5712C146.242 42.5879 148.31 46.7353 148.31 52.0176C148.31 54.5669 147.888 56.8033 147.048 58.731C146.208 60.6587 145.197 62.2901 144.015 63.6253C142.833 64.9604 141.275 66.5001 139.349 68.24C136.984 70.3554 135.226 72.2204 134.077 73.8352C132.924 75.4541 132.352 77.3776 132.352 79.614H120.496C120.496 76.2593 121.256 73.4763 122.785 71.2691L122.777 71.2733ZM121.097 99.8043C119.698 98.4066 118.996 96.6792 118.996 94.6305C118.996 92.5819 119.698 90.8712 121.097 89.5026C122.497 88.1382 124.285 87.454 126.465 87.454C128.646 87.454 130.338 88.1382 131.742 89.5026C133.141 90.8712 133.843 92.5777 133.843 94.6305C133.843 96.6833 133.141 98.4066 131.742 99.8043C130.342 101.202 128.583 101.903 126.465 101.903C124.347 101.903 122.497 101.202 121.097 99.8043Z" fill="#00B4D8"/>
<path d="M126.466 103.751C123.788 103.751 121.54 102.863 119.79 101.11C118.035 99.3579 117.146 97.1757 117.146 94.6263C117.146 92.077 118.039 89.899 119.802 88.1758C121.557 86.4651 123.796 85.5972 126.466 85.5972C129.135 85.5972 131.282 86.4651 133.033 88.1758C134.795 89.899 135.689 92.0686 135.689 94.6263C135.689 97.184 134.8 99.3579 133.045 101.11C131.291 102.863 129.076 103.751 126.461 103.751H126.466ZM122.409 98.4942C123.458 99.5414 124.782 100.05 126.466 100.05C128.149 100.05 129.381 99.5414 130.43 98.4942C131.479 97.4469 131.988 96.1826 131.988 94.6263C131.988 93.07 131.483 91.835 130.443 90.8211C129.394 89.7988 128.091 89.2981 126.466 89.2981C124.84 89.2981 123.445 89.7947 122.392 90.8211C121.356 91.835 120.851 93.0784 120.851 94.6263C120.851 96.1743 121.361 97.4427 122.409 98.4942ZM134.202 81.4665H118.641V79.6181C118.641 75.8963 119.523 72.7336 121.256 70.2218C122.86 67.902 125.204 65.361 128.22 62.6656C130.359 60.7671 131.955 59.119 132.962 57.7672C133.814 56.6239 134.227 55.3513 134.227 53.8826C134.227 51.8381 133.45 50.2902 131.779 49.0134C130.004 47.6574 127.527 46.9689 124.41 46.9689C119.656 46.9689 115.938 48.2081 113.043 50.7617C110.641 52.8771 107.103 53.1483 104.433 51.4167C102.487 50.1525 101.309 48.0997 101.2 45.7798C101.091 43.4516 102.086 41.2861 103.92 39.8424C105.666 38.4697 107.617 37.2806 109.718 36.3042C114.175 34.243 119.46 33.1958 125.434 33.1958C132.769 33.1958 138.743 34.8355 143.188 38.0733C147.813 41.4446 150.156 46.1344 150.156 52.0176C150.156 54.8089 149.68 57.3165 148.74 59.4695C147.829 61.5599 146.706 63.3707 145.398 64.8478C144.174 66.2288 142.553 67.8352 140.581 69.6127C138.321 71.6321 136.642 73.4096 135.577 74.9075C134.645 76.2134 134.194 77.7531 134.194 79.614V81.4623L134.202 81.4665ZM122.438 77.7656H130.618C130.873 75.9005 131.524 74.2232 132.565 72.7628C133.805 71.0188 135.618 69.0911 138.112 66.863C139.976 65.1857 141.496 63.6795 142.628 62.4027C143.677 61.2136 144.596 59.7324 145.352 57.9966C146.087 56.3152 146.459 54.3041 146.459 52.0217C146.459 47.3236 144.675 43.7395 141.012 41.0691C137.214 38.307 131.976 36.9009 125.442 36.9009C120.011 36.9009 115.249 37.8313 111.284 39.6672C109.442 40.5184 107.738 41.5573 106.221 42.7548C105.336 43.4516 104.855 44.4947 104.91 45.6171C104.96 46.7269 105.524 47.7116 106.459 48.3166C107.738 49.1469 109.438 49.0134 110.599 47.9912C114.154 44.8619 118.8 43.2722 124.419 43.2722C128.366 43.2722 131.6 44.2151 134.039 46.076C136.629 48.0538 137.941 50.6824 137.941 53.8868C137.941 56.1483 137.269 58.2011 135.94 59.9785C134.762 61.5557 133.045 63.3415 130.689 65.4319C127.894 67.927 125.747 70.2469 124.31 72.3247C123.291 73.7976 122.668 75.6251 122.443 77.7656H122.438Z" fill="#03060B"/>
</g>
<defs>
<linearGradient id="paint0_linear_13495_368245" x1="206.271" y1="202.959" x2="206.271" y2="399.299" gradientUnits="userSpaceOnUse">
<stop stop-color="#F4F4F4"/>
<stop offset="1" stop-color="white"/>
</linearGradient>
<clipPath id="clip0_13495_368245">
<rect width="496" height="423" fill="white"/>
</clipPath>
</defs>
</svg>
