<svg width="420" height="313" viewBox="0 0 420 313" fill="none" xmlns="http://www.w3.org/2000/svg">
<path d="M420 275.016H0V275.184H420V275.016Z" fill="#6438BC" fill-opacity="0.3"/>
<path d="M377.916 288.54H359.688V288.708H377.916V288.54Z" fill="#6438BC" fill-opacity="0.3"/>
<path d="M289.548 284.173H260.904V284.341H289.548V284.173Z" fill="#6438BC" fill-opacity="0.3"/>
<path d="M370.524 280.727H333.144V280.895H370.524V280.727Z" fill="#6438BC" fill-opacity="0.3"/>
<path d="M145.32 284.927H135.996V285.095H145.32V284.927Z" fill="#6438BC" fill-opacity="0.3"/>
<path d="M128.52 284.927H96.2642V285.095H128.52V284.927Z" fill="#6438BC" fill-opacity="0.3"/>
<path d="M78.9601 281.4H55.6921V281.568H78.9601V281.4Z" fill="#6438BC" fill-opacity="0.3"/>
<path d="M199.08 237.552H36.8759C34.2719 237.552 32.0879 235.368 32.0879 232.764V4.788C32.0879 2.184 34.2719 0 36.8759 0H199.08C201.684 0 203.868 2.184 203.868 4.788V232.764C203.868 235.368 201.768 237.552 199.08 237.552ZM36.8759 0.168001C34.3559 0.168001 32.2559 2.184 32.2559 4.788V232.764C32.2559 235.284 34.2719 237.384 36.8759 237.384H199.08C201.6 237.384 203.7 235.368 203.7 232.764V4.788C203.7 2.268 201.684 0.168001 199.08 0.168001H36.8759Z" fill="#6438BC" fill-opacity="0.3"/>
<path d="M380.772 237.552H218.568C215.964 237.552 213.78 235.368 213.78 232.764V4.788C213.78 2.184 215.964 0 218.568 0H380.772C383.376 0 385.56 2.184 385.56 4.788V232.764C385.56 235.368 383.46 237.552 380.772 237.552ZM218.568 0.168001C216.048 0.168001 213.948 2.184 213.948 4.788V232.764C213.948 235.284 215.964 237.384 218.568 237.384H380.772C383.292 237.384 385.392 235.368 385.392 232.764V4.788C385.392 2.268 383.376 0.168001 380.772 0.168001H218.568Z" fill="#6438BC" fill-opacity="0.3"/>
<path d="M181.524 122.555L181.944 111.551L175.14 109.367C174.888 105.587 174.216 101.891 173.292 98.2791L179.004 94.0791L175.14 83.7471L168 84.3351C166.32 80.9751 164.304 77.7831 162.12 74.7591L165.816 68.6271L158.256 60.5631L151.872 63.8391C149.016 61.4031 145.992 59.2191 142.8 57.2871L143.808 50.2311L133.728 45.6951L129.108 51.0711C125.58 49.8951 121.968 49.0551 118.188 48.5511L116.508 41.6631L105.42 41.2431L103.236 48.0471C99.4561 48.3831 95.7601 48.9711 92.1481 49.8951L87.8641 44.1831L77.5321 48.0471L78.1201 55.1871C74.7601 56.8671 71.5681 58.8831 68.5441 61.1511L62.4121 57.4551L54.3481 65.0151L57.6241 71.3991C55.1881 74.2551 53.0041 77.2791 51.0721 80.4711L44.0161 79.3791L39.3961 89.4591L44.8561 94.0791C43.6801 97.6071 42.8401 101.303 42.3361 104.999L35.3641 106.763L34.9441 117.767L41.7481 119.951C42.0001 123.731 42.6721 127.427 43.5961 131.039L37.8841 135.239L41.7481 145.571L48.8881 144.983C50.5681 148.343 52.5841 151.535 54.7681 154.559L51.0721 160.691L58.6321 168.755L65.0161 165.479C67.8721 167.915 70.8961 170.099 74.0881 172.031L72.9961 179.087L83.0761 183.623L87.6961 178.247C91.2241 179.423 94.8361 180.263 98.6161 180.767L100.296 187.655L111.384 188.075L113.568 181.271C117.348 180.935 121.044 180.347 124.656 179.423L128.856 185.135L139.188 181.271L138.684 174.131C142.044 172.451 145.236 170.435 148.26 168.167L154.392 171.863L162.456 164.303L159.18 157.919C161.616 155.063 163.8 152.039 165.732 148.847L172.788 149.939L177.408 139.859L171.948 135.239C173.124 131.711 173.964 128.099 174.468 124.319L181.524 122.555ZM106.932 158.255C82.7401 157.415 63.8401 137.171 64.6801 112.979C65.5201 88.7871 85.7641 69.8871 109.956 70.6431C134.148 71.4831 153.048 91.7271 152.208 115.919C151.368 140.195 131.124 159.095 106.932 158.255Z" fill="#6438BC" fill-opacity="0.3"/>
<path d="M370.44 86.0177L373.212 83.4137L372.12 81.2297C372.96 80.2217 373.716 79.2137 374.388 78.1217L376.824 78.4577L378.42 75.0137L376.572 73.4177C376.992 72.1577 377.244 70.8977 377.496 69.6377L379.932 69.0497L380.016 65.2697L377.664 64.5137C377.58 63.2537 377.328 61.9097 377.076 60.6497L379.008 59.2217L377.664 55.6097L375.228 55.7777C374.64 54.6017 373.968 53.5097 373.212 52.5017L374.472 50.4017L371.868 47.6297L369.684 48.7217C368.676 47.8817 367.668 47.1257 366.576 46.4537L366.912 44.0177L363.468 42.4217L361.872 44.2697C360.612 43.8497 359.352 43.5977 358.092 43.4297L357.504 41.0777L353.724 40.9097L352.968 43.2617C351.708 43.3457 350.364 43.5977 349.188 43.8497L347.76 41.8337L344.148 43.1777L344.316 45.6137C343.14 46.2017 342.048 46.8737 341.04 47.6297L338.94 46.3697L336.168 48.9737L337.26 51.1577C336.42 52.1657 335.664 53.1737 334.992 54.2657L332.556 53.9297L330.96 57.3737L332.808 58.9697C332.388 60.2297 332.136 61.4897 331.884 62.7497L329.448 63.3377L329.364 67.1177L331.716 67.8737C331.8 69.1337 332.052 70.4777 332.304 71.7377L330.288 73.1657L331.632 76.7777L334.068 76.6097C334.656 77.7857 335.328 78.8777 336.084 79.8857L334.824 81.9857L337.428 84.7577L339.612 83.6657C340.62 84.5057 341.628 85.2617 342.72 85.9337L342.384 88.3697L345.828 89.9657L347.424 88.1177C348.684 88.5377 349.944 88.7897 351.204 88.9577L351.792 91.3097L355.572 91.4777L356.328 89.1257C357.588 89.0417 358.932 88.7897 360.108 88.5377L361.536 90.5537L365.148 89.2097L364.98 86.7737C366.156 86.1857 367.248 85.5137 368.256 84.7577L370.44 86.0177ZM350.532 69.9737C348.516 67.7897 348.6 64.3457 350.784 62.3297C352.968 60.3137 356.412 60.3977 358.428 62.5817C360.444 64.7657 360.36 68.2097 358.176 70.2257C356.076 72.2417 352.632 72.1577 350.532 69.9737Z" fill="#6438BC" fill-opacity="0.3"/>
<path d="M268.8 199.333L260.148 193.369C259.308 190.177 258.132 187.153 256.62 184.297L258.804 175.561L246.204 162.037L237.3 163.633C234.528 161.953 231.588 160.609 228.48 159.517L223.104 150.445L204.624 149.773L198.66 158.425C195.468 159.265 192.444 160.441 189.588 161.953L180.852 159.769L167.328 172.369L168.924 181.189C167.244 183.961 165.9 186.901 164.808 190.009L155.736 195.385L155.064 213.865L163.8 219.829C164.64 223.021 165.816 226.045 167.244 228.901L165.06 237.637L177.66 251.161L186.48 249.565C189.252 251.245 192.192 252.589 195.3 253.681L200.676 262.753L219.156 263.425L225.12 254.773C228.312 253.933 231.336 252.757 234.276 251.245L242.928 253.429L256.452 240.829L254.856 232.009C256.536 229.237 257.88 226.297 258.972 223.189L268.044 217.813L268.8 199.333ZM211.26 227.389C199.752 226.969 190.848 217.393 191.184 205.969C191.604 194.461 201.18 185.557 212.604 185.893C224.112 186.313 233.016 195.889 232.68 207.313C232.344 218.821 222.768 227.809 211.26 227.389Z" fill="#6438BC" fill-opacity="0.3"/>
<path d="M288.54 147L273.924 146.496C273.336 146.496 272.748 146.16 272.496 145.656L268.548 139.02C266.448 138.264 264.432 137.34 262.416 136.164L256.116 137.34C255.528 137.424 254.94 137.256 254.52 136.836L244.608 126.168C244.188 125.748 244.02 125.076 244.188 124.488L245.784 118.272C244.86 116.34 244.02 114.156 243.348 111.972L237.048 107.604C236.544 107.268 236.292 106.68 236.292 106.092L236.796 91.5603C236.796 90.9723 237.132 90.3843 237.636 90.1323L244.272 86.1843C245.028 84.0003 246.036 81.9843 247.128 80.1363L245.952 73.8363C245.868 73.2483 246.036 72.6603 246.456 72.2403L257.124 62.3283C257.544 61.9083 258.216 61.7403 258.804 61.9083L265.02 63.5043C267.036 62.4963 269.136 61.7403 271.236 61.0683L275.604 54.7683C275.94 54.2643 276.528 53.9283 277.116 54.0123L291.648 54.5163C292.236 54.5163 292.824 54.8523 293.076 55.3563L297.024 61.9923C299.124 62.7483 301.14 63.6723 303.072 64.8483L309.456 63.6723C310.044 63.5883 310.632 63.7563 311.052 64.1763L320.964 74.8443C321.384 75.2643 321.552 75.9363 321.384 76.5243L319.788 82.7403C320.796 84.7563 321.552 86.8563 322.224 88.9563L328.524 93.3243C329.028 93.6603 329.28 94.2483 329.28 94.8363L328.776 109.368C328.776 109.956 328.44 110.544 327.936 110.796L321.3 114.744C320.544 116.928 319.536 118.944 318.444 120.792L319.62 127.092C319.704 127.68 319.536 128.268 319.116 128.688L308.532 138.6C308.112 139.02 307.44 139.188 306.852 139.02L300.636 137.424C298.62 138.432 296.436 139.188 294.336 139.86L289.968 146.16C289.716 146.664 289.128 147 288.54 147ZM275.1 142.968L287.7 143.388L291.9 137.34C292.152 137.004 292.488 136.752 292.908 136.668C295.26 136.08 297.528 135.156 299.796 134.064C300.132 133.896 300.636 133.812 301.056 133.896L306.936 135.408L316.176 126.84L315.084 120.792C315 120.372 315.084 119.952 315.336 119.532C316.512 117.516 317.604 115.332 318.444 112.98C318.612 112.56 318.864 112.224 319.2 111.972L325.5 108.192L325.92 95.5923L319.872 91.3923C319.536 91.1403 319.284 90.8883 319.2 90.4683C319.2 90.3843 319.2 90.3843 319.2 90.3003C318.528 87.9483 317.688 85.6803 316.596 83.4963C316.428 83.0763 316.344 82.6563 316.428 82.2363L317.94 76.2723L309.372 67.0323L303.324 68.1243C302.904 68.2083 302.484 68.1243 302.064 67.8723C299.964 66.6123 297.78 65.6043 295.512 64.7643C295.344 64.6803 295.26 64.6803 295.176 64.5963C294.924 64.4283 294.756 64.2603 294.588 64.0083L290.808 57.7083L278.208 57.2883L274.008 63.3363C273.756 63.6723 273.42 63.9243 273 64.0923C270.648 64.7643 268.38 65.6043 266.196 66.6963C265.776 66.8643 265.356 66.9483 264.936 66.8643L258.972 65.3523L249.732 74.0043L250.824 80.0523C250.908 80.4723 250.824 80.8083 250.656 81.1443C250.656 81.2283 250.572 81.2283 250.572 81.3123C249.312 83.3283 248.304 85.5963 247.464 87.9483C247.296 88.3683 247.044 88.7043 246.708 88.8723L240.408 92.6523L239.988 105.252L246.036 109.452C246.372 109.704 246.624 110.04 246.708 110.46C247.38 112.896 248.22 115.164 249.312 117.264C249.396 117.348 249.396 117.516 249.48 117.684C249.564 117.936 249.564 118.272 249.48 118.524L247.968 124.488L256.536 133.728L262.5 132.636C262.92 132.552 263.34 132.636 263.76 132.888C265.86 134.148 268.128 135.156 270.396 135.996C270.816 136.164 271.152 136.416 271.404 136.752L275.1 142.968ZM282.828 127.008C282.492 127.008 282.24 127.008 281.904 127.008C267.288 126.504 255.696 114.156 256.2 99.5403C256.704 84.9243 269.052 73.4163 283.668 73.8363C298.284 74.3403 309.876 86.6883 309.372 101.304C309.12 108.36 306.096 114.996 300.972 119.784C296.016 124.488 289.632 127.008 282.828 127.008ZM282.828 77.3643C270.48 77.3643 260.232 87.1923 259.812 99.6243C259.392 112.308 269.388 122.976 282.072 123.48C288.204 123.648 294.084 121.464 298.62 117.264C303.156 113.064 305.676 107.352 305.928 101.22C306.348 88.5363 296.352 77.8683 283.668 77.3643C283.332 77.3643 283.08 77.3643 282.828 77.3643Z" fill="#6438BC" fill-opacity="0.3"/>
<path d="M322.056 42.2526L316.092 40.6566L314.412 34.6086L316.764 32.2566L319.284 37.4646L324.408 39.9006L322.056 42.2526Z" fill="#6438BC" fill-opacity="0.08"/>
<path d="M322.476 38.2206C323.568 37.1286 323.568 35.3646 322.476 34.2726C321.384 33.1806 319.62 33.1806 318.528 34.2726L321.552 29.7366L325.584 31.7526L326.424 35.9526L322.476 38.2206Z" fill="#6438BC" fill-opacity="0.08"/>
<path d="M316.344 32.7613L320.796 28.3093L326.844 29.9053L328.44 35.9533L323.988 40.4053L317.94 38.8093L316.344 32.7613ZM324.324 36.3733C325.416 35.2813 325.416 33.5173 324.324 32.4253C323.232 31.3333 321.468 31.3333 320.376 32.4253C319.284 33.5173 319.284 35.2813 320.376 36.3733C321.468 37.4653 323.232 37.4653 324.324 36.3733Z" fill="#F0F0F0"/>
<path d="M75.7681 203.029L79.0441 202.189L79.8841 198.912L78.6241 197.652L77.2801 200.425L74.5081 201.769L75.7681 203.029Z" fill="#6438BC" fill-opacity="0.08"/>
<path d="M75.6 200.845C75.012 200.257 75.012 199.333 75.6 198.745C76.188 198.157 77.112 198.157 77.7 198.745L76.104 196.309L73.92 197.401L73.416 199.669L75.6 200.845Z" fill="#6438BC" fill-opacity="0.08"/>
<path d="M78.8759 197.905L76.5239 195.553L73.3319 196.393L72.4919 199.585L74.8439 201.937L78.0359 201.097L78.8759 197.905ZM74.5919 199.837C74.0039 199.249 74.0039 198.325 74.5919 197.737C75.1799 197.149 76.1039 197.149 76.6919 197.737C77.2799 198.325 77.2799 199.249 76.6919 199.837C76.1039 200.425 75.1799 200.425 74.5919 199.837Z" fill="#F0F0F0"/>
<path d="M64.1759 25.7875L66.8639 28.4755C67.5359 29.1475 68.7119 29.1475 69.3839 28.4755C70.0559 27.8035 70.0559 26.6275 69.3839 25.9555L66.6959 23.2675C66.0239 22.5955 64.8479 22.5955 64.1759 23.2675C63.4199 23.9395 63.4199 25.0315 64.1759 25.7875Z" fill="#F0F0F0"/>
<path d="M62.2442 19.0681C64.3442 18.3121 66.5282 19.3201 67.2842 21.2521C67.9562 23.1841 66.8642 25.3681 64.7642 26.1241C62.6642 26.8801 60.4802 25.8721 59.7242 23.9401C59.0522 22.0081 60.1442 19.8241 62.2442 19.0681Z" fill="#6438BC" fill-opacity="0.08"/>
<path d="M59.2988 23.4959L59.6963 24.6027L67.6806 21.7351L67.2831 20.6283L59.2988 23.4959Z" fill="#F0F0F0"/>
<path d="M210 312.9C299.954 312.9 372.876 308.651 372.876 303.408C372.876 298.166 299.954 293.916 210 293.916C120.046 293.916 47.124 298.166 47.124 303.408C47.124 308.651 120.046 312.9 210 312.9Z" fill="#6438BC" fill-opacity="0.08"/>
<path d="M108.108 97.9447C108.024 97.9447 108.024 97.9447 107.94 97.9447C104.16 96.5167 101.892 95.0887 100.716 93.3247C99.8761 93.4927 98.8681 93.4087 98.0281 92.9887C97.1881 92.5687 96.2641 91.8127 95.6761 90.8047C95.0881 91.2247 94.4161 91.3927 93.6601 91.1407C92.8201 90.8887 91.8961 90.1327 91.1401 89.1247C90.6361 89.4607 90.2161 89.5447 89.7961 89.4607C87.2761 89.2927 83.9161 84.2527 83.6641 78.9607C83.6641 78.7087 83.8321 78.5407 84.0841 78.5407C84.3361 78.5407 84.5041 78.7087 84.5041 78.9607C84.7561 84.0007 87.9481 88.4527 89.8801 88.6207C90.2161 88.6207 90.4681 88.5367 90.6361 88.3687C89.4601 86.3527 88.8721 83.4967 89.7961 80.4727C90.5521 77.9527 91.1401 76.9447 91.8961 77.1127C93.3241 77.4487 93.1561 82.9927 92.4001 86.6047C92.2321 87.4447 91.9801 88.0327 91.7281 88.4527C92.4001 89.4607 93.1561 90.0487 93.8281 90.3007C94.4161 90.4687 94.9201 90.3007 95.2561 90.0487C94.5841 88.4527 94.5001 86.1847 95.3401 83.4127C96.5161 79.7167 97.0201 79.6327 97.2721 79.5487C97.4401 79.4647 97.6921 79.5487 97.7761 79.7167C98.5321 80.5567 97.6081 86.3527 96.6841 89.2087C96.5161 89.5447 96.4321 89.8807 96.1801 90.2167C96.6841 91.2247 97.4401 91.8967 98.2801 92.3167C98.9521 92.6527 99.6241 92.7367 100.212 92.6527C100.128 92.4847 100.044 92.3167 100.044 92.1487C99.3721 90.3847 99.7081 88.2847 101.052 85.7647C101.976 84.0847 102.648 83.3287 103.32 83.3287C103.488 83.3287 103.908 83.4127 104.16 83.9167C104.916 85.2607 104.328 89.7127 102.9 91.9807C102.564 92.4847 102.06 92.9047 101.556 93.1567C102.648 94.6687 104.832 95.9287 108.192 97.2727C108.444 97.3567 108.528 97.6087 108.444 97.7767C108.444 97.8607 108.276 97.9447 108.108 97.9447ZM103.32 84.0847C103.32 84.0847 102.816 84.0847 101.808 86.0167C100.632 88.2847 100.296 90.1327 100.884 91.7287C100.968 91.8967 101.052 92.1487 101.136 92.3167C101.556 92.1487 101.976 91.8127 102.228 91.3927C103.404 89.6287 103.992 85.9327 103.488 84.4207C103.404 84.1687 103.32 84.0847 103.32 84.0847ZM97.3561 80.5567C97.1041 80.9767 96.7681 81.8167 96.2641 83.4967C95.5081 85.7647 95.5081 87.6127 95.9281 88.9567C95.9281 88.8727 96.0121 88.7887 96.0121 88.7047C96.9361 85.9327 97.4401 81.9007 97.3561 80.5567ZM91.8121 77.8687C91.6441 78.0367 91.2241 78.5407 90.6361 80.5567C89.8801 83.2447 90.3001 85.6807 91.2241 87.4447C91.3921 87.1087 91.5601 86.6887 91.6441 86.2687C92.4841 82.2367 92.2321 78.5407 91.8121 77.8687Z" fill="#6438BC"/>
<path d="M108.108 97.9447C108.024 97.9447 108.024 97.9447 107.94 97.9447C104.16 96.5167 101.892 95.0887 100.716 93.3247C99.8761 93.4927 98.8681 93.4087 98.0281 92.9887C97.1881 92.5687 96.2641 91.8127 95.6761 90.8047C95.0881 91.2247 94.4161 91.3927 93.6601 91.1407C92.8201 90.8887 91.8961 90.1327 91.1401 89.1247C90.6361 89.4607 90.2161 89.5447 89.7961 89.4607C87.2761 89.2927 83.9161 84.2527 83.6641 78.9607C83.6641 78.7087 83.8321 78.5407 84.0841 78.5407C84.3361 78.5407 84.5041 78.7087 84.5041 78.9607C84.7561 84.0007 87.9481 88.4527 89.8801 88.6207C90.2161 88.6207 90.4681 88.5367 90.6361 88.3687C89.4601 86.3527 88.8721 83.4967 89.7961 80.4727C90.5521 77.9527 91.1401 76.9447 91.8961 77.1127C93.3241 77.4487 93.1561 82.9927 92.4001 86.6047C92.2321 87.4447 91.9801 88.0327 91.7281 88.4527C92.4001 89.4607 93.1561 90.0487 93.8281 90.3007C94.4161 90.4687 94.9201 90.3007 95.2561 90.0487C94.5841 88.4527 94.5001 86.1847 95.3401 83.4127C96.5161 79.7167 97.0201 79.6327 97.2721 79.5487C97.4401 79.4647 97.6921 79.5487 97.7761 79.7167C98.5321 80.5567 97.6081 86.3527 96.6841 89.2087C96.5161 89.5447 96.4321 89.8807 96.1801 90.2167C96.6841 91.2247 97.4401 91.8967 98.2801 92.3167C98.9521 92.6527 99.6241 92.7367 100.212 92.6527C100.128 92.4847 100.044 92.3167 100.044 92.1487C99.3721 90.3847 99.7081 88.2847 101.052 85.7647C101.976 84.0847 102.648 83.3287 103.32 83.3287C103.488 83.3287 103.908 83.4127 104.16 83.9167C104.916 85.2607 104.328 89.7127 102.9 91.9807C102.564 92.4847 102.06 92.9047 101.556 93.1567C102.648 94.6687 104.832 95.9287 108.192 97.2727C108.444 97.3567 108.528 97.6087 108.444 97.7767C108.444 97.8607 108.276 97.9447 108.108 97.9447ZM103.32 84.0847C103.32 84.0847 102.816 84.0847 101.808 86.0167C100.632 88.2847 100.296 90.1327 100.884 91.7287C100.968 91.8967 101.052 92.1487 101.136 92.3167C101.556 92.1487 101.976 91.8127 102.228 91.3927C103.404 89.6287 103.992 85.9327 103.488 84.4207C103.404 84.1687 103.32 84.0847 103.32 84.0847ZM97.3561 80.5567C97.1041 80.9767 96.7681 81.8167 96.2641 83.4967C95.5081 85.7647 95.5081 87.6127 95.9281 88.9567C95.9281 88.8727 96.0121 88.7887 96.0121 88.7047C96.9361 85.9327 97.4401 81.9007 97.3561 80.5567ZM91.8121 77.8687C91.6441 78.0367 91.2241 78.5407 90.6361 80.5567C89.8801 83.2447 90.3001 85.6807 91.2241 87.4447C91.3921 87.1087 91.5601 86.6887 91.6441 86.2687C92.4841 82.2367 92.2321 78.5407 91.8121 77.8687Z" fill="black" fill-opacity="0.3"/>
<path d="M140.028 141.961C138.768 141.961 137.424 141.709 136.164 140.953C135.996 140.869 135.912 140.617 135.996 140.365C136.08 140.197 136.332 140.113 136.584 140.197C139.608 141.961 143.472 140.701 144.228 139.441C144.312 139.273 144.396 139.105 144.312 138.853C143.136 138.937 141.708 138.685 140.028 137.593C137.928 136.249 137.76 135.829 137.76 135.577C137.76 135.409 137.844 135.241 138.012 135.157C138.852 134.737 142.632 136.501 144.228 137.509C144.396 137.677 144.648 137.761 144.732 137.929C145.404 137.761 145.992 137.425 146.328 137.005C146.58 136.669 146.748 136.417 146.832 136.081C146.748 136.081 146.748 136.081 146.664 136.081C145.32 136.249 143.976 135.661 142.548 134.317C141.54 133.393 141.204 132.805 141.288 132.301C141.288 132.133 141.456 131.881 141.876 131.713C143.052 131.461 145.908 132.637 147.084 133.897C147.336 134.149 147.504 134.485 147.588 134.905C148.68 134.401 149.856 133.225 151.2 131.293C151.368 131.125 151.62 131.041 151.788 131.209C151.956 131.377 152.04 131.629 151.872 131.797C150.276 133.981 148.932 135.241 147.672 135.745C147.588 136.333 147.336 136.921 146.916 137.425C146.496 137.929 145.908 138.349 145.068 138.601C145.152 139.021 145.068 139.357 144.816 139.777C144.312 141.037 142.296 141.961 140.028 141.961ZM139.272 136.165C139.524 136.333 139.944 136.669 140.532 137.005C141.708 137.677 142.716 138.013 143.556 138.097C142.212 137.257 140.364 136.501 139.272 136.165ZM142.212 132.553C142.296 132.721 142.464 133.057 143.22 133.729C144.48 134.905 145.572 135.409 146.664 135.241C146.748 135.241 146.832 135.241 146.916 135.241C146.832 134.989 146.748 134.737 146.58 134.569C145.404 133.225 142.8 132.469 142.212 132.553Z" fill="#6438BC"/>
<path d="M140.028 141.961C138.768 141.961 137.424 141.709 136.164 140.953C135.996 140.869 135.912 140.617 135.996 140.365C136.08 140.197 136.332 140.113 136.584 140.197C139.608 141.961 143.472 140.701 144.228 139.441C144.312 139.273 144.396 139.105 144.312 138.853C143.136 138.937 141.708 138.685 140.028 137.593C137.928 136.249 137.76 135.829 137.76 135.577C137.76 135.409 137.844 135.241 138.012 135.157C138.852 134.737 142.632 136.501 144.228 137.509C144.396 137.677 144.648 137.761 144.732 137.929C145.404 137.761 145.992 137.425 146.328 137.005C146.58 136.669 146.748 136.417 146.832 136.081C146.748 136.081 146.748 136.081 146.664 136.081C145.32 136.249 143.976 135.661 142.548 134.317C141.54 133.393 141.204 132.805 141.288 132.301C141.288 132.133 141.456 131.881 141.876 131.713C143.052 131.461 145.908 132.637 147.084 133.897C147.336 134.149 147.504 134.485 147.588 134.905C148.68 134.401 149.856 133.225 151.2 131.293C151.368 131.125 151.62 131.041 151.788 131.209C151.956 131.377 152.04 131.629 151.872 131.797C150.276 133.981 148.932 135.241 147.672 135.745C147.588 136.333 147.336 136.921 146.916 137.425C146.496 137.929 145.908 138.349 145.068 138.601C145.152 139.021 145.068 139.357 144.816 139.777C144.312 141.037 142.296 141.961 140.028 141.961ZM139.272 136.165C139.524 136.333 139.944 136.669 140.532 137.005C141.708 137.677 142.716 138.013 143.556 138.097C142.212 137.257 140.364 136.501 139.272 136.165ZM142.212 132.553C142.296 132.721 142.464 133.057 143.22 133.729C144.48 134.905 145.572 135.409 146.664 135.241C146.748 135.241 146.832 135.241 146.916 135.241C146.832 134.989 146.748 134.737 146.58 134.569C145.404 133.225 142.8 132.469 142.212 132.553Z" fill="black" fill-opacity="0.3"/>
<path d="M151.116 140.785L138.012 143.137L126.168 78.2892L100.884 82.9092L59.7241 155.989L64.1761 180.097L116.928 170.521L120.54 190.261L145.824 185.641L142.212 165.901L155.316 163.549L151.116 140.785ZM84.9241 152.797L106.764 114.493L112.812 147.673L84.9241 152.797Z" fill="#6438BC"/>
<path d="M256.536 73.9184C256.032 69.4664 255.192 65.4344 253.848 61.9904C252.588 58.5464 250.572 55.1024 247.968 51.7424C245.364 48.3824 241.836 45.5264 237.3 43.0064C232.764 40.5704 226.884 38.8064 219.492 37.8824C204.12 35.8664 192.108 38.6384 183.54 46.0304C174.972 53.5064 169.26 67.7864 166.572 88.8704C165.48 97.4384 165.228 105.418 165.732 112.642C166.32 119.95 167.664 125.83 169.764 130.198C172.704 136.414 176.736 141.37 182.028 145.15C187.32 148.846 194.628 151.366 203.784 152.542C220.248 154.726 232.428 151.534 240.408 143.05C248.304 134.566 253.596 120.286 256.2 100.126C257.46 91.2224 257.544 82.4864 256.536 73.9184Z" fill="#6438BC"/>
<path d="M211.512 143.974C209.496 143.89 207.312 143.722 205.128 143.47C197.4 142.462 191.52 140.53 187.404 137.674C183.372 134.902 180.432 131.206 178.164 126.418V126.334C176.568 122.974 175.476 118.102 175.056 112.054C174.552 105.418 174.804 98.0262 175.812 90.1302C178.836 66.8622 184.968 57.1182 189.672 53.0862C195.132 48.3822 202.44 46.1982 212.1 46.5342C214.116 46.6182 216.216 46.7862 218.316 47.0382C224.532 47.8782 229.404 49.2222 232.932 51.1542C236.292 53.0022 238.896 55.1022 240.744 57.4542C242.76 60.0582 244.272 62.6622 245.28 65.2662C246.288 68.0382 247.044 71.3142 247.464 75.0102C248.388 82.8222 248.304 90.9702 247.212 99.1182C244.86 117.178 240.408 129.946 233.856 136.918C228.9 142.042 221.592 144.31 211.512 143.974Z" fill="white"/>
<path d="M227.892 74.1697L227.976 70.9777L226.044 70.3057C225.96 69.2137 225.792 68.1217 225.54 67.1137L227.22 65.8537L226.128 62.8297L224.112 62.9977C223.608 61.9897 223.02 61.1497 222.432 60.2257L223.524 58.4617L221.34 56.1097L219.492 57.0337C218.652 56.3617 217.812 55.6897 216.888 55.1017L217.224 53.0857L214.284 51.7417L212.94 53.3377C211.932 53.0017 210.84 52.7497 209.748 52.5817L209.244 50.5657L206.052 50.4817L205.38 52.4137C204.288 52.4977 203.196 52.6657 202.188 52.9177L200.928 51.2377L197.904 52.3297L198.072 54.3457C197.064 54.8497 196.224 55.4377 195.3 56.0257L193.536 54.9337L191.184 57.1177L192.108 58.9657C191.436 59.8057 190.764 60.6457 190.26 61.5697L188.244 61.2337L186.9 64.1737L188.496 65.5177C188.16 66.5257 187.908 67.6177 187.74 68.7097L185.724 69.2137L185.64 72.4057L187.572 73.0777C187.656 74.1697 187.824 75.2617 188.076 76.2697L186.396 77.5297L187.488 80.5537L189.504 80.3857C190.008 81.3937 190.596 82.2337 191.184 83.1577L190.092 84.9217L192.276 87.2737L194.124 86.3497C194.964 87.0217 195.804 87.6937 196.728 88.2817L196.392 90.2977L199.332 91.6417L200.676 90.0457C201.684 90.3817 202.776 90.6337 203.868 90.8017L204.372 92.8177L207.564 92.9017L208.236 90.9697C209.328 90.8857 210.42 90.7177 211.428 90.4657L212.688 92.1457L215.712 91.0537L215.544 89.0377C216.552 88.5337 217.392 87.9457 218.316 87.3577L220.08 88.4497L222.432 86.2657L221.508 84.4177C222.18 83.5777 222.852 82.7377 223.356 81.8137L225.372 82.1497L226.716 79.2097L225.12 77.8657C225.456 76.8577 225.708 75.7657 225.876 74.6737L227.892 74.1697ZM206.388 84.5017C199.416 84.2497 193.956 78.4537 194.208 71.4817C194.46 64.5097 200.256 59.0497 207.228 59.3017C214.2 59.5537 219.66 65.3497 219.408 72.3217C219.24 79.2097 213.36 84.6697 206.388 84.5017Z" fill="#20A4F3"/>
<path opacity="0.3" d="M241.164 132.634L241.416 130.45L240.156 129.946C240.156 129.19 240.072 128.518 239.988 127.762L241.164 127.006L240.576 124.906H239.148C238.896 124.234 238.56 123.562 238.14 122.974L238.896 121.798L237.552 120.118L236.292 120.622C235.788 120.118 235.2 119.614 234.612 119.194L234.948 117.85L233.016 116.842L232.008 117.85C231.336 117.598 230.664 117.346 229.908 117.178L229.656 115.834L227.472 115.582L226.968 116.842C226.212 116.842 225.54 116.926 224.784 117.01L224.028 115.834L221.928 116.422V117.85C221.256 118.102 220.584 118.438 219.996 118.858L218.82 118.018L217.14 119.362L217.644 120.622C217.14 121.126 216.636 121.714 216.216 122.302L214.872 121.966L213.864 123.898L214.872 124.906C214.62 125.578 214.368 126.25 214.2 127.006L212.856 127.258L212.604 129.442L213.864 129.946C213.864 130.702 213.948 131.374 214.032 132.13L212.856 132.886L213.444 134.986H214.872C215.124 135.658 215.46 136.33 215.88 136.918L215.04 138.094L216.384 139.774L217.644 139.27C218.148 139.774 218.736 140.278 219.324 140.698L219.24 141.958L221.172 142.966L222.18 141.958C222.852 142.21 223.524 142.462 224.28 142.63L224.532 143.974L226.716 144.226L227.22 142.966C227.976 142.966 228.648 142.882 229.404 142.798L230.16 143.974L232.26 143.386V141.958C232.932 141.706 233.604 141.37 234.192 140.95L235.284 141.79L236.964 140.446L236.46 139.186C236.964 138.682 237.468 138.094 237.888 137.506L239.232 137.842L240.24 135.91L239.232 134.902C239.484 134.23 239.736 133.558 239.904 132.802L241.164 132.634ZM230.328 131.794C229.32 133.642 227.052 134.314 225.204 133.306C223.356 132.298 222.768 130.03 223.692 128.182C224.7 126.334 226.968 125.746 228.816 126.67C230.664 127.678 231.336 129.946 230.328 131.794Z" fill="#20A4F3"/>
<path d="M253.092 96.2621L250.572 94.4981C250.32 93.5741 249.984 92.7341 249.564 91.8941L250.236 89.3741L246.624 85.5101L244.104 86.0141C243.348 85.5101 242.424 85.1741 241.584 84.8381L239.988 82.2341L234.696 82.0661L232.932 84.5861C232.008 84.8381 231.168 85.1741 230.328 85.5941L227.808 84.9221L223.944 88.5341L224.448 91.0541C223.944 91.8941 223.608 92.7341 223.272 93.5741L220.668 95.0861L220.5 100.378L223.02 102.142C223.272 103.066 223.608 103.906 224.028 104.746L223.356 107.266L226.968 111.13L229.488 110.626C230.328 111.13 231.168 111.466 232.008 111.802L233.52 114.406L238.812 114.574L240.576 112.054C241.5 111.802 242.34 111.466 243.18 111.046L245.7 111.718L249.564 108.106L249.06 105.586C249.564 104.746 249.9 103.906 250.236 103.066L252.84 101.47L253.092 96.2621ZM236.544 104.41C233.268 104.326 230.664 101.554 230.748 98.1941C230.832 94.9181 233.604 92.3141 236.964 92.3981C240.24 92.4821 242.844 95.2541 242.76 98.6141C242.592 101.89 239.82 104.494 236.544 104.41Z" fill="#20A4F3"/>
<path d="M271.32 53.8424L271.74 52.7504C272.076 52.5824 272.328 52.4144 272.58 52.1624H273.588L274.764 50.4824L274.428 49.5584C274.512 49.2224 274.596 48.8864 274.68 48.5504L275.52 47.7944L275.184 45.8624L274.092 45.4424C273.924 45.1064 273.756 44.8544 273.504 44.6024V43.5944L271.824 42.4184L270.9 42.7544C270.564 42.6704 270.228 42.5864 269.892 42.5024L269.136 41.6624L267.204 41.9984L266.784 43.0904C266.448 43.2584 266.196 43.4264 265.86 43.6784H264.852L263.676 45.3584L264.012 46.2824C263.928 46.6184 263.844 46.9544 263.76 47.2904L262.92 48.0464L263.256 49.9784L264.348 50.3984C264.516 50.7344 264.684 50.9864 264.936 51.3224V52.3304L266.616 53.5064L267.54 53.1704C267.876 53.2544 268.212 53.3384 268.548 53.4224L269.304 54.2624L271.32 53.8424ZM267.12 48.3824C266.868 47.1224 267.708 46.0304 268.968 45.7784C270.228 45.5264 271.32 46.3664 271.572 47.6264C271.824 48.8864 270.984 49.9784 269.724 50.2304C268.464 50.4824 267.288 49.6424 267.12 48.3824Z" fill="#6438BC"/>
<path d="M248.304 48.2991L247.632 47.7951C248.724 46.4511 250.32 44.7711 252.672 43.5951L253.092 44.3511C250.572 45.6111 248.976 47.4591 248.304 48.2991Z" fill="#6438BC"/>
<path d="M255.024 43.5099L254.688 42.7539C257.88 41.4099 261.156 40.8219 264.516 41.1579L264.432 41.9979C261.24 41.6619 258.048 42.1659 255.024 43.5099Z" fill="#6438BC"/>
<path d="M253.428 49.3061L252.756 48.8021C254.52 46.2821 257.88 44.0981 261.072 43.4261L261.24 44.2661C258.216 44.8541 255.024 46.9541 253.428 49.3061Z" fill="#6438BC"/>
<path d="M197.652 130.199C197.568 130.199 197.4 130.115 197.316 130.031L195.552 128.183C194.628 128.099 193.788 127.931 192.948 127.679L190.176 128.855C190.008 128.939 189.924 128.939 189.756 128.855L185.136 125.831C185.052 125.747 184.968 125.579 184.968 125.495L185.052 122.471C184.464 121.799 183.96 121.043 183.54 120.203L181.188 119.279C181.02 119.195 180.936 119.111 180.936 118.943L179.844 113.567C179.844 113.399 179.844 113.315 179.928 113.147L181.776 111.383C181.86 110.459 182.028 109.619 182.28 108.779L181.104 106.007C181.02 105.839 181.02 105.755 181.104 105.587L184.128 100.967C184.212 100.883 184.296 100.799 184.464 100.799L187.488 100.883C188.16 100.295 188.916 99.7911 189.756 99.3711L190.68 97.0191C190.764 96.8511 190.848 96.7671 191.016 96.7671L196.392 95.6751C196.56 95.6751 196.644 95.6751 196.812 95.7591L198.576 97.6071C199.5 97.6911 200.34 97.8591 201.264 98.1111L204.036 96.9351C204.204 96.8511 204.288 96.8511 204.456 96.9351L209.076 99.9591C209.16 100.043 209.244 100.211 209.244 100.295L209.16 103.319C209.748 103.991 210.252 104.747 210.672 105.587L213.024 106.511C213.192 106.595 213.276 106.679 213.276 106.847L214.368 112.223C214.368 112.391 214.368 112.475 214.284 112.643L212.436 114.407C212.352 115.331 212.184 116.171 211.932 117.011L213.108 119.783C213.192 119.951 213.192 120.035 213.108 120.203L210.084 124.823C210 124.907 209.916 124.991 209.748 124.991L206.724 124.907C206.052 125.495 205.296 125.999 204.456 126.419L203.532 128.771C203.448 128.939 203.364 129.023 203.196 129.023L197.652 130.199C197.736 130.199 197.736 130.199 197.652 130.199ZM192.948 126.839H193.032C193.956 127.091 194.88 127.259 195.804 127.343C195.888 127.343 195.972 127.427 196.056 127.511L197.736 129.275L202.692 128.267L203.616 125.999C203.616 125.915 203.7 125.831 203.784 125.747C204.624 125.327 205.464 124.823 206.136 124.151C206.22 124.067 206.304 124.067 206.388 124.067L209.328 124.151L212.1 119.951L210.924 117.263C210.924 117.179 210.84 117.095 210.924 117.011C211.176 116.087 211.344 115.163 211.428 114.239C211.428 114.155 211.512 114.071 211.512 113.987L213.276 112.307L212.268 107.351L210 106.427C209.916 106.427 209.832 106.343 209.748 106.259C209.328 105.419 208.824 104.663 208.152 103.907C208.068 103.823 208.068 103.739 208.068 103.655L208.152 100.715L203.952 97.9431L201.264 99.1191C201.18 99.1191 201.096 99.2031 201.012 99.1191C200.088 98.8671 199.164 98.6991 198.24 98.6151C198.156 98.6151 198.072 98.5311 197.988 98.5311L196.308 96.7671L191.352 97.7751L190.428 100.043C190.428 100.127 190.344 100.211 190.26 100.295C189.42 100.715 188.664 101.219 187.908 101.891C187.824 101.975 187.74 101.975 187.656 101.975L184.716 101.891L181.944 106.091L183.12 108.779C183.204 108.863 183.204 109.031 183.12 109.115C182.868 109.955 182.7 110.879 182.616 111.803C182.616 111.887 182.532 111.971 182.532 112.055L180.768 113.735L181.776 118.691L184.044 119.615C184.128 119.615 184.212 119.699 184.296 119.867C184.716 120.707 185.22 121.463 185.808 122.219C185.892 122.303 185.892 122.387 185.892 122.471L185.808 125.411L190.008 128.183L192.696 127.007C192.864 126.839 192.864 126.839 192.948 126.839ZM197.064 124.151C194.964 124.151 192.78 123.563 190.932 122.303C188.412 120.623 186.732 118.103 186.144 115.163C185.556 112.223 186.144 109.283 187.74 106.763C191.184 101.639 198.156 100.211 203.28 103.571C208.404 107.015 209.832 113.903 206.388 119.111C204.288 122.387 200.676 124.151 197.064 124.151ZM188.496 107.267C186.984 109.535 186.396 112.307 186.984 115.079C187.572 117.767 189.084 120.119 191.436 121.631C196.224 124.823 202.608 123.479 205.8 118.691C208.992 113.903 207.648 107.519 202.86 104.327C198.072 101.135 191.604 102.479 188.496 107.267Z" fill="#20A4F3"/>
<path d="M357.672 148.344L344.484 146.58L353.22 81.2275L327.768 77.7835L266.028 134.568L262.752 158.844L315.924 165.984L313.236 185.891L338.688 189.336L341.376 169.428L354.564 171.191L357.672 148.344ZM290.976 139.356L323.568 109.704L319.116 143.136L290.976 139.356Z" fill="#6438BC"/>
<path d="M331.044 188.747C330.708 188.663 330.624 188.495 330.624 188.243L350.28 80.8069C350.28 80.5549 350.532 80.4709 350.784 80.4709C351.036 80.4709 351.204 80.7229 351.12 80.9749L331.548 188.411C331.464 188.663 331.296 188.747 331.044 188.747Z" fill="white"/>
<path d="M348.432 82.6552C348.432 83.0752 348.096 83.3272 347.76 83.3272C347.34 83.3272 347.088 82.9912 347.088 82.6552C347.088 82.3192 347.424 81.9832 347.76 81.9832C348.18 81.8992 348.432 82.2352 348.432 82.6552Z" fill="white"/>
<path d="M345.66 97.1879C345.66 97.6079 345.324 97.8599 344.988 97.8599C344.652 97.8599 344.316 97.5239 344.316 97.1879C344.316 96.8519 344.652 96.5158 344.988 96.5158C345.408 96.4318 345.66 96.7679 345.66 97.1879Z" fill="white"/>
<path d="M342.888 111.719C342.888 112.139 342.552 112.391 342.216 112.391C341.88 112.391 341.544 112.055 341.544 111.719C341.544 111.383 341.88 111.047 342.216 111.047C342.552 110.963 342.888 111.299 342.888 111.719Z" fill="white"/>
<path d="M337.344 126.839C337.344 127.259 337.008 127.511 336.672 127.511C336.252 127.511 336 127.175 336 126.839C336 126.503 336.336 126.167 336.672 126.167C337.008 126.167 337.344 126.419 337.344 126.839Z" fill="white"/>
<path d="M337.26 140.783C337.26 141.203 336.924 141.455 336.588 141.455C336.168 141.455 335.916 141.119 335.916 140.783C335.916 140.447 336.252 140.111 336.588 140.111C337.008 140.027 337.26 140.363 337.26 140.783Z" fill="white"/>
<path d="M334.488 155.315C334.488 155.735 334.152 155.987 333.816 155.987C333.48 155.987 333.144 155.651 333.144 155.315C333.144 154.895 333.48 154.643 333.816 154.643C334.152 154.643 334.488 154.895 334.488 155.315Z" fill="white"/>
<path d="M331.632 169.848C331.632 170.268 331.296 170.52 330.96 170.52C330.54 170.52 330.288 170.184 330.288 169.848C330.288 169.428 330.624 169.176 330.96 169.176C331.38 169.092 331.716 169.428 331.632 169.848Z" fill="white"/>
<path d="M328.86 184.379C328.86 184.799 328.524 185.051 328.188 185.051C327.852 185.051 327.516 184.715 327.516 184.379C327.516 184.043 327.852 183.707 328.188 183.707C328.524 183.707 328.86 183.959 328.86 184.379Z" fill="white"/>
<path d="M336.672 127.259C336.504 127.259 336.336 127.091 336.252 126.923C336.168 126.671 336.336 126.503 336.588 126.419L338.688 125.999C338.94 125.915 339.108 126.083 339.192 126.335C339.276 126.587 339.108 126.755 338.856 126.839L336.756 127.259H336.672Z" fill="white"/>
<path d="M343.644 119.447C343.644 119.447 341.796 124.319 341.124 127.343C340.452 130.283 340.452 136.919 340.452 136.919" fill="white"/>
<path d="M340.452 137.339C340.2 137.339 340.032 137.171 340.032 136.919C340.032 136.667 340.116 130.199 340.704 127.259C341.376 124.319 343.14 119.531 343.224 119.363C343.308 119.111 343.56 119.027 343.728 119.111C343.98 119.195 344.064 119.447 343.98 119.615C343.98 119.699 342.132 124.487 341.46 127.427C340.872 130.283 340.788 136.835 340.788 136.919C340.872 137.171 340.704 137.339 340.452 137.339Z" fill="white"/>
<path d="M186.9 209.832C188.076 191.016 185.892 156.828 221.256 161.364C259.14 166.236 248.304 210.588 248.304 210.588L186.9 209.832Z" fill="#00B4D8"/>
<path d="M211.26 198.576C219.796 198.576 226.716 191.656 226.716 183.12C226.716 174.583 219.796 167.664 211.26 167.664C202.724 167.664 195.804 174.583 195.804 183.12C195.804 191.656 202.724 198.576 211.26 198.576Z" fill="white"/>
<path d="M213.276 167.747C205.968 166.487 198.156 171.863 197.4 177.323L226.38 180.011C225.372 173.711 219.072 168.671 213.276 167.747Z" fill="#6438BC"/>
<path d="M213.276 167.747C205.968 166.487 198.156 171.863 197.4 177.323L226.38 180.011C225.372 173.711 219.072 168.671 213.276 167.747Z" fill="black" fill-opacity="0.3"/>
<path d="M223.104 182.7C222.936 186.732 220.668 189.924 218.232 189.756C215.796 189.588 213.864 186.228 214.032 182.196C214.2 178.164 216.468 174.972 218.904 175.14C221.424 175.308 223.272 178.668 223.104 182.7Z" fill="#6438BC"/>
<path d="M223.104 182.7C222.936 186.732 220.668 189.924 218.232 189.756C215.796 189.588 213.864 186.228 214.032 182.196C214.2 178.164 216.468 174.972 218.904 175.14C221.424 175.308 223.272 178.668 223.104 182.7Z" fill="black" fill-opacity="0.3"/>
<path d="M211.26 199.416C202.272 199.416 194.964 192.108 194.964 183.12C194.964 174.132 202.272 166.824 211.26 166.824C220.248 166.824 227.556 174.132 227.556 183.12C227.556 192.108 220.248 199.416 211.26 199.416ZM211.26 168.504C203.196 168.504 196.644 175.056 196.644 183.12C196.644 191.184 203.196 197.736 211.26 197.736C219.324 197.736 225.876 191.184 225.876 183.12C225.876 175.056 219.324 168.504 211.26 168.504Z" fill="#6438BC"/>
<path opacity="0.3" d="M244.02 209.412H243.936C243.684 209.328 243.6 209.16 243.6 208.908C243.6 208.824 246.288 197.4 243.516 185.892C243.432 185.64 243.6 185.472 243.852 185.388C244.104 185.304 244.272 185.472 244.356 185.724C247.212 197.484 244.44 208.992 244.44 209.16C244.356 209.244 244.188 209.412 244.02 209.412Z" fill="white"/>
<path opacity="0.3" d="M241.668 179.592C241.5 179.592 241.332 179.508 241.248 179.34C240.156 176.988 238.812 174.804 237.3 172.872C237.132 172.704 237.216 172.452 237.384 172.284C237.552 172.116 237.804 172.2 237.972 172.368C239.568 174.3 240.996 176.568 242.088 179.004C242.172 179.256 242.088 179.424 241.92 179.592C241.752 179.508 241.752 179.592 241.668 179.592Z" fill="white"/>
<path d="M108.108 298.117C108.024 298.117 107.94 298.117 107.772 298.117C105.42 298.033 103.656 296.101 103.656 293.833C103.74 291.481 105.588 289.717 107.94 289.717H108.024C110.46 289.717 116.256 286.777 128.52 267.541C129.192 266.533 130.284 265.777 131.46 265.609C132.636 265.441 133.896 265.777 134.82 266.617C149.856 279.721 165.9 287.953 165.984 288.037C168.084 289.045 168.84 291.649 167.832 293.665C166.824 295.765 164.22 296.521 162.204 295.513C161.532 295.177 147.588 288.037 132.972 276.109C122.892 291.481 115.248 298.117 108.108 298.117Z" fill="#6438BC"/>
<path d="M108.108 298.117C108.024 298.117 107.94 298.117 107.772 298.117C105.42 298.033 103.656 296.101 103.656 293.833C103.74 291.481 105.588 289.717 107.94 289.717H108.024C110.46 289.717 116.256 286.777 128.52 267.541C129.192 266.533 130.284 265.777 131.46 265.609C132.636 265.441 133.896 265.777 134.82 266.617C149.856 279.721 165.9 287.953 165.984 288.037C168.084 289.045 168.84 291.649 167.832 293.665C166.824 295.765 164.22 296.521 162.204 295.513C161.532 295.177 147.588 288.037 132.972 276.109C122.892 291.481 115.248 298.117 108.108 298.117Z" fill="black" fill-opacity="0.3"/>
<path d="M134.148 265.859C134.064 265.859 133.896 265.859 133.812 265.859C132.468 265.691 131.46 264.347 131.712 263.003C132.3 258.803 131.544 243.179 126.252 230.999C125.748 229.907 126.168 228.563 127.176 227.891C138.684 220.079 163.212 219.071 164.22 219.071C165.564 219.071 166.74 220.079 166.824 221.507C166.908 222.935 165.816 224.027 164.388 224.111C164.136 224.111 142.716 224.951 131.712 230.999C136.416 243.095 137.424 258.215 136.668 263.675C136.416 264.935 135.324 265.859 134.148 265.859Z" fill="#6438BC"/>
<path d="M134.148 265.859C134.064 265.859 133.896 265.859 133.812 265.859C132.468 265.691 131.46 264.347 131.712 263.003C132.3 258.803 131.544 243.179 126.252 230.999C125.748 229.907 126.168 228.563 127.176 227.891C138.684 220.079 163.212 219.071 164.22 219.071C165.564 219.071 166.74 220.079 166.824 221.507C166.908 222.935 165.816 224.027 164.388 224.111C164.136 224.111 142.716 224.951 131.712 230.999C136.416 243.095 137.424 258.215 136.668 263.675C136.416 264.935 135.324 265.859 134.148 265.859Z" fill="black" fill-opacity="0.3"/>
<path d="M138.348 262.584C136.668 258.636 129.108 259.056 124.656 262.5C122.304 264.348 119.112 269.724 118.776 271.74C118.44 273.756 119.784 275.52 122.136 275.268C124.992 275.016 129.024 270.816 129.024 270.816C126.42 273.42 129.78 275.268 134.904 271.488C137.676 269.388 140.196 267.036 138.348 262.584Z" fill="#6438BC"/>
<path d="M282.828 211.008H282.744C282.492 210.924 282.408 210.672 282.492 210.504C283.584 206.64 284.844 204.204 286.44 202.86C286.188 202.02 286.188 201.096 286.608 200.088C286.944 199.164 287.616 198.24 288.624 197.568C288.12 197.064 287.952 196.392 288.12 195.552C288.288 194.712 288.96 193.704 289.884 192.864C289.464 192.444 289.38 191.94 289.38 191.604C289.38 189.084 294 185.304 299.292 184.548C299.544 184.464 299.712 184.716 299.796 184.884C299.796 185.136 299.628 185.304 299.46 185.388C294.504 186.06 290.304 189.672 290.304 191.604C290.304 191.94 290.388 192.192 290.64 192.36C292.572 191.016 295.344 190.176 298.452 190.764C301.056 191.268 302.064 191.772 301.98 192.612C301.728 194.124 296.268 194.376 292.572 193.956C291.732 193.872 291.144 193.62 290.724 193.452C289.8 194.208 289.212 195.048 289.044 195.72C288.876 196.308 289.128 196.812 289.464 197.064C291.06 196.224 293.244 195.888 296.1 196.56C299.88 197.4 300.048 197.904 300.132 198.156C300.216 198.324 300.132 198.576 299.964 198.744C299.124 199.584 293.328 199.164 290.388 198.492C289.968 198.408 289.632 198.24 289.38 198.072C288.372 198.66 287.784 199.5 287.448 200.34C287.196 201.012 287.112 201.684 287.28 202.272C287.448 202.188 287.616 202.104 287.784 202.02C289.548 201.18 291.648 201.348 294.252 202.44C295.932 203.196 296.772 203.868 296.856 204.456C296.856 204.624 296.856 205.044 296.352 205.296C295.092 206.136 290.556 206.052 288.288 204.792C287.7 204.54 287.28 204.036 287.028 203.532C285.684 204.792 284.508 207.06 283.5 210.588C283.164 210.84 282.996 211.008 282.828 211.008ZM287.364 203.112C287.616 203.532 287.952 203.868 288.372 204.12C290.304 205.128 294 205.38 295.428 204.792C295.68 204.708 295.764 204.54 295.764 204.54C295.764 204.54 295.68 204.036 293.664 203.196C291.312 202.188 289.464 202.02 287.952 202.776C287.784 202.944 287.532 203.028 287.364 203.112ZM290.22 197.652C290.304 197.652 290.388 197.652 290.472 197.736C293.412 198.492 297.444 198.576 298.788 198.324C298.368 198.156 297.528 197.82 295.764 197.484C293.328 196.896 291.564 197.064 290.22 197.652ZM291.228 192.864C291.648 193.032 292.068 193.116 292.404 193.116C296.604 193.62 300.3 193.032 300.804 192.528C300.636 192.36 300.132 192.024 298.032 191.604C295.344 191.184 292.908 191.856 291.228 192.864Z" fill="#6438BC"/>
<path d="M282.828 211.008H282.744C282.492 210.924 282.408 210.672 282.492 210.504C283.584 206.64 284.844 204.204 286.44 202.86C286.188 202.02 286.188 201.096 286.608 200.088C286.944 199.164 287.616 198.24 288.624 197.568C288.12 197.064 287.952 196.392 288.12 195.552C288.288 194.712 288.96 193.704 289.884 192.864C289.464 192.444 289.38 191.94 289.38 191.604C289.38 189.084 294 185.304 299.292 184.548C299.544 184.464 299.712 184.716 299.796 184.884C299.796 185.136 299.628 185.304 299.46 185.388C294.504 186.06 290.304 189.672 290.304 191.604C290.304 191.94 290.388 192.192 290.64 192.36C292.572 191.016 295.344 190.176 298.452 190.764C301.056 191.268 302.064 191.772 301.98 192.612C301.728 194.124 296.268 194.376 292.572 193.956C291.732 193.872 291.144 193.62 290.724 193.452C289.8 194.208 289.212 195.048 289.044 195.72C288.876 196.308 289.128 196.812 289.464 197.064C291.06 196.224 293.244 195.888 296.1 196.56C299.88 197.4 300.048 197.904 300.132 198.156C300.216 198.324 300.132 198.576 299.964 198.744C299.124 199.584 293.328 199.164 290.388 198.492C289.968 198.408 289.632 198.24 289.38 198.072C288.372 198.66 287.784 199.5 287.448 200.34C287.196 201.012 287.112 201.684 287.28 202.272C287.448 202.188 287.616 202.104 287.784 202.02C289.548 201.18 291.648 201.348 294.252 202.44C295.932 203.196 296.772 203.868 296.856 204.456C296.856 204.624 296.856 205.044 296.352 205.296C295.092 206.136 290.556 206.052 288.288 204.792C287.7 204.54 287.28 204.036 287.028 203.532C285.684 204.792 284.508 207.06 283.5 210.588C283.164 210.84 282.996 211.008 282.828 211.008ZM287.364 203.112C287.616 203.532 287.952 203.868 288.372 204.12C290.304 205.128 294 205.38 295.428 204.792C295.68 204.708 295.764 204.54 295.764 204.54C295.764 204.54 295.68 204.036 293.664 203.196C291.312 202.188 289.464 202.02 287.952 202.776C287.784 202.944 287.532 203.028 287.364 203.112ZM290.22 197.652C290.304 197.652 290.388 197.652 290.472 197.736C293.412 198.492 297.444 198.576 298.788 198.324C298.368 198.156 297.528 197.82 295.764 197.484C293.328 196.896 291.564 197.064 290.22 197.652ZM291.228 192.864C291.648 193.032 292.068 193.116 292.404 193.116C296.604 193.62 300.3 193.032 300.804 192.528C300.636 192.36 300.132 192.024 298.032 191.604C295.344 191.184 292.908 191.856 291.228 192.864Z" fill="black" fill-opacity="0.3"/>
<path d="M173.46 296.687C174.048 296.519 173.796 296.015 173.208 296.015H161.868C140.196 293.747 125.076 296.771 134.652 297.527C144.228 298.283 133.98 298.115 127.008 300.719C120.036 303.323 178.836 303.995 184.128 300.719C189 297.695 165.816 299.207 173.46 296.687Z" fill="#6438BC"/>
<path d="M173.46 296.687C174.048 296.519 173.796 296.015 173.208 296.015H161.868C140.196 293.747 125.076 296.771 134.652 297.527C144.228 298.283 133.98 298.115 127.008 300.719C120.036 303.323 178.836 303.995 184.128 300.719C189 297.695 165.816 299.207 173.46 296.687Z" fill="black" fill-opacity="0.3"/>
<path d="M254.94 300.048L155.988 296.772L151.872 200.844L268.716 203.448L254.94 300.048Z" fill="#6438BC"/>
<path d="M186.9 298.285C186.648 298.285 186.48 298.117 186.48 297.865L178.584 201.517C178.584 201.265 178.752 201.097 179.004 201.097C179.256 201.097 179.424 201.265 179.424 201.517L187.32 297.865C187.32 298.033 187.152 298.201 186.9 298.285Z" fill="#6438BC"/>
<path d="M186.9 298.285C186.648 298.285 186.48 298.117 186.48 297.865L178.584 201.517C178.584 201.265 178.752 201.097 179.004 201.097C179.256 201.097 179.424 201.265 179.424 201.517L187.32 297.865C187.32 298.033 187.152 298.201 186.9 298.285Z" fill="black" fill-opacity="0.3"/>
<path d="M254.94 300.048L281.484 296.016L289.884 206.808L268.716 203.448L254.94 300.048Z" fill="#6438BC"/>
<path opacity="0.2" d="M254.94 300.048L281.484 296.016L289.884 206.808L268.716 203.448L254.94 300.048Z" fill="#03060B"/>
<path d="M164.388 278.291L161.952 221.255C161.7 215.291 166.488 210.42 172.452 210.504L246.456 212.184C252.672 212.352 257.292 217.812 256.452 223.944L248.22 281.399C247.464 286.607 242.928 290.388 237.636 290.22L174.3 288.119C169.008 287.951 164.64 283.667 164.388 278.291Z" fill="white"/>
<path d="M172.368 228.06L183.792 228.396L183.708 231.336L176.568 231.084L176.484 233.268L183.12 233.52L183.036 236.376L176.4 236.124L176.316 238.812L183.708 239.064L183.624 242.172L171.948 241.836L172.368 228.06Z" fill="#20A4F3"/>
<path d="M185.976 242.34L186.396 228.48L193.536 228.732C194.88 228.732 195.888 228.9 196.56 229.152C197.232 229.404 197.82 229.824 198.24 230.496C198.66 231.084 198.828 231.84 198.828 232.764C198.828 233.52 198.66 234.192 198.24 234.696C197.904 235.2 197.4 235.704 196.812 236.04C196.476 236.208 195.972 236.376 195.3 236.544C195.804 236.712 196.14 236.88 196.392 237.048C196.56 237.132 196.728 237.384 197.064 237.804C197.316 238.224 197.568 238.476 197.652 238.644L199.584 242.676L194.796 242.508L192.612 238.224C192.36 237.636 192.108 237.3 191.856 237.132C191.52 236.88 191.184 236.796 190.848 236.796H190.512L190.344 242.424L185.976 242.34ZM190.512 234.192L192.276 234.276C192.444 234.276 192.864 234.192 193.452 234.108C193.704 234.024 193.956 233.94 194.124 233.688C194.292 233.436 194.376 233.184 194.46 232.932C194.46 232.512 194.376 232.176 194.04 231.924C193.788 231.672 193.2 231.504 192.444 231.504L190.596 231.42L190.512 234.192Z" fill="#20A4F3"/>
<path d="M201.012 242.76L201.432 228.9L208.572 229.152C209.916 229.152 210.924 229.32 211.596 229.572C212.268 229.824 212.856 230.244 213.276 230.916C213.696 231.504 213.864 232.26 213.864 233.184C213.864 233.94 213.696 234.612 213.276 235.116C212.94 235.62 212.436 236.124 211.848 236.46C211.512 236.628 211.008 236.796 210.336 236.964C210.84 237.132 211.176 237.3 211.428 237.468C211.596 237.552 211.764 237.804 212.1 238.224C212.352 238.644 212.604 238.896 212.688 239.064L214.62 243.096L209.832 242.928L207.648 238.644C207.396 238.056 207.144 237.72 206.892 237.552C206.556 237.3 206.22 237.216 205.884 237.216H205.548L205.38 242.844L201.012 242.76ZM205.548 234.696L207.312 234.78C207.48 234.78 207.9 234.696 208.488 234.612C208.74 234.528 208.992 234.444 209.16 234.192C209.328 233.94 209.412 233.688 209.496 233.436C209.496 233.016 209.412 232.68 209.076 232.428C208.824 232.176 208.236 232.008 207.48 232.008L205.632 231.924L205.548 234.696Z" fill="#20A4F3"/>
<path d="M215.292 236.377C215.376 234.109 216.048 232.345 217.308 231.169C218.568 229.993 220.416 229.405 222.6 229.489C224.868 229.573 226.632 230.245 227.892 231.505C229.068 232.765 229.656 234.529 229.572 236.713C229.488 238.309 229.236 239.653 228.648 240.661C228.06 241.669 227.22 242.425 226.212 243.013C225.204 243.517 223.86 243.769 222.348 243.769C220.752 243.685 219.492 243.433 218.484 242.929C217.476 242.425 216.636 241.585 216.048 240.493C215.544 239.317 215.292 237.973 215.292 236.377ZM219.576 236.461C219.492 237.889 219.744 238.897 220.248 239.485C220.752 240.073 221.424 240.409 222.348 240.493C223.272 240.493 223.944 240.241 224.532 239.653C225.036 239.065 225.372 237.973 225.372 236.461C225.372 235.201 225.204 234.193 224.7 233.605C224.196 233.017 223.524 232.681 222.6 232.597C221.76 232.597 221.004 232.849 220.5 233.437C219.912 234.109 219.66 235.117 219.576 236.461Z" fill="#20A4F3"/>
<path d="M231.756 243.767L232.176 229.907L239.316 230.159C240.66 230.243 241.668 230.327 242.34 230.579C243.012 230.831 243.6 231.251 244.02 231.923C244.44 232.511 244.608 233.267 244.608 234.191C244.608 234.947 244.44 235.619 244.02 236.123C243.684 236.627 243.18 237.131 242.592 237.467C242.256 237.635 241.752 237.803 241.08 237.971C241.584 238.139 241.92 238.307 242.172 238.475C242.34 238.559 242.508 238.811 242.844 239.231C243.096 239.651 243.348 239.903 243.432 240.071L245.364 244.103L240.576 243.935L238.392 239.651C238.14 239.063 237.888 238.727 237.636 238.559C237.3 238.307 236.964 238.223 236.628 238.223H236.292L236.124 243.851L231.756 243.767ZM236.292 235.703L238.056 235.787C238.224 235.787 238.644 235.703 239.232 235.619C239.484 235.535 239.736 235.451 239.904 235.199C240.072 234.947 240.156 234.695 240.24 234.443C240.24 234.023 240.156 233.687 239.82 233.435C239.568 233.183 238.98 233.015 238.224 233.015L236.376 232.931L236.292 235.703Z" fill="#20A4F3"/>
<path d="M238.56 267.288C238.224 267.288 237.972 267.204 237.72 266.952L230.496 259.056L222.768 266.112C222.348 266.532 221.592 266.532 221.172 266.028L213.948 258.132L206.22 265.188C205.8 265.608 205.044 265.608 204.624 265.104L197.4 257.208L189.672 264.264C189.42 264.432 189.168 264.6 188.916 264.516C188.664 264.516 188.328 264.348 188.16 264.18L180.936 256.284L173.208 263.34C172.788 263.76 172.032 263.76 171.612 263.256C171.192 262.836 171.192 262.08 171.696 261.66L180.264 253.848C180.684 253.428 181.44 253.428 181.86 253.932L189.084 261.828L196.812 254.772C197.064 254.604 197.316 254.436 197.568 254.52C197.82 254.52 198.156 254.688 198.324 254.856L205.548 262.752L213.276 255.696C213.696 255.276 214.452 255.276 214.872 255.78L222.096 263.676L229.824 256.62C230.244 256.2 231 256.2 231.42 256.704L239.4 265.44C239.82 265.86 239.82 266.616 239.316 267.036C239.064 267.12 238.812 267.288 238.56 267.288Z" fill="#20A4F3"/>
<path d="M105.672 302.147L100.38 299.627L95.6758 276.779L98.1958 274.007L105.672 302.147Z" fill="#6438BC"/>
<path d="M105.672 302.147L112.644 298.031L106.596 279.215L98.1958 274.007L105.672 302.147Z" fill="#6438BC"/>
<path opacity="0.2" d="M105.672 302.147L112.644 298.031L106.596 279.215L98.1958 274.007L105.672 302.147Z" fill="#03060B"/>
<path d="M219.996 306.265C219.828 306.265 219.576 306.265 219.408 306.265C217.056 306.181 215.292 304.249 215.292 301.981C215.376 299.629 217.308 297.865 219.576 297.865C226.044 298.117 239.736 294.085 247.548 286.525C248.052 286.021 248.64 285.685 249.228 285.517C262.5 281.569 267.456 289.549 267.624 289.885L260.4 294.169C260.4 294.169 260.4 294.253 260.484 294.337C260.4 294.253 258.552 291.817 252.504 293.329C242.928 302.233 227.808 306.265 219.996 306.265Z" fill="#6438BC"/>
<path d="M219.996 306.265C219.828 306.265 219.576 306.265 219.408 306.265C217.056 306.181 215.292 304.249 215.292 301.981C215.376 299.629 217.308 297.865 219.576 297.865C226.044 298.117 239.736 294.085 247.548 286.525C248.052 286.021 248.64 285.685 249.228 285.517C262.5 281.569 267.456 289.549 267.624 289.885L260.4 294.169C260.4 294.169 260.4 294.253 260.484 294.337C260.4 294.253 258.552 291.817 252.504 293.329C242.928 302.233 227.808 306.265 219.996 306.265Z" fill="black" fill-opacity="0.3"/>
<path d="M219.576 311.892L204.288 310.884L203.028 282.66L223.608 283.416L219.576 311.892Z" fill="#6438BC"/>
<path d="M219.576 311.893L223.188 308.281L225.372 290.725L223.608 283.417L219.576 311.893Z" fill="#6438BC"/>
<path opacity="0.2" d="M219.576 311.893L223.188 308.281L225.372 290.725L223.608 283.417L219.576 311.893Z" fill="#03060B"/>
<path d="M308.196 301.14C307.692 301.14 307.104 300.972 306.684 300.636C297.948 294 286.188 282.24 281.652 270.816C281.568 270.648 281.568 270.48 281.484 270.312C279.3 257.208 277.2 229.572 277.116 228.396C277.032 226.968 278.04 225.792 279.468 225.708C280.812 225.624 282.072 226.632 282.156 228.06C282.156 228.312 284.34 256.284 286.44 269.304C290.976 280.392 303.24 291.732 309.792 296.688C310.884 297.528 311.136 299.124 310.296 300.216C309.708 300.804 308.952 301.14 308.196 301.14Z" fill="#6438BC"/>
<path d="M308.196 301.14C307.692 301.14 307.104 300.972 306.684 300.636C297.948 294 286.188 282.24 281.652 270.816C281.568 270.648 281.568 270.48 281.484 270.312C279.3 257.208 277.2 229.572 277.116 228.396C277.032 226.968 278.04 225.792 279.468 225.708C280.812 225.624 282.072 226.632 282.156 228.06C282.156 228.312 284.34 256.284 286.44 269.304C290.976 280.392 303.24 291.732 309.792 296.688C310.884 297.528 311.136 299.124 310.296 300.216C309.708 300.804 308.952 301.14 308.196 301.14Z" fill="black" fill-opacity="0.3"/>
<path d="M319.872 302.484C317.94 302.484 315.756 301.56 313.32 299.88C312.228 299.04 311.976 297.528 312.732 296.352C313.572 295.26 315.084 295.008 316.26 295.764C318.36 297.276 319.452 297.444 319.872 297.444C321.3 297.444 322.392 298.536 322.392 299.964C322.392 301.308 321.216 302.484 319.872 302.484Z" fill="#6438BC"/>
<path d="M319.872 302.484C317.94 302.484 315.756 301.56 313.32 299.88C312.228 299.04 311.976 297.528 312.732 296.352C313.572 295.26 315.084 295.008 316.26 295.764C318.36 297.276 319.452 297.444 319.872 297.444C321.3 297.444 322.392 298.536 322.392 299.964C322.392 301.308 321.216 302.484 319.872 302.484Z" fill="black" fill-opacity="0.3"/>
<path d="M313.992 299.713C316.68 291.733 327.768 293.245 331.548 294.505C335.328 295.681 338.772 297.193 340.872 298.537C342.972 299.881 342.972 302.149 340.2 303.409C336.84 305.005 328.272 303.577 328.272 303.577C332.64 305.509 328.272 308.617 320.544 305.593C318.024 304.585 313.068 302.653 313.992 299.713Z" fill="#6438BC"/>
<path d="M287.196 231.841C286.188 238.645 280.56 243.685 275.94 243.013C271.32 242.341 271.152 236.293 272.16 229.489C273.168 222.685 274.932 217.729 279.552 218.401C284.172 219.073 288.204 225.037 287.196 231.841Z" fill="#6438BC"/>
<path d="M287.196 231.841C286.188 238.645 280.56 243.685 275.94 243.013C271.32 242.341 271.152 236.293 272.16 229.489C273.168 222.685 274.932 217.729 279.552 218.401C284.172 219.073 288.204 225.037 287.196 231.841Z" fill="black" fill-opacity="0.3"/>
<path d="M176.316 204.708C176.687 204.708 176.988 204.407 176.988 204.036C176.988 203.665 176.687 203.364 176.316 203.364C175.945 203.364 175.644 203.665 175.644 204.036C175.644 204.407 175.945 204.708 176.316 204.708Z" fill="#6438BC"/>
<path d="M176.316 204.708C176.687 204.708 176.988 204.407 176.988 204.036C176.988 203.665 176.687 203.364 176.316 203.364C175.945 203.364 175.644 203.665 175.644 204.036C175.644 204.407 175.945 204.708 176.316 204.708Z" fill="black" fill-opacity="0.3"/>
<path d="M183.288 208.992C183.288 209.412 182.952 209.664 182.616 209.664C182.28 209.664 181.944 209.328 181.944 208.992C181.944 208.572 182.28 208.32 182.616 208.32C182.952 208.32 183.288 208.572 183.288 208.992Z" fill="#6438BC"/>
<path d="M183.288 208.992C183.288 209.412 182.952 209.664 182.616 209.664C182.28 209.664 181.944 209.328 181.944 208.992C181.944 208.572 182.28 208.32 182.616 208.32C182.952 208.32 183.288 208.572 183.288 208.992Z" fill="black" fill-opacity="0.3"/>
<path d="M184.044 290.389C184.044 290.809 183.708 291.061 183.372 291.061C182.952 291.061 182.7 290.725 182.7 290.389C182.7 289.969 183.036 289.717 183.372 289.717C183.792 289.717 184.044 289.969 184.044 290.389Z" fill="#6438BC"/>
<path d="M184.044 290.389C184.044 290.809 183.708 291.061 183.372 291.061C182.952 291.061 182.7 290.725 182.7 290.389C182.7 289.969 183.036 289.717 183.372 289.717C183.792 289.717 184.044 289.969 184.044 290.389Z" fill="black" fill-opacity="0.3"/>
<path d="M190.344 295.343C190.344 295.763 190.008 296.015 189.672 296.015C189.252 296.015 189 295.679 189 295.343C189 294.923 189.336 294.671 189.672 294.671C190.092 294.671 190.344 294.923 190.344 295.343Z" fill="#6438BC"/>
<path d="M190.344 295.343C190.344 295.763 190.008 296.015 189.672 296.015C189.252 296.015 189 295.679 189 295.343C189 294.923 189.336 294.671 189.672 294.671C190.092 294.671 190.344 294.923 190.344 295.343Z" fill="black" fill-opacity="0.3"/>
<path d="M69.3002 303.576C67.2842 303.576 64.5962 302.4 63.1682 300.3C63.0002 300.132 63.0842 299.88 63.2522 299.712C63.4202 299.544 63.6722 299.628 63.8402 299.796C65.4362 302.064 68.8802 303.24 70.3922 302.568C70.5602 302.484 70.6442 302.4 70.8122 302.316C69.4682 301.644 68.2082 300.468 67.8722 298.536C67.7042 297.444 67.5362 296.016 68.3762 295.848C69.5522 295.596 71.1482 298.452 71.7362 300.72C71.8202 301.14 71.9042 301.476 71.8202 301.812C72.3242 301.98 72.9122 301.98 73.3322 301.896C73.6682 301.812 74.1722 301.728 74.5082 301.308C73.5002 300.636 72.8282 299.376 72.5762 297.78C72.2402 295.512 72.4922 295.092 72.7442 294.924C72.9122 294.756 73.0802 294.756 73.3322 294.84C74.2562 295.26 75.3482 298.452 75.5162 300.3C75.5162 300.468 75.5162 300.72 75.5162 300.888C75.8522 301.056 76.2722 301.14 76.6082 301.14C77.3642 301.14 78.0362 300.972 78.6242 300.636C78.5402 300.552 78.3722 300.468 78.2882 300.384C77.4482 299.628 77.0282 298.452 77.1962 296.772C77.2802 295.428 77.6162 294.756 78.1202 294.504C78.2882 294.42 78.7082 294.336 79.1282 294.672C80.0522 295.428 80.8922 297.696 80.5562 299.376C80.4722 299.712 80.3882 300.048 80.1362 300.384C81.6482 300.636 83.8322 300.216 85.6802 299.796C85.9322 299.712 86.1002 299.88 86.1842 300.132C86.2682 300.384 86.1002 300.552 85.8482 300.636C83.5802 301.224 81.1442 301.644 79.3802 301.14C78.6242 301.728 77.5322 302.148 76.4402 302.148C75.9362 302.148 75.5162 302.064 75.0962 301.896C74.7602 302.484 74.1722 302.82 73.3322 302.988C72.7442 303.072 72.1562 302.988 71.4842 302.82C71.3162 303.156 70.9802 303.408 70.6442 303.576C70.3082 303.492 69.8882 303.576 69.3002 303.576ZM68.5442 296.604C68.4602 296.772 68.3762 297.192 68.6282 298.284C68.8802 299.796 69.8882 300.888 70.9802 301.392C70.9802 301.224 70.9802 301.056 70.8962 300.804C70.3082 298.452 69.0482 296.856 68.5442 296.604ZM73.2482 295.932C73.2482 296.268 73.2482 296.772 73.4162 297.696C73.5842 298.872 74.0042 299.796 74.6762 300.384C74.5082 298.62 73.7522 296.688 73.2482 295.932ZM78.5402 295.176C78.5402 295.176 78.2042 295.344 78.1202 296.772C78.0362 298.2 78.2882 299.124 78.8762 299.712C79.0442 299.88 79.2122 299.964 79.3802 300.048C79.6322 299.796 79.8002 299.46 79.8002 299.208C80.0522 298.032 79.4642 296.184 78.7922 295.512C78.7082 295.176 78.5402 295.176 78.5402 295.176Z" fill="#6438BC"/>
<path d="M69.3002 303.576C67.2842 303.576 64.5962 302.4 63.1682 300.3C63.0002 300.132 63.0842 299.88 63.2522 299.712C63.4202 299.544 63.6722 299.628 63.8402 299.796C65.4362 302.064 68.8802 303.24 70.3922 302.568C70.5602 302.484 70.6442 302.4 70.8122 302.316C69.4682 301.644 68.2082 300.468 67.8722 298.536C67.7042 297.444 67.5362 296.016 68.3762 295.848C69.5522 295.596 71.1482 298.452 71.7362 300.72C71.8202 301.14 71.9042 301.476 71.8202 301.812C72.3242 301.98 72.9122 301.98 73.3322 301.896C73.6682 301.812 74.1722 301.728 74.5082 301.308C73.5002 300.636 72.8282 299.376 72.5762 297.78C72.2402 295.512 72.4922 295.092 72.7442 294.924C72.9122 294.756 73.0802 294.756 73.3322 294.84C74.2562 295.26 75.3482 298.452 75.5162 300.3C75.5162 300.468 75.5162 300.72 75.5162 300.888C75.8522 301.056 76.2722 301.14 76.6082 301.14C77.3642 301.14 78.0362 300.972 78.6242 300.636C78.5402 300.552 78.3722 300.468 78.2882 300.384C77.4482 299.628 77.0282 298.452 77.1962 296.772C77.2802 295.428 77.6162 294.756 78.1202 294.504C78.2882 294.42 78.7082 294.336 79.1282 294.672C80.0522 295.428 80.8922 297.696 80.5562 299.376C80.4722 299.712 80.3882 300.048 80.1362 300.384C81.6482 300.636 83.8322 300.216 85.6802 299.796C85.9322 299.712 86.1002 299.88 86.1842 300.132C86.2682 300.384 86.1002 300.552 85.8482 300.636C83.5802 301.224 81.1442 301.644 79.3802 301.14C78.6242 301.728 77.5322 302.148 76.4402 302.148C75.9362 302.148 75.5162 302.064 75.0962 301.896C74.7602 302.484 74.1722 302.82 73.3322 302.988C72.7442 303.072 72.1562 302.988 71.4842 302.82C71.3162 303.156 70.9802 303.408 70.6442 303.576C70.3082 303.492 69.8882 303.576 69.3002 303.576ZM68.5442 296.604C68.4602 296.772 68.3762 297.192 68.6282 298.284C68.8802 299.796 69.8882 300.888 70.9802 301.392C70.9802 301.224 70.9802 301.056 70.8962 300.804C70.3082 298.452 69.0482 296.856 68.5442 296.604ZM73.2482 295.932C73.2482 296.268 73.2482 296.772 73.4162 297.696C73.5842 298.872 74.0042 299.796 74.6762 300.384C74.5082 298.62 73.7522 296.688 73.2482 295.932ZM78.5402 295.176C78.5402 295.176 78.2042 295.344 78.1202 296.772C78.0362 298.2 78.2882 299.124 78.8762 299.712C79.0442 299.88 79.2122 299.964 79.3802 300.048C79.6322 299.796 79.8002 299.46 79.8002 299.208C80.0522 298.032 79.4642 296.184 78.7922 295.512C78.7082 295.176 78.5402 295.176 78.5402 295.176Z" fill="black" fill-opacity="0.3"/>
<path d="M192.276 309.959L194.544 306.011L192.276 302.063H189.84L191.184 306.011L189.84 309.959H192.276Z" fill="#6438BC"/>
<path d="M192.276 309.959L194.544 306.011L192.276 302.063H189.84L191.184 306.011L189.84 309.959H192.276Z" fill="black" fill-opacity="0.3"/>
<path d="M190.008 308.028C188.916 308.028 187.992 307.104 187.992 305.928C187.992 304.836 188.916 303.912 190.008 303.912L186.144 303.156L185.136 306.264L186.9 308.868L190.008 308.028Z" fill="#6438BC"/>
<path d="M190.008 308.028C188.916 308.028 187.992 307.104 187.992 305.928C187.992 304.836 188.916 303.912 190.008 303.912L186.144 303.156L185.136 306.264L186.9 308.868L190.008 308.028Z" fill="black" fill-opacity="0.3"/>
<path d="M190.344 302.063H185.808L183.54 306.011L185.808 309.959H190.344L192.612 306.011L190.344 302.063ZM187.992 308.027C186.9 308.027 185.976 307.103 185.976 305.927C185.976 304.835 186.9 303.911 187.992 303.911C189.168 303.911 190.008 304.835 190.008 305.927C190.092 307.103 189.168 308.027 187.992 308.027Z" fill="#6438BC"/>
<path d="M351.036 301.811L349.356 298.871L351.036 295.931H352.8L351.792 298.871L352.8 301.811H351.036Z" fill="#6438BC"/>
<path d="M352.716 300.383C353.556 300.383 354.228 299.711 354.228 298.871C354.228 298.031 353.556 297.359 352.716 297.359L355.572 296.771L356.328 299.123L355.068 301.055L352.716 300.383Z" fill="#6438BC"/>
<path d="M352.464 295.931H355.824L357.504 298.871L355.824 301.811H352.464L350.784 298.871L352.464 295.931ZM354.144 300.383C354.984 300.383 355.656 299.711 355.656 298.871C355.656 298.031 354.984 297.359 354.144 297.359C353.304 297.359 352.632 298.031 352.632 298.871C352.632 299.711 353.304 300.383 354.144 300.383Z" fill="#6438BC"/>
<path d="M352.464 295.931H355.824L357.504 298.871L355.824 301.811H352.464L350.784 298.871L352.464 295.931ZM354.144 300.383C354.984 300.383 355.656 299.711 355.656 298.871C355.656 298.031 354.984 297.359 354.144 297.359C353.304 297.359 352.632 298.031 352.632 298.871C352.632 299.711 353.304 300.383 354.144 300.383Z" fill="black" fill-opacity="0.3"/>
<path d="M288.036 305.677H291.816C292.824 305.677 293.58 304.837 293.58 303.913C293.58 302.905 292.74 302.149 291.816 302.149H288.036C287.028 302.149 286.272 302.989 286.272 303.913C286.272 304.837 287.112 305.677 288.036 305.677Z" fill="#6438BC"/>
<path d="M288.036 305.677H291.816C292.824 305.677 293.58 304.837 293.58 303.913C293.58 302.905 292.74 302.149 291.816 302.149H288.036C287.028 302.149 286.272 302.989 286.272 303.913C286.272 304.837 287.112 305.677 288.036 305.677Z" fill="black" fill-opacity="0.3"/>
<path d="M281.988 302.316C282.912 300.3 285.18 299.46 287.028 300.3C288.876 301.14 289.632 303.492 288.708 305.508C287.784 307.524 285.516 308.364 283.668 307.524C281.82 306.6 281.064 304.248 281.988 302.316Z" fill="#6438BC"/>
<path d="M283.03 307.443L284.094 307.945L287.712 300.271L286.649 299.77L283.03 307.443Z" fill="#6438BC"/>
<path d="M283.03 307.443L284.094 307.945L287.712 300.271L286.649 299.77L283.03 307.443Z" fill="black" fill-opacity="0.3"/>
</svg>
