<svg width="504" height="429" viewBox="0 0 504 429" fill="none" xmlns="http://www.w3.org/2000/svg">
<path d="M425.323 171.287C425.323 172.97 425.298 174.647 425.248 176.319C425.211 177.655 425.157 178.989 425.086 180.318C424.508 191.548 422.821 202.694 420.051 213.593C418.249 220.698 415.984 227.679 413.273 234.489C408.547 246.376 402.497 257.692 395.238 268.224C394.12 269.858 392.97 271.47 391.789 273.059C386.541 280.145 380.756 286.816 374.485 293.014C372.282 295.194 370.022 297.312 367.706 299.367C354.253 311.308 339.003 321.055 322.516 328.251C320.283 329.226 318.023 330.153 315.738 331.03C301.587 336.49 286.768 340.031 271.678 341.56C269.429 341.789 267.17 341.974 264.899 342.113C261.348 342.331 257.771 342.442 254.167 342.444C239.879 342.455 225.647 340.679 211.801 337.157C209.523 336.581 207.264 335.956 205.022 335.282C189.435 330.616 174.598 323.74 160.962 314.863C158.661 313.369 156.402 311.82 154.184 310.217C145.4 303.885 137.233 296.738 129.792 288.872C128.448 287.452 127.129 286.009 125.834 284.541C120.079 278.026 114.827 271.083 110.124 263.772C107.722 260.037 105.462 256.203 103.345 252.272C90.5679 228.528 83.6136 202.09 83.0548 175.133C83.0237 173.856 83.0094 172.572 83.0094 171.288V171.253C82.9754 145 89.0083 119.094 100.637 95.5566C101.127 94.5585 101.628 93.5681 102.14 92.5854C102.535 91.8209 102.937 91.0602 103.345 90.3034C105.457 86.3756 107.717 82.5419 110.124 78.8025C121.583 60.9964 136.233 45.4602 153.336 32.9754C153.619 32.7682 153.901 32.5611 154.184 32.3579C154.888 31.8495 155.596 31.3448 156.308 30.8515C157.84 29.7781 159.391 28.7312 160.962 27.7107C174.598 18.8339 189.435 11.9579 205.022 7.29255C207.263 6.61834 209.522 5.99321 211.801 5.41715C225.647 1.89528 239.879 0.119043 254.167 0.129809C257.77 0.129809 261.347 0.240275 264.899 0.461215C267.17 0.600571 269.429 0.785071 271.678 1.01471C286.768 2.54282 301.587 6.08403 315.738 11.544C318.02 12.4214 320.279 13.3478 322.516 14.3233C333.913 19.2943 344.732 25.4958 354.782 32.8173C355.753 33.5176 356.715 34.232 357.666 34.9605C361.12 37.5813 364.466 40.3303 367.706 43.2075C370.022 45.2637 372.282 47.3813 374.485 49.5605C384.989 59.9374 394.108 71.6278 401.617 84.3414C402.208 85.3393 402.787 86.3422 403.353 87.3502C410.735 100.428 416.349 114.427 420.051 128.981C423.562 142.809 425.333 157.021 425.323 171.287Z" fill="#F9FAFB"/>
<path d="M357.667 34.9602C346.59 40.9638 335.057 46.0861 323.176 50.2796C300.05 58.4099 276.566 62.4996 253.59 62.4996C237.034 62.5302 220.549 60.3416 204.574 55.9922C186.422 50.9765 169.143 43.215 153.337 32.9767C153.619 32.7696 153.902 32.5624 154.184 32.3593C154.888 31.8508 155.596 31.3461 156.308 30.8529C171.515 40.5516 188.085 47.9236 205.471 52.7247C254.173 66.0708 306.934 58.3925 354.782 32.8187C355.753 33.5183 356.714 34.2322 357.667 34.9602Z" fill="white"/>
<path d="M403.354 87.3503C396.635 91.3798 389.769 95.1595 382.754 98.6893C347.905 116.238 310.902 126.914 272.773 130.42C263.633 131.26 254.477 131.68 245.305 131.682C225.976 131.679 206.691 129.818 187.718 126.123C164.178 121.499 141.232 114.25 119.308 104.511C113.004 101.721 106.78 98.7357 100.637 95.556C101.126 94.5579 101.627 93.5675 102.14 92.5848C143.594 114.125 202.107 133.516 272.464 127.046C326.146 122.109 369.947 103.272 401.617 84.3415C402.209 85.3396 402.787 86.3425 403.354 87.3503Z" fill="white"/>
<path d="M425.248 176.318C425.211 177.655 425.157 178.988 425.086 180.317C417.257 184.143 409.334 187.705 401.316 191.002C354.774 210.129 306.895 219.765 258.61 219.765C248.687 219.765 238.749 219.357 228.796 218.541C169.386 213.676 120.065 194.971 83.0546 175.133C83.0236 173.856 83.0093 172.572 83.0093 171.288V171.254C119.866 191.247 169.322 210.272 229.075 215.167C309.354 221.741 377.147 200.028 425.248 176.318Z" fill="white"/>
<path d="M395.239 268.223C394.121 269.858 392.971 271.469 391.79 273.058C346.91 288.911 299.91 297.955 252.352 299.89C245.988 300.146 239.622 300.274 233.255 300.274C198.455 300.268 163.761 296.444 129.794 288.871C128.45 287.452 127.131 286.008 125.836 284.541C160.992 292.749 196.975 296.892 233.076 296.889C239.38 296.889 245.761 296.759 252.218 296.501C301.065 294.51 349.31 284.972 395.239 268.223Z" fill="white"/>
<path d="M271.677 69.6092H6.18566C3.68993 69.6092 1.66675 71.6324 1.66675 74.1281V261.667C1.66675 264.162 3.68993 266.186 6.18566 266.186H271.677C274.173 266.186 276.196 264.162 276.196 261.667V74.1281C276.196 71.6324 274.173 69.6092 271.677 69.6092Z" fill="white"/>
<path d="M139.004 212.996C136.867 212.996 135.094 212.315 133.687 210.952C132.994 210.29 132.449 209.49 132.085 208.604C131.721 207.718 131.547 206.765 131.574 205.808C131.574 202.143 132.546 198.125 134.488 193.756C136.431 189.387 139.442 185.511 143.521 182.128C146.238 179.873 148.739 177.641 151.024 175.433C153.297 173.237 155.171 170.662 156.56 167.823C157.967 164.958 158.671 161.458 158.672 157.322C158.678 154.331 157.909 151.39 156.441 148.784C154.973 146.178 152.855 143.997 150.294 142.452C147.622 140.809 144.344 139.987 140.46 139.985C135.7 139.985 131.767 140.831 128.66 142.523C125.672 144.09 123.252 146.555 121.739 149.57C120.232 152.578 119.48 156.102 119.481 160.141C119.51 161.092 119.343 162.039 118.993 162.924C118.642 163.809 118.114 164.612 117.441 165.286C116.08 166.649 114.283 167.33 112.05 167.329C109.913 167.329 108.141 166.648 106.733 165.286C106.041 164.623 105.495 163.823 105.132 162.937C104.768 162.051 104.594 161.099 104.621 160.141C104.621 153.565 106.102 147.786 109.066 142.805C112.029 137.823 116.205 133.9 121.594 131.036C126.985 128.17 133.274 126.737 140.462 126.736C146.774 126.736 152.383 128.028 157.289 130.613C162.062 133.078 166.086 136.777 168.944 141.325C171.808 145.883 173.24 151.216 173.242 157.322C173.242 162.586 172.368 167.143 170.62 170.994C168.873 174.843 166.455 178.351 163.479 181.353C160.237 184.61 156.781 187.647 153.135 190.444C150.626 192.393 148.791 195.08 147.89 198.126C146.918 201.276 146.433 203.836 146.433 205.808C146.462 206.759 146.296 207.706 145.945 208.591C145.594 209.475 145.066 210.279 144.394 210.952C143.033 212.315 141.236 212.997 139.004 212.996ZM139.004 239.072C137.693 239.086 136.392 238.838 135.179 238.342C133.965 237.846 132.864 237.112 131.938 236.183C129.946 234.259 128.95 231.98 128.951 229.347C128.934 228.04 129.191 226.744 129.705 225.542C130.22 224.34 130.981 223.26 131.938 222.37C132.864 221.442 133.966 220.708 135.179 220.212C136.393 219.716 137.693 219.467 139.004 219.482C140.338 219.458 141.663 219.701 142.902 220.197C144.141 220.693 145.268 221.432 146.216 222.37C147.174 223.26 147.934 224.341 148.448 225.543C148.962 226.744 149.219 228.04 149.203 229.347C149.203 231.979 148.207 234.257 146.216 236.183C145.268 237.121 144.141 237.861 142.902 238.357C141.664 238.853 140.338 239.096 139.004 239.072Z" fill="#494E6D"/>
<path d="M32.1697 425.48C43.1205 411.977 60.8775 394.644 86.3976 388.199C121.02 379.454 136.483 399.196 177.907 394.977C221.74 390.513 221.159 366.704 259.249 364.474C304.932 361.798 309.813 395.807 364.316 398.366C402.902 400.178 417.869 383.949 449.048 394.977C470.106 402.425 484.303 417.265 493.108 428.869L32.1697 425.48Z" fill="#E9F1F9"/>
<path d="M276.196 74.1281V100.301H1.66675V74.1281C1.67027 72.9307 2.1475 71.7834 2.9942 70.9367C3.8409 70.09 4.98825 69.6127 6.18566 69.6092H271.677C272.874 69.6126 274.022 70.0898 274.869 70.9366C275.715 71.7833 276.193 72.9307 276.196 74.1281Z" fill="#6438BC"/>
<path d="M271.677 267.127H6.18544C4.73777 267.125 3.34987 266.55 2.32621 265.526C1.30255 264.502 0.726742 263.114 0.725098 261.667V74.1281C0.726742 72.6805 1.30255 71.2926 2.32621 70.2689C3.34987 69.2453 4.73777 68.6694 6.18544 68.6678H271.677C273.124 68.6694 274.512 69.2453 275.536 70.2689C276.56 71.2926 277.135 72.6805 277.137 74.1281V261.667C277.135 263.114 276.56 264.502 275.536 265.526C274.512 266.55 273.124 267.125 271.677 267.127ZM6.18544 70.5506C5.23696 70.5517 4.32763 70.929 3.65695 71.5997C2.98628 72.2703 2.60902 73.1797 2.60795 74.1281V261.667C2.60902 262.615 2.98628 263.524 3.65695 264.195C4.32763 264.866 5.23696 265.243 6.18544 265.244H271.677C272.625 265.243 273.534 264.866 274.205 264.195C274.876 263.524 275.253 262.615 275.254 261.667V74.1281C275.253 73.1797 274.876 72.2703 274.205 71.5997C273.534 70.929 272.625 70.5517 271.677 70.5506H6.18544Z" fill="#D8DBF2"/>
<path d="M426.371 166.015C426.394 167.482 426.229 168.946 425.881 170.372L388.081 168.395L388.107 168.339L393.394 157.798C395.25 154.38 398.189 151.674 401.749 150.107C405.309 148.54 409.289 148.2 413.064 149.141C416.838 150.081 420.193 152.249 422.602 155.303C425.01 158.358 426.336 162.125 426.371 166.015Z" fill="#68A3C1"/>
<path d="M23.6029 92.4868C22.4295 92.4868 21.2826 92.1389 20.307 91.487C19.3314 90.8351 18.571 89.9086 18.122 88.8246C17.673 87.7406 17.5555 86.5478 17.7844 85.397C18.0133 84.2462 18.5783 83.1891 19.408 82.3595C20.2377 81.5298 21.2947 80.9648 22.4455 80.7359C23.5963 80.507 24.7891 80.6245 25.8731 81.0735C26.9571 81.5225 27.8837 82.2829 28.5355 83.2585C29.1874 84.234 29.5353 85.381 29.5353 86.5544C29.5338 88.1273 28.9083 89.6354 27.7961 90.7476C26.6839 91.8598 25.1758 92.4853 23.6029 92.4868ZM23.6029 82.5072C22.8022 82.5072 22.0194 82.7446 21.3536 83.1894C20.6878 83.6342 20.1689 84.2664 19.8624 85.0061C19.556 85.7459 19.4758 86.5599 19.6319 87.3452C19.7881 88.1305 20.1737 88.8519 20.7398 89.4181C21.306 89.9843 22.0273 90.3699 22.8126 90.5261C23.598 90.6824 24.412 90.6022 25.1517 90.2958C25.8915 89.9894 26.5238 89.4705 26.9686 88.8048C27.4135 88.139 27.6509 87.3563 27.6509 86.5556C27.6497 85.4823 27.2228 84.4534 26.4639 83.6944C25.705 82.9355 24.6761 82.5085 23.6029 82.5072Z" fill="white"/>
<path d="M47.516 92.4868C46.3426 92.4868 45.1956 92.1389 44.2201 91.487C43.2445 90.8351 42.4841 89.9086 42.0351 88.8246C41.5861 87.7406 41.4686 86.5478 41.6975 85.397C41.9264 84.2462 42.4914 83.1891 43.3211 82.3595C44.1507 81.5298 45.2078 80.9648 46.3586 80.7359C47.5094 80.507 48.7022 80.6245 49.7862 81.0735C50.8702 81.5225 51.7967 82.2829 52.4486 83.2585C53.1005 84.234 53.4484 85.381 53.4484 86.5544C53.4469 88.1273 52.8214 89.6354 51.7092 90.7476C50.597 91.8598 49.0889 92.4853 47.516 92.4868ZM47.516 82.5072C46.7153 82.5072 45.9326 82.7447 45.2668 83.1895C44.6011 83.6343 44.0822 84.2666 43.7758 85.0064C43.4693 85.7461 43.3892 86.5601 43.5454 87.3454C43.7016 88.1307 44.0872 88.852 44.6533 89.4182C45.2195 89.9844 45.9409 90.37 46.7262 90.5262C47.5115 90.6824 48.3254 90.6022 49.0652 90.2958C49.8049 89.9894 50.4372 89.4705 50.882 88.8047C51.3269 88.139 51.5643 87.3563 51.5643 86.5556C51.5631 85.4823 51.1362 84.4533 50.3772 83.6943C49.6183 82.9354 48.5893 82.5085 47.516 82.5072Z" fill="white"/>
<path d="M71.4281 92.4868C70.2547 92.4868 69.1078 92.1389 68.1322 91.487C67.1566 90.8351 66.3962 89.9086 65.9472 88.8246C65.4982 87.7406 65.3807 86.5478 65.6096 85.397C65.8385 84.2462 66.4035 83.1891 67.2332 82.3595C68.0629 81.5298 69.1199 80.9648 70.2707 80.7359C71.4215 80.507 72.6143 80.6245 73.6983 81.0735C74.7823 81.5225 75.7089 82.2829 76.3607 83.2585C77.0126 84.234 77.3605 85.381 77.3605 86.5544C77.359 88.1273 76.7335 89.6354 75.6213 90.7476C74.5091 91.8598 73.001 92.4853 71.4281 92.4868ZM71.4281 82.5072C70.6274 82.5072 69.8447 82.7447 69.1789 83.1895C68.5132 83.6343 67.9943 84.2666 67.6879 85.0064C67.3815 85.7461 67.3013 86.5601 67.4575 87.3454C67.6137 88.1307 67.9993 88.852 68.5654 89.4182C69.1316 89.9844 69.853 90.37 70.6383 90.5262C71.4236 90.6824 72.2376 90.6022 72.9773 90.2958C73.717 89.9894 74.3493 89.4705 74.7941 88.8047C75.239 88.139 75.4764 87.3563 75.4764 86.5556C75.4753 85.4822 75.0484 84.4532 74.2894 83.6942C73.5304 82.9353 72.5014 82.5084 71.4281 82.5072Z" fill="white"/>
<path d="M305.607 365.227C300.447 365.063 295.546 362.93 291.91 359.265C288.274 355.601 286.179 350.683 286.056 345.522C285.016 300.157 285.413 253.733 287.573 219.743L331.772 221.171C329.123 259.883 327.323 304.971 326.463 345.459C326.407 348.131 325.821 350.765 324.739 353.209C323.657 355.653 322.101 357.858 320.162 359.697C318.222 361.535 315.937 362.971 313.438 363.92C310.94 364.87 308.278 365.314 305.607 365.227Z" fill="#E9E9FF"/>
<path d="M326.328 346.808C326.324 347.042 326.32 347.276 326.312 347.514C325.873 369.069 324.871 398.749 324.245 425.112C324.211 426.373 324.186 427.625 324.157 428.87H288.323C288.285 427.63 288.252 426.377 288.214 425.112C287.492 399.684 286.707 370.147 286.071 346.958C286.063 346.629 286.063 346.303 286.071 345.977C286.181 340.639 288.408 335.563 292.261 331.866C296.113 328.169 301.277 326.154 306.615 326.264C311.953 326.374 317.029 328.601 320.726 332.453C324.423 336.306 326.438 341.47 326.328 346.808H326.328Z" fill="#E9E9FF"/>
<path d="M377.579 353.5C372.506 354.456 367.26 353.433 362.917 350.642C358.574 347.851 355.465 343.503 354.229 338.491C343.398 294.425 333.741 249.015 328.496 215.363L371.955 207.194C377.745 245.562 385.743 289.97 393.663 329.685C394.186 332.306 394.184 335.005 393.657 337.625C393.13 340.246 392.088 342.735 390.592 344.95C389.097 347.165 387.176 349.061 384.942 350.529C382.709 351.996 380.206 353.006 377.579 353.5Z" fill="#E9E9FF"/>
<path d="M424.722 428.87H387.339C386.867 427.634 386.387 426.377 385.898 425.112C376.285 400.052 364.591 369.35 355.564 345.714C354.581 343.15 354.134 340.412 354.25 337.669C354.366 334.926 355.043 332.235 356.238 329.764C357.434 327.292 359.123 325.091 361.202 323.298C363.281 321.504 365.706 320.155 368.326 319.335V319.331C373.377 317.739 378.851 318.202 383.563 320.618C388.275 323.035 391.845 327.212 393.499 332.242C393.682 332.802 393.871 333.37 394.054 333.942V333.946C402.464 359.616 414.094 397.003 423.465 425.112C423.887 426.386 424.309 427.638 424.722 428.87Z" fill="#E9E9FF"/>
<path d="M308.454 265.517L346.689 265.015L335.774 226.444L317.636 223.253L308.454 265.517Z" fill="#E9E9FF"/>
<path d="M332.454 247.559L321.681 246.31L325.577 221.292L326.321 221.408L322.546 245.652L332.541 246.811L332.454 247.559Z" fill="#ADAEFE"/>
<path d="M286.34 258.716L285.859 258.136L290.736 254.091L293.55 219.876L294.301 219.937L291.461 254.468L286.34 258.716Z" fill="#ADAEFE"/>
<path d="M380.571 261.256L373.216 258.638L365.644 222.576L366.381 222.421L373.866 258.07L380.823 260.547L380.571 261.256Z" fill="#ADAEFE"/>
<path d="M182.831 194.292C182.653 190.409 189.489 188.142 195.413 186.796C192.878 184.67 190.927 181.977 191.583 180.6C192.526 178.622 198.493 180.115 202.316 181.936C202.996 182.259 203.649 182.635 204.27 183.06C206.072 183.028 207.844 183.534 209.357 184.514C210.871 185.494 212.058 186.903 212.766 188.561C213.475 190.219 213.673 192.05 213.335 193.822C212.998 195.593 212.14 197.223 210.871 198.504C210.469 198.907 210.031 199.271 209.562 199.593C207.614 201.404 205.183 202.613 202.563 203.073C196.32 204.25 183.232 203.106 182.831 194.292Z" fill="#EB8F90"/>
<path d="M289.705 201.884C288.85 202.03 287.985 202.108 287.118 202.118L273.937 202.107L215.755 202.054L206.992 202.046L203.896 182.784L212.298 181.157L273.365 169.302L273.937 169.193L276.822 168.636L278.298 168.35L284.079 167.223C285.009 167.077 285.95 167.003 286.892 167.001C291.299 167.008 295.543 168.672 298.78 171.663C302.018 174.654 304.012 178.753 304.366 183.147C304.72 187.54 303.409 191.906 300.693 195.377C297.977 198.849 294.055 201.171 289.705 201.884Z" fill="#80D3FF"/>
<path d="M287.202 201.585L287.309 201.606C288.1 201.761 288.901 201.854 289.706 201.884C293.235 202.041 296.721 201.054 299.644 199.07C302.567 197.086 304.771 194.211 305.928 190.873L326.045 133.037C326.988 130.324 327.361 127.446 327.143 124.583C326.924 121.719 326.118 118.931 324.774 116.393C323.431 113.854 321.579 111.62 319.333 109.829C317.088 108.038 314.498 106.729 311.724 105.984C308.951 105.238 306.054 105.072 303.213 105.495C300.372 105.919 297.65 106.923 295.214 108.445C292.779 109.968 290.683 111.975 289.058 114.343C287.433 116.711 286.313 119.389 285.768 122.208L277.347 165.91L276.823 168.638L276.139 172.191L274.183 182.346C273.359 186.623 274.268 191.053 276.709 194.661C279.151 198.268 282.925 200.759 287.202 201.585Z" fill="#80D3FF"/>
<path d="M287.391 219.476C301.71 244.237 336.752 220.428 373.669 219.476V107.602C355.84 94.1195 321.612 93.9804 296.657 107.602L287.391 219.476Z" fill="#80D3FF"/>
<path d="M351.519 60.4388C353.891 60.1263 355.728 59.2259 355.622 58.4278C355.517 57.6296 353.51 57.236 351.138 57.5485C348.767 57.8611 346.93 58.7615 347.035 59.5596C347.14 60.3577 349.148 60.7514 351.519 60.4388Z" fill="#8E3332"/>
<path d="M352.277 59.3053C353.02 57.0319 353.199 55.0501 352.675 54.8788C352.151 54.7075 351.124 56.4116 350.38 58.6851C349.637 60.9585 349.458 62.9403 349.982 63.1116C350.506 63.2829 351.533 61.5788 352.277 59.3053Z" fill="#8E3332"/>
<path d="M322.542 101.459C322.866 106.86 324.683 113.071 331.381 112.747C343.121 112.179 345.961 99.8373 345.961 99.8373C345.961 99.8373 345.004 82.176 344.728 81.9974H322.915V93.7555C322.53 96.304 322.405 98.8851 322.542 101.459Z" fill="#FB855F"/>
<path d="M322.542 101.459C339.425 97.9559 341.825 89.0522 341.825 89.0522L324.861 81.9979H322.915V93.7559C322.53 96.3043 322.405 98.8852 322.542 101.459Z" fill="#E56542"/>
<path d="M347.927 75.597C347.927 75.597 342.864 100.338 323.99 95.2722C321.845 94.7023 319.889 93.574 318.322 92.0022C316.92 90.5947 315.903 88.85 315.37 86.936C313.471 80.0755 313.808 68.8741 315.852 54.2451L347.927 56.9728V75.597Z" fill="#FB855F"/>
<path d="M349.124 77.4595C349.062 77.4595 345.363 73.4317 342.131 78.8572C342.131 78.8572 347.835 76.1705 349.06 77.4595H349.124Z" fill="#F35757"/>
<path d="M340.356 66.6879C325.362 69.3168 313.018 65.58 309.787 56.5412C309.493 55.7084 309.405 54.8165 309.532 53.9423C309.659 53.0681 309.996 52.2378 310.515 51.523C311.034 50.8081 311.719 50.23 312.511 49.8386C313.302 49.4472 314.178 49.2541 315.061 49.276C321.952 49.4623 333.631 51.9661 345.009 53.9837C345.857 54.1323 346.682 54.3956 347.459 54.7665C354.106 57.9588 355.977 64.0341 354.469 72.1467C351.917 84.2026 347.988 86.37 343.751 86.3262C344.017 79.1364 338.526 73.4726 340.356 66.6879Z" fill="#8E3332"/>
<path d="M345.701 85.3163C348.472 85.3163 350.718 82.4245 350.718 78.8574C350.718 75.2902 348.472 72.3985 345.701 72.3985C342.931 72.3985 340.685 75.2902 340.685 78.8574C340.685 82.4245 342.931 85.3163 345.701 85.3163Z" fill="#FB855F"/>
<path d="M349.123 77.8606C349.191 77.8954 345.595 74.058 342.891 78.3678C342.891 78.3678 346.821 76.6776 349.123 77.8606Z" fill="#E56542"/>
<path d="M351.008 142.154L385.935 168.275L387.54 169.474L389.177 170.704L400.059 178.837C401.786 180.129 403.75 181.068 405.84 181.601C407.93 182.134 410.104 182.249 412.239 181.941C414.374 181.633 416.427 180.908 418.28 179.806C420.134 178.704 421.753 177.247 423.044 175.519L423.108 175.434C425.471 172.271 426.616 168.364 426.335 164.427C426.054 160.489 424.365 156.785 421.578 153.99L378.327 110.652C376.298 108.618 373.873 107.024 371.201 105.97C368.529 104.915 365.669 104.422 362.798 104.522C359.927 104.623 357.108 105.313 354.516 106.551C351.925 107.789 349.616 109.548 347.734 111.718C345.852 113.888 344.438 116.423 343.579 119.164C342.72 121.905 342.435 124.793 342.743 127.649C343.05 130.505 343.942 133.267 345.365 135.762C346.787 138.258 348.708 140.434 351.008 142.154Z" fill="#80D3FF"/>
<path d="M353.029 254.52C349.846 252.292 352.221 245.493 354.771 239.979C351.541 240.689 348.218 240.59 347.526 239.23C346.535 237.276 351.36 233.461 355.136 231.545C355.807 231.204 356.503 230.915 357.219 230.683C358.378 229.115 360.013 227.963 361.88 227.399C363.747 226.834 365.746 226.887 367.58 227.55C369.414 228.213 370.985 229.449 372.06 231.077C373.135 232.704 373.656 234.635 373.546 236.582C373.791 239.23 373.265 241.894 372.031 244.25C369.151 249.913 360.257 259.582 353.029 254.52Z" fill="#EB8F90"/>
<path d="M426.371 166.015C426.394 167.483 426.229 168.947 425.881 170.372C425.319 172.661 424.299 174.811 422.884 176.695L379.547 232.821L373.917 240.115L356.774 230.806L361.441 221.497L386.544 171.464L387.541 169.472L388.08 168.395L388.106 168.338L393.393 157.798C395.249 154.378 398.188 151.673 401.748 150.105C405.309 148.538 409.289 148.198 413.064 149.138C416.839 150.079 420.194 152.247 422.603 155.302C425.011 158.357 426.337 162.125 426.371 166.015Z" fill="#80D3FF"/>
<path d="M331.883 112.761C331.778 112.761 331.674 112.761 331.567 112.757C328.255 112.695 325.692 111.054 323.95 107.879C322.328 104.921 321.809 101.343 321.66 98.8625L322.412 98.8172C323.119 110.579 329.059 111.957 331.581 112.004C331.681 112.006 331.78 112.007 331.879 112.007C344.014 112.007 346.771 98.05 346.797 97.9077L347.538 98.0463C347.51 98.1944 344.641 112.761 331.883 112.761Z" fill="#251138"/>
<path d="M331.205 112.366L327.116 227.005L327.868 227.032L331.958 112.393L331.205 112.366Z" fill="white"/>
<path d="M327.21 127.363C327.891 127.363 328.443 126.811 328.443 126.13C328.443 125.449 327.891 124.897 327.21 124.897C326.529 124.897 325.977 125.449 325.977 126.13C325.977 126.811 326.529 127.363 327.21 127.363Z" fill="white"/>
<path d="M326.273 145.153C326.954 145.153 327.506 144.601 327.506 143.92C327.506 143.239 326.954 142.687 326.273 142.687C325.592 142.687 325.04 143.239 325.04 143.92C325.04 144.601 325.592 145.153 326.273 145.153Z" fill="white"/>
<path d="M325.334 162.942C326.015 162.942 326.567 162.39 326.567 161.709C326.567 161.028 326.015 160.476 325.334 160.476C324.653 160.476 324.102 161.028 324.102 161.709C324.102 162.39 324.653 162.942 325.334 162.942Z" fill="white"/>
<path d="M324.397 180.732C325.077 180.732 325.629 180.18 325.629 179.499C325.629 178.818 325.077 178.266 324.397 178.266C323.716 178.266 323.164 178.818 323.164 179.499C323.164 180.18 323.716 180.732 324.397 180.732Z" fill="white"/>
<path d="M323.459 198.521C324.14 198.521 324.692 197.969 324.692 197.288C324.692 196.608 324.14 196.056 323.459 196.056C322.778 196.056 322.226 196.608 322.226 197.288C322.226 197.969 322.778 198.521 323.459 198.521Z" fill="white"/>
<path d="M322.521 216.311C323.202 216.311 323.754 215.759 323.754 215.078C323.754 214.397 323.202 213.845 322.521 213.845C321.84 213.845 321.288 214.397 321.288 215.078C321.288 215.759 321.84 216.311 322.521 216.311Z" fill="white"/>
<path d="M203.896 182.783L206.988 202.044L215.752 202.055L212.295 181.157L203.896 182.783Z" fill="#66C4F5"/>
<path d="M356.772 230.806L373.915 240.116L379.543 232.816C375.049 229.928 362.198 221.72 361.438 221.495L356.772 230.806Z" fill="#66C4F5"/>
<path d="M367.595 152.015L367.062 152.547L374.986 160.471L375.519 159.939L367.595 152.015Z" fill="white"/>
<path d="M395.061 167.752H387.137V168.505H395.061V167.752Z" fill="white"/>
<path d="M180.62 178.151L185.574 174.479L181.155 168.517L176.201 172.189L180.62 178.151Z" fill="#FFAA40"/>
<path d="M170.4 129.716C166.462 128.712 162.336 128.704 158.394 129.693C154.452 130.681 150.817 132.636 147.819 135.379C144.82 138.122 142.551 141.569 141.217 145.408C139.882 149.246 139.524 153.357 140.174 157.369C140.824 161.381 142.463 165.168 144.941 168.389C147.42 171.609 150.661 174.163 154.373 175.819C158.085 177.474 162.15 178.181 166.203 177.874C170.255 177.566 174.168 176.256 177.587 174.06C182.815 170.717 186.572 165.508 188.094 159.492C188.888 156.376 189.059 153.133 188.6 149.949C188.14 146.766 187.058 143.704 185.415 140.939C183.772 138.174 181.6 135.76 179.024 133.834C176.448 131.908 173.517 130.509 170.4 129.716ZM182.118 157.974C181.224 161.487 179.307 164.656 176.612 167.079C173.916 169.503 170.563 171.073 166.975 171.59C163.387 172.108 159.727 171.55 156.456 169.987C153.185 168.424 150.452 165.926 148.601 162.81C146.75 159.693 145.864 156.098 146.057 152.478C146.249 148.858 147.511 145.377 149.682 142.474C151.853 139.571 154.836 137.377 158.254 136.17C161.672 134.963 165.371 134.796 168.884 135.691C173.593 136.892 177.633 139.914 180.115 144.093C182.596 148.271 183.317 153.264 182.118 157.974Z" fill="#FFAA40"/>
<path d="M200.002 203.693L204.295 200.511C205.057 199.946 205.217 198.87 204.652 198.108L185.424 172.168C184.859 171.406 183.783 171.246 183.021 171.811L178.728 174.993C177.966 175.558 177.806 176.634 178.371 177.396L197.6 203.336C198.165 204.098 199.24 204.258 200.002 203.693Z" fill="#494E6D"/>
<path d="M276.472 167.862L275.939 168.395L283.863 176.318L284.396 175.786L276.472 167.862Z" fill="white"/>
<path d="M370.951 199.654L366.99 207.578L367.663 207.915L371.625 199.991L370.951 199.654Z" fill="white"/>
<path d="M288.468 191.019H287.715V202.905H288.468V191.019Z" fill="white"/>
<path d="M145.154 425.481H136.412C129.013 416.275 124.019 409.402 120.793 404.298C115.615 396.098 114.992 392.458 116.273 391.044C118.598 388.479 127.713 392.678 133.036 396.873C138.945 401.532 141.997 407.615 143.56 413.001C144.737 417.052 145.275 421.263 145.154 425.481Z" fill="#5F6386"/>
<path d="M141.021 426.233C140.845 426.233 140.675 426.172 140.54 426.06C140.405 425.948 140.314 425.792 140.281 425.62C138.991 418.745 136.155 412.253 131.986 406.635C129.239 402.971 125.952 399.744 122.237 397.066C122.078 396.948 121.972 396.772 121.941 396.576C121.911 396.38 121.959 396.181 122.075 396.02C122.191 395.859 122.366 395.751 122.561 395.718C122.756 395.685 122.957 395.731 123.119 395.845C126.957 398.613 130.354 401.947 133.193 405.733C137.499 411.535 140.429 418.24 141.761 425.341C141.779 425.438 141.778 425.538 141.758 425.634C141.738 425.731 141.699 425.823 141.643 425.905C141.587 425.986 141.516 426.056 141.433 426.11C141.351 426.165 141.258 426.202 141.161 426.22C141.115 426.229 141.068 426.234 141.021 426.233Z" fill="#30354F"/>
<path d="M153.017 425.586C169.598 377.64 169.678 363.652 165.382 361.393C160.736 358.95 149.939 369.674 144.541 378.418C131.719 399.189 140.92 422.461 142.192 425.53L153.017 425.586Z" fill="#9FA3BF"/>
<path d="M148.209 424.993C148.033 424.993 147.862 424.93 147.726 424.817C147.591 424.703 147.499 424.546 147.469 424.372C145.483 413.333 146.11 401.983 149.299 391.231C151.359 384.399 154.445 377.919 158.45 372.014C158.506 371.932 158.577 371.861 158.659 371.807C158.742 371.753 158.835 371.715 158.932 371.696C159.029 371.677 159.129 371.678 159.226 371.698C159.323 371.718 159.415 371.757 159.496 371.812C159.578 371.867 159.649 371.939 159.703 372.021C159.758 372.104 159.795 372.196 159.814 372.293C159.833 372.39 159.832 372.49 159.812 372.587C159.792 372.684 159.754 372.776 159.698 372.858C155.778 378.637 152.758 384.979 150.742 391.665C147.62 402.191 147.007 413.303 148.951 424.109C148.969 424.206 148.967 424.306 148.946 424.402C148.924 424.499 148.884 424.591 148.828 424.672C148.771 424.753 148.699 424.822 148.616 424.875C148.533 424.929 148.44 424.965 148.342 424.982C148.298 424.99 148.254 424.993 148.209 424.993Z" fill="#30354F"/>
<path d="M449.538 425.48H436.673C425.781 411.931 418.434 401.815 413.684 394.302C406.062 382.232 405.145 376.875 407.029 374.793C410.452 371.019 423.869 377.199 431.704 383.374C440.401 390.23 444.893 399.183 447.193 407.111C448.925 413.075 449.716 419.273 449.538 425.48Z" fill="#5F6386"/>
<path d="M443.456 426.234C443.28 426.233 443.111 426.172 442.976 426.06C442.841 425.948 442.749 425.793 442.717 425.62C440.808 415.447 436.611 405.842 430.443 397.53C426.378 392.107 421.513 387.333 416.016 383.369C415.936 383.311 415.868 383.238 415.816 383.154C415.764 383.069 415.729 382.976 415.713 382.878C415.698 382.78 415.701 382.681 415.724 382.584C415.747 382.488 415.789 382.397 415.847 382.317C415.905 382.237 415.978 382.169 416.062 382.117C416.146 382.065 416.24 382.03 416.338 382.015C416.435 381.999 416.535 382.003 416.631 382.026C416.728 382.048 416.818 382.09 416.899 382.148C422.519 386.201 427.493 391.083 431.649 396.627C437.955 405.123 442.246 414.942 444.197 425.341C444.216 425.438 444.215 425.538 444.195 425.634C444.175 425.731 444.135 425.823 444.08 425.905C444.024 425.986 443.953 426.056 443.87 426.111C443.787 426.165 443.695 426.202 443.597 426.22C443.551 426.229 443.503 426.234 443.456 426.234Z" fill="#30354F"/>
<path d="M461.114 425.635C485.519 355.065 485.637 334.477 479.315 331.151C472.478 327.555 456.585 343.339 448.64 356.21C429.768 386.782 443.312 421.035 445.184 425.554L461.114 425.635Z" fill="#9FA3BF"/>
<path d="M454.036 424.408C453.86 424.408 453.689 424.346 453.553 424.232C453.418 424.119 453.327 423.961 453.296 423.787C450.388 407.489 451.316 390.677 455.981 375.17C459.002 365.148 463.528 355.643 469.404 346.981C469.516 346.815 469.689 346.701 469.885 346.663C470.081 346.626 470.285 346.667 470.45 346.779C470.615 346.891 470.73 347.064 470.768 347.26C470.805 347.457 470.764 347.66 470.652 347.825C464.861 356.362 460.401 365.728 457.423 375.604C452.826 390.885 451.912 407.456 454.779 423.522C454.798 423.631 454.793 423.742 454.765 423.849C454.736 423.955 454.685 424.054 454.614 424.139C454.543 424.223 454.455 424.291 454.355 424.338C454.255 424.384 454.146 424.408 454.036 424.408V424.408Z" fill="#30354F"/>
<path d="M416.529 286.411H427.8C433.47 286.411 437.014 292.349 434.179 297.099L428.543 306.543L422.907 315.985C420.072 320.736 412.984 320.736 410.15 315.985L404.514 306.543L398.878 297.099C396.043 292.349 399.586 286.411 405.256 286.411H416.529Z" fill="#EBEDFC"/>
<path d="M380.88 34.7513C379.853 34.757 378.839 34.5247 377.916 34.0725C376.994 33.6203 376.188 32.9606 375.564 32.1451C374.873 31.2638 374.431 30.2141 374.283 29.1045C374.135 27.9949 374.286 26.8658 374.721 25.8343L381.61 9.27347C382.055 8.21152 382.77 7.28465 383.685 6.58524C384.599 5.88583 385.681 5.4383 386.823 5.28724C387.982 5.1081 389.168 5.2361 390.263 5.65848C391.357 6.08085 392.322 6.78283 393.06 7.69439L404.439 21.7468C405.157 22.6166 405.627 23.6636 405.8 24.7778C405.973 25.8919 405.843 27.0322 405.424 28.0787C404.989 29.1752 404.268 30.1344 403.335 30.8557C402.402 31.577 401.291 32.0336 400.121 32.1777L381.852 34.6855C381.53 34.7295 381.205 34.7515 380.88 34.7513ZM387.832 6.52125C387.557 6.5212 387.282 6.54103 387.01 6.58058C386.092 6.70038 385.223 7.05841 384.487 7.61901C383.751 8.17961 383.175 8.92321 382.816 9.77571L375.927 26.3363C375.582 27.1556 375.463 28.0522 375.581 28.9333C375.699 29.8144 376.05 30.6479 376.599 31.3475C377.186 32.1093 377.967 32.7002 378.859 33.0592C379.752 33.4181 380.724 33.532 381.675 33.389L399.944 30.8813C400.884 30.7672 401.777 30.402 402.527 29.824C403.278 29.2461 403.859 28.4767 404.209 27.5967C404.542 26.7652 404.645 25.8595 404.507 24.9747C404.368 24.0898 403.994 23.2585 403.424 22.5681L392.045 8.51529C391.537 7.88843 390.894 7.38383 390.165 7.03882C389.436 6.69381 388.638 6.51724 387.832 6.52218V6.52125Z" fill="#EBEDFC"/>
<path d="M468.12 148.136L472.516 155.128C474.728 158.645 472.174 163.159 467.919 163.254L459.462 163.44L451.005 163.626C446.75 163.72 443.986 159.324 446.029 155.713L450.09 148.533L454.15 141.354C456.193 137.743 461.512 137.625 463.722 141.142L468.12 148.136Z" fill="#FFF0E3"/>
<path d="M110.313 6.69452L117.167 11.4917C117.95 12.0292 118.573 12.7682 118.97 13.6308C119.367 14.4933 119.524 15.4472 119.423 16.3914C119.323 17.3357 118.968 18.2351 118.398 18.9946C117.828 19.7541 117.064 20.3453 116.185 20.7057L108.464 24.0493L100.743 27.3929C96.8606 29.0748 92.5498 26.0573 92.9862 21.9636L93.8534 13.8228L94.7209 5.68198C95.1557 1.58703 100.012 -0.515425 103.46 1.89762L110.313 6.69452Z" fill="#F9FAFB"/>
<path d="M124.056 315.784V326.688C124.056 332.174 117.918 335.602 113.008 332.859L103.246 327.407L93.4844 321.954C92.3709 321.354 91.4406 320.463 90.7922 319.377C90.1438 318.29 89.8015 317.049 89.8015 315.783C89.8015 314.518 90.1438 313.277 90.7922 312.19C91.4406 311.104 92.3709 310.213 93.4844 309.612L103.246 304.16L113.008 298.708C117.918 295.965 124.056 299.393 124.056 304.879V315.784Z" fill="#FFF0E3"/>
<path d="M503.275 427.175C503.275 427.624 503.096 428.055 502.778 428.373C502.46 428.69 502.03 428.869 501.581 428.87H16.918C16.4686 428.87 16.0375 428.691 15.7197 428.373C15.4019 428.056 15.2234 427.625 15.2234 427.175C15.2234 426.726 15.4019 426.295 15.7197 425.977C16.0375 425.659 16.4686 425.48 16.918 425.48H501.581C502.03 425.481 502.46 425.66 502.778 425.978C503.096 426.295 503.275 426.726 503.275 427.175Z" fill="#5F6386"/>
</svg>
