<svg width="500" height="363" viewBox="0 0 500 363" fill="none" xmlns="http://www.w3.org/2000/svg">
<g clip-path="url(#clip0_13501_369018)">
<path d="M0.266602 361.965H491.216" stroke="#ADAEFE" stroke-linecap="round" stroke-linejoin="round"/>
<path d="M220.217 27.0954H76.127C64.1477 27.0954 54.4365 36.8278 54.4365 48.8333V340.377C54.4365 352.383 64.1477 362.115 76.127 362.115H220.217C232.196 362.115 241.907 352.383 241.907 340.377V48.8333C241.907 36.8278 232.196 27.0954 220.217 27.0954Z" fill="#E9E9FF"/>
<path opacity="0.83" d="M208.526 38.0452H88.3017C75.8575 38.0452 65.7695 48.1553 65.7695 60.6266V328.58C65.7695 341.051 75.8575 351.161 88.3017 351.161H208.526C220.97 351.161 231.058 341.051 231.058 328.58V60.6266C231.058 48.1553 220.97 38.0452 208.526 38.0452Z" fill="white"/>
<path d="M175.126 31.7596H121.214C117.655 31.7596 114.77 34.6514 114.77 38.2186C114.77 41.7858 117.655 44.6775 121.214 44.6775H175.126C178.685 44.6775 181.57 41.7858 181.57 38.2186C181.57 34.6514 178.685 31.7596 175.126 31.7596Z" fill="#E9E9FF"/>
<path d="M151.249 187.384C153.213 185.292 154.419 182.481 154.419 179.388C154.419 172.952 149.193 167.714 142.771 167.714H139.147V161.813H132.483V167.714H129.824V161.813H123.16V167.714H115.224V173.846H119.52V202.285H115.224V208.417H123.16V214.317H129.824V208.417H132.483V214.317H139.147V208.417H144.281C150.703 208.417 155.93 203.179 155.93 196.743C155.93 192.922 154.089 189.521 151.245 187.391L151.249 187.384ZM125.638 173.842H142.771C145.826 173.842 148.305 176.326 148.305 179.388C148.305 182.45 145.826 184.934 142.771 184.934H125.638V173.846V173.842ZM149.815 196.735C149.815 199.797 147.337 202.281 144.281 202.281H125.638V191.193H144.281C147.337 191.193 149.815 193.677 149.815 196.739V196.735Z" fill="#E9E9FF"/>
<path d="M178.64 195.08C182.5 171.251 166.353 148.798 142.576 144.93C118.8 141.062 96.3957 157.244 92.5362 181.073C88.6766 204.902 104.823 227.354 128.6 231.222C152.377 235.09 174.781 218.909 178.64 195.08Z" stroke="#E9E9FF" stroke-width="0.704284" stroke-linecap="round" stroke-linejoin="round"/>
<path d="M91.9602 192.76C93.724 192.76 95.1538 191.327 95.1538 189.56C95.1538 187.792 93.724 186.359 91.9602 186.359C90.1964 186.359 88.7666 187.792 88.7666 189.56C88.7666 191.327 90.1964 192.76 91.9602 192.76Z" fill="#ADAEFE"/>
<path d="M91.9603 192.113C94.9694 192.113 97.4098 194.559 97.4098 197.575V199.265H86.5107V197.575C86.5107 194.559 88.9511 192.113 91.9603 192.113Z" fill="#ADAEFE"/>
<path d="M143.434 144.297C145.198 144.297 146.627 142.864 146.627 141.096C146.627 139.329 145.198 137.896 143.434 137.896C141.67 137.896 140.24 139.329 140.24 141.096C140.24 142.864 141.67 144.297 143.434 144.297Z" fill="#ADAEFE"/>
<path d="M143.434 143.654C146.443 143.654 148.883 146.099 148.883 149.115V150.806H137.984V149.115C137.984 146.099 140.425 143.654 143.434 143.654Z" fill="#ADAEFE"/>
<path d="M166.921 219.139C168.685 219.139 170.115 217.706 170.115 215.939C170.115 214.171 168.685 212.738 166.921 212.738C165.157 212.738 163.728 214.171 163.728 215.939C163.728 217.706 165.157 219.139 166.921 219.139Z" fill="#ADAEFE"/>
<path d="M166.921 218.492C169.93 218.492 172.371 220.938 172.371 223.954V225.645H161.472V223.954C161.472 220.938 163.912 218.492 166.921 218.492Z" fill="#ADAEFE"/>
<path d="M177.57 64.2856H121.718C117.259 64.2856 113.644 67.9085 113.644 72.3776V98.9299C113.644 103.399 117.259 107.022 121.718 107.022H177.57C182.029 107.022 185.644 103.399 185.644 98.9299V72.3776C185.644 67.9085 182.029 64.2856 177.57 64.2856Z" fill="#E9E9FF"/>
<path d="M171.928 70.1591H130.445C129.325 70.1591 128.416 71.0695 128.416 72.1927V73.0207C128.416 74.1439 129.325 75.0543 130.445 75.0543H171.928C173.048 75.0543 173.957 74.1439 173.957 73.0207V72.1927C173.957 71.0695 173.048 70.1591 171.928 70.1591Z" fill="white"/>
<path d="M179.487 80.8008H144.764C144.13 80.8008 143.615 81.3164 143.615 81.9524V82.0949C143.615 82.7309 144.13 83.2465 144.764 83.2465H179.487C180.121 83.2465 180.636 82.7309 180.636 82.0949V81.9524C180.636 81.3164 180.121 80.8008 179.487 80.8008Z" fill="white"/>
<path d="M179.487 87.0942H144.764C144.13 87.0942 143.615 87.6097 143.615 88.2458V88.3883C143.615 89.0243 144.13 89.5399 144.764 89.5399H179.487C180.121 89.5399 180.636 89.0243 180.636 88.3883V88.2458C180.636 87.6097 180.121 87.0942 179.487 87.0942Z" fill="white"/>
<path d="M169.437 93.3837H144.764C144.13 93.3837 143.615 93.8992 143.615 94.5353V94.6778C143.615 95.3138 144.13 95.8294 144.764 95.8294H169.437C170.072 95.8294 170.586 95.3138 170.586 94.6778V94.5353C170.586 93.8992 170.072 93.3837 169.437 93.3837Z" fill="white"/>
<path d="M121.771 89.5399C124.401 89.5399 126.533 87.4033 126.533 84.7678C126.533 82.1323 124.401 79.9958 121.771 79.9958C119.142 79.9958 117.01 82.1323 117.01 84.7678C117.01 87.4033 119.142 89.5399 121.771 89.5399Z" fill="#ADAEFE"/>
<path d="M130.107 89.5399C132.737 89.5399 134.869 87.4033 134.869 84.7678C134.869 82.1323 132.737 79.9958 130.107 79.9958C127.478 79.9958 125.346 82.1323 125.346 84.7678C125.346 87.4033 127.478 89.5399 130.107 89.5399Z" fill="white"/>
<path d="M176.404 302.243H117.996V243.512" stroke="#E9E9FF" stroke-width="0.336682" stroke-linecap="round" stroke-linejoin="round"/>
<path d="M132.04 271.258H124.111V299.051H132.04V271.258Z" fill="#E9E9FF"/>
<path d="M146.204 261.652H138.275V299.054H146.204V261.652Z" fill="#E9E9FF"/>
<path d="M160.262 252.582H152.334V299.055H160.262V252.582Z" fill="#E9E9FF"/>
<path d="M174.371 263.324H166.442V299.054H174.371V263.324Z" fill="#E9E9FF"/>
<path d="M128.071 264.287L142.241 255.147L156.295 248.299L170.407 259.981" stroke="#E9E9FF" stroke-width="0.336682" stroke-linecap="round" stroke-linejoin="round"/>
<path d="M169.806 254.442L170.824 260.443L165.844 259.426" stroke="#E9E9FF" stroke-width="0.336682" stroke-linecap="round" stroke-linejoin="round"/>
<path d="M156.643 249.948C157.551 249.948 158.288 249.21 158.288 248.299C158.288 247.389 157.551 246.651 156.643 246.651C155.734 246.651 154.998 247.389 154.998 248.299C154.998 249.21 155.734 249.948 156.643 249.948Z" fill="#ADAEFE"/>
<path d="M142.242 256.799C143.15 256.799 143.886 256.061 143.886 255.151C143.886 254.241 143.15 253.503 142.242 253.503C141.333 253.503 140.597 254.241 140.597 255.151C140.597 256.061 141.333 256.799 142.242 256.799Z" fill="#ADAEFE"/>
<path d="M128.073 265.935C128.981 265.935 129.717 265.197 129.717 264.287C129.717 263.377 128.981 262.638 128.073 262.638C127.164 262.638 126.428 263.377 126.428 264.287C126.428 265.197 127.164 265.935 128.073 265.935Z" fill="#ADAEFE"/>
<path d="M278.742 5.59163L124.383 121.572C112.06 130.831 109.56 148.347 118.799 160.697L173.705 234.091C182.943 246.44 200.422 248.946 212.744 239.687L367.103 123.707C379.425 114.448 381.925 96.9315 372.687 84.5824L317.781 11.1877C308.542 -1.16146 291.064 -3.66691 278.742 5.59163Z" fill="#E9E9FF"/>
<path d="M275.304 33.5312L160.644 119.683C157.55 122.008 156.923 126.406 159.242 129.507L160.96 131.803C163.28 134.904 167.668 135.533 170.763 133.208L285.422 47.0564C288.516 44.7316 289.144 40.3331 286.824 37.2322L285.107 34.9364C282.787 31.8355 278.398 31.2064 275.304 33.5312Z" fill="white"/>
<path d="M318.181 47.2587L222.226 119.356C220.472 120.674 220.116 123.168 221.431 124.926L221.726 125.321C223.042 127.079 225.53 127.435 227.284 126.117L323.239 54.0197C324.993 52.7016 325.349 50.2079 324.034 48.4498L323.739 48.0554C322.424 46.2973 319.935 45.9406 318.181 47.2587Z" fill="white"/>
<path d="M331.186 64.6504L235.231 136.748C233.477 138.066 233.121 140.56 234.436 142.318L234.731 142.712C236.046 144.47 238.535 144.827 240.289 143.509L336.244 71.4114C337.998 70.0933 338.354 67.5996 337.039 65.8415L336.744 65.4471C335.428 63.689 332.94 63.3323 331.186 64.6504Z" fill="white"/>
<path d="M316.434 102.9L248.242 154.137C246.488 155.455 246.132 157.949 247.447 159.707L247.742 160.102C249.057 161.86 251.545 162.216 253.3 160.898L321.491 109.661C323.246 108.343 323.602 105.849 322.286 104.091L321.991 103.697C320.676 101.939 318.188 101.582 316.434 102.9Z" fill="white"/>
<path d="M166.88 194.547C175.96 194.547 183.321 187.17 183.321 178.071C183.321 168.971 175.96 161.594 166.88 161.594C157.8 161.594 150.439 168.971 150.439 178.071C150.439 187.17 157.8 194.547 166.88 194.547Z" fill="#ADAEFE"/>
<path d="M189.925 177.235C199.005 177.235 206.366 169.858 206.366 160.758C206.366 151.658 199.005 144.281 189.925 144.281C180.845 144.281 173.484 151.658 173.484 160.758C173.484 169.858 180.845 177.235 189.925 177.235Z" fill="white"/>
<path d="M458.125 276.592L485.508 320.623L463.444 327.016L436.4 289.68L458.125 276.592Z" fill="#ADAEFE"/>
<path d="M373.118 316.841L368.022 343.982L347.154 340.52L353.153 308.329L373.118 316.841Z" fill="#ADAEFE"/>
<path d="M482.69 302.016L420.581 212.453C423.598 200.001 418.606 142.271 418.606 142.271L386.946 145.899H370.463L332.555 321.039L382.273 325.826L393.214 247.078L446.33 326.6L482.69 302.012V302.016Z" fill="#F555B1"/>
<path d="M404.613 46.4877C404.613 46.4877 410.547 34.3709 407.361 30.8583C404.175 27.3457 390.836 27.573 390.221 29.5757" fill="#27364F"/>
<path d="M393.779 45.5133L396.796 63.3188C396.796 63.3188 402.242 54.7839 406.93 57.0717L404.617 46.4839L400.555 40.7528L393.783 45.5094L393.779 45.5133Z" fill="#ADAEFE"/>
<path d="M400.275 43.938C400.275 43.938 398.588 49.6806 394.933 52.3266L394.318 48.6908L400.275 43.938Z" fill="#7375D6"/>
<path d="M403.951 39.5627C403.056 37.0399 399.958 39.3701 399.958 39.3701C399.958 39.3701 399.259 32.6107 390.22 29.5719C390.104 29.5333 390.054 29.4178 390.012 29.5333C389.482 31.0085 388.298 34.4594 387.406 38.1376C386.423 39.5242 385.116 41.5038 385.473 41.7927C385.723 41.9968 386.173 42.1162 386.588 42.1933C385.958 46.349 386.169 49.9733 388.663 50.4201C394.835 51.5293 400.535 44.1229 400.535 44.1229C400.535 44.1229 405.119 42.8557 403.947 39.5627H403.951Z" fill="#ADAEFE"/>
<path d="M393.652 37.5445C393.829 37.7217 393.814 38.0105 393.618 38.1607C393.118 38.5536 392.18 39.1968 391.504 39.1583C391.431 39.1544 391.354 39.139 391.277 39.1159C390.343 38.8579 389.244 37.4328 389.244 37.4328C389.244 37.4328 390.205 36.6664 391.085 36.4006C391.293 36.339 391.496 36.3043 391.681 36.312C392.357 36.3505 393.206 37.0939 393.656 37.5368L393.652 37.5445Z" fill="white"/>
<path d="M391.968 37.9065C391.941 38.4188 391.668 38.8617 391.272 39.1198C390.338 38.8617 389.239 37.4366 389.239 37.4366C389.239 37.4366 390.2 36.6702 391.08 36.4044C391.634 36.6702 392.002 37.2518 391.968 37.9027V37.9065Z" fill="#27364F"/>
<path d="M401.465 39.3509C401.465 39.3509 403.513 38.4265 403.29 40.722" stroke="#7375D6" stroke-width="0.532508" stroke-linecap="round" stroke-linejoin="round"/>
<path d="M401.343 41.3729C401.343 41.3729 402.557 39.971 402.503 39.4164" stroke="#7375D6" stroke-width="0.532508" stroke-linecap="round" stroke-linejoin="round"/>
<path d="M389.742 67.4246C382.206 81.7483 368.336 122.933 365.415 169.224L421.04 171.781C421.04 171.781 431.697 60.3879 406.379 54.5413C406.379 54.5413 401.068 58.2849 395.549 61.4124C393.078 62.8143 391.068 64.9095 389.742 67.4246Z" fill="#80D3FF"/>
<g opacity="0.42">
<path opacity="0.71" d="M406.196 169.944V54.5258" stroke="white" stroke-width="0.398522" stroke-linecap="round" stroke-linejoin="round"/>
<path d="M385.424 58.7933V169.944" stroke="white" stroke-width="0.398522" stroke-linecap="round" stroke-linejoin="round"/>
<path d="M433.055 86.3816L364.137 90.7146" stroke="white" stroke-width="0.398522" stroke-linecap="round" stroke-linejoin="round"/>
<path d="M430.189 131.729L355.602 132.165" stroke="white" stroke-width="0.398522" stroke-linecap="round" stroke-linejoin="round"/>
</g>
<path d="M367.793 145.999C367.793 145.999 389.172 125.779 397.681 105.374L369.934 130.62" fill="#52A7D4"/>
<path d="M319.446 85.5036L368.418 106.722L382.35 86.3817L401.611 97.8977C401.611 97.8977 381.923 135.342 367.688 131.949C353.453 128.556 314.53 98.0556 314.53 98.0556L319.442 85.5036H319.446Z" fill="#ADAEFE"/>
<path d="M309.428 361.091L366.44 360.336C367.82 360.317 368.973 359.184 369.127 357.809C369.196 357.208 369.415 337.808 369.415 337.808L346.783 338.109C346.783 338.109 343.931 345.103 340.388 346.96C338.539 347.93 335.515 349.432 328.789 351.874C323.336 353.858 322.69 354.362 316.599 356.276C316.461 356.319 316.249 356.376 315.988 356.438C314.412 356.823 310.984 357.613 310.492 358.056C309.485 358.969 309.055 359.997 309.428 361.091Z" fill="#FDBD28"/>
<path d="M358.898 360.156C358.898 356.068 365.128 349.934 369.208 349.934" stroke="white" stroke-width="0.405393" stroke-linecap="round" stroke-linejoin="round"/>
<path d="M346.359 344.048C348.842 344.564 350.556 346.42 350.191 348.196C349.822 349.968 347.512 350.988 345.029 350.472C343.035 350.056 341.774 347.637 341.355 346.698C341.255 346.474 341.309 346.212 341.49 346.047C342.247 345.353 344.368 343.636 346.359 344.048V344.048Z" stroke="white" stroke-width="0.405393" stroke-linecap="round" stroke-linejoin="round"/>
<path d="M337.931 348.134C338.519 349.494 338.603 351.069 338.161 352.486" stroke="white" stroke-width="0.405393" stroke-linecap="round" stroke-linejoin="round"/>
<path d="M335.318 349.205C335.714 350.457 335.76 351.82 335.449 353.095" stroke="white" stroke-width="0.405393" stroke-linecap="round" stroke-linejoin="round"/>
<path d="M440.45 360.94L492.916 338.575C494.188 338.032 494.822 336.549 494.445 335.216C494.28 334.635 484.303 317.85 484.303 317.85L463.439 327.02C463.439 327.02 466.318 333.04 463.746 336.102C462.401 337.7 460.172 340.242 454.877 345.057C450.58 348.966 450.176 349.679 445.261 353.761C445.15 353.854 444.977 353.985 444.758 354.143C443.443 355.098 440.573 357.131 440.284 357.728C439.696 358.957 439.689 360.07 440.45 360.94Z" fill="#FDBD28"/>
<path d="M492.383 342.993C496.462 342.993 499.769 339.678 499.769 335.59C499.769 331.502 496.462 328.187 492.383 328.187C488.303 328.187 484.996 331.502 484.996 335.59C484.996 339.678 488.303 342.993 492.383 342.993Z" stroke="white" stroke-width="0.405393" stroke-linecap="round" stroke-linejoin="round"/>
<path d="M468.178 331.134C470.673 330.668 472.959 331.734 473.294 333.514C473.624 335.293 471.872 337.115 469.377 337.581C467.375 337.955 465.292 336.195 464.547 335.486C464.37 335.316 464.32 335.054 464.424 334.831C464.862 333.903 466.172 331.507 468.175 331.134H468.178Z" stroke="white" stroke-width="0.405393" stroke-linecap="round" stroke-linejoin="round"/>
<path d="M461.926 338.12C462.986 339.156 463.659 340.581 463.786 342.06" stroke="white" stroke-width="0.405393" stroke-linecap="round" stroke-linejoin="round"/>
<path d="M459.912 340.104C460.754 341.113 461.311 342.353 461.503 343.655" stroke="white" stroke-width="0.405393" stroke-linecap="round" stroke-linejoin="round"/>
<path opacity="0.71" d="M382.733 86.3817L392.103 71.1721" stroke="white" stroke-width="0.398522" stroke-linecap="round" stroke-linejoin="round"/>
<path opacity="0.71" d="M401.995 97.8977L412.802 78.7749" stroke="white" stroke-width="0.398522" stroke-linecap="round" stroke-linejoin="round"/>
<path d="M368.804 106.722L374.392 112.102" stroke="#7375D6" stroke-width="0.532508" stroke-linecap="round" stroke-linejoin="round"/>
<path d="M399.92 101.641L382.733 86.3817L401.995 97.8977L399.92 101.641Z" fill="#7375D6"/>
<path d="M350.241 322.745L370.56 330.46L371.624 324.806L350.241 322.745Z" fill="#7375D6"/>
<path d="M355.598 322.745L381.07 169.944" stroke="#E9E9FF" stroke-width="0.388215" stroke-linecap="round" stroke-linejoin="round"/>
<path d="M365.413 169.224L420.934 176.754L421.038 171.781L365.413 169.224Z" fill="#D94A96"/>
<path d="M319.83 85.5035L316.133 82.3183C315.749 81.987 315.265 81.7521 314.73 81.6366L307.033 79.9804C306.94 79.9611 306.848 80.0189 306.852 80.0959C306.871 80.6929 307.286 82.8575 312.182 83.8858L300.165 81.6096C300.165 81.6096 297.536 82.923 300.549 84.737C300.549 84.737 297.044 84.6792 299.569 88.1263C299.569 88.1263 296.975 88.7118 299.781 90.522C299.781 90.522 297.398 92.4516 300.903 93.1526C304.408 93.8535 314.915 98.0594 314.915 98.0594L319.826 85.5073L319.83 85.5035Z" fill="#ADAEFE"/>
<path d="M300.553 84.7332L309.154 86.8361" stroke="#7375D6" stroke-width="0.532508" stroke-linecap="round" stroke-linejoin="round"/>
<path d="M299.572 88.1226L307.908 90.0791" stroke="#7375D6" stroke-width="0.532508" stroke-linecap="round" stroke-linejoin="round"/>
<path d="M299.78 90.5182L307.071 92.6211" stroke="#7375D6" stroke-width="0.532508" stroke-linecap="round" stroke-linejoin="round"/>
<path d="M393.149 247.536L383.453 229.827C381.901 226.989 381.216 223.753 381.489 220.53L385.525 173.071" stroke="#E9E9FF" stroke-width="0.388215" stroke-linecap="round" stroke-linejoin="round"/>
<path d="M420.582 212.457L414.079 204.862" stroke="#D94A96" stroke-width="0.388215" stroke-linecap="round" stroke-linejoin="round"/>
<path d="M463.785 314.799C463.785 314.799 398.064 222.001 399.259 214.937C400.454 207.874 404.14 174.477 404.14 174.477" stroke="#E9E9FF" stroke-width="0.388215" stroke-linecap="round" stroke-linejoin="round"/>
<path d="M383.454 229.824L389.542 273.507L393.15 247.537L383.454 229.824Z" fill="#D94A96"/>
<path d="M476.525 306.184L460.503 322.957L457.617 318.971L476.525 306.184Z" fill="#7375D6"/>
<path d="M102.063 324.437C102.126 324.437 102.178 324.441 102.22 324.448C102.262 324.451 102.298 324.462 102.329 324.479C102.364 324.493 102.397 324.516 102.429 324.547C102.46 324.575 102.495 324.613 102.533 324.662L106.495 329.71C106.482 329.588 106.471 329.47 106.464 329.355C106.461 329.237 106.459 329.127 106.459 329.026V324.437H107.696V331.986H106.971C106.859 331.986 106.767 331.969 106.694 331.934C106.621 331.899 106.549 331.837 106.48 331.746L102.533 326.719C102.544 326.83 102.55 326.942 102.554 327.053C102.561 327.161 102.564 327.26 102.564 327.35V331.986H101.327V324.437H102.063ZM113.15 326.547C113.551 326.547 113.913 326.611 114.236 326.74C114.563 326.868 114.842 327.051 115.071 327.288C115.301 327.525 115.479 327.813 115.604 328.154C115.729 328.496 115.792 328.877 115.792 329.298C115.792 329.722 115.729 330.105 115.604 330.446C115.479 330.787 115.301 331.078 115.071 331.318C114.842 331.558 114.563 331.743 114.236 331.871C113.913 332 113.551 332.065 113.15 332.065C112.75 332.065 112.386 332 112.059 331.871C111.732 331.743 111.452 331.558 111.219 331.318C110.989 331.078 110.81 330.787 110.681 330.446C110.556 330.105 110.493 329.722 110.493 329.298C110.493 328.877 110.556 328.496 110.681 328.154C110.81 327.813 110.989 327.525 111.219 327.288C111.452 327.051 111.732 326.868 112.059 326.74C112.386 326.611 112.75 326.547 113.15 326.547ZM113.15 331.073C113.596 331.073 113.925 330.923 114.137 330.624C114.353 330.324 114.461 329.886 114.461 329.308C114.461 328.73 114.353 328.29 114.137 327.987C113.925 327.685 113.596 327.533 113.15 327.533C112.698 327.533 112.364 327.686 112.148 327.993C111.932 328.295 111.824 328.734 111.824 329.308C111.824 329.882 111.932 330.321 112.148 330.624C112.364 330.923 112.698 331.073 113.15 331.073ZM127.645 324.437V325.591H125.374V331.986H123.97V325.591H121.689V324.437H127.645ZM129.344 331.986V326.63H130.101C130.233 326.63 130.325 326.654 130.377 326.703C130.429 326.752 130.464 326.835 130.482 326.954L130.56 327.601C130.751 327.27 130.976 327.009 131.233 326.818C131.491 326.627 131.78 326.531 132.1 326.531C132.365 326.531 132.584 326.592 132.758 326.714L132.591 327.679C132.58 327.742 132.558 327.787 132.523 327.815C132.488 327.839 132.441 327.852 132.382 327.852C132.33 327.852 132.258 327.839 132.168 327.815C132.077 327.791 131.957 327.779 131.808 327.779C131.54 327.779 131.31 327.853 131.119 328.003C130.927 328.149 130.765 328.365 130.633 328.65V331.986H129.344ZM139.368 331.986H138.788C138.667 331.986 138.571 331.969 138.501 331.934C138.432 331.896 138.379 331.821 138.345 331.71L138.23 331.329C138.094 331.45 137.96 331.558 137.828 331.652C137.699 331.743 137.565 331.819 137.426 331.882C137.287 331.945 137.139 331.992 136.982 332.023C136.825 332.054 136.651 332.07 136.46 332.07C136.234 332.07 136.025 332.04 135.834 331.981C135.642 331.918 135.477 331.826 135.338 331.704C135.202 331.583 135.096 331.431 135.019 331.25C134.943 331.069 134.904 330.859 134.904 330.619C134.904 330.417 134.956 330.218 135.061 330.023C135.169 329.825 135.346 329.648 135.593 329.491C135.84 329.331 136.169 329.199 136.58 329.094C136.991 328.99 137.501 328.931 138.11 328.917V328.603C138.11 328.245 138.033 327.98 137.88 327.81C137.73 327.636 137.511 327.549 137.222 327.549C137.013 327.549 136.839 327.573 136.7 327.622C136.561 327.671 136.439 327.726 136.335 327.789C136.234 327.848 136.14 327.902 136.053 327.951C135.966 328 135.87 328.024 135.766 328.024C135.679 328.024 135.604 328.001 135.541 327.956C135.479 327.911 135.428 327.855 135.39 327.789L135.155 327.377C135.771 326.813 136.514 326.531 137.384 326.531C137.697 326.531 137.976 326.583 138.219 326.687C138.466 326.788 138.675 326.931 138.846 327.116C139.016 327.297 139.145 327.514 139.232 327.768C139.323 328.022 139.368 328.301 139.368 328.603V331.986ZM136.862 331.182C136.994 331.182 137.116 331.17 137.227 331.146C137.339 331.121 137.443 331.085 137.541 331.036C137.642 330.987 137.737 330.928 137.828 330.859C137.922 330.786 138.016 330.7 138.11 330.603V329.7C137.734 329.717 137.419 329.75 137.165 329.799C136.914 329.844 136.712 329.903 136.559 329.976C136.406 330.049 136.296 330.135 136.23 330.232C136.168 330.33 136.136 330.436 136.136 330.551C136.136 330.777 136.202 330.939 136.335 331.036C136.47 331.134 136.646 331.182 136.862 331.182ZM142.353 331.986V326.63H143.142C143.309 326.63 143.418 326.708 143.471 326.865L143.559 327.288C143.667 327.176 143.78 327.076 143.899 326.985C144.021 326.895 144.148 326.816 144.28 326.75C144.416 326.684 144.56 326.634 144.713 326.599C144.866 326.564 145.033 326.547 145.214 326.547C145.507 326.547 145.766 326.597 145.992 326.698C146.218 326.795 146.406 326.935 146.556 327.116C146.709 327.293 146.824 327.507 146.901 327.758C146.981 328.005 147.021 328.278 147.021 328.577V331.986H145.731V328.577C145.731 328.25 145.655 327.998 145.501 327.82C145.352 327.639 145.126 327.549 144.823 327.549C144.6 327.549 144.391 327.599 144.196 327.7C144.001 327.801 143.817 327.939 143.643 328.113V331.986H142.353ZM153.185 327.674C153.15 327.73 153.113 327.77 153.075 327.794C153.037 327.815 152.988 327.826 152.929 327.826C152.866 327.826 152.798 327.808 152.725 327.773C152.656 327.739 152.574 327.7 152.48 327.658C152.386 327.613 152.278 327.573 152.156 327.538C152.038 327.504 151.897 327.486 151.733 327.486C151.479 327.486 151.279 327.54 151.133 327.648C150.987 327.756 150.914 327.897 150.914 328.071C150.914 328.186 150.95 328.283 151.024 328.363C151.1 328.44 151.199 328.508 151.321 328.567C151.446 328.626 151.587 328.68 151.744 328.729C151.901 328.774 152.061 328.824 152.224 328.88C152.388 328.936 152.548 329 152.705 329.073C152.861 329.143 153 329.233 153.122 329.345C153.247 329.453 153.347 329.583 153.42 329.736C153.496 329.889 153.535 330.074 153.535 330.29C153.535 330.547 153.488 330.786 153.394 331.005C153.3 331.221 153.162 331.409 152.981 331.569C152.8 331.725 152.576 331.849 152.308 331.939C152.043 332.026 151.739 332.07 151.394 332.07C151.21 332.07 151.029 332.052 150.851 332.018C150.677 331.986 150.508 331.941 150.345 331.882C150.185 331.823 150.035 331.753 149.896 331.673C149.76 331.593 149.64 331.506 149.536 331.412L149.833 330.921C149.872 330.862 149.917 330.817 149.969 330.786C150.021 330.754 150.087 330.739 150.167 330.739C150.247 330.739 150.322 330.761 150.392 330.806C150.465 330.852 150.548 330.9 150.642 330.953C150.736 331.005 150.846 331.054 150.971 331.099C151.1 331.144 151.262 331.167 151.457 331.167C151.61 331.167 151.74 331.149 151.848 331.114C151.96 331.076 152.05 331.027 152.12 330.968C152.193 330.909 152.245 330.841 152.276 330.765C152.311 330.685 152.329 330.603 152.329 330.519C152.329 330.394 152.29 330.291 152.214 330.211C152.141 330.131 152.042 330.062 151.916 330.003C151.794 329.943 151.653 329.891 151.493 329.846C151.337 329.797 151.175 329.745 151.008 329.689C150.844 329.634 150.682 329.569 150.522 329.496C150.366 329.42 150.225 329.324 150.099 329.209C149.978 329.094 149.878 328.953 149.802 328.786C149.729 328.619 149.692 328.417 149.692 328.181C149.692 327.961 149.736 327.752 149.823 327.554C149.91 327.356 150.037 327.183 150.204 327.037C150.374 326.888 150.585 326.769 150.836 326.682C151.09 326.592 151.382 326.547 151.713 326.547C152.082 326.547 152.417 326.607 152.72 326.729C153.023 326.851 153.275 327.011 153.477 327.21L153.185 327.674ZM160.478 331.986H159.899C159.777 331.986 159.681 331.969 159.612 331.934C159.542 331.896 159.49 331.821 159.455 331.71L159.34 331.329C159.205 331.45 159.071 331.558 158.938 331.652C158.809 331.743 158.675 331.819 158.536 331.882C158.397 331.945 158.249 331.992 158.093 332.023C157.936 332.054 157.762 332.07 157.57 332.07C157.344 332.07 157.135 332.04 156.944 331.981C156.753 331.918 156.587 331.826 156.448 331.704C156.312 331.583 156.206 331.431 156.13 331.25C156.053 331.069 156.015 330.859 156.015 330.619C156.015 330.417 156.067 330.218 156.171 330.023C156.279 329.825 156.457 329.648 156.704 329.491C156.951 329.331 157.28 329.199 157.691 329.094C158.101 328.99 158.611 328.931 159.22 328.917V328.603C159.22 328.245 159.144 327.98 158.99 327.81C158.841 327.636 158.622 327.549 158.333 327.549C158.124 327.549 157.95 327.573 157.811 327.622C157.671 327.671 157.55 327.726 157.445 327.789C157.344 327.848 157.25 327.902 157.163 327.951C157.076 328 156.981 328.024 156.876 328.024C156.789 328.024 156.714 328.001 156.652 327.956C156.589 327.911 156.539 327.855 156.5 327.789L156.265 327.377C156.881 326.813 157.624 326.531 158.495 326.531C158.808 326.531 159.086 326.583 159.33 326.687C159.577 326.788 159.786 326.931 159.956 327.116C160.127 327.297 160.256 327.514 160.343 327.768C160.433 328.022 160.478 328.301 160.478 328.603V331.986ZM157.972 331.182C158.105 331.182 158.227 331.17 158.338 331.146C158.449 331.121 158.554 331.085 158.651 331.036C158.752 330.987 158.848 330.928 158.938 330.859C159.032 330.786 159.126 330.7 159.22 330.603V329.7C158.844 329.717 158.529 329.75 158.275 329.799C158.025 329.844 157.823 329.903 157.67 329.976C157.517 330.049 157.407 330.135 157.341 330.232C157.278 330.33 157.247 330.436 157.247 330.551C157.247 330.777 157.313 330.939 157.445 331.036C157.581 331.134 157.757 331.182 157.972 331.182ZM167.228 327.763C167.19 327.812 167.151 327.85 167.113 327.878C167.078 327.906 167.026 327.92 166.957 327.92C166.89 327.92 166.826 327.9 166.763 327.862C166.701 327.82 166.626 327.775 166.539 327.726C166.452 327.674 166.347 327.629 166.226 327.591C166.107 327.549 165.959 327.528 165.782 327.528C165.556 327.528 165.357 327.57 165.187 327.653C165.016 327.733 164.874 327.85 164.759 328.003C164.647 328.156 164.564 328.342 164.508 328.562C164.452 328.777 164.425 329.023 164.425 329.298C164.425 329.583 164.454 329.837 164.513 330.06C164.576 330.283 164.665 330.471 164.78 330.624C164.894 330.773 165.034 330.888 165.197 330.968C165.361 331.045 165.545 331.083 165.751 331.083C165.956 331.083 166.121 331.059 166.247 331.01C166.375 330.958 166.483 330.902 166.57 330.843C166.657 330.78 166.732 330.725 166.795 330.676C166.861 330.624 166.934 330.598 167.014 330.598C167.118 330.598 167.197 330.638 167.249 330.718L167.62 331.188C167.477 331.355 167.322 331.496 167.155 331.61C166.988 331.722 166.814 331.812 166.633 331.882C166.455 331.948 166.271 331.995 166.079 332.023C165.888 332.051 165.698 332.065 165.51 332.065C165.18 332.065 164.868 332.004 164.576 331.882C164.284 331.757 164.028 331.576 163.809 331.339C163.593 331.102 163.421 330.813 163.292 330.472C163.166 330.128 163.104 329.736 163.104 329.298C163.104 328.904 163.159 328.541 163.271 328.207C163.386 327.869 163.553 327.578 163.772 327.335C163.991 327.088 164.263 326.895 164.586 326.755C164.91 326.616 165.282 326.547 165.704 326.547C166.104 326.547 166.454 326.611 166.753 326.74C167.056 326.868 167.327 327.053 167.567 327.293L167.228 327.763ZM171.917 332.07C171.454 332.07 171.097 331.939 170.847 331.678C170.596 331.414 170.471 331.05 170.471 330.587V327.596H169.928C169.858 327.596 169.797 327.573 169.745 327.528C169.696 327.483 169.672 327.415 169.672 327.324V326.813L170.533 326.672L170.805 325.21C170.819 325.14 170.85 325.087 170.899 325.048C170.951 325.01 171.015 324.991 171.092 324.991H171.76V326.677H173.17V327.596H171.76V330.498C171.76 330.666 171.802 330.796 171.886 330.89C171.969 330.984 172.08 331.031 172.22 331.031C172.3 331.031 172.366 331.022 172.418 331.005C172.474 330.984 172.521 330.963 172.559 330.942C172.601 330.921 172.637 330.902 172.669 330.885C172.7 330.864 172.731 330.853 172.763 330.853C172.801 330.853 172.832 330.864 172.857 330.885C172.881 330.902 172.907 330.93 172.935 330.968L173.321 331.595C173.133 331.751 172.917 331.87 172.674 331.95C172.43 332.03 172.178 332.07 171.917 332.07ZM177.286 326.63V331.986H175.997V326.63H177.286ZM177.479 325.069C177.479 325.18 177.457 325.285 177.411 325.382C177.366 325.48 177.305 325.565 177.229 325.638C177.156 325.711 177.069 325.77 176.968 325.816C176.867 325.857 176.759 325.878 176.644 325.878C176.533 325.878 176.426 325.857 176.325 325.816C176.228 325.77 176.143 325.711 176.07 325.638C175.997 325.565 175.937 325.48 175.892 325.382C175.85 325.285 175.83 325.18 175.83 325.069C175.83 324.954 175.85 324.846 175.892 324.745C175.937 324.645 175.997 324.558 176.07 324.484C176.143 324.411 176.228 324.354 176.325 324.312C176.426 324.267 176.533 324.244 176.644 324.244C176.759 324.244 176.867 324.267 176.968 324.312C177.069 324.354 177.156 324.411 177.229 324.484C177.305 324.558 177.366 324.645 177.411 324.745C177.457 324.846 177.479 324.954 177.479 325.069ZM182.752 326.547C183.152 326.547 183.514 326.611 183.838 326.74C184.165 326.868 184.443 327.051 184.673 327.288C184.903 327.525 185.08 327.813 185.206 328.154C185.331 328.496 185.394 328.877 185.394 329.298C185.394 329.722 185.331 330.105 185.206 330.446C185.08 330.787 184.903 331.078 184.673 331.318C184.443 331.558 184.165 331.743 183.838 331.871C183.514 332 183.152 332.065 182.752 332.065C182.352 332.065 181.988 332 181.661 331.871C181.334 331.743 181.054 331.558 180.82 331.318C180.591 331.078 180.411 330.787 180.283 330.446C180.157 330.105 180.095 329.722 180.095 329.298C180.095 328.877 180.157 328.496 180.283 328.154C180.411 327.813 180.591 327.525 180.82 327.288C181.054 327.051 181.334 326.868 181.661 326.74C181.988 326.611 182.352 326.547 182.752 326.547ZM182.752 331.073C183.197 331.073 183.526 330.923 183.739 330.624C183.954 330.324 184.062 329.886 184.062 329.308C184.062 328.73 183.954 328.29 183.739 327.987C183.526 327.685 183.197 327.533 182.752 327.533C182.3 327.533 181.965 327.686 181.75 327.993C181.534 328.295 181.426 328.734 181.426 329.308C181.426 329.882 181.534 330.321 181.75 330.624C181.965 330.923 182.3 331.073 182.752 331.073ZM188.117 331.986V326.63H188.906C189.073 326.63 189.182 326.708 189.235 326.865L189.323 327.288C189.431 327.176 189.544 327.076 189.663 326.985C189.785 326.895 189.912 326.816 190.044 326.75C190.18 326.684 190.324 326.634 190.477 326.599C190.63 326.564 190.797 326.547 190.978 326.547C191.271 326.547 191.53 326.597 191.756 326.698C191.982 326.795 192.17 326.935 192.32 327.116C192.473 327.293 192.588 327.507 192.664 327.758C192.745 328.005 192.785 328.278 192.785 328.577V331.986H191.495V328.577C191.495 328.25 191.419 327.998 191.265 327.82C191.116 327.639 190.89 327.549 190.587 327.549C190.364 327.549 190.155 327.599 189.96 327.7C189.765 327.801 189.581 327.939 189.407 328.113V331.986H188.117ZM198.949 327.674C198.914 327.73 198.877 327.77 198.839 327.794C198.801 327.815 198.752 327.826 198.693 327.826C198.63 327.826 198.562 327.808 198.489 327.773C198.42 327.739 198.338 327.7 198.244 327.658C198.15 327.613 198.042 327.573 197.92 327.538C197.802 327.504 197.661 327.486 197.497 327.486C197.243 327.486 197.043 327.54 196.897 327.648C196.751 327.756 196.678 327.897 196.678 328.071C196.678 328.186 196.714 328.283 196.787 328.363C196.864 328.44 196.963 328.508 197.085 328.567C197.21 328.626 197.351 328.68 197.508 328.729C197.664 328.774 197.825 328.824 197.988 328.88C198.152 328.936 198.312 329 198.468 329.073C198.625 329.143 198.764 329.233 198.886 329.345C199.011 329.453 199.111 329.583 199.184 329.736C199.26 329.889 199.298 330.074 199.298 330.29C199.298 330.547 199.252 330.786 199.158 331.005C199.064 331.221 198.926 331.409 198.745 331.569C198.564 331.725 198.34 331.849 198.072 331.939C197.807 332.026 197.503 332.07 197.158 332.07C196.974 332.07 196.793 332.052 196.615 332.018C196.441 331.986 196.272 331.941 196.109 331.882C195.949 331.823 195.799 331.753 195.66 331.673C195.524 331.593 195.404 331.506 195.3 331.412L195.597 330.921C195.635 330.862 195.681 330.817 195.733 330.786C195.785 330.754 195.851 330.739 195.931 330.739C196.011 330.739 196.086 330.761 196.156 330.806C196.229 330.852 196.312 330.9 196.406 330.953C196.5 331.005 196.61 331.054 196.735 331.099C196.864 331.144 197.026 331.167 197.221 331.167C197.374 331.167 197.504 331.149 197.612 331.114C197.724 331.076 197.814 331.027 197.884 330.968C197.957 330.909 198.009 330.841 198.04 330.765C198.075 330.685 198.093 330.603 198.093 330.519C198.093 330.394 198.054 330.291 197.978 330.211C197.905 330.131 197.805 330.062 197.68 330.003C197.558 329.943 197.417 329.891 197.257 329.846C197.101 329.797 196.939 329.745 196.772 329.689C196.608 329.634 196.446 329.569 196.286 329.496C196.13 329.42 195.989 329.324 195.863 329.209C195.742 329.094 195.642 328.953 195.566 328.786C195.493 328.619 195.456 328.417 195.456 328.181C195.456 327.961 195.5 327.752 195.587 327.554C195.674 327.356 195.801 327.183 195.968 327.037C196.138 326.888 196.349 326.769 196.599 326.682C196.854 326.592 197.146 326.547 197.477 326.547C197.845 326.547 198.181 326.607 198.484 326.729C198.787 326.851 199.039 327.011 199.241 327.21L198.949 327.674ZM203.862 324.437V327.424C203.862 327.74 203.846 328.052 203.815 328.358C203.783 328.661 203.742 328.983 203.689 329.324H202.818C202.765 328.983 202.724 328.661 202.692 328.358C202.661 328.052 202.645 327.74 202.645 327.424V324.437H203.862ZM202.447 331.276C202.447 331.168 202.466 331.066 202.504 330.968C202.546 330.871 202.602 330.787 202.671 330.718C202.745 330.648 202.83 330.592 202.927 330.551C203.025 330.509 203.129 330.488 203.24 330.488C203.348 330.488 203.451 330.509 203.548 330.551C203.646 330.592 203.729 330.648 203.799 330.718C203.869 330.787 203.924 330.871 203.966 330.968C204.008 331.066 204.029 331.168 204.029 331.276C204.029 331.388 204.008 331.492 203.966 331.59C203.924 331.684 203.869 331.765 203.799 331.835C203.729 331.905 203.646 331.958 203.548 331.997C203.451 332.039 203.348 332.059 203.24 332.059C203.129 332.059 203.025 332.039 202.927 331.997C202.83 331.958 202.745 331.905 202.671 331.835C202.602 331.765 202.546 331.684 202.504 331.59C202.466 331.492 202.447 331.388 202.447 331.276Z" fill="#03060B" fill-opacity="0.5"/>
</g>
<defs>
<clipPath id="clip0_13501_369018">
<rect width="500" height="363" fill="white"/>
</clipPath>
</defs>
</svg>
